<svg width="163" height="162" viewBox="0 0 163 162" fill="none" xmlns="http://www.w3.org/2000/svg">
<path d="M8.99817 115.537L89.7921 68.9211L146.309 101.575L65.562 148.193L8.99817 115.537Z" fill="#E7FAEE"/>
<path d="M112.024 42L121.379 47.401L112.023 52.8032L102.668 47.4013L112.024 42Z" fill="#7CC2FF"/>
<path d="M102.664 47.3149L102.665 64.4021L112.02 69.8034L112.021 52.729L102.664 47.3149Z" fill="#58AFFB"/>
<path d="M112.02 52.7291L112.02 69.8028L121.375 64.4012L121.376 47.3162L112.02 52.7291Z" fill="#3548DB"/>
<path d="M124.333 53.9504L133.687 59.3514L124.331 64.7533L114.977 59.3514L124.333 53.9504Z" fill="#FFC76D"/>
<path d="M114.691 59.281L114.692 71.4485L124.047 76.8498L124.048 64.6954L114.691 59.281Z" fill="#FFBB4E"/>
<path d="M124.333 64.7542L124.332 76.9085L133.688 71.5072L133.689 59.3416L124.333 64.7542Z" fill="#E39E2E"/>
<path d="M136.641 56.0046L145.996 61.4056L136.64 66.8075L127.285 61.4056L136.641 56.0046Z" fill="#EEF0F3"/>
<path d="M127.281 61.394L127.282 78.6138L136.637 84.0148L136.638 66.8078L127.281 61.394Z" fill="#DADDE1"/>
<path d="M136.786 66.5352L136.785 83.7425L146.141 78.3403L146.141 61.1223L136.786 66.5352Z" fill="#CFD2D7"/>
<path d="M148.954 75.7361L158.308 81.1371L148.953 86.5389L139.598 81.1374L148.954 75.7361Z" fill="#3CCD77"/>
<path d="M139.598 81.125L139.598 85.7192L148.953 91.1205L148.954 86.5394L139.598 81.125Z" fill="#2CC068"/>
<path d="M148.95 86.5396L148.949 91.121L158.305 85.7189L158.305 81.1267L148.95 86.5396Z" fill="#22A356"/>
<path d="M74.9492 129.63C74.9492 132.166 70.9777 134.223 66.0785 134.223C61.1797 134.223 57.2082 132.166 57.2082 129.63C57.2082 127.092 61.1797 125.036 66.0785 125.036C70.9777 125.036 74.9492 127.092 74.9492 129.63Z" fill="#88ECAF"/>
<path fill-rule="evenodd" clip-rule="evenodd" d="M128.906 102.134L108.903 90.4395L109.954 88.6412L129.957 100.335L128.906 102.134Z" fill="#22A356"/>
<path d="M81.6368 81.8652L80.6036 83.6734L121.533 107.061L122.566 105.253L81.6368 81.8652Z" fill="#22A356"/>
<path d="M74.1595 86.7833L73.1469 88.6037L113.53 111.068L114.543 109.248L74.1595 86.7833Z" fill="#22A356"/>
<path d="M65.6353 91.096L64.6048 92.9063L104.61 115.679L105.641 113.868L65.6353 91.096Z" fill="#22A356"/>
<path d="M57.9473 95.7166L56.9014 97.518L97.3603 121.009L98.4062 119.208L57.9473 95.7166Z" fill="#22A356"/>
<path d="M50.2594 100.643L49.2083 102.441L89.2146 125.829L90.2656 124.031L50.2594 100.643Z" fill="#22A356"/>
<path d="M42.5239 106.685C43.6852 107.362 44.3181 108.237 44.3356 109.172C44.3525 110.114 43.7423 111.002 42.6141 111.673L31.6154 118.227C31.2863 118.424 30.7443 118.424 30.4074 118.231C30.0699 118.034 30.0673 117.72 30.3944 117.524L41.3938 110.972C42.2 110.49 42.6388 109.853 42.6265 109.179C42.6148 108.51 42.1591 107.881 41.349 107.408C40.5038 106.923 39.4153 106.665 38.2611 106.669C37.1083 106.674 36.0288 106.942 35.2206 107.423L21.249 115.749C20.152 116.403 20.1656 117.459 21.2769 118.107C22.3843 118.743 24.2667 118.735 25.3345 118.098L34.7182 112.508C34.974 112.356 35.1174 112.147 35.1142 111.933C35.109 111.719 34.9623 111.517 34.7013 111.364C34.1522 111.05 33.272 111.053 32.7397 111.371L26.3309 115.189C26.0012 115.386 25.4624 115.388 25.1255 115.194C24.788 114.997 24.7821 114.683 25.1106 114.488L31.5194 110.669C32.7105 109.959 34.6715 109.95 35.8918 110.65C36.4877 110.997 36.8129 111.447 36.8201 111.927C36.8292 112.403 36.5078 112.871 35.9373 113.21L26.5562 118.8C25.7039 119.308 24.5608 119.592 23.3417 119.597C22.1194 119.602 20.9685 119.329 20.0961 118.828C18.2955 117.778 18.2734 116.092 20.0273 115.047L33.999 106.721C35.1252 106.049 36.6338 105.677 38.2436 105.67C39.8534 105.664 41.375 106.023 42.5239 106.685Z" fill="#E84141"/>
<path d="M79.6665 63.9732C78.5407 64.6228 77.9279 65.4624 77.9109 66.3587C77.8942 67.2621 78.4864 68.1144 79.5789 68.7582L90.2384 75.0441C90.5573 75.2328 91.0821 75.2337 91.4091 75.0481C91.7353 74.8595 91.7398 74.5585 91.4212 74.3707L80.7623 68.0852C79.9806 67.6242 79.5547 67.0124 79.5677 66.3654C79.5785 65.7239 80.0192 65.121 80.8059 64.6673C81.6239 64.2018 82.6792 63.9543 83.7979 63.9588C84.9156 63.9637 85.9615 64.2207 86.7445 64.6816L100.285 72.6671C101.348 73.2952 101.335 74.3073 100.257 74.9291C99.1839 75.5392 97.3608 75.5315 96.3248 74.9206L87.2315 69.5583C86.984 69.4127 86.8443 69.2119 86.8479 69.0075C86.8528 68.8017 86.9939 68.609 87.2477 68.4621C87.7796 68.1598 88.6323 68.1624 89.1494 68.4679L95.3589 72.1302C95.6788 72.3189 96.2013 72.3207 96.5283 72.1352C96.8554 71.9465 96.8603 71.6446 96.5418 71.4568L90.3309 67.7945C89.1768 67.1134 87.2764 67.1058 86.094 67.7761C85.5163 68.1103 85.2018 68.5412 85.1937 69.0012C85.1852 69.4581 85.497 69.9064 86.0495 70.2322L95.1415 75.594C95.9681 76.0814 97.0755 76.3532 98.2571 76.3582C99.4413 76.3631 100.556 76.1016 101.401 75.6205C103.146 74.6133 103.167 72.9964 101.468 71.9946L87.9274 64.0082C86.8362 63.3635 85.3757 63.0059 83.8141 63.0001C82.2547 62.9938 80.7798 63.3388 79.6665 63.9732Z" fill="#58AFFB"/>
<path d="M22.673 39.1788L57.8754 19.3776C58.3325 19.1071 58.7609 19.0672 59.1294 19.2158C59.1727 19.2275 59.2147 19.2417 59.2561 19.2582C59.299 19.2699 59.3409 19.2836 59.3828 19.3001C59.4257 19.3128 59.4676 19.3255 59.509 19.3421C59.5519 19.3547 59.5938 19.3679 59.6357 19.3849C59.6786 19.3966 59.7201 19.4098 59.7615 19.4269C59.8044 19.4385 59.8468 19.4522 59.8882 19.4688C59.9311 19.4805 59.9735 19.4941 60.0154 19.5107C60.0583 19.5234 60.0997 19.536 60.1411 19.5526C60.184 19.5653 60.2259 19.5784 60.2679 19.5955C60.3107 19.6072 60.3527 19.6203 60.3941 19.6374C60.437 19.6491 60.4794 19.6632 60.5208 19.6798C60.5637 19.6915 60.6056 19.7051 60.6475 19.7217C60.6904 19.7334 60.7323 19.7471 60.7737 19.7636C60.8166 19.7753 60.8585 19.7895 60.9005 19.8065C60.9433 19.8182 60.9848 19.8314 61.0262 19.8484C61.0691 19.8601 61.1115 19.8743 61.1529 19.8903C61.1958 19.902 61.2377 19.9157 61.2796 19.9322C61.3225 19.9439 61.3644 19.9576 61.4059 19.9742C61.4487 19.9868 61.4907 20 61.5326 20.0171C61.5755 20.0287 61.6174 20.0419 61.6588 20.059C61.7017 20.0707 61.7436 20.0848 61.7855 20.1014C61.8284 20.1131 61.8698 20.1267 61.9112 20.1433C61.9546 20.155 61.997 20.1686 62.038 20.1852C62.0809 20.1979 62.1228 20.211 62.1642 20.2281C62.2076 20.2398 62.2495 20.2529 62.2909 20.27C62.3338 20.2817 62.3757 20.2953 62.4176 20.3119C62.4605 20.3236 62.5029 20.3372 62.5438 20.3538C62.5872 20.3655 62.6291 20.3792 62.6706 20.3957C62.7134 20.4074 62.7554 20.4216 62.7968 20.4386C62.8402 20.4503 62.8821 20.4635 62.9235 20.4805C63.7442 20.7062 64.3086 21.8315 64.3086 23.5227V55.5352C64.3086 57.9248 63.1842 60.5292 61.7957 61.3514L56.7905 64.318V74.1111L56.6643 73.9975V74.0682L56.5376 73.9551V74.0263L56.4118 73.9127V73.9844L56.2846 73.8708V73.9425L56.1589 73.8289V73.9006L56.0322 73.787V73.8586L55.9055 73.7441V73.8158L55.7792 73.7022V73.7738L55.6525 73.6603V73.7314L55.5263 73.6184V73.6895L55.3996 73.576V73.6476L55.2738 73.5336V73.6047L55.1471 73.4912V73.5628L55.0204 73.4493V73.5209L54.8942 73.4073V73.479L54.7675 73.3654V73.4361L54.6412 73.3225V73.3942L54.5145 73.2806V73.3523L54.3878 73.2387V73.3099L54.2621 73.1963V73.268L54.1349 73.1544V73.226L54.0091 73.1125V73.1832L53.8824 73.0696V73.1412L53.7557 73.0277V73.0993L53.6295 72.9858V73.0574L53.5027 72.9439V73.0155L53.3765 72.901V72.9726L53.2498 72.8591V72.9307L53.1241 72.8171V72.8888L52.9974 72.7752V72.8464L52.8701 72.7328V72.8045L48.7378 69.0908L25.7176 81.1521C25.2605 81.4235 24.833 81.463 24.4636 81.3144C24.4207 81.3017 24.3788 81.2885 24.3369 81.2715C24.294 81.2598 24.2526 81.2461 24.2112 81.2295C21.6925 80.2183 20.1602 80.2612 20.1602 77.0075V44.9945C20.1602 42.6049 21.2855 40.0009 22.673 39.1788Z" fill="#22A356"/>
<path d="M25.7176 40.4854L61.7957 20.6843C63.1842 19.8621 64.3086 21.1327 64.3086 23.5227V55.5352C64.3086 57.9248 63.1842 60.5293 61.7957 61.3514L56.791 64.318V74.1111L50.2242 68.2091L25.7176 81.1521C24.3301 81.9748 23.2052 80.7042 23.2052 78.3146V46.3011C23.2052 43.9116 24.3301 41.3076 25.7176 40.4854Z" fill="#2CC068"/>
<path d="M50.1775 48.6924C50.1775 50.7019 51.1234 51.7702 52.2907 51.0793C53.4565 50.3876 54.4023 48.198 54.4023 46.1885C54.4023 44.179 53.4565 43.1107 52.2907 43.8023C51.1234 44.4932 50.1775 46.6836 50.1775 48.6924Z" fill="white"/>
<path d="M42.3611 53.3284C42.3611 55.3379 43.3069 56.4054 44.4727 55.7138C45.6401 55.0229 46.5859 52.8325 46.5859 50.823C46.5859 48.8142 45.6401 47.7459 44.4727 48.4376C43.3069 49.1293 42.3611 51.3189 42.3611 53.3284Z" fill="white"/>
<path d="M34.5353 57.9629C34.5353 59.9724 35.4812 61.0407 36.6485 60.3498C37.8158 59.6581 38.7617 57.4685 38.7617 55.459C38.7617 53.4495 37.8158 52.3812 36.6485 53.0729C35.4812 53.7637 34.5353 55.9542 34.5353 57.9629Z" fill="white"/>
<g opacity="0.3">
<path d="M13.1557 66.9153C13.1557 67.6264 13.7323 68.2029 14.4433 68.2029C15.1544 68.2029 15.7305 67.6264 15.7305 66.9153C15.7305 66.2042 15.1544 65.6282 14.4433 65.6282C13.7323 65.6282 13.1557 66.2042 13.1557 66.9153Z" fill="#EABD70"/>
</g>
</svg>
