<svg width="20" height="20" viewBox="0 0 20 20" fill="none" xmlns="http://www.w3.org/2000/svg">
<path fill-rule="evenodd" clip-rule="evenodd" d="M6.36633 2.82947H13.631C15.7956 2.82947 17.1692 4.30491 17.1692 6.57765V13.4224C17.1692 15.6951 15.7956 17.1706 13.631 17.1706H6.36633C4.20177 17.1706 2.82812 15.6951 2.82812 13.4224V6.57765C2.82812 4.30792 4.20636 2.82947 6.36633 2.82947ZM6.98756 8.52704C6.94906 8.24326 6.70581 8.02454 6.41147 8.02454C6.09038 8.02454 5.83008 8.28484 5.83008 8.60593V13.9239L5.83539 14.0028C5.87388 14.2865 6.11714 14.5053 6.41147 14.5053C6.73257 14.5053 6.99287 14.245 6.99287 13.9239V8.60593L6.98756 8.52704ZM10.0287 5.47986C10.323 5.47986 10.5663 5.69858 10.6047 5.98236L10.6101 6.06125V13.9238C10.6101 14.2449 10.3498 14.5052 10.0287 14.5052C9.73432 14.5052 9.49107 14.2865 9.45257 14.0027L9.44727 13.9238V6.06125C9.44727 5.74016 9.70757 5.47986 10.0287 5.47986ZM14.1633 11.3372C14.1248 11.0534 13.8816 10.8347 13.5873 10.8347C13.2662 10.8347 13.0059 11.095 13.0059 11.4161V13.9239L13.0112 14.0028C13.0497 14.2865 13.2929 14.5053 13.5873 14.5053C13.9083 14.5053 14.1686 14.245 14.1686 13.9239V11.4161L14.1633 11.3372Z" fill="currentColor"/>
</svg>
