<svg width="48" height="48" viewBox="0 0 48 48" fill="none" xmlns="http://www.w3.org/2000/svg">
<path fill-rule="evenodd" clip-rule="evenodd" d="M37.125 13.5C39.405 13.5 41.25 11.652 41.25 9.375C41.25 7.095 39.404 5.25 37.125 5.25C34.845 5.25 33 7.096 33 9.375C33 11.652 34.846 13.5 37.125 13.5ZM44.25 22.088C44.25 18.173 41.06 15 37.126 15C33.19 15 30 18.173 30 22.088V25.125H33.055L34.07 35.25H40.18L41.196 25.125H44.25V22.088ZM10.875 13.5C13.155 13.5 15 11.652 15 9.375C15 7.095 13.154 5.25 10.875 5.25C8.598 5.25 6.75 7.096 6.75 9.375C6.75 11.652 8.598 13.5 10.875 13.5ZM18 22.088C18 18.173 14.81 15 10.875 15C6.941 15 3.75 18.173 3.75 22.088V25.125H6.804L7.822 35.25H13.929L14.946 25.125H18V22.088Z" stroke="#27A870" stroke-width="1.8"/>
<path fill-rule="evenodd" clip-rule="evenodd" d="M24.374 21C26.654 21 28.5 19.152 28.5 16.875C28.5 14.595 26.654 12.75 24.374 12.75C22.094 12.75 20.25 14.596 20.25 16.875C20.25 19.152 22.095 21 24.374 21Z" stroke="#FFC400" stroke-width="1.8"/>
<path fill-rule="evenodd" clip-rule="evenodd" d="M31.5 29.588C31.5 25.673 28.31 22.5 24.374 22.5C20.44 22.5 17.25 25.673 17.25 29.588V32.625H20.305L21.32 42.75H27.428L28.444 32.625H31.499V29.588H31.5Z" fill="white" stroke="#979797" stroke-width="1.8"/>
<path fill-rule="evenodd" clip-rule="evenodd" d="M31.5 29.588C31.5 25.673 28.31 22.5 24.374 22.5C20.44 22.5 17.25 25.673 17.25 29.588V32.625H20.305L21.32 42.75H27.428L28.444 32.625H31.499V29.588H31.5Z" stroke="#FF7408" stroke-width="1.8"/>
</svg>
