<svg width="48" height="48" viewBox="0 0 48 48" fill="none" xmlns="http://www.w3.org/2000/svg">
<g clip-path="url(#c-clip0)">
<g filter="url(#filter0_d)">
<path fill-rule="evenodd" clip-rule="evenodd" d="M37.125 13.5C39.405 13.5 41.25 11.652 41.25 9.375C41.25 7.095 39.404 5.25 37.125 5.25C34.845 5.25 33 7.096 33 9.375C33 11.652 34.846 13.5 37.125 13.5ZM44.25 22.088C44.25 18.173 41.06 15 37.126 15C33.19 15 30 18.173 30 22.088V23.5211C30 24.4069 30.7181 25.125 31.6039 25.125C32.4277 25.125 33.1176 25.7492 33.1997 26.5689L33.7653 32.2101C33.9383 33.9359 35.3907 35.25 37.1251 35.25C38.8595 35.25 40.3118 33.9361 40.485 32.2104L41.0512 26.5683C41.1334 25.7489 41.823 25.125 42.6466 25.125C43.5321 25.125 44.25 24.4071 44.25 23.5216V22.088ZM10.875 13.5C13.155 13.5 15 11.652 15 9.375C15 7.095 13.154 5.25 10.875 5.25C8.598 5.25 6.75 7.096 6.75 9.375C6.75 11.652 8.598 13.5 10.875 13.5ZM18 22.088C18 18.173 14.81 15 10.875 15C6.941 15 3.75 18.173 3.75 22.088V23.5214C3.75 24.4071 4.46794 25.125 5.35357 25.125C6.17708 25.125 6.86672 25.7488 6.9491 26.5682L7.51655 32.212C7.68997 33.9369 9.14175 35.25 10.8753 35.25C12.6091 35.25 14.0609 33.9367 14.2342 32.2116L14.801 26.5682C14.8833 25.7488 15.573 25.125 16.3965 25.125C17.2821 25.125 18 24.4071 18 23.5215V22.088Z" fill="#5BCC85"/>
</g>
<g filter="url(#filter1_d)">
<path fill-rule="evenodd" clip-rule="evenodd" d="M24.374 21C26.654 21 28.5 19.152 28.5 16.875C28.5 14.595 26.654 12.75 24.374 12.75C22.094 12.75 20.25 14.596 20.25 16.875C20.25 19.152 22.095 21 24.374 21Z" fill="#2CC068"/>
</g>
<g filter="url(#filter2_d)">
<path fill-rule="evenodd" clip-rule="evenodd" d="M31.2495 30.088C31.2498 30.088 31.25 30.0878 31.25 30.0875C31.2497 26.1727 28.0598 23 24.124 23C20.19 23 17 26.173 17 30.088V31.5211C17 32.4069 17.7181 33.125 18.6039 33.125C19.4277 33.125 20.1176 33.7492 20.1997 34.5689L20.7654 40.2111C20.9383 41.9364 22.3902 43.25 24.1241 43.25C25.8579 43.25 27.3098 41.9365 27.4829 40.2114L28.0491 34.5688C28.1314 33.7491 28.8212 33.125 29.6451 33.125H29.7305C30.5691 33.125 31.249 32.4451 31.249 31.6065V30.0885C31.249 30.0882 31.2492 30.088 31.2495 30.088Z" fill="#2CC068"/>
</g>
</g>
<defs>
<filter id="filter0_d" x="-26.25" y="5.25" width="100.5" height="94" filterUnits="userSpaceOnUse" color-interpolation-filters="sRGB">
<feFlood flood-opacity="0" result="BackgroundImageFix"/>
<feColorMatrix in="SourceAlpha" type="matrix" values="0 0 0 0 0 0 0 0 0 0 0 0 0 0 0 0 0 0 127 0"/>
<feOffset dy="34"/>
<feGaussianBlur stdDeviation="15"/>
<feColorMatrix type="matrix" values="0 0 0 0 0.188235 0 0 0 0 0.631373 0 0 0 0 0.0784314 0 0 0 0.08 0"/>
<feBlend mode="normal" in2="BackgroundImageFix" result="effect1_dropShadow"/>
<feBlend mode="normal" in="SourceGraphic" in2="effect1_dropShadow" result="shape"/>
</filter>
<filter id="filter1_d" x="-9.75" y="12.75" width="68.25" height="72.25" filterUnits="userSpaceOnUse" color-interpolation-filters="sRGB">
<feFlood flood-opacity="0" result="BackgroundImageFix"/>
<feColorMatrix in="SourceAlpha" type="matrix" values="0 0 0 0 0 0 0 0 0 0 0 0 0 0 0 0 0 0 127 0"/>
<feOffset dy="34"/>
<feGaussianBlur stdDeviation="15"/>
<feColorMatrix type="matrix" values="0 0 0 0 0.188235 0 0 0 0 0.631373 0 0 0 0 0.0784314 0 0 0 0.08 0"/>
<feBlend mode="normal" in2="BackgroundImageFix" result="effect1_dropShadow"/>
<feBlend mode="normal" in="SourceGraphic" in2="effect1_dropShadow" result="shape"/>
</filter>
<filter id="filter2_d" x="-13" y="23" width="74.25" height="84.25" filterUnits="userSpaceOnUse" color-interpolation-filters="sRGB">
<feFlood flood-opacity="0" result="BackgroundImageFix"/>
<feColorMatrix in="SourceAlpha" type="matrix" values="0 0 0 0 0 0 0 0 0 0 0 0 0 0 0 0 0 0 127 0"/>
<feOffset dy="34"/>
<feGaussianBlur stdDeviation="15"/>
<feColorMatrix type="matrix" values="0 0 0 0 0.188235 0 0 0 0 0.631373 0 0 0 0 0.0784314 0 0 0 0.08 0"/>
<feBlend mode="normal" in2="BackgroundImageFix" result="effect1_dropShadow"/>
<feBlend mode="normal" in="SourceGraphic" in2="effect1_dropShadow" result="shape"/>
</filter>
<clipPath id="c-clip0">
<rect width="48" height="48" fill="white"/>
</clipPath>
</defs>
</svg>
