<svg width="546" height="535" viewBox="0 0 546 535" fill="none" xmlns="http://www.w3.org/2000/svg">
<mask id="path-1-inside-1" fill="white">
<path fill-rule="evenodd" clip-rule="evenodd" d="M22.1484 33.7037H545.91V488.956H22.1484V33.7037ZM23.5074 487.775H54.8019V460.574H23.5074V487.775ZM54.8019 34.885H23.5074V62.086H54.8019V34.885ZM513.27 90.4571H544.564V63.2561H513.27V90.4571ZM513.27 118.839H544.564V91.6383H513.27V118.839ZM513.27 147.222H544.564V120.021H513.27V147.222ZM513.27 175.604H544.564V148.403H513.27V175.604ZM513.27 203.975H544.564V176.774H513.27V203.975ZM513.27 232.357H544.564V205.156H513.27V232.357ZM513.27 260.74H544.564V233.538H513.27V260.74ZM513.27 289.122H544.564V261.921H513.27V289.122ZM513.27 317.504H544.564V290.303H513.27V317.504ZM513.27 345.875H544.564V318.674H513.27V345.875ZM513.27 374.257H544.564V347.056H513.27V374.257ZM513.27 402.64H544.564V375.439H513.27V402.64ZM513.27 431.022H544.564V403.821H513.27V431.022ZM513.27 459.393H544.564V432.192H513.27V459.393ZM480.616 459.393H511.911V432.192H480.616V459.393ZM480.616 487.775H511.911V460.574H480.616V487.775ZM447.963 487.775H479.257V460.574H447.963V487.775ZM415.309 487.775H446.617V460.574H415.309V487.775ZM382.669 487.775H413.963V460.574H382.669V487.775ZM350.015 487.775H381.31V460.574H350.015V487.775ZM317.362 487.775H348.657V460.574H317.362V487.775ZM284.709 487.775H316.003V460.574H284.709V487.775ZM252.068 487.775H283.363V460.574H252.068V487.775ZM219.415 487.775H250.709V460.574H219.415V487.775ZM186.761 487.775H218.056V460.574H186.761V487.775ZM154.108 487.775H185.403V460.574H154.108V487.775ZM121.468 487.775H152.762V460.574H121.468V487.775ZM88.8141 487.775H120.109V460.574H88.8141V487.775ZM87.4552 460.574H56.1608V487.775H87.4552V460.574ZM56.1608 459.393H87.4552V432.192H56.1608V459.393ZM54.8019 432.192H23.5074V459.393H54.8019V432.192ZM54.8019 403.821H23.5074V431.022H54.8019V403.821ZM54.8019 375.439H23.5074V402.64H54.8019V375.439ZM54.8019 347.056H23.5074V374.257H54.8019V347.056ZM54.8019 318.674H23.5074V345.875H54.8019V318.674ZM54.8019 290.303H23.5074V317.504H54.8019V290.303ZM54.8019 261.921H23.5074V289.122H54.8019V261.921ZM54.8019 233.538H23.5074V260.74H54.8019V233.538ZM54.8019 205.156H23.5074V232.357H54.8019V205.156ZM54.8019 176.785H23.5074V203.986H54.8019V176.785ZM54.8019 148.403H23.5074V175.604H54.8019V148.403ZM54.8019 120.021H23.5074V147.222H54.8019V120.021ZM54.8019 91.6383H23.5074V118.839H54.8019V91.6383ZM54.8019 63.2561H23.5074V90.4571H54.8019V63.2561ZM87.4552 63.2561H56.1608V90.4571H87.4552V63.2561ZM87.4552 34.885H56.1608V62.086H87.4552V34.885ZM120.109 34.885H88.8141V62.086H120.109V34.885ZM152.762 34.885H121.468V62.086H152.762V34.885ZM185.403 34.885H154.108V62.086H185.403V34.885ZM218.056 34.885H186.761V62.086H218.056V34.885ZM250.709 34.885H219.415V62.086H250.709V34.885ZM283.363 34.885H252.055V62.086H283.363V34.885ZM316.003 34.885H284.709V62.086H316.003V34.885ZM348.657 34.885H317.362V62.086H348.657V34.885ZM381.31 34.885H350.015V62.086H381.31V34.885ZM413.963 34.885H382.669V62.086H413.963V34.885ZM446.617 34.885H415.309V62.086H446.617V34.885ZM479.257 34.885H447.963V62.086H479.257V34.885ZM480.616 62.086H511.911V34.885H480.616V62.086ZM480.616 90.4571H511.911V63.2561H480.616V90.4571ZM480.616 118.839H511.911V91.6383H480.616V118.839ZM480.616 147.222H511.911V120.021H480.616V147.222ZM480.616 175.604H511.911V148.403H480.616V175.604ZM480.616 203.975H511.911V176.774H480.616V203.975ZM480.616 232.357H511.911V205.156H480.616V232.357ZM480.616 260.74H511.911V233.538H480.616V260.74ZM480.616 289.122H511.911V261.921H480.616V289.122ZM480.616 317.504H511.911V290.303H480.616V317.504ZM480.616 345.875H511.911V318.674H480.616V345.875ZM480.616 374.257H511.911V347.056H480.616V374.257ZM480.616 402.64H511.911V375.439H480.616V402.64ZM480.616 431.022H511.911V403.821H480.616V431.022ZM447.963 431.022H479.257V403.821H447.963V431.022ZM447.963 459.393H479.257V432.192H447.963V459.393ZM415.309 459.393H446.617V432.192H415.309V459.393ZM382.669 459.393H413.963V432.192H382.669V459.393ZM350.015 459.393H381.31V432.192H350.015V459.393ZM317.362 459.393H348.657V432.192H317.362V459.393ZM284.709 459.393H316.003V432.192H284.709V459.393ZM252.068 459.393H283.363V432.192H252.068V459.393ZM219.415 459.393H250.709V432.192H219.415V459.393ZM186.761 459.393H218.056V432.192H186.761V459.393ZM154.108 459.393H185.403V432.192H154.108V459.393ZM121.468 459.393H152.762V432.192H121.468V459.393ZM120.109 432.192H88.8141V459.393H120.109V432.192ZM88.8141 431.022H120.109V403.821H88.8141V431.022ZM87.4552 403.821H56.1608V431.022H87.4552V403.821ZM87.4552 375.439H56.1608V402.64H87.4552V375.439ZM87.4552 347.056H56.1608V374.257H87.4552V347.056ZM87.4552 318.674H56.1608V345.875H87.4552V318.674ZM87.4552 290.303H56.1608V317.504H87.4552V290.303ZM87.4552 261.921H56.1608V289.122H87.4552V261.921ZM87.4552 233.538H56.1608V260.74H87.4552V233.538ZM87.4552 205.156H56.1608V232.357H87.4552V205.156ZM87.4552 176.785H56.1608V203.986H87.4552V176.785ZM87.4552 148.403H56.1608V175.604H87.4552V148.403ZM87.4552 120.021H56.1608V147.222H87.4552V120.021ZM87.4552 91.6383H56.1608V118.839H87.4552V91.6383ZM120.109 91.6383H88.8141V118.839H120.109V91.6383ZM120.109 63.2561H88.8141V90.4571H120.109V63.2561ZM152.762 63.2561H121.468V90.4571H152.762V63.2561ZM185.403 63.2561H154.108V90.4571H185.403V63.2561ZM218.056 63.2561H186.761V90.4571H218.056V63.2561ZM250.709 63.2561H219.415V90.4571H250.709V63.2561ZM283.363 63.2561H252.055V90.4571H283.363V63.2561ZM316.003 63.2561H284.709V90.4571H316.003V63.2561ZM348.657 63.2561H317.362V90.4571H348.657V63.2561ZM381.31 63.2561H350.015V90.4571H381.31V63.2561ZM413.963 63.2561H382.669V90.4571H413.963V63.2561ZM446.617 63.2561H415.309V90.4571H446.617V63.2561ZM447.963 90.4571H479.257V63.2561H447.963V90.4571ZM447.963 118.839H479.257V91.6383H447.963V118.839ZM447.963 147.222H479.257V120.021H447.963V147.222ZM447.963 175.604H479.257V148.403H447.963V175.604ZM447.963 203.975H479.257V176.774H447.963V203.975ZM447.963 232.357H479.257V205.156H447.963V232.357ZM447.963 260.74H479.257V233.538H447.963V260.74ZM447.963 289.122H479.257V261.921H447.963V289.122ZM447.963 317.504H479.257V290.303H447.963V317.504ZM447.963 345.875H479.257V318.674H447.963V345.875ZM447.963 374.257H479.257V347.056H447.963V374.257ZM447.963 402.64H479.257V375.439H447.963V402.64ZM415.309 402.64H446.617V375.439H415.309V402.64ZM415.309 431.022H446.617V403.821H415.309V431.022ZM382.669 431.022H413.963V403.821H382.669V431.022ZM350.015 431.022H381.31V403.821H350.015V431.022ZM317.362 431.022H348.657V403.821H317.362V431.022ZM284.709 431.022H316.003V403.821H284.709V431.022ZM252.068 431.022H283.363V403.821H252.068V431.022ZM219.415 431.022H250.709V403.821H219.415V431.022ZM186.761 431.022H218.056V403.821H186.761V431.022ZM154.108 431.022H185.403V403.821H154.108V431.022ZM152.762 403.821H121.468V431.022H152.762V403.821ZM121.468 402.64H152.762V375.439H121.468V402.64ZM120.109 375.439H88.8141V402.64H120.109V375.439ZM120.109 347.056H88.8141V374.257H120.109V347.056ZM120.109 318.674H88.8141V345.875H120.109V318.674ZM120.109 290.303H88.8141V317.504H120.109V290.303ZM120.109 261.921H88.8141V289.122H120.109V261.921ZM120.109 233.538H88.8141V260.74H120.109V233.538ZM120.109 205.156H88.8141V232.357H120.109V205.156ZM120.109 176.785H88.8141V203.986H120.109V176.785ZM120.109 148.403H88.8141V175.604H120.109V148.403ZM120.109 120.021H88.8141V147.222H120.109V120.021ZM152.762 120.021H121.468V147.222H152.762V120.021ZM152.762 91.6383H121.468V118.839H152.762V91.6383ZM185.403 91.6383H154.108V118.839H185.403V91.6383ZM218.056 91.6383H186.761V118.839H218.056V91.6383ZM250.709 91.6383H219.415V118.839H250.709V91.6383ZM283.363 91.6383H252.055V118.839H283.363V91.6383ZM316.003 91.6383H284.709V118.839H316.003V91.6383ZM348.657 91.6383H317.362V118.839H348.657V91.6383ZM381.31 91.6383H350.015V118.839H381.31V91.6383ZM413.963 91.6383H382.669V118.839H413.963V91.6383ZM415.309 118.839H446.617V91.6383H415.309V118.839ZM415.309 147.222H446.617V120.021H415.309V147.222ZM415.309 175.604H446.617V148.403H415.309V175.604ZM415.309 203.975H446.617V176.774H415.309V203.975ZM415.309 232.357H446.617V205.156H415.309V232.357ZM415.309 260.74H446.617V233.538H415.309V260.74ZM415.309 289.122H446.617V261.921H415.309V289.122ZM415.309 317.504H446.617V290.303H415.309V317.504ZM415.309 345.875H446.617V318.674H415.309V345.875ZM415.309 374.257H446.617V347.056H415.309V374.257ZM382.669 374.257H413.963V347.056H382.669V374.257ZM382.669 402.64H413.963V375.439H382.669V402.64ZM350.015 402.64H381.31V375.439H350.015V402.64ZM317.362 402.64H348.657V375.439H317.362V402.64ZM284.709 402.64H316.003V375.439H284.709V402.64ZM252.068 402.64H283.363V375.439H252.068V402.64ZM219.415 402.64H250.709V375.439H219.415V402.64ZM186.761 402.64H218.056V375.439H186.761V402.64ZM185.403 375.439H154.108V402.64H185.403V375.439ZM154.108 374.257H185.403V347.056H154.108V374.257ZM152.762 347.056H121.468V374.257H152.762V347.056ZM152.762 318.674H121.468V345.875H152.762V318.674ZM152.762 290.303H121.468V317.504H152.762V290.303ZM152.762 261.921H121.468V289.122H152.762V261.921ZM152.762 233.538H121.468V260.74H152.762V233.538ZM152.762 205.156H121.468V232.357H152.762V205.156ZM152.762 176.785H121.468V203.986H152.762V176.785ZM152.762 148.403H121.468V175.604H152.762V148.403ZM185.403 148.403H154.108V175.604H185.403V148.403ZM185.403 120.021H154.108V147.222H185.403V120.021ZM218.056 120.021H186.761V147.222H218.056V120.021ZM250.709 120.021H219.415V147.222H250.709V120.021ZM283.363 120.021H252.055V147.222H283.363V120.021ZM316.003 120.021H284.709V147.222H316.003V120.021ZM348.657 120.021H317.362V147.222H348.657V120.021ZM381.31 120.021H350.015V147.222H381.31V120.021ZM382.669 147.222H413.963V120.021H382.669V147.222ZM382.669 175.604H413.963V148.403H382.669V175.604ZM382.669 203.975H413.963V176.774H382.669V203.975ZM382.669 232.357H413.963V205.156H382.669V232.357ZM382.669 260.74H413.963V233.538H382.669V260.74ZM382.669 289.122H413.963V261.921H382.669V289.122ZM382.669 317.504H413.963V290.303H382.669V317.504ZM382.669 345.875H413.963V318.674H382.669V345.875ZM350.015 345.875H381.31V318.674H350.015V345.875ZM350.015 374.257H381.31V347.056H350.015V374.257ZM317.362 374.257H348.657V347.056H317.362V374.257ZM284.709 374.257H316.003V347.056H284.709V374.257ZM252.068 374.257H283.363V347.056H252.068V374.257ZM219.415 374.257H250.709V347.056H219.415V374.257ZM218.056 347.056H186.761V374.257H218.056V347.056ZM186.761 345.875H218.056V318.674H186.761V345.875ZM185.403 318.674H154.108V345.875H185.403V318.674ZM185.403 290.303H154.108V317.504H185.403V290.303ZM185.403 261.921H154.108V289.122H185.403V261.921ZM185.403 233.538H154.108V260.74H185.403V233.538ZM185.403 205.156H154.108V232.357H185.403V205.156ZM185.403 176.785H154.108V203.986H185.403V176.785ZM218.056 176.785H186.761V203.986H218.056V176.785ZM218.056 148.403H186.761V175.604H218.056V148.403ZM250.709 148.403H219.415V175.604H250.709V148.403ZM283.363 148.403H252.055V175.604H283.363V148.403ZM316.003 148.403H284.709V175.604H316.003V148.403ZM348.657 148.403H317.362V175.604H348.657V148.403ZM350.015 175.604H381.31V148.403H350.015V175.604ZM350.015 203.975H381.31V176.774H350.015V203.975ZM350.015 232.357H381.31V205.156H350.015V232.357ZM350.015 260.74H381.31V233.538H350.015V260.74ZM350.015 289.122H381.31V261.921H350.015V289.122ZM350.015 317.504H381.31V290.303H350.015V317.504ZM317.362 317.504H348.657V290.303H317.362V317.504ZM317.362 345.875H348.657V318.674H317.362V345.875ZM284.709 345.875H316.003V318.674H284.709V345.875ZM252.068 345.875H283.363V318.674H252.068V345.875ZM250.709 318.674H219.415V345.875H250.709V318.674ZM219.415 317.504H250.709V290.303H219.415V317.504ZM218.056 290.303H186.761V317.504H218.056V290.303ZM218.056 261.921H186.761V289.122H218.056V261.921ZM218.056 233.538H186.761V260.74H218.056V233.538ZM218.056 205.156H186.761V232.357H218.056V205.156ZM250.709 205.156H219.415V232.357H250.709V205.156ZM250.709 176.785H219.415V203.986H250.709V176.785ZM283.363 176.785H252.055V203.986H283.363V176.785ZM316.003 176.785H284.709V203.986H316.003V176.785ZM317.362 203.975H348.657V176.774H317.362V203.975ZM317.362 232.357H348.657V205.156H317.362V232.357ZM317.362 260.74H348.657V233.538H317.362V260.74ZM317.362 289.122H348.657V261.921H317.362V289.122ZM284.709 289.122H316.003V261.921H284.709V289.122ZM284.709 317.504H316.003V290.303H284.709V317.504ZM283.363 290.303H252.055V317.504H283.363V290.303ZM252.068 289.122H283.363V261.921H252.068V289.122ZM250.709 261.921H219.415V289.122H250.709V261.921ZM250.709 233.538H219.415V260.74H250.709V233.538ZM283.363 233.538H252.055V260.74H283.363V233.538ZM283.363 205.156H252.055V232.357H283.363V205.156ZM316.003 233.538H284.709V260.74H316.003V233.538ZM284.709 232.357H316.003V205.156H284.709V232.357ZM544.564 34.885H513.27V62.086H544.564V34.885ZM513.27 487.775H544.564V460.574H513.27V487.775Z"/>
</mask>
<path fill-rule="evenodd" clip-rule="evenodd" d="M22.1484 33.7037H545.91V488.956H22.1484V33.7037ZM23.5074 487.775H54.8019V460.574H23.5074V487.775ZM54.8019 34.885H23.5074V62.086H54.8019V34.885ZM513.27 90.4571H544.564V63.2561H513.27V90.4571ZM513.27 118.839H544.564V91.6383H513.27V118.839ZM513.27 147.222H544.564V120.021H513.27V147.222ZM513.27 175.604H544.564V148.403H513.27V175.604ZM513.27 203.975H544.564V176.774H513.27V203.975ZM513.27 232.357H544.564V205.156H513.27V232.357ZM513.27 260.74H544.564V233.538H513.27V260.74ZM513.27 289.122H544.564V261.921H513.27V289.122ZM513.27 317.504H544.564V290.303H513.27V317.504ZM513.27 345.875H544.564V318.674H513.27V345.875ZM513.27 374.257H544.564V347.056H513.27V374.257ZM513.27 402.64H544.564V375.439H513.27V402.64ZM513.27 431.022H544.564V403.821H513.27V431.022ZM513.27 459.393H544.564V432.192H513.27V459.393ZM480.616 459.393H511.911V432.192H480.616V459.393ZM480.616 487.775H511.911V460.574H480.616V487.775ZM447.963 487.775H479.257V460.574H447.963V487.775ZM415.309 487.775H446.617V460.574H415.309V487.775ZM382.669 487.775H413.963V460.574H382.669V487.775ZM350.015 487.775H381.31V460.574H350.015V487.775ZM317.362 487.775H348.657V460.574H317.362V487.775ZM284.709 487.775H316.003V460.574H284.709V487.775ZM252.068 487.775H283.363V460.574H252.068V487.775ZM219.415 487.775H250.709V460.574H219.415V487.775ZM186.761 487.775H218.056V460.574H186.761V487.775ZM154.108 487.775H185.403V460.574H154.108V487.775ZM121.468 487.775H152.762V460.574H121.468V487.775ZM88.8141 487.775H120.109V460.574H88.8141V487.775ZM87.4552 460.574H56.1608V487.775H87.4552V460.574ZM56.1608 459.393H87.4552V432.192H56.1608V459.393ZM54.8019 432.192H23.5074V459.393H54.8019V432.192ZM54.8019 403.821H23.5074V431.022H54.8019V403.821ZM54.8019 375.439H23.5074V402.64H54.8019V375.439ZM54.8019 347.056H23.5074V374.257H54.8019V347.056ZM54.8019 318.674H23.5074V345.875H54.8019V318.674ZM54.8019 290.303H23.5074V317.504H54.8019V290.303ZM54.8019 261.921H23.5074V289.122H54.8019V261.921ZM54.8019 233.538H23.5074V260.74H54.8019V233.538ZM54.8019 205.156H23.5074V232.357H54.8019V205.156ZM54.8019 176.785H23.5074V203.986H54.8019V176.785ZM54.8019 148.403H23.5074V175.604H54.8019V148.403ZM54.8019 120.021H23.5074V147.222H54.8019V120.021ZM54.8019 91.6383H23.5074V118.839H54.8019V91.6383ZM54.8019 63.2561H23.5074V90.4571H54.8019V63.2561ZM87.4552 63.2561H56.1608V90.4571H87.4552V63.2561ZM87.4552 34.885H56.1608V62.086H87.4552V34.885ZM120.109 34.885H88.8141V62.086H120.109V34.885ZM152.762 34.885H121.468V62.086H152.762V34.885ZM185.403 34.885H154.108V62.086H185.403V34.885ZM218.056 34.885H186.761V62.086H218.056V34.885ZM250.709 34.885H219.415V62.086H250.709V34.885ZM283.363 34.885H252.055V62.086H283.363V34.885ZM316.003 34.885H284.709V62.086H316.003V34.885ZM348.657 34.885H317.362V62.086H348.657V34.885ZM381.31 34.885H350.015V62.086H381.31V34.885ZM413.963 34.885H382.669V62.086H413.963V34.885ZM446.617 34.885H415.309V62.086H446.617V34.885ZM479.257 34.885H447.963V62.086H479.257V34.885ZM480.616 62.086H511.911V34.885H480.616V62.086ZM480.616 90.4571H511.911V63.2561H480.616V90.4571ZM480.616 118.839H511.911V91.6383H480.616V118.839ZM480.616 147.222H511.911V120.021H480.616V147.222ZM480.616 175.604H511.911V148.403H480.616V175.604ZM480.616 203.975H511.911V176.774H480.616V203.975ZM480.616 232.357H511.911V205.156H480.616V232.357ZM480.616 260.74H511.911V233.538H480.616V260.74ZM480.616 289.122H511.911V261.921H480.616V289.122ZM480.616 317.504H511.911V290.303H480.616V317.504ZM480.616 345.875H511.911V318.674H480.616V345.875ZM480.616 374.257H511.911V347.056H480.616V374.257ZM480.616 402.64H511.911V375.439H480.616V402.64ZM480.616 431.022H511.911V403.821H480.616V431.022ZM447.963 431.022H479.257V403.821H447.963V431.022ZM447.963 459.393H479.257V432.192H447.963V459.393ZM415.309 459.393H446.617V432.192H415.309V459.393ZM382.669 459.393H413.963V432.192H382.669V459.393ZM350.015 459.393H381.31V432.192H350.015V459.393ZM317.362 459.393H348.657V432.192H317.362V459.393ZM284.709 459.393H316.003V432.192H284.709V459.393ZM252.068 459.393H283.363V432.192H252.068V459.393ZM219.415 459.393H250.709V432.192H219.415V459.393ZM186.761 459.393H218.056V432.192H186.761V459.393ZM154.108 459.393H185.403V432.192H154.108V459.393ZM121.468 459.393H152.762V432.192H121.468V459.393ZM120.109 432.192H88.8141V459.393H120.109V432.192ZM88.8141 431.022H120.109V403.821H88.8141V431.022ZM87.4552 403.821H56.1608V431.022H87.4552V403.821ZM87.4552 375.439H56.1608V402.64H87.4552V375.439ZM87.4552 347.056H56.1608V374.257H87.4552V347.056ZM87.4552 318.674H56.1608V345.875H87.4552V318.674ZM87.4552 290.303H56.1608V317.504H87.4552V290.303ZM87.4552 261.921H56.1608V289.122H87.4552V261.921ZM87.4552 233.538H56.1608V260.74H87.4552V233.538ZM87.4552 205.156H56.1608V232.357H87.4552V205.156ZM87.4552 176.785H56.1608V203.986H87.4552V176.785ZM87.4552 148.403H56.1608V175.604H87.4552V148.403ZM87.4552 120.021H56.1608V147.222H87.4552V120.021ZM87.4552 91.6383H56.1608V118.839H87.4552V91.6383ZM120.109 91.6383H88.8141V118.839H120.109V91.6383ZM120.109 63.2561H88.8141V90.4571H120.109V63.2561ZM152.762 63.2561H121.468V90.4571H152.762V63.2561ZM185.403 63.2561H154.108V90.4571H185.403V63.2561ZM218.056 63.2561H186.761V90.4571H218.056V63.2561ZM250.709 63.2561H219.415V90.4571H250.709V63.2561ZM283.363 63.2561H252.055V90.4571H283.363V63.2561ZM316.003 63.2561H284.709V90.4571H316.003V63.2561ZM348.657 63.2561H317.362V90.4571H348.657V63.2561ZM381.31 63.2561H350.015V90.4571H381.31V63.2561ZM413.963 63.2561H382.669V90.4571H413.963V63.2561ZM446.617 63.2561H415.309V90.4571H446.617V63.2561ZM447.963 90.4571H479.257V63.2561H447.963V90.4571ZM447.963 118.839H479.257V91.6383H447.963V118.839ZM447.963 147.222H479.257V120.021H447.963V147.222ZM447.963 175.604H479.257V148.403H447.963V175.604ZM447.963 203.975H479.257V176.774H447.963V203.975ZM447.963 232.357H479.257V205.156H447.963V232.357ZM447.963 260.74H479.257V233.538H447.963V260.74ZM447.963 289.122H479.257V261.921H447.963V289.122ZM447.963 317.504H479.257V290.303H447.963V317.504ZM447.963 345.875H479.257V318.674H447.963V345.875ZM447.963 374.257H479.257V347.056H447.963V374.257ZM447.963 402.64H479.257V375.439H447.963V402.64ZM415.309 402.64H446.617V375.439H415.309V402.64ZM415.309 431.022H446.617V403.821H415.309V431.022ZM382.669 431.022H413.963V403.821H382.669V431.022ZM350.015 431.022H381.31V403.821H350.015V431.022ZM317.362 431.022H348.657V403.821H317.362V431.022ZM284.709 431.022H316.003V403.821H284.709V431.022ZM252.068 431.022H283.363V403.821H252.068V431.022ZM219.415 431.022H250.709V403.821H219.415V431.022ZM186.761 431.022H218.056V403.821H186.761V431.022ZM154.108 431.022H185.403V403.821H154.108V431.022ZM152.762 403.821H121.468V431.022H152.762V403.821ZM121.468 402.64H152.762V375.439H121.468V402.64ZM120.109 375.439H88.8141V402.64H120.109V375.439ZM120.109 347.056H88.8141V374.257H120.109V347.056ZM120.109 318.674H88.8141V345.875H120.109V318.674ZM120.109 290.303H88.8141V317.504H120.109V290.303ZM120.109 261.921H88.8141V289.122H120.109V261.921ZM120.109 233.538H88.8141V260.74H120.109V233.538ZM120.109 205.156H88.8141V232.357H120.109V205.156ZM120.109 176.785H88.8141V203.986H120.109V176.785ZM120.109 148.403H88.8141V175.604H120.109V148.403ZM120.109 120.021H88.8141V147.222H120.109V120.021ZM152.762 120.021H121.468V147.222H152.762V120.021ZM152.762 91.6383H121.468V118.839H152.762V91.6383ZM185.403 91.6383H154.108V118.839H185.403V91.6383ZM218.056 91.6383H186.761V118.839H218.056V91.6383ZM250.709 91.6383H219.415V118.839H250.709V91.6383ZM283.363 91.6383H252.055V118.839H283.363V91.6383ZM316.003 91.6383H284.709V118.839H316.003V91.6383ZM348.657 91.6383H317.362V118.839H348.657V91.6383ZM381.31 91.6383H350.015V118.839H381.31V91.6383ZM413.963 91.6383H382.669V118.839H413.963V91.6383ZM415.309 118.839H446.617V91.6383H415.309V118.839ZM415.309 147.222H446.617V120.021H415.309V147.222ZM415.309 175.604H446.617V148.403H415.309V175.604ZM415.309 203.975H446.617V176.774H415.309V203.975ZM415.309 232.357H446.617V205.156H415.309V232.357ZM415.309 260.74H446.617V233.538H415.309V260.74ZM415.309 289.122H446.617V261.921H415.309V289.122ZM415.309 317.504H446.617V290.303H415.309V317.504ZM415.309 345.875H446.617V318.674H415.309V345.875ZM415.309 374.257H446.617V347.056H415.309V374.257ZM382.669 374.257H413.963V347.056H382.669V374.257ZM382.669 402.64H413.963V375.439H382.669V402.64ZM350.015 402.64H381.31V375.439H350.015V402.64ZM317.362 402.64H348.657V375.439H317.362V402.64ZM284.709 402.64H316.003V375.439H284.709V402.64ZM252.068 402.64H283.363V375.439H252.068V402.64ZM219.415 402.64H250.709V375.439H219.415V402.64ZM186.761 402.64H218.056V375.439H186.761V402.64ZM185.403 375.439H154.108V402.64H185.403V375.439ZM154.108 374.257H185.403V347.056H154.108V374.257ZM152.762 347.056H121.468V374.257H152.762V347.056ZM152.762 318.674H121.468V345.875H152.762V318.674ZM152.762 290.303H121.468V317.504H152.762V290.303ZM152.762 261.921H121.468V289.122H152.762V261.921ZM152.762 233.538H121.468V260.74H152.762V233.538ZM152.762 205.156H121.468V232.357H152.762V205.156ZM152.762 176.785H121.468V203.986H152.762V176.785ZM152.762 148.403H121.468V175.604H152.762V148.403ZM185.403 148.403H154.108V175.604H185.403V148.403ZM185.403 120.021H154.108V147.222H185.403V120.021ZM218.056 120.021H186.761V147.222H218.056V120.021ZM250.709 120.021H219.415V147.222H250.709V120.021ZM283.363 120.021H252.055V147.222H283.363V120.021ZM316.003 120.021H284.709V147.222H316.003V120.021ZM348.657 120.021H317.362V147.222H348.657V120.021ZM381.31 120.021H350.015V147.222H381.31V120.021ZM382.669 147.222H413.963V120.021H382.669V147.222ZM382.669 175.604H413.963V148.403H382.669V175.604ZM382.669 203.975H413.963V176.774H382.669V203.975ZM382.669 232.357H413.963V205.156H382.669V232.357ZM382.669 260.74H413.963V233.538H382.669V260.74ZM382.669 289.122H413.963V261.921H382.669V289.122ZM382.669 317.504H413.963V290.303H382.669V317.504ZM382.669 345.875H413.963V318.674H382.669V345.875ZM350.015 345.875H381.31V318.674H350.015V345.875ZM350.015 374.257H381.31V347.056H350.015V374.257ZM317.362 374.257H348.657V347.056H317.362V374.257ZM284.709 374.257H316.003V347.056H284.709V374.257ZM252.068 374.257H283.363V347.056H252.068V374.257ZM219.415 374.257H250.709V347.056H219.415V374.257ZM218.056 347.056H186.761V374.257H218.056V347.056ZM186.761 345.875H218.056V318.674H186.761V345.875ZM185.403 318.674H154.108V345.875H185.403V318.674ZM185.403 290.303H154.108V317.504H185.403V290.303ZM185.403 261.921H154.108V289.122H185.403V261.921ZM185.403 233.538H154.108V260.74H185.403V233.538ZM185.403 205.156H154.108V232.357H185.403V205.156ZM185.403 176.785H154.108V203.986H185.403V176.785ZM218.056 176.785H186.761V203.986H218.056V176.785ZM218.056 148.403H186.761V175.604H218.056V148.403ZM250.709 148.403H219.415V175.604H250.709V148.403ZM283.363 148.403H252.055V175.604H283.363V148.403ZM316.003 148.403H284.709V175.604H316.003V148.403ZM348.657 148.403H317.362V175.604H348.657V148.403ZM350.015 175.604H381.31V148.403H350.015V175.604ZM350.015 203.975H381.31V176.774H350.015V203.975ZM350.015 232.357H381.31V205.156H350.015V232.357ZM350.015 260.74H381.31V233.538H350.015V260.74ZM350.015 289.122H381.31V261.921H350.015V289.122ZM350.015 317.504H381.31V290.303H350.015V317.504ZM317.362 317.504H348.657V290.303H317.362V317.504ZM317.362 345.875H348.657V318.674H317.362V345.875ZM284.709 345.875H316.003V318.674H284.709V345.875ZM252.068 345.875H283.363V318.674H252.068V345.875ZM250.709 318.674H219.415V345.875H250.709V318.674ZM219.415 317.504H250.709V290.303H219.415V317.504ZM218.056 290.303H186.761V317.504H218.056V290.303ZM218.056 261.921H186.761V289.122H218.056V261.921ZM218.056 233.538H186.761V260.74H218.056V233.538ZM218.056 205.156H186.761V232.357H218.056V205.156ZM250.709 205.156H219.415V232.357H250.709V205.156ZM250.709 176.785H219.415V203.986H250.709V176.785ZM283.363 176.785H252.055V203.986H283.363V176.785ZM316.003 176.785H284.709V203.986H316.003V176.785ZM317.362 203.975H348.657V176.774H317.362V203.975ZM317.362 232.357H348.657V205.156H317.362V232.357ZM317.362 260.74H348.657V233.538H317.362V260.74ZM317.362 289.122H348.657V261.921H317.362V289.122ZM284.709 289.122H316.003V261.921H284.709V289.122ZM284.709 317.504H316.003V290.303H284.709V317.504ZM283.363 290.303H252.055V317.504H283.363V290.303ZM252.068 289.122H283.363V261.921H252.068V289.122ZM250.709 261.921H219.415V289.122H250.709V261.921ZM250.709 233.538H219.415V260.74H250.709V233.538ZM283.363 233.538H252.055V260.74H283.363V233.538ZM283.363 205.156H252.055V232.357H283.363V205.156ZM316.003 233.538H284.709V260.74H316.003V233.538ZM284.709 232.357H316.003V205.156H284.709V232.357ZM544.564 34.885H513.27V62.086H544.564V34.885ZM513.27 487.775H544.564V460.574H513.27V487.775Z" fill="#F9E6BE" stroke="#A9DEBF" stroke-width="4.23633" mask="url(#path-1-inside-1)"/>
<path d="M478.004 0L483.737 3.22245L515.748 252.138L507.542 242.275L478.004 0Z" fill="#50A873"/>
<path d="M138.84 30.5773L479.659 0L510.501 240.755L168.146 270.949L138.84 30.5773Z" fill="url(#paint0_linear)"/>
<path d="M147.584 41.0617L474.378 11.7399L500.246 223.894L173.46 253.215L147.584 41.0617Z" fill="url(#paint1_linear)"/>
<rect x="206.939" y="114.254" width="59.5176" height="8.05968" rx="4.02984" transform="rotate(-5.06696 206.939 114.254)" fill="#ABDBCC"/>
<rect x="277.957" y="107.954" width="24.799" height="8.05968" rx="4.02984" transform="rotate(-5.06696 277.957 107.954)" fill="#ABDBCC"/>
<rect x="310.684" y="105.052" width="30.9988" height="8.05968" rx="4.02984" transform="rotate(-5.06696 310.684 105.052)" fill="#ABDBCC"/>
<rect x="352.061" y="101.383" width="58.2777" height="8.05968" rx="4.02984" transform="rotate(-5.06696 352.061 101.383)" fill="#ABDBCC"/>
<rect x="193.08" y="63.2006" width="38.4385" height="8.05968" rx="4.02984" transform="rotate(-5.06696 193.08 63.2006)" fill="#ABDBCC"/>
<rect x="239.398" y="59.0897" width="24.799" height="8.05968" rx="4.02984" transform="rotate(-5.06696 239.398 59.0897)" fill="#ABDBCC"/>
<rect x="272.129" y="56.1881" width="54.5578" height="8.05968" rx="4.02984" transform="rotate(-5.06696 272.129 56.1881)" fill="#ABDBCC"/>
<rect x="332.029" y="50.8756" width="17.3593" height="8.05968" rx="4.02984" transform="rotate(-5.06696 332.029 50.8756)" fill="#ABDBCC"/>
<rect x="183.75" y="168.59" width="38.4385" height="8.05968" rx="4.02984" transform="rotate(-5.06696 183.75 168.59)" fill="#ABDBCC"/>
<rect x="230.068" y="164.482" width="24.799" height="8.05968" rx="4.02984" transform="rotate(-5.06696 230.068 164.482)" fill="#ABDBCC"/>
<rect x="262.801" y="161.58" width="54.5578" height="8.05968" rx="4.02984" transform="rotate(-5.06696 262.801 161.58)" fill="#ABDBCC"/>
<rect x="322.697" y="156.268" width="91.1363" height="8.05968" rx="4.02984" transform="rotate(-5.06696 322.697 156.268)" fill="#ABDBCC"/>
<rect x="196.145" y="97.7799" width="38.4385" height="8.05968" rx="4.02984" transform="rotate(-5.06696 196.145 97.7799)" fill="#ABDBCC"/>
<rect x="242.457" y="93.6735" width="24.799" height="8.05968" rx="4.02984" transform="rotate(-5.06696 242.457 93.6735)" fill="#ABDBCC"/>
<rect x="275.186" y="90.7714" width="32.8587" height="8.05968" rx="4.02984" transform="rotate(-5.06696 275.186 90.7714)" fill="#ABDBCC"/>
<rect x="318.416" y="86.9388" width="43.3983" height="8.05968" rx="4.02984" transform="rotate(-5.06696 318.416 86.9388)" fill="#ABDBCC"/>
<rect x="219.729" y="146.104" width="38.4385" height="8.05968" rx="4.02984" transform="rotate(-5.06696 219.729 146.104)" fill="#ABDBCC"/>
<rect x="182.055" y="149.446" width="30.3788" height="8.05968" rx="4.02984" transform="rotate(-5.06696 182.055 149.446)" fill="#ABDBCC"/>
<rect x="266.045" y="141.998" width="24.799" height="8.05968" rx="4.02984" transform="rotate(-5.06696 266.045 141.998)" fill="#ABDBCC"/>
<rect x="298.773" y="139.096" width="32.8587" height="8.05968" rx="4.02984" transform="rotate(-5.06696 298.773 139.096)" fill="#ABDBCC"/>
<rect x="342.004" y="135.263" width="25.419" height="8.05968" rx="4.02984" transform="rotate(-5.06696 342.004 135.263)" fill="#ABDBCC"/>
<rect x="375.963" y="132.252" width="47.1181" height="8.05968" rx="4.02984" transform="rotate(-5.06696 375.963 132.252)" fill="#ABDBCC"/>
<rect x="180.326" y="221.175" width="38.4385" height="8.05968" rx="4.02984" transform="rotate(-5.06696 180.326 221.175)" fill="#ABDBCC"/>
<rect x="226.639" y="217.068" width="24.799" height="8.05968" rx="4.02984" transform="rotate(-5.06696 226.639 217.068)" fill="#ABDBCC"/>
<rect x="259.371" y="214.166" width="32.8587" height="8.05968" rx="4.02984" transform="rotate(-5.06696 259.371 214.166)" fill="#ABDBCC"/>
<rect x="302.596" y="210.333" width="25.419" height="8.05968" rx="4.02984" transform="rotate(-5.06696 302.596 210.333)" fill="#ABDBCC"/>
<rect x="336.562" y="207.322" width="47.1181" height="8.05968" rx="4.02984" transform="rotate(-5.06696 336.562 207.322)" fill="#ABDBCC"/>
<rect x="395.324" y="200.766" width="52.4255" height="8.05968" rx="4.02984" transform="rotate(-5.06696 395.324 200.766)" fill="#ABDBCC"/>
<rect x="184.107" y="81.424" width="59.5176" height="8.05968" rx="4.02984" transform="rotate(-5.06696 184.107 81.424)" fill="#ABDBCC"/>
<rect x="255.127" y="75.1227" width="24.799" height="8.05968" rx="4.02984" transform="rotate(-5.06696 255.127 75.1227)" fill="#ABDBCC"/>
<rect x="287.857" y="72.2208" width="30.9988" height="8.05968" rx="4.02984" transform="rotate(-5.06696 287.857 72.2208)" fill="#ABDBCC"/>
<rect x="323.672" y="69.045" width="41.5383" height="8.05968" rx="4.02984" transform="rotate(-5.06696 323.672 69.045)" fill="#ABDBCC"/>
<rect x="371.229" y="64.8297" width="41.5383" height="8.05968" rx="4.02984" transform="rotate(-5.06696 371.229 64.8297)" fill="#ABDBCC"/>
<rect x="195.781" y="184.95" width="59.5176" height="8.05968" rx="4.02984" transform="rotate(-5.06696 195.781 184.95)" fill="#ABDBCC"/>
<rect x="266.799" y="178.653" width="24.799" height="8.05968" rx="4.02984" transform="rotate(-5.06696 266.799 178.653)" fill="#ABDBCC"/>
<rect x="299.529" y="175.75" width="30.9988" height="8.05968" rx="4.02984" transform="rotate(-5.06696 299.529 175.75)" fill="#ABDBCC"/>
<rect x="335.346" y="172.574" width="63.8574" height="8.05968" rx="4.02984" transform="rotate(-5.06696 335.346 172.574)" fill="#ABDBCC"/>
<rect x="214.754" y="132.229" width="59.5176" height="8.05968" rx="4.02984" transform="rotate(-5.06696 214.754 132.229)" fill="#ABDBCC"/>
<rect x="189.438" y="134.474" width="21.6991" height="8.05968" rx="4.02984" transform="rotate(-5.06696 189.438 134.474)" fill="#ABDBCC"/>
<rect x="285.783" y="125.932" width="24.799" height="8.05968" rx="4.02984" transform="rotate(-5.06696 285.783 125.932)" fill="#ABDBCC"/>
<rect x="318.51" y="123.03" width="30.9988" height="8.05968" rx="4.02984" transform="rotate(-5.06696 318.51 123.03)" fill="#ABDBCC"/>
<rect x="354.33" y="119.855" width="41.5383" height="8.05968" rx="4.02984" transform="rotate(-5.06696 354.33 119.855)" fill="#ABDBCC"/>
<rect x="205.508" y="203.382" width="59.5176" height="8.05968" rx="4.02984" transform="rotate(-5.06696 205.508 203.382)" fill="#ABDBCC"/>
<rect x="276.527" y="197.085" width="24.799" height="8.05968" rx="4.02984" transform="rotate(-5.06696 276.527 197.085)" fill="#ABDBCC"/>
<rect x="309.264" y="194.182" width="30.9988" height="8.05968" rx="4.02984" transform="rotate(-5.06696 309.264 194.182)" fill="#ABDBCC"/>
<rect x="345.078" y="191.007" width="41.5383" height="8.05968" rx="4.02984" transform="rotate(-5.06696 345.078 191.007)" fill="#ABDBCC"/>
<rect x="395.326" y="184.794" width="25.685" height="8.05968" rx="4.02984" transform="rotate(-5.06696 395.326 184.794)" fill="#ABDBCC"/>
<path d="M510.332 240.518L515.713 251.712L352.2 393.852C349.106 396.546 344.868 395.123 342.725 390.677L510.332 240.518Z" fill="#5AB17D"/>
<path d="M349.176 395.196L6.45289 425.941C4.01407 426.157 1.48728 424.534 0 421.423L342.723 390.678C344.218 393.78 346.737 395.412 349.176 395.196Z" fill="#5AB17D"/>
<path d="M342.723 390.677L0 421.422L167.599 271.263L510.33 240.518L342.723 390.677Z" fill="url(#paint2_linear)"/>
<path d="M168.009 272.19L507.541 241.733L342.325 389.75L2.79297 420.207L168.009 272.19Z" fill="url(#paint3_linear)"/>
<g style="mix-blend-mode:multiply" opacity="0.6" filter="url(#filter0_i)">
<path d="M479.405 251.992L470.274 252.815C469.794 252.855 469.09 253.175 468.683 253.535L463.829 257.893C463.437 258.237 463.493 258.501 463.973 258.461L473.104 257.637C473.584 257.597 474.304 257.261 474.696 256.917L479.549 252.559C479.949 252.2 479.893 251.952 479.405 251.992ZM465.692 253.223L456.56 254.047C456.073 254.087 455.377 254.407 454.969 254.766L450.116 259.116C449.724 259.468 449.772 259.732 450.259 259.692L459.391 258.868C459.871 258.828 460.583 258.493 460.982 258.141L465.836 253.791C466.236 253.431 466.172 253.183 465.692 253.223ZM451.979 254.455L442.847 255.27C442.375 255.318 441.656 255.638 441.256 255.998L436.402 260.348C436.01 260.7 436.074 260.963 436.538 260.923L445.678 260.1C446.157 260.06 446.869 259.724 447.261 259.372L452.123 255.022C452.522 254.662 452.458 254.415 451.979 254.455ZM438.265 255.686L429.126 256.502C428.662 256.55 427.942 256.869 427.542 257.229L422.681 261.579C422.289 261.931 422.361 262.195 422.825 262.147L431.964 261.331C432.444 261.283 433.156 260.955 433.548 260.604L438.401 256.254C438.809 255.894 438.745 255.638 438.265 255.686ZM424.544 256.917L412.206 258.021C411.726 258.069 411.022 258.389 410.623 258.749L405.761 263.098C405.369 263.45 405.425 263.714 405.905 263.666L418.243 262.563C418.731 262.515 419.442 262.187 419.834 261.835L424.688 257.485C425.096 257.125 425.032 256.869 424.544 256.917ZM407.624 258.437L395.278 259.54C394.806 259.58 394.087 259.908 393.687 260.268L388.825 264.618C388.441 264.97 388.505 265.225 388.969 265.185L401.323 264.082C401.795 264.034 402.522 263.706 402.914 263.354L407.768 259.004C408.176 258.645 408.096 258.389 407.624 258.437ZM390.696 259.956L378.358 261.059C377.87 261.099 377.167 261.419 376.767 261.787L371.905 266.137C371.513 266.489 371.569 266.745 372.049 266.705L384.387 265.601C384.875 265.553 385.587 265.225 385.978 264.874L390.832 260.524C391.24 260.164 391.176 259.908 390.696 259.956ZM373.768 261.467L361.422 262.579C360.951 262.619 360.247 262.938 359.847 263.306L354.985 267.656C354.594 268 354.65 268.264 355.113 268.224L367.467 267.112C367.939 267.073 368.667 266.745 369.059 266.393L373.912 262.043C374.32 261.683 374.24 261.427 373.768 261.467ZM356.841 262.986L344.502 264.098C344.015 264.138 343.311 264.458 342.911 264.818L338.05 269.175C337.666 269.519 337.714 269.783 338.193 269.743L350.532 268.64C351.019 268.592 351.731 268.264 352.123 267.912L356.976 263.562C357.384 263.194 357.32 262.946 356.841 262.986ZM339.921 264.506L327.567 265.617C327.095 265.657 326.391 265.977 325.991 266.337L321.13 270.695C320.746 271.039 320.794 271.302 321.266 271.262L333.612 270.151C334.083 270.111 334.811 269.783 335.203 269.431L340.057 265.081C340.464 264.714 340.384 264.466 339.921 264.506ZM322.985 266.025L310.647 267.136C310.159 267.176 309.455 267.496 309.056 267.856L304.202 272.206C303.81 272.558 303.858 272.822 304.338 272.782L316.684 271.67C317.164 271.63 317.875 271.294 318.267 270.951L323.129 266.593C323.529 266.233 323.465 265.985 322.985 266.025ZM306.065 267.544L293.727 268.656C293.239 268.696 292.536 269.016 292.136 269.375L287.282 273.725C286.89 274.077 286.938 274.341 287.418 274.301L299.764 273.19C300.244 273.15 300.955 272.814 301.347 272.462L306.201 268.112C306.609 267.752 306.545 267.504 306.065 267.544ZM289.145 269.064L276.791 270.175C276.319 270.215 275.608 270.535 275.2 270.895L270.346 275.245C269.954 275.596 270.018 275.86 270.49 275.82L282.844 274.709C283.308 274.669 284.02 274.333 284.411 273.981L289.273 269.631C289.673 269.271 289.609 269.024 289.145 269.064ZM267.116 271.039L254.762 272.15C254.298 272.19 253.578 272.51 253.171 272.87L248.317 277.228C247.925 277.571 247.989 277.835 248.461 277.795L260.815 276.684C261.279 276.644 262.014 276.308 262.406 275.964L267.26 271.606C267.66 271.246 267.588 270.999 267.116 271.039ZM250.18 272.558L237.842 273.661C237.362 273.709 236.658 274.029 236.251 274.389L231.397 278.739C231.005 279.091 231.061 279.355 231.541 279.315L243.879 278.203C244.359 278.163 245.078 277.827 245.47 277.476L250.324 273.126C250.724 272.766 250.668 272.518 250.18 272.558ZM233.26 274.077L220.906 275.181C220.442 275.229 219.723 275.548 219.323 275.908L214.461 280.258C214.069 280.61 214.141 280.874 214.605 280.834L226.959 279.722C227.431 279.682 228.159 279.347 228.55 278.995L233.404 274.645C233.804 274.285 233.732 274.037 233.26 274.077ZM216.324 275.596L203.986 276.7C203.506 276.748 202.803 277.068 202.403 277.428L197.541 281.777C197.15 282.129 197.205 282.393 197.685 282.345L210.023 281.242C210.503 281.202 211.223 280.866 211.615 280.514L216.468 276.164C216.868 275.804 216.812 275.556 216.324 275.596ZM191.648 277.811L179.31 278.915C178.822 278.963 178.127 279.283 177.719 279.642L172.865 283.992C172.473 284.344 172.521 284.608 173.009 284.56L185.347 283.457C185.827 283.409 186.547 283.081 186.93 282.729L191.792 278.379C192.192 278.019 192.128 277.763 191.648 277.811ZM470.562 259.924L461.422 260.74C460.942 260.788 460.239 261.107 459.839 261.467L450.707 269.647C450.3 270.007 450.363 270.263 450.851 270.215L459.983 269.399C460.463 269.351 461.166 269.032 461.566 268.672L470.706 260.492C471.105 260.132 471.041 259.876 470.562 259.924ZM456.84 261.147L447.709 261.971C447.229 262.011 446.525 262.339 446.125 262.699L436.986 270.879C436.586 271.238 436.65 271.494 437.13 271.446L446.261 270.631C446.749 270.583 447.453 270.263 447.853 269.903L456.984 261.723C457.384 261.363 457.328 261.107 456.84 261.147ZM443.127 262.379L433.995 263.202C433.532 263.242 432.812 263.562 432.404 263.922L423.272 272.11C422.873 272.47 422.945 272.718 423.416 272.678L432.548 271.854C433.036 271.814 433.731 271.494 434.139 271.135L443.271 262.954C443.671 262.587 443.607 262.339 443.127 262.379ZM429.414 263.61L420.282 264.434C419.81 264.474 419.091 264.794 418.691 265.153L409.559 273.341C409.159 273.701 409.231 273.949 409.703 273.909L418.835 273.086C419.314 273.046 420.018 272.726 420.426 272.366L429.557 264.178C429.957 263.818 429.893 263.57 429.414 263.61ZM415.668 264.842L387.322 267.384C386.834 267.432 386.13 267.752 385.731 268.112L376.447 276.436C376.039 276.796 376.103 277.044 376.583 277.004L404.937 274.461C405.417 274.413 406.121 274.093 406.529 273.733L415.812 265.417C416.212 265.057 416.156 264.802 415.668 264.842ZM382.98 267.776L370.642 268.888C370.154 268.928 369.45 269.247 369.051 269.607L359.767 277.931C359.359 278.291 359.423 278.539 359.903 278.499L372.249 277.396C372.729 277.348 373.433 277.028 373.832 276.668L383.124 268.344C383.524 267.984 383.46 267.736 382.98 267.776ZM366.3 269.271L353.962 270.383C353.482 270.423 352.77 270.743 352.371 271.111L343.087 279.427C342.679 279.786 342.743 280.042 343.231 279.994L355.569 278.891C356.049 278.843 356.753 278.523 357.152 278.163L366.444 269.847C366.844 269.487 366.78 269.231 366.3 269.271ZM349.62 270.775L337.266 271.878C336.802 271.918 336.099 272.246 335.691 272.606L326.407 280.922C325.999 281.282 326.063 281.538 326.535 281.498L338.889 280.386C339.353 280.346 340.073 280.018 340.472 279.658L349.764 271.342C350.164 270.983 350.092 270.727 349.62 270.775ZM332.94 272.27L320.586 273.373C320.122 273.413 319.403 273.741 319.003 274.101L309.711 282.417C309.311 282.777 309.391 283.033 309.855 282.993L322.209 281.881C322.673 281.841 323.393 281.514 323.792 281.154L333.084 272.838C333.484 272.478 333.412 272.222 332.94 272.27ZM316.26 273.765L303.906 274.869C303.442 274.917 302.723 275.237 302.323 275.596L293.031 283.912C292.631 284.28 292.711 284.528 293.175 284.488L305.529 283.377C305.993 283.337 306.697 283.017 307.104 282.657L316.388 274.333C316.796 273.973 316.732 273.717 316.26 273.765ZM299.572 275.261L287.226 276.372C286.746 276.412 286.043 276.732 285.643 277.092L276.351 285.416C275.952 285.775 276.015 286.023 276.495 285.983L288.833 284.872C289.321 284.832 290.025 284.512 290.425 284.152L299.708 275.828C300.116 275.468 300.052 275.221 299.572 275.261ZM282.892 276.756L270.546 277.867C270.066 277.907 269.363 278.227 268.963 278.587L259.679 286.911C259.272 287.271 259.336 287.519 259.815 287.479L272.153 286.375C272.641 286.327 273.345 286.007 273.745 285.648L283.028 277.324C283.436 276.964 283.372 276.716 282.892 276.756ZM266.212 278.251L253.874 279.363C253.386 279.403 252.683 279.722 252.283 280.082L242.999 288.406C242.592 288.766 242.656 289.022 243.143 288.974L255.481 287.87C255.961 287.823 256.665 287.503 257.065 287.143L266.348 278.827C266.756 278.459 266.692 278.211 266.212 278.251ZM249.532 279.754L237.194 280.858C236.706 280.898 236.003 281.226 235.603 281.578L226.319 289.901C225.912 290.261 225.976 290.517 226.463 290.469L238.801 289.366C239.281 289.318 239.985 288.998 240.385 288.638L249.676 280.322C250.076 279.962 250.012 279.706 249.532 279.754ZM232.852 281.25L220.498 282.353C220.034 282.393 219.323 282.721 218.923 283.081L209.64 291.397C209.232 291.757 209.296 292.012 209.767 291.973L222.121 290.861C222.601 290.821 223.305 290.501 223.705 290.133L232.996 281.817C233.396 281.458 233.332 281.202 232.852 281.25ZM216.172 282.745L203.818 283.848C203.347 283.896 202.635 284.216 202.235 284.576L192.944 292.9C192.544 293.26 192.616 293.508 193.087 293.468L205.442 292.356C205.905 292.316 206.625 291.996 207.025 291.637L216.316 283.313C216.716 282.953 216.636 282.705 216.172 282.745ZM199.492 284.24L187.138 285.352C186.675 285.392 185.955 285.712 185.555 286.071L176.264 294.395C175.864 294.755 175.944 295.003 176.408 294.963L188.762 293.852C189.233 293.812 189.929 293.492 190.337 293.132L199.62 284.808C200.02 284.448 199.964 284.2 199.492 284.24ZM182.796 285.735L170.458 286.847C169.979 286.887 169.275 287.207 168.875 287.567L159.584 295.891C159.184 296.25 159.248 296.506 159.728 296.458L172.066 295.355C172.553 295.307 173.249 294.987 173.657 294.627L182.94 286.311C183.348 285.943 183.284 285.696 182.796 285.735ZM402.419 276.74L381.669 278.603C381.205 278.643 380.477 278.979 380.085 279.323L370.794 287.647C370.394 288.006 370.474 288.254 370.938 288.214L391.688 286.351C392.167 286.311 392.871 285.991 393.279 285.632L402.562 277.308C402.954 276.956 402.906 276.692 402.419 276.74ZM377.343 278.987L364.989 280.098C364.525 280.138 363.797 280.474 363.405 280.826L354.114 289.142C353.714 289.502 353.794 289.758 354.258 289.71L366.612 288.606C367.084 288.558 367.779 288.238 368.187 287.878L377.471 279.562C377.862 279.211 377.814 278.947 377.343 278.987ZM360.655 280.49L348.309 281.593C347.829 281.633 347.117 281.969 346.725 282.321L337.434 290.637C337.034 290.997 337.098 291.253 337.578 291.205L349.916 290.101C350.404 290.061 351.107 289.734 351.507 289.374L360.791 281.058C361.182 280.706 361.134 280.442 360.655 280.49ZM343.975 281.985L331.637 283.089C331.149 283.129 330.437 283.465 330.045 283.816L320.762 292.132C320.354 292.492 320.418 292.748 320.898 292.708L333.244 291.597C333.724 291.557 334.427 291.237 334.827 290.869L344.111 282.553C344.502 282.201 344.455 281.937 343.975 281.985ZM327.295 283.481L314.957 284.584C314.469 284.632 313.757 284.96 313.365 285.312L304.082 293.628C303.674 293.987 303.738 294.243 304.218 294.203L316.564 293.092C317.044 293.052 317.747 292.732 318.147 292.372L327.439 284.048C327.831 283.696 327.775 283.433 327.295 283.481ZM310.615 284.976L298.277 286.079C297.789 286.127 297.077 286.455 296.686 286.807L287.402 295.123C286.994 295.491 287.058 295.739 287.538 295.699L299.884 294.587C300.364 294.547 301.067 294.227 301.467 293.868L310.759 285.544C311.151 285.192 311.095 284.928 310.615 284.976ZM293.935 286.471L281.597 287.575C281.117 287.623 280.397 287.95 280.006 288.302L270.722 296.626C270.314 296.986 270.378 297.234 270.866 297.194L283.204 296.09C283.684 296.043 284.387 295.723 284.787 295.363L294.079 287.039C294.471 286.695 294.415 286.431 293.935 286.471ZM277.255 287.966L264.901 289.078C264.437 289.118 263.701 289.454 263.318 289.798L254.026 298.122C253.626 298.481 253.698 298.737 254.17 298.689L266.524 297.586C266.988 297.538 267.708 297.218 268.107 296.858L277.399 288.534C277.791 288.19 277.727 287.926 277.255 287.966ZM260.575 289.462L248.221 290.573C247.757 290.613 247.021 290.949 246.638 291.301L237.346 299.617C236.946 299.977 237.026 300.232 237.49 300.185L249.844 299.081C250.308 299.041 251.012 298.713 251.419 298.353L260.703 290.037C261.095 289.686 261.047 289.422 260.575 289.462ZM243.887 290.965L231.541 292.068C231.061 292.108 230.35 292.444 229.958 292.796L220.666 301.112C220.266 301.472 220.33 301.728 220.81 301.688L233.148 300.576C233.628 300.536 234.332 300.217 234.739 299.849L244.023 291.533C244.415 291.181 244.367 290.917 243.887 290.965ZM227.207 292.46L214.861 293.564C214.381 293.612 213.67 293.94 213.278 294.291L203.986 302.607C203.586 302.967 203.65 303.223 204.13 303.183L216.468 302.072C216.956 302.032 217.652 301.712 218.059 301.352L227.343 293.028C227.735 292.676 227.687 292.412 227.207 292.46ZM210.527 293.956L198.181 295.059C197.701 295.107 196.99 295.435 196.598 295.787L187.314 304.103C186.906 304.47 186.97 304.718 187.45 304.678L199.788 303.567C200.276 303.527 200.98 303.207 201.379 302.847L210.663 294.523C211.055 294.171 211.007 293.908 210.527 293.956ZM193.847 295.451L181.509 296.562C181.021 296.602 180.31 296.93 179.918 297.282L170.634 305.606C170.226 305.966 170.29 306.214 170.77 306.174L183.116 305.07C183.596 305.022 184.3 304.702 184.7 304.343L193.983 296.019C194.375 295.667 194.327 295.411 193.847 295.451ZM177.167 296.946L157.185 298.737C156.697 298.785 155.985 299.113 155.594 299.465L146.31 307.789C145.902 308.149 145.966 308.397 146.446 308.357L166.436 306.565C166.916 306.518 167.62 306.198 168.02 305.838L177.311 297.514C177.703 297.17 177.647 296.906 177.167 296.946ZM457.2 271.894L448.061 272.71C447.581 272.758 446.877 273.078 446.477 273.437L423.984 293.588C423.592 293.94 423.64 294.203 424.128 294.155L433.26 293.34C433.739 293.3 434.451 292.964 434.843 292.612L457.336 272.462C457.744 272.102 457.68 271.846 457.2 271.894ZM443.479 273.118L434.347 273.941C433.867 273.981 433.164 274.309 432.756 274.669L423.624 282.849C423.233 283.201 423.288 283.465 423.768 283.417L432.908 282.601C433.388 282.553 434.099 282.225 434.491 281.873L443.623 273.693C444.03 273.333 443.967 273.078 443.479 273.118ZM429.765 274.349L420.634 275.173C420.162 275.213 419.45 275.532 419.043 275.9L409.911 284.08C409.519 284.432 409.591 284.688 410.055 284.648L419.186 283.832C419.674 283.784 420.386 283.457 420.778 283.105L429.909 274.925C430.309 274.565 430.253 274.309 429.765 274.349ZM416.052 275.58L406.92 276.404C406.449 276.444 405.737 276.764 405.329 277.124L396.198 285.312C395.806 285.656 395.87 285.919 396.341 285.879L405.473 285.056C405.953 285.016 406.672 284.688 407.064 284.336L416.196 276.156C416.596 275.788 416.532 275.54 416.052 275.58ZM388.913 288.662L355.673 291.645C355.201 291.693 354.49 292.012 354.082 292.372L344.798 300.696C344.407 301.04 344.47 301.304 344.942 301.264L378.182 298.281C378.67 298.233 379.382 297.906 379.773 297.554L389.057 289.238C389.465 288.878 389.401 288.622 388.913 288.662ZM351.331 292.036L338.993 293.148C338.513 293.188 337.81 293.508 337.402 293.868L328.118 302.192C327.727 302.535 327.783 302.799 328.262 302.759L340.6 301.648C341.08 301.608 341.8 301.28 342.184 300.928L351.475 292.604C351.875 292.244 351.811 291.996 351.331 292.036ZM334.651 293.532L322.313 294.643C321.833 294.683 321.13 295.003 320.722 295.363L311.438 303.687C311.047 304.039 311.103 304.303 311.582 304.255L323.92 303.151C324.4 303.103 325.12 302.775 325.512 302.423L334.795 294.107C335.195 293.74 335.131 293.492 334.651 293.532ZM317.971 295.027L305.633 296.138C305.153 296.178 304.45 296.498 304.05 296.858L294.758 305.182C294.367 305.534 294.423 305.798 294.902 305.75L307.24 304.646C307.72 304.598 308.44 304.271 308.832 303.919L318.115 295.603C318.515 295.243 318.451 294.987 317.971 295.027ZM301.291 296.522L288.953 297.634C288.474 297.674 287.77 297.994 287.37 298.361L278.078 306.677C277.687 307.029 277.743 307.293 278.222 307.245L290.561 306.142C291.048 306.102 291.76 305.766 292.152 305.414L301.435 297.098C301.843 296.738 301.779 296.482 301.291 296.522ZM284.611 298.026L272.273 299.129C271.794 299.169 271.09 299.497 270.69 299.857L261.399 308.173C261.015 308.524 261.063 308.788 261.542 308.74L273.881 307.637C274.368 307.597 275.08 307.261 275.472 306.909L284.755 298.593C285.163 298.233 285.099 297.978 284.611 298.026ZM267.939 299.521L255.585 300.624C255.114 300.672 254.41 300.992 254.01 301.352L244.719 309.668C244.335 310.02 244.383 310.284 244.847 310.244L257.201 309.132C257.672 309.092 258.4 308.756 258.792 308.413L268.075 300.089C268.483 299.729 268.403 299.481 267.939 299.521ZM251.259 301.016L238.905 302.12C238.434 302.168 237.714 302.487 237.314 302.847L228.031 311.171C227.639 311.515 227.703 311.779 228.167 311.739L240.521 310.627C240.992 310.588 241.704 310.26 242.096 309.908L251.387 301.584C251.787 301.224 251.723 300.976 251.259 301.016ZM234.563 302.511L222.225 303.623C221.738 303.663 221.034 303.983 220.634 304.343L211.351 312.666C210.959 313.018 211.007 313.274 211.495 313.234L223.833 312.131C224.312 312.083 225.032 311.755 225.416 311.403L234.707 303.079C235.107 302.719 235.043 302.471 234.563 302.511ZM217.884 304.007L205.545 305.118C205.066 305.158 204.362 305.478 203.954 305.838L194.671 314.162C194.279 314.514 194.327 314.777 194.815 314.73L207.153 313.626C207.632 313.578 208.352 313.25 208.736 312.898L218.027 304.574C218.427 304.223 218.363 303.967 217.884 304.007ZM201.204 305.502L188.865 306.613C188.386 306.653 187.682 306.973 187.274 307.341L177.991 315.657C177.599 316.009 177.655 316.273 178.135 316.225L190.473 315.121C190.952 315.073 191.672 314.746 192.064 314.394L201.348 306.078C201.747 305.718 201.683 305.462 201.204 305.502ZM184.524 307.005L172.186 308.109C171.706 308.157 171.002 308.477 170.602 308.836L161.311 317.152C160.919 317.504 160.975 317.768 161.455 317.72L173.793 316.617C174.273 316.577 174.992 316.241 175.384 315.889L184.668 307.573C185.067 307.213 185.003 306.957 184.524 307.005ZM167.844 308.501L143.887 310.643C143.407 310.691 142.704 311.011 142.304 311.371L133.012 319.695C132.629 320.039 132.677 320.303 133.156 320.263L157.113 318.112C157.593 318.072 158.312 317.736 158.704 317.384L167.988 309.068C168.387 308.708 168.331 308.453 167.844 308.501ZM430.117 285.096L420.986 285.911C420.506 285.959 419.802 286.279 419.402 286.639L410.263 294.819C409.871 295.171 409.927 295.435 410.407 295.387L419.538 294.571C420.026 294.523 420.738 294.195 421.13 293.844L430.261 285.664C430.661 285.304 430.605 285.048 430.117 285.096ZM416.404 286.319L407.272 287.143C406.8 287.183 406.089 287.511 405.681 287.87L396.549 296.051C396.158 296.402 396.222 296.658 396.693 296.618L405.825 295.803C406.313 295.755 407.024 295.427 407.416 295.075L416.548 286.895C416.948 286.535 416.884 286.279 416.404 286.319ZM402.69 287.551L393.559 288.374C393.087 288.414 392.375 288.734 391.968 289.102L382.836 297.282C382.444 297.634 382.508 297.89 382.98 297.85L392.112 297.034C392.591 296.986 393.311 296.658 393.703 296.306L402.834 288.126C403.234 287.767 403.17 287.511 402.69 287.551ZM357.496 302.192L330.605 304.598C330.125 304.646 329.422 304.966 329.022 305.326L319.73 313.642C319.331 314.01 319.395 314.258 319.874 314.218L346.765 311.803C347.237 311.763 347.949 311.435 348.357 311.075L357.64 302.759C358.04 302.399 357.968 302.144 357.496 302.192ZM326.263 304.99L313.925 306.102C313.445 306.142 312.742 306.461 312.342 306.821L303.05 315.145C302.651 315.505 302.715 315.753 303.194 315.713L315.532 314.61C316.02 314.562 316.716 314.242 317.124 313.882L326.407 305.558C326.815 305.198 326.751 304.95 326.263 304.99ZM309.591 306.485L297.237 307.597C296.765 307.637 296.046 307.957 295.646 308.317L286.363 316.641C285.955 317 286.035 317.248 286.498 317.208L298.853 316.105C299.324 316.057 300.044 315.737 300.444 315.377L309.727 307.053C310.135 306.693 310.055 306.446 309.591 306.485ZM292.911 307.981L280.557 309.092C280.086 309.132 279.374 309.452 278.966 309.82L269.683 318.136C269.275 318.496 269.355 318.752 269.819 318.704L282.173 317.6C282.644 317.56 283.364 317.232 283.764 316.872L293.047 308.557C293.455 308.189 293.375 307.941 292.911 307.981ZM276.215 309.484L263.877 310.588C263.406 310.627 262.694 310.955 262.286 311.315L253.003 319.631C252.603 319.991 252.675 320.247 253.147 320.207L265.485 319.095C265.964 319.055 266.668 318.736 267.068 318.368L276.359 310.052C276.759 309.692 276.695 309.436 276.215 309.484ZM259.535 310.979L247.197 312.083C246.718 312.131 246.014 312.451 245.606 312.81L236.323 321.126C235.923 321.494 235.979 321.742 236.467 321.702L248.805 320.591C249.284 320.551 249.988 320.231 250.388 319.871L259.679 311.547C260.079 311.187 260.015 310.931 259.535 310.979ZM242.855 312.475L230.517 313.578C230.038 313.626 229.334 313.946 228.926 314.306L219.643 322.63C219.243 322.99 219.299 323.237 219.787 323.197L232.125 322.086C232.604 322.046 233.308 321.726 233.708 321.366L242.999 313.042C243.399 312.683 243.343 312.435 242.855 312.475ZM226.176 313.97L213.837 315.081C213.358 315.121 212.654 315.441 212.246 315.801L202.963 324.125C202.563 324.485 202.627 324.733 203.107 324.693L215.445 323.581C215.924 323.541 216.628 323.221 217.036 322.862L226.319 314.538C226.719 314.178 226.663 313.93 226.176 313.97ZM209.496 315.465L197.157 316.577C196.678 316.617 195.974 316.936 195.574 317.296L186.283 325.62C185.883 325.98 185.947 326.228 186.427 326.188L198.765 325.085C199.244 325.037 199.948 324.717 200.356 324.357L209.64 316.033C210.039 315.673 209.983 315.425 209.496 315.465ZM192.816 316.96L180.47 318.072C179.998 318.112 179.294 318.432 178.894 318.792L169.603 327.116C169.203 327.475 169.267 327.731 169.731 327.683L182.085 326.58C182.557 326.54 183.268 326.212 183.676 325.852L192.96 317.536C193.367 317.168 193.287 316.92 192.816 316.96ZM176.144 318.456L163.79 319.567C163.318 319.607 162.598 319.935 162.198 320.295L152.915 328.611C152.507 328.971 152.587 329.227 153.051 329.187L165.405 328.075C165.877 328.035 166.588 327.707 166.996 327.347L176.28 319.031C176.687 318.672 176.607 318.416 176.144 318.456ZM159.464 319.959L130.614 322.542C130.126 322.59 129.43 322.91 129.022 323.269L119.739 331.585C119.331 331.953 119.395 332.201 119.883 332.161L148.725 329.57C149.197 329.53 149.9 329.211 150.3 328.843L159.592 320.527C159.991 320.167 159.927 319.911 159.464 319.959ZM430.477 295.835L421.337 296.65C420.858 296.698 420.154 297.018 419.754 297.378L397.605 317.224C397.197 317.584 397.261 317.832 397.749 317.792L406.88 316.968C407.36 316.928 408.064 316.609 408.464 316.249L430.613 296.402C431.021 296.043 430.957 295.787 430.477 295.835ZM416.756 297.066L407.624 297.882C407.144 297.922 406.441 298.249 406.033 298.609L396.901 306.789C396.509 307.141 396.565 307.405 397.045 307.357L406.177 306.541C406.664 306.501 407.376 306.166 407.768 305.814L416.9 297.634C417.299 297.274 417.243 297.018 416.756 297.066ZM403.042 298.297L393.911 299.113C393.439 299.153 392.727 299.481 392.319 299.841L383.188 308.021C382.796 308.373 382.86 308.636 383.332 308.588L392.463 307.773C392.951 307.725 393.663 307.397 394.055 307.045L403.186 298.865C403.586 298.505 403.53 298.249 403.042 298.297ZM389.329 299.521L380.197 300.344C379.725 300.384 379.014 300.704 378.606 301.072L369.474 309.252C369.083 309.604 369.147 309.86 369.618 309.82L378.75 309.004C379.23 308.956 379.949 308.628 380.341 308.277L389.473 300.097C389.873 299.737 389.809 299.481 389.329 299.521ZM370.866 302.12L361.734 302.935C361.246 302.975 360.543 303.303 360.143 303.663L351.011 311.843C350.612 312.203 350.667 312.459 351.155 312.411L360.287 311.595C360.759 311.555 361.47 311.227 361.878 310.867L371.01 302.687C371.41 302.327 371.33 302.072 370.866 302.12ZM329.67 315.393L303.258 317.76C302.779 317.8 302.059 318.136 301.667 318.488L292.376 326.82C291.984 327.164 292.048 327.419 292.528 327.371L318.939 325.005C319.419 324.965 320.122 324.645 320.514 324.293L329.814 315.961C330.197 315.609 330.149 315.345 329.67 315.393ZM298.916 318.152L286.562 319.255C286.099 319.303 285.379 319.631 284.995 319.983L275.696 328.315C275.304 328.659 275.368 328.915 275.832 328.875L288.186 327.763C288.657 327.723 289.369 327.403 289.761 327.052L299.06 318.72C299.452 318.368 299.388 318.104 298.916 318.152ZM282.236 319.647L269.882 320.759C269.419 320.799 268.691 321.126 268.299 321.478L259 329.81C258.608 330.162 258.688 330.41 259.152 330.37L271.506 329.258C271.977 329.219 272.681 328.899 273.073 328.547L282.364 320.215C282.756 319.863 282.708 319.607 282.236 319.647ZM265.557 321.142L253.21 322.254C252.723 322.294 252.011 322.63 251.619 322.974L242.32 331.306C241.928 331.657 241.992 331.905 242.472 331.865L254.826 330.754C255.298 330.714 256.001 330.394 256.393 330.042L265.684 321.71C266.076 321.366 266.028 321.102 265.557 321.142ZM248.869 322.638L186.491 328.235C186.011 328.283 185.291 328.611 184.899 328.963L175.6 337.295C175.216 337.638 175.272 337.894 175.76 337.854L238.138 332.257C238.617 332.209 239.321 331.889 239.713 331.537L249.013 323.213C249.404 322.862 249.348 322.598 248.869 322.638ZM182.149 328.627L169.795 329.738C169.331 329.778 168.611 330.106 168.219 330.458L158.928 338.79C158.536 339.142 158.592 339.39 159.064 339.35L171.418 338.238C171.89 338.198 172.601 337.878 172.993 337.527L182.293 329.195C182.684 328.843 182.621 328.587 182.149 328.627ZM165.469 330.122L153.115 331.234C152.651 331.274 151.923 331.609 151.531 331.953L142.232 340.285C141.84 340.637 141.92 340.885 142.384 340.845L154.738 339.733C155.21 339.693 155.921 339.374 156.313 339.022L165.613 330.69C166.005 330.346 165.941 330.082 165.469 330.122ZM148.789 331.617L136.435 332.729C135.971 332.769 135.243 333.105 134.852 333.449L125.552 341.78C125.16 342.132 125.24 342.38 125.704 342.34L138.058 341.229C138.53 341.189 139.233 340.869 139.617 340.517L148.917 332.193C149.309 331.841 149.261 331.577 148.789 331.617ZM132.309 333.097L117.332 334.44C116.852 334.488 116.133 334.816 115.749 335.168L106.449 343.492C106.057 343.843 106.121 344.099 106.601 344.059L121.578 342.708C122.05 342.668 122.761 342.348 123.153 341.996L132.453 333.664C132.845 333.313 132.781 333.057 132.309 333.097ZM403.394 309.036L394.262 309.852C393.783 309.9 393.079 310.22 392.671 310.58L383.836 318.496C383.436 318.856 383.5 319.111 383.979 319.063L393.111 318.248C393.599 318.2 394.302 317.88 394.702 317.52L403.538 309.604C403.946 309.244 403.882 308.988 403.394 309.036ZM389.681 310.268L380.549 311.083C380.077 311.123 379.366 311.451 378.958 311.811L370.122 319.727C369.722 320.087 369.802 320.335 370.266 320.295L379.398 319.479C379.885 319.431 380.581 319.111 380.989 318.752L389.825 310.835C390.224 310.476 390.16 310.22 389.681 310.268ZM371.226 312.643L362.102 313.466C361.622 313.506 360.919 313.826 360.519 314.186L352.435 321.43C352.043 321.774 352.107 322.03 352.595 321.982L361.71 321.166C362.19 321.126 362.894 320.807 363.285 320.455L371.362 313.218C371.769 312.858 371.705 312.603 371.226 312.643ZM357.768 313.85L348.629 314.674C348.149 314.714 347.445 315.033 347.045 315.401L338.961 322.638C338.569 322.99 338.633 323.237 339.113 323.197L348.253 322.374C348.716 322.334 349.436 322.014 349.828 321.662L357.904 314.426C358.312 314.066 358.232 313.81 357.768 313.85ZM344.303 315.057L335.171 315.881C334.699 315.921 333.996 316.241 333.596 316.601L325.52 323.845C325.128 324.189 325.192 324.445 325.656 324.405L334.795 323.581C335.275 323.541 335.979 323.221 336.37 322.87L344.446 315.633C344.846 315.273 344.782 315.017 344.303 315.057ZM255.337 341.892L169.379 349.609C167.644 349.761 165.045 350.952 163.598 352.247L113.062 397.514C111.607 398.825 111.855 399.744 113.582 399.593L199.548 391.876C201.292 391.724 203.866 390.541 205.322 389.238L255.857 343.963C257.305 342.668 257.081 341.733 255.337 341.892Z" fill="url(#paint4_linear)"/>
</g>
<path d="M209.232 361.752L252.004 347.102L221.607 283.743L219.604 260.85L196.875 282.096L209.232 361.752Z" fill="#4997FC"/>
<path d="M221.607 283.743L219.604 260.85L261.967 254.231L255.246 287.573L221.607 283.743Z" fill="#4997FC"/>
<path d="M250.936 355.795L274.739 337.524L262.064 254.261L240.948 278.734L250.936 355.795Z" fill="#145FC0"/>
<path fill-rule="evenodd" clip-rule="evenodd" d="M252.705 354.845L208.78 361.377L196.87 282.272L241.087 278.608L252.705 354.845Z" fill="#1877F2"/>
<path d="M122.221 371.99L164.992 357.34L131.351 268.74L128.067 248.495L106.62 267.093L122.221 371.99Z" fill="#F74646"/>
<path d="M131.351 268.74L128.067 248.495L172.499 242.566L164.991 272.57L131.351 268.74Z" fill="#F74646"/>
<path d="M164.477 366.344L188.28 348.073L172.5 242.164L150.692 263.73L164.477 366.344Z" fill="#CA3D3D"/>
<path fill-rule="evenodd" clip-rule="evenodd" d="M165.882 365.945L121.711 371.902L106.613 267.268L150.829 263.604L165.882 365.945Z" fill="#F75858"/>
<path d="M289.842 312.617L332.613 297.967L298.973 209.366L297.757 188.086L274.241 207.72L289.842 312.617Z" fill="#86D4A5"/>
<path d="M298.973 209.366L297.757 188.086L340.12 183.193L332.612 213.197L298.973 209.366Z" fill="#86D4A5"/>
<path d="M337.496 349.472L361.299 331.201L340.12 182.79L318.312 204.357L337.496 349.472Z" fill="#50A873"/>
<path fill-rule="evenodd" clip-rule="evenodd" d="M337.978 348.81L293.807 354.767L274.228 207.895L318.445 204.231L337.978 348.81Z" fill="url(#paint5_linear)"/>
<path d="M464.645 94.3726C426.973 96.4073 397.402 92.9924 397.069 86.8277C396.736 80.663 425.767 74.083 463.439 72.0483C501.111 70.0136 530.682 73.4285 531.015 79.5932C531.348 85.7579 502.317 92.3379 464.645 94.3726Z" fill="#880013"/>
<path d="M464.645 94.3726C426.973 96.4073 397.402 92.9924 397.069 86.8277C396.736 80.663 425.767 74.083 463.439 72.0483C501.111 70.0136 530.682 73.4285 531.015 79.5932C531.348 85.7579 502.317 92.3379 464.645 94.3726Z" fill="url(#paint6_linear)"/>
<path d="M469.384 193.625C427.259 195.9 392.704 190.249 392.205 181.002C392.19 180.736 392.204 180.47 392.246 180.204C393.652 171.223 426.661 162.349 467.575 160.139C508.64 157.921 542.512 163.236 544.652 172.072C544.707 172.3 544.742 172.53 544.754 172.762C545.254 182.009 511.508 191.35 469.384 193.625Z" fill="#880013"/>
<path d="M469.384 193.625C427.259 195.9 392.704 190.249 392.205 181.002C392.19 180.736 392.204 180.47 392.246 180.204C393.652 171.223 426.661 162.349 467.575 160.139C508.64 157.921 542.512 163.236 544.652 172.072C544.707 172.3 544.742 172.53 544.754 172.762C545.254 182.009 511.508 191.35 469.384 193.625Z" fill="url(#paint7_linear)"/>
<path d="M397.069 86.8277C397.402 92.9924 426.973 96.4073 464.645 94.3726C502.317 92.3379 531.348 85.7579 531.015 79.5932L544.652 172.072C542.512 163.236 508.64 157.921 467.575 160.139C426.661 162.349 393.652 171.223 392.246 180.204L397.069 86.8277Z" fill="#880013"/>
<path d="M397.069 86.8277C397.402 92.9924 426.973 96.4073 464.645 94.3726C502.317 92.3379 531.348 85.7579 531.015 79.5932L544.652 172.072C542.512 163.236 508.64 157.921 467.575 160.139C426.661 162.349 393.652 171.223 392.246 180.204L397.069 86.8277Z" fill="url(#paint8_linear)"/>
<circle cx="483.254" cy="134.744" r="13.0271" transform="rotate(-3.09159 483.254 134.744)" fill="#FEFEFE"/>
<circle cx="443.006" cy="136.921" r="13.0271" transform="rotate(-3.09159 443.006 136.921)" fill="#FEFEFE"/>
<path fill-rule="evenodd" clip-rule="evenodd" d="M485.584 131.277C485.298 127.939 482.359 125.465 479.021 125.752C478.775 125.773 478.533 125.809 478.296 125.858C478.797 126.348 479.131 127.012 479.195 127.765C479.339 129.434 478.102 130.903 476.433 131.046C475.371 131.137 474.391 130.67 473.78 129.888C473.529 130.647 473.424 131.468 473.497 132.314C473.783 135.652 476.722 138.126 480.059 137.839C483.397 137.553 485.871 134.614 485.584 131.277Z" fill="#1C0202"/>
<path fill-rule="evenodd" clip-rule="evenodd" d="M444.727 132.397C443.412 128.983 439.579 127.281 436.166 128.596C435.912 128.693 435.669 128.804 435.435 128.928C436.111 129.29 436.666 129.887 436.963 130.658C437.62 132.365 436.769 134.282 435.062 134.939C433.975 135.358 432.803 135.164 431.925 134.528C431.892 135.399 432.031 136.291 432.364 137.157C433.679 140.57 437.512 142.272 440.925 140.958C444.339 139.644 446.041 135.811 444.727 132.397Z" fill="#1C0202"/>
<ellipse cx="491.125" cy="158.429" rx="7.81626" ry="3.90813" transform="rotate(-3.09159 491.125 158.429)" fill="black" fill-opacity="0.13"/>
<ellipse cx="439.098" cy="161.239" rx="7.81626" ry="3.90813" transform="rotate(-3.09159 439.098 161.239)" fill="black" fill-opacity="0.13"/>
<path d="M497.602 121.452C496.748 119.167 492.235 114.266 486.643 114.317M438.604 117.432C436.424 116.993 431.342 117.469 428.462 122.885" stroke="#1C0202" stroke-width="5.99706" stroke-linecap="round" stroke-linejoin="round"/>
<path d="M476.019 155.069C471.112 155.536 472.19 158.712 465.063 159.097C457.937 159.482 458.666 156.208 453.736 156.272C448.807 156.336 448.475 163.227 453.041 167.63C457.608 172.032 462.263 172.488 465.776 172.298C469.289 172.109 473.868 171.154 477.934 166.285C482 161.416 480.927 154.602 476.019 155.069Z" fill="#090101"/>
<mask id="mask0" mask-type="alpha" maskUnits="userSpaceOnUse" x="449" y="155" width="32" height="18">
<path d="M476.019 155.069C471.112 155.536 472.19 158.712 465.063 159.097C457.937 159.482 458.666 156.208 453.736 156.272C448.807 156.336 448.475 163.227 453.041 167.63C457.608 172.032 462.263 172.488 465.776 172.298C469.289 172.109 473.868 171.154 477.934 166.285C482 161.416 480.927 154.602 476.019 155.069Z" fill="black"/>
</mask>
<g mask="url(#mask0)">
<ellipse cx="464.522" cy="151.673" rx="11.89" ry="10.5895" transform="rotate(-3.09159 464.522 151.673)" fill="white"/>
<path d="M466.029 162.38L465.759 157.372M464.38 162.842L464.109 157.833M467.513 162.3L467.243 157.291M468.812 162.23L468.541 157.221M470.09 161.789L469.82 156.78M471.319 160.42L471.048 155.411M472.617 160.35L472.347 155.341M473.896 159.909L473.625 154.9M461.742 162.24L461.472 157.231M460.258 162.32L459.988 157.311M458.96 162.39L458.689 157.381M457.641 162.089L457.371 157.08M456.272 160.861L456.002 155.852M454.974 160.931L454.703 155.922M453.655 160.63L453.385 155.621" stroke="black" stroke-opacity="0.12" stroke-width="0.445741"/>
<circle cx="458.428" cy="188.448" r="25.6017" transform="rotate(-3.09159 458.428 188.448)" fill="#FE8F71"/>
</g>
<path d="M464.649 94.374C502.322 92.3393 531.352 85.7593 531.019 79.5946C530.686 73.4299 501.116 70.015 463.444 72.0497C425.771 74.0844 396.741 80.6644 397.074 86.8291C397.407 92.9938 426.977 96.4087 464.649 94.374Z" fill="url(#paint9_linear)"/>
<path d="M509.083 178.103C511.487 164.939 512.726 156.149 512.038 143.413C511.35 130.678 509 109.392 506.537 98.3299C504.073 87.2682 501.626 88.0223 497.839 86.983C494.808 86.1516 483.235 85.2841 477.827 84.9542L480.827 82.9264C486.844 83.0161 499.538 83.906 502.179 86.7486C502.92 87.5457 503.659 88.3116 504.365 89.1183M513.468 178.539C514.89 176.021 515.647 164.091 515.685 156.145C515.724 148.199 509.687 110.598 509.218 101.917C508.854 95.1826 506.806 91.9072 504.365 89.1183M516.072 177.725C516.881 175.395 516.851 169.543 517.495 163.04C518.3 154.912 514.044 122.18 512.888 112.291C511.732 102.403 508.716 92.6149 507.274 88.9611C506.162 86.1418 493.954 83.5516 486.156 82.6386M522.728 176.949C522.929 172.999 520.899 166.151 520.202 153.253C519.46 139.516 513.297 106.129 509.975 92.9069M525.154 175.727C523.708 160.465 519.259 131.227 517.597 118.878C515.52 103.442 513.123 93.6206 511.682 89.9669C510.241 86.3132 485.202 83.3121 481.481 83.513C478.635 83.6668 492.06 81.8498 501.979 83.0282M528.945 173.809C528.655 168.435 526.836 160.709 526.675 157.732C526.474 154.011 517.263 89.6655 509.554 85.1064C507.742 84.035 505.026 83.3902 501.979 83.0282M535.221 171.757C529.652 149.254 521.081 102.769 518.252 96.4533C514.716 88.5592 513.91 83.0054 486.156 82.6386M486.156 82.6386C483.848 82.3684 481.927 82.2451 480.794 82.3063C476.825 82.5206 484.101 82.1277 488.235 81.9044C489.285 81.9969 490.541 82.1373 491.908 82.3279C498.139 83.1966 506.678 85.1073 508.481 88.274C508.888 88.9884 509.398 90.61 509.975 92.9069M501.979 83.0282C504.548 84.5479 511.985 81.8655 516.459 89.7089C520.932 97.5524 530.338 147.517 536.516 169.78M501.979 83.0282C507.629 83.8267 511.903 89.3208 515.14 96.4068M530.612 172.94C529.07 159.756 525.849 138.085 524.535 132.186C523.476 127.428 521.022 109.288 515.14 96.4068M512.066 175.655C515.915 160.107 514.694 120.901 504.365 89.1183M519.023 177.566C520.385 158.994 518.169 121.5 511.13 96.6234M509.975 92.9069C510.382 94.0971 510.766 95.3378 511.13 96.6234M532.695 168.12C527.795 146.475 517.597 105.058 515.14 96.4068M511.13 96.6234C515.408 112.634 524.603 145.324 525.621 164.175" stroke="#160202" stroke-width="1.86592" stroke-linecap="round" stroke-linejoin="round"/>
<path d="M488.78 81.5158C485.276 80.6676 475.507 81.4844 468.004 82.2321C466.715 82.3606 466.659 84.1034 467.941 84.294C475.167 85.3684 485.536 86.678 491.55 86.4987C500.818 86.2225 495.082 83.0413 488.78 81.5158Z" fill="#160202"/>
<path d="M518.259 175.166C521.059 161.747 518.24 135.513 513.669 115.361C507.955 90.1704 508.609 90.757 504.754 88.4775C500.899 86.198 483.368 84.0352 482.748 84.0687M482.748 84.0687C482.128 84.1022 505.793 84.6898 508.994 86.3827C512.195 88.0756 521.53 111.205 526.037 137.082C529.643 157.784 530.828 168.22 531.13 173.801M482.748 84.0687C516.888 82.8467 513.436 88.0086 517.491 94.0088C521.547 100.009 534.916 166.324 534.983 167.565" stroke="#6A1717" stroke-width="0.933669"/>
<path d="M402.852 63.2556C390.275 34.9765 354.82 4.54258 316.8 16.9203C255.241 36.9621 265.17 192.332 216.849 200.276C179.46 206.422 172.499 132.097 116.897 136.73C61.2945 141.364 50.0417 232.71 21.5786 237.344" stroke="#160202" stroke-width="6.89345" stroke-linecap="round" stroke-linejoin="round"/>
<circle cx="327.299" cy="14.3315" r="13.2386" fill="url(#paint10_radial)"/>
<circle cx="213.409" cy="199.241" r="13.2386" fill="url(#paint11_radial)"/>
<circle cx="105.721" cy="138.15" r="13.2386" fill="url(#paint12_radial)"/>
<ellipse rx="219.575" ry="17.566" transform="matrix(-1 0 0 1 326.078 516.743)" fill="#A1BDAC" fill-opacity="0.5"/>
<ellipse rx="218.266" ry="18.5266" transform="matrix(-1 0 0 1 272.269 481.527)" fill="url(#paint13_linear)"/>
<path d="M272.266 534.79C392.809 534.79 490.532 526.297 490.532 515.818C490.532 505.339 392.809 496.846 272.266 496.846C151.723 496.846 54 505.339 54 515.818C54 526.297 151.723 534.79 272.266 534.79Z" fill="url(#paint14_linear)"/>
<path d="M490.532 479.211C490.532 489.69 392.809 498.183 272.266 498.183C151.723 498.183 54 489.69 54 479.211V515.818C54 505.339 151.723 496.846 272.266 496.846C392.809 496.846 490.532 505.339 490.532 515.818V479.211Z" fill="url(#paint15_linear)"/>
<defs>
<filter id="filter0_i" x="106.193" y="251.988" width="373.621" height="147.621" filterUnits="userSpaceOnUse" color-interpolation-filters="sRGB">
<feFlood flood-opacity="0" result="BackgroundImageFix"/>
<feBlend mode="normal" in="SourceGraphic" in2="BackgroundImageFix" result="shape"/>
<feColorMatrix in="SourceAlpha" type="matrix" values="0 0 0 0 0 0 0 0 0 0 0 0 0 0 0 0 0 0 127 0" result="hardAlpha"/>
<feOffset dy="-1.21586"/>
<feComposite in2="hardAlpha" operator="arithmetic" k2="-1" k3="1"/>
<feColorMatrix type="matrix" values="0 0 0 0 0 0 0 0 0 0 0 0 0 0 0 0 0 0 0.17 0"/>
<feBlend mode="normal" in2="shape" result="effect1_innerShadow"/>
</filter>
<linearGradient id="paint0_linear" x1="518.128" y1="227.418" x2="142.053" y2="33.2291" gradientUnits="userSpaceOnUse">
<stop stop-color="#53BB7C"/>
<stop offset="1" stop-color="#DEF6E7"/>
</linearGradient>
<linearGradient id="paint1_linear" x1="476.508" y1="215.591" x2="115.065" y2="144.949" gradientUnits="userSpaceOnUse">
<stop stop-color="#F4FFF8"/>
<stop offset="1" stop-color="#F1FBF5"/>
</linearGradient>
<linearGradient id="paint2_linear" x1="501.737" y1="240.754" x2="-9.63199" y2="415.88" gradientUnits="userSpaceOnUse">
<stop stop-color="#53BB7C"/>
<stop offset="1" stop-color="#AAE2C1"/>
</linearGradient>
<linearGradient id="paint3_linear" x1="70.928" y1="323.064" x2="310.721" y2="128.788" gradientUnits="userSpaceOnUse">
<stop stop-color="#AAE2C0"/>
<stop offset="1" stop-color="#53BB7C"/>
</linearGradient>
<linearGradient id="paint4_linear" x1="315.415" y1="375.301" x2="152.547" y2="260.593" gradientUnits="userSpaceOnUse">
<stop stop-color="#80BF99"/>
<stop offset="1" stop-color="#A8DEBE"/>
</linearGradient>
<linearGradient id="paint5_linear" x1="345.315" y1="231.29" x2="-446.853" y2="941.352" gradientUnits="userSpaceOnUse">
<stop stop-color="#53BB7C"/>
<stop offset="1" stop-color="#DEF6E7"/>
</linearGradient>
<linearGradient id="paint6_linear" x1="386.357" y1="153.331" x2="539.314" y2="152.798" gradientUnits="userSpaceOnUse">
<stop stop-color="#FF4F4F"/>
<stop offset="0.191235" stop-color="#E84141"/>
<stop offset="0.429791" stop-color="#D03332"/>
<stop offset="0.685693" stop-color="#BA2121"/>
<stop offset="0.944584" stop-color="#B31C1C"/>
</linearGradient>
<linearGradient id="paint7_linear" x1="386.357" y1="153.331" x2="539.314" y2="152.798" gradientUnits="userSpaceOnUse">
<stop stop-color="#FF4F4F"/>
<stop offset="0.191235" stop-color="#E84141"/>
<stop offset="0.429791" stop-color="#D03332"/>
<stop offset="0.685693" stop-color="#BA2121"/>
<stop offset="0.944584" stop-color="#B31C1C"/>
</linearGradient>
<linearGradient id="paint8_linear" x1="386.357" y1="153.331" x2="539.314" y2="152.798" gradientUnits="userSpaceOnUse">
<stop stop-color="#FF4F4F"/>
<stop offset="0.191235" stop-color="#E84141"/>
<stop offset="0.429791" stop-color="#D03332"/>
<stop offset="0.685693" stop-color="#BA2121"/>
<stop offset="0.944584" stop-color="#B31C1C"/>
</linearGradient>
<linearGradient id="paint9_linear" x1="455.634" y1="65.6304" x2="498.387" y2="85.7106" gradientUnits="userSpaceOnUse">
<stop stop-color="#EE4343"/>
<stop offset="1" stop-color="#CA3D3D"/>
</linearGradient>
<radialGradient id="paint10_radial" cx="0" cy="0" r="1" gradientUnits="userSpaceOnUse" gradientTransform="translate(327.299 14.3315) rotate(90) scale(13.2386)">
<stop stop-color="#8FFAB9"/>
<stop offset="1" stop-color="#50A873"/>
</radialGradient>
<radialGradient id="paint11_radial" cx="0" cy="0" r="1" gradientUnits="userSpaceOnUse" gradientTransform="translate(213.409 199.241) rotate(90) scale(13.2386)">
<stop stop-color="#4D98F8"/>
<stop offset="1" stop-color="#1776F1"/>
</radialGradient>
<radialGradient id="paint12_radial" cx="0" cy="0" r="1" gradientUnits="userSpaceOnUse" gradientTransform="translate(105.721 138.15) rotate(90) scale(13.2386)">
<stop stop-color="#F65858"/>
<stop offset="1" stop-color="#CA3D3D"/>
</radialGradient>
<linearGradient id="paint13_linear" x1="487.125" y1="8.58861" x2="474.131" y2="91.0812" gradientUnits="userSpaceOnUse">
<stop stop-color="#F4FFF8"/>
<stop offset="1" stop-color="#82D7A5"/>
</linearGradient>
<linearGradient id="paint14_linear" x1="490.532" y1="458.901" x2="54" y2="458.901" gradientUnits="userSpaceOnUse">
<stop stop-color="#6EB98C"/>
<stop offset="0.438323" stop-color="#85D0A3"/>
<stop offset="0.738142" stop-color="#C5EAD4"/>
<stop offset="1" stop-color="#E2FFEF"/>
</linearGradient>
<linearGradient id="paint15_linear" x1="490.532" y1="458.901" x2="54" y2="458.901" gradientUnits="userSpaceOnUse">
<stop stop-color="#6EB98C"/>
<stop offset="0.438323" stop-color="#85D0A3"/>
<stop offset="0.738142" stop-color="#C5EAD4"/>
<stop offset="1" stop-color="#E2FFEF"/>
</linearGradient>
</defs>
</svg>
