<svg width="495" height="449" viewBox="0 0 495 449" fill="none" xmlns="http://www.w3.org/2000/svg">
<mask id="path-1-inside-1" fill="white">
<path fill-rule="evenodd" clip-rule="evenodd" d="M0.71875 0H494.515V429.207H0.71875V0ZM1.99995 428.093H31.504V402.448H1.99995V428.093ZM31.504 1.11365H1.99995V26.7584H31.504V1.11365ZM463.742 53.5064H493.245V27.8616H463.742V53.5064ZM463.742 80.2648H493.245V54.62H463.742V80.2648ZM463.742 107.023H493.245V81.3784H463.742V107.023ZM463.742 133.782H493.245V108.137H463.742V133.782ZM463.742 160.53H493.245V134.885H463.742V160.53ZM463.742 187.288H493.245V161.643H463.742V187.288ZM463.742 214.047H493.245V188.402H463.742V214.047ZM463.742 240.805H493.245V215.16H463.742V240.805ZM463.742 267.563H493.245V241.919H463.742V267.563ZM463.742 294.311H493.245V268.666H463.742V294.311ZM463.742 321.07H493.245V295.425H463.742V321.07ZM463.742 347.828H493.245V322.183H463.742V347.828ZM463.742 374.587H493.245V348.942H463.742V374.587ZM463.742 401.335H493.245V375.69H463.742V401.335ZM432.956 401.335H462.46V375.69H432.956V401.335ZM432.956 428.093H462.46V402.448H432.956V428.093ZM402.171 428.093H431.675V402.448H402.171V428.093ZM371.386 428.093H400.902V402.448H371.386V428.093ZM340.613 428.093H370.117V402.448H340.613V428.093ZM309.828 428.093H339.332V402.448H309.828V428.093ZM279.042 428.093H308.546V402.448H279.042V428.093ZM248.257 428.093H277.761V402.448H248.257V428.093ZM217.484 428.093H246.988V402.448H217.484V428.093ZM186.699 428.093H216.203V402.448H186.699V428.093ZM155.914 428.093H185.418V402.448H155.914V428.093ZM125.129 428.093H154.633V402.448H125.129V428.093ZM94.3556 428.093H123.86V402.448H94.3556V428.093ZM63.5703 428.093H93.0743V402.448H63.5703V428.093ZM62.2891 402.448H32.7852V428.093H62.2891V402.448ZM32.7852 401.335H62.2891V375.69H32.7852V401.335ZM31.504 375.69H1.99995V401.335H31.504V375.69ZM31.504 348.942H1.99995V374.587H31.504V348.942ZM31.504 322.183H1.99995V347.828H31.504V322.183ZM31.504 295.425H1.99995V321.07H31.504V295.425ZM31.504 268.666H1.99995V294.311H31.504V268.666ZM31.504 241.919H1.99995V267.563H31.504V241.919ZM31.504 215.16H1.99995V240.805H31.504V215.16ZM31.504 188.402H1.99995V214.047H31.504V188.402ZM31.504 161.643H1.99995V187.288H31.504V161.643ZM31.504 134.895H1.99995V160.54H31.504V134.895ZM31.504 108.137H1.99995V133.782H31.504V108.137ZM31.504 81.3784H1.99995V107.023H31.504V81.3784ZM31.504 54.62H1.99995V80.2648H31.504V54.62ZM31.504 27.8616H1.99995V53.5064H31.504V27.8616ZM62.2891 27.8616H32.7852V53.5064H62.2891V27.8616ZM62.2891 1.11365H32.7852V26.7584H62.2891V1.11365ZM93.0743 1.11365H63.5703V26.7584H93.0743V1.11365ZM123.86 1.11365H94.3556V26.7584H123.86V1.11365ZM154.633 1.11365H125.129V26.7584H154.633V1.11365ZM185.418 1.11365H155.914V26.7584H185.418V1.11365ZM216.203 1.11365H186.699V26.7584H216.203V1.11365ZM246.988 1.11365H217.472V26.7584H246.988V1.11365ZM277.761 1.11365H248.257V26.7584H277.761V1.11365ZM308.546 1.11365H279.042V26.7584H308.546V1.11365ZM339.332 1.11365H309.828V26.7584H339.332V1.11365ZM370.117 1.11365H340.613V26.7584H370.117V1.11365ZM400.902 1.11365H371.386V26.7584H400.902V1.11365ZM431.675 1.11365H402.171V26.7584H431.675V1.11365ZM432.956 26.7584H462.46V1.11365H432.956V26.7584ZM432.956 53.5064H462.46V27.8616H432.956V53.5064ZM432.956 80.2648H462.46V54.62H432.956V80.2648ZM432.956 107.023H462.46V81.3784H432.956V107.023ZM432.956 133.782H462.46V108.137H432.956V133.782ZM432.956 160.53H462.46V134.885H432.956V160.53ZM432.956 187.288H462.46V161.643H432.956V187.288ZM432.956 214.047H462.46V188.402H432.956V214.047ZM432.956 240.805H462.46V215.16H432.956V240.805ZM432.956 267.563H462.46V241.919H432.956V267.563ZM432.956 294.311H462.46V268.666H432.956V294.311ZM432.956 321.07H462.46V295.425H432.956V321.07ZM432.956 347.828H462.46V322.183H432.956V347.828ZM432.956 374.587H462.46V348.942H432.956V374.587ZM402.171 374.587H431.675V348.942H402.171V374.587ZM402.171 401.335H431.675V375.69H402.171V401.335ZM371.386 401.335H400.902V375.69H371.386V401.335ZM340.613 401.335H370.117V375.69H340.613V401.335ZM309.828 401.335H339.332V375.69H309.828V401.335ZM279.042 401.335H308.546V375.69H279.042V401.335ZM248.257 401.335H277.761V375.69H248.257V401.335ZM217.484 401.335H246.988V375.69H217.484V401.335ZM186.699 401.335H216.203V375.69H186.699V401.335ZM155.914 401.335H185.418V375.69H155.914V401.335ZM125.129 401.335H154.633V375.69H125.129V401.335ZM94.3556 401.335H123.86V375.69H94.3556V401.335ZM93.0743 375.69H63.5703V401.335H93.0743V375.69ZM63.5703 374.587H93.0743V348.942H63.5703V374.587ZM62.2891 348.942H32.7852V374.587H62.2891V348.942ZM62.2891 322.183H32.7852V347.828H62.2891V322.183ZM62.2891 295.425H32.7852V321.07H62.2891V295.425ZM62.2891 268.666H32.7852V294.311H62.2891V268.666ZM62.2891 241.919H32.7852V267.563H62.2891V241.919ZM62.2891 215.16H32.7852V240.805H62.2891V215.16ZM62.2891 188.402H32.7852V214.047H62.2891V188.402ZM62.2891 161.643H32.7852V187.288H62.2891V161.643ZM62.2891 134.895H32.7852V160.54H62.2891V134.895ZM62.2891 108.137H32.7852V133.782H62.2891V108.137ZM62.2891 81.3784H32.7852V107.023H62.2891V81.3784ZM62.2891 54.62H32.7852V80.2648H62.2891V54.62ZM93.0743 54.62H63.5703V80.2648H93.0743V54.62ZM93.0743 27.8616H63.5703V53.5064H93.0743V27.8616ZM123.86 27.8616H94.3556V53.5064H123.86V27.8616ZM154.633 27.8616H125.129V53.5064H154.633V27.8616ZM185.418 27.8616H155.914V53.5064H185.418V27.8616ZM216.203 27.8616H186.699V53.5064H216.203V27.8616ZM246.988 27.8616H217.472V53.5064H246.988V27.8616ZM277.761 27.8616H248.257V53.5064H277.761V27.8616ZM308.546 27.8616H279.042V53.5064H308.546V27.8616ZM339.332 27.8616H309.828V53.5064H339.332V27.8616ZM370.117 27.8616H340.613V53.5064H370.117V27.8616ZM400.902 27.8616H371.386V53.5064H400.902V27.8616ZM402.171 53.5064H431.675V27.8616H402.171V53.5064ZM402.171 80.2648H431.675V54.62H402.171V80.2648ZM402.171 107.023H431.675V81.3784H402.171V107.023ZM402.171 133.782H431.675V108.137H402.171V133.782ZM402.171 160.53H431.675V134.885H402.171V160.53ZM402.171 187.288H431.675V161.643H402.171V187.288ZM402.171 214.047H431.675V188.402H402.171V214.047ZM402.171 240.805H431.675V215.16H402.171V240.805ZM402.171 267.563H431.675V241.919H402.171V267.563ZM402.171 294.311H431.675V268.666H402.171V294.311ZM402.171 321.07H431.675V295.425H402.171V321.07ZM402.171 347.828H431.675V322.183H402.171V347.828ZM371.386 347.828H400.902V322.183H371.386V347.828ZM371.386 374.587H400.902V348.942H371.386V374.587ZM340.613 374.587H370.117V348.942H340.613V374.587ZM309.828 374.587H339.332V348.942H309.828V374.587ZM279.042 374.587H308.546V348.942H279.042V374.587ZM248.257 374.587H277.761V348.942H248.257V374.587ZM217.484 374.587H246.988V348.942H217.484V374.587ZM186.699 374.587H216.203V348.942H186.699V374.587ZM155.914 374.587H185.418V348.942H155.914V374.587ZM125.129 374.587H154.633V348.942H125.129V374.587ZM123.86 348.942H94.3556V374.587H123.86V348.942ZM94.3556 347.828H123.86V322.183H94.3556V347.828ZM93.0743 322.183H63.5703V347.828H93.0743V322.183ZM93.0743 295.425H63.5703V321.07H93.0743V295.425ZM93.0743 268.666H63.5703V294.311H93.0743V268.666ZM93.0743 241.919H63.5703V267.563H93.0743V241.919ZM93.0743 215.16H63.5703V240.805H93.0743V215.16ZM93.0743 188.402H63.5703V214.047H93.0743V188.402ZM93.0743 161.643H63.5703V187.288H93.0743V161.643ZM93.0743 134.895H63.5703V160.54H93.0743V134.895ZM93.0743 108.137H63.5703V133.782H93.0743V108.137ZM93.0743 81.3784H63.5703V107.023H93.0743V81.3784ZM123.86 81.3784H94.3556V107.023H123.86V81.3784ZM123.86 54.62H94.3556V80.2648H123.86V54.62ZM154.633 54.62H125.129V80.2648H154.633V54.62ZM185.418 54.62H155.914V80.2648H185.418V54.62ZM216.203 54.62H186.699V80.2648H216.203V54.62ZM246.988 54.62H217.472V80.2648H246.988V54.62ZM277.761 54.62H248.257V80.2648H277.761V54.62ZM308.546 54.62H279.042V80.2648H308.546V54.62ZM339.332 54.62H309.828V80.2648H339.332V54.62ZM370.117 54.62H340.613V80.2648H370.117V54.62ZM371.386 80.2648H400.902V54.62H371.386V80.2648ZM371.386 107.023H400.902V81.3784H371.386V107.023ZM371.386 133.782H400.902V108.137H371.386V133.782ZM371.386 160.53H400.902V134.885H371.386V160.53ZM371.386 187.288H400.902V161.643H371.386V187.288ZM371.386 214.047H400.902V188.402H371.386V214.047ZM371.386 240.805H400.902V215.16H371.386V240.805ZM371.386 267.563H400.902V241.919H371.386V267.563ZM371.386 294.311H400.902V268.666H371.386V294.311ZM371.386 321.07H400.902V295.425H371.386V321.07ZM340.613 321.07H370.117V295.425H340.613V321.07ZM340.613 347.828H370.117V322.183H340.613V347.828ZM309.828 347.828H339.332V322.183H309.828V347.828ZM279.042 347.828H308.546V322.183H279.042V347.828ZM248.257 347.828H277.761V322.183H248.257V347.828ZM217.484 347.828H246.988V322.183H217.484V347.828ZM186.699 347.828H216.203V322.183H186.699V347.828ZM155.914 347.828H185.418V322.183H155.914V347.828ZM154.633 322.183H125.129V347.828H154.633V322.183ZM125.129 321.07H154.633V295.425H125.129V321.07ZM123.86 295.425H94.3556V321.07H123.86V295.425ZM123.86 268.666H94.3556V294.311H123.86V268.666ZM123.86 241.919H94.3556V267.563H123.86V241.919ZM123.86 215.16H94.3556V240.805H123.86V215.16ZM123.86 188.402H94.3556V214.047H123.86V188.402ZM123.86 161.643H94.3556V187.288H123.86V161.643ZM123.86 134.895H94.3556V160.54H123.86V134.895ZM123.86 108.137H94.3556V133.782H123.86V108.137ZM154.633 108.137H125.129V133.782H154.633V108.137ZM154.633 81.3784H125.129V107.023H154.633V81.3784ZM185.418 81.3784H155.914V107.023H185.418V81.3784ZM216.203 81.3784H186.699V107.023H216.203V81.3784ZM246.988 81.3784H217.472V107.023H246.988V81.3784ZM277.761 81.3784H248.257V107.023H277.761V81.3784ZM308.546 81.3784H279.042V107.023H308.546V81.3784ZM339.332 81.3784H309.828V107.023H339.332V81.3784ZM340.613 107.023H370.117V81.3784H340.613V107.023ZM340.613 133.782H370.117V108.137H340.613V133.782ZM340.613 160.53H370.117V134.885H340.613V160.53ZM340.613 187.288H370.117V161.643H340.613V187.288ZM340.613 214.047H370.117V188.402H340.613V214.047ZM340.613 240.805H370.117V215.16H340.613V240.805ZM340.613 267.563H370.117V241.919H340.613V267.563ZM340.613 294.311H370.117V268.666H340.613V294.311ZM309.828 294.311H339.332V268.666H309.828V294.311ZM309.828 321.07H339.332V295.425H309.828V321.07ZM279.042 321.07H308.546V295.425H279.042V321.07ZM248.257 321.07H277.761V295.425H248.257V321.07ZM217.484 321.07H246.988V295.425H217.484V321.07ZM186.699 321.07H216.203V295.425H186.699V321.07ZM185.418 295.425H155.914V321.07H185.418V295.425ZM155.914 294.311H185.418V268.666H155.914V294.311ZM154.633 268.666H125.129V294.311H154.633V268.666ZM154.633 241.919H125.129V267.563H154.633V241.919ZM154.633 215.16H125.129V240.805H154.633V215.16ZM154.633 188.402H125.129V214.047H154.633V188.402ZM154.633 161.643H125.129V187.288H154.633V161.643ZM154.633 134.895H125.129V160.54H154.633V134.895ZM185.418 134.895H155.914V160.54H185.418V134.895ZM185.418 108.137H155.914V133.782H185.418V108.137ZM216.203 108.137H186.699V133.782H216.203V108.137ZM246.988 108.137H217.472V133.782H246.988V108.137ZM277.761 108.137H248.257V133.782H277.761V108.137ZM308.546 108.137H279.042V133.782H308.546V108.137ZM309.828 133.782H339.332V108.137H309.828V133.782ZM309.828 160.53H339.332V134.885H309.828V160.53ZM309.828 187.288H339.332V161.643H309.828V187.288ZM309.828 214.047H339.332V188.402H309.828V214.047ZM309.828 240.805H339.332V215.16H309.828V240.805ZM309.828 267.563H339.332V241.919H309.828V267.563ZM279.042 267.563H308.546V241.919H279.042V267.563ZM279.042 294.311H308.546V268.666H279.042V294.311ZM248.257 294.311H277.761V268.666H248.257V294.311ZM217.484 294.311H246.988V268.666H217.484V294.311ZM216.203 268.666H186.699V294.311H216.203V268.666ZM186.699 267.563H216.203V241.919H186.699V267.563ZM185.418 241.919H155.914V267.563H185.418V241.919ZM185.418 215.16H155.914V240.805H185.418V215.16ZM185.418 188.402H155.914V214.047H185.418V188.402ZM185.418 161.643H155.914V187.288H185.418V161.643ZM216.203 161.643H186.699V187.288H216.203V161.643ZM216.203 134.895H186.699V160.54H216.203V134.895ZM246.988 134.895H217.472V160.54H246.988V134.895ZM277.761 134.895H248.257V160.54H277.761V134.895ZM279.042 160.53H308.546V134.885H279.042V160.53ZM279.042 187.288H308.546V161.643H279.042V187.288ZM279.042 214.047H308.546V188.402H279.042V214.047ZM279.042 240.805H308.546V215.16H279.042V240.805ZM248.257 240.805H277.761V215.16H248.257V240.805ZM248.257 267.563H277.761V241.919H248.257V267.563ZM246.988 241.919H217.472V267.563H246.988V241.919ZM217.484 240.805H246.988V215.16H217.484V240.805ZM216.203 215.16H186.699V240.805H216.203V215.16ZM216.203 188.402H186.699V214.047H216.203V188.402ZM246.988 188.402H217.472V214.047H246.988V188.402ZM246.988 161.643H217.472V187.288H246.988V161.643ZM277.761 188.402H248.257V214.047H277.761V188.402ZM248.257 187.288H277.761V161.643H248.257V187.288ZM493.245 1.11365H463.742V26.7584H493.245V1.11365ZM463.742 428.093H493.245V402.448H463.742V428.093Z"/>
</mask>
<path fill-rule="evenodd" clip-rule="evenodd" d="M0.71875 0H494.515V429.207H0.71875V0ZM1.99995 428.093H31.504V402.448H1.99995V428.093ZM31.504 1.11365H1.99995V26.7584H31.504V1.11365ZM463.742 53.5064H493.245V27.8616H463.742V53.5064ZM463.742 80.2648H493.245V54.62H463.742V80.2648ZM463.742 107.023H493.245V81.3784H463.742V107.023ZM463.742 133.782H493.245V108.137H463.742V133.782ZM463.742 160.53H493.245V134.885H463.742V160.53ZM463.742 187.288H493.245V161.643H463.742V187.288ZM463.742 214.047H493.245V188.402H463.742V214.047ZM463.742 240.805H493.245V215.16H463.742V240.805ZM463.742 267.563H493.245V241.919H463.742V267.563ZM463.742 294.311H493.245V268.666H463.742V294.311ZM463.742 321.07H493.245V295.425H463.742V321.07ZM463.742 347.828H493.245V322.183H463.742V347.828ZM463.742 374.587H493.245V348.942H463.742V374.587ZM463.742 401.335H493.245V375.69H463.742V401.335ZM432.956 401.335H462.46V375.69H432.956V401.335ZM432.956 428.093H462.46V402.448H432.956V428.093ZM402.171 428.093H431.675V402.448H402.171V428.093ZM371.386 428.093H400.902V402.448H371.386V428.093ZM340.613 428.093H370.117V402.448H340.613V428.093ZM309.828 428.093H339.332V402.448H309.828V428.093ZM279.042 428.093H308.546V402.448H279.042V428.093ZM248.257 428.093H277.761V402.448H248.257V428.093ZM217.484 428.093H246.988V402.448H217.484V428.093ZM186.699 428.093H216.203V402.448H186.699V428.093ZM155.914 428.093H185.418V402.448H155.914V428.093ZM125.129 428.093H154.633V402.448H125.129V428.093ZM94.3556 428.093H123.86V402.448H94.3556V428.093ZM63.5703 428.093H93.0743V402.448H63.5703V428.093ZM62.2891 402.448H32.7852V428.093H62.2891V402.448ZM32.7852 401.335H62.2891V375.69H32.7852V401.335ZM31.504 375.69H1.99995V401.335H31.504V375.69ZM31.504 348.942H1.99995V374.587H31.504V348.942ZM31.504 322.183H1.99995V347.828H31.504V322.183ZM31.504 295.425H1.99995V321.07H31.504V295.425ZM31.504 268.666H1.99995V294.311H31.504V268.666ZM31.504 241.919H1.99995V267.563H31.504V241.919ZM31.504 215.16H1.99995V240.805H31.504V215.16ZM31.504 188.402H1.99995V214.047H31.504V188.402ZM31.504 161.643H1.99995V187.288H31.504V161.643ZM31.504 134.895H1.99995V160.54H31.504V134.895ZM31.504 108.137H1.99995V133.782H31.504V108.137ZM31.504 81.3784H1.99995V107.023H31.504V81.3784ZM31.504 54.62H1.99995V80.2648H31.504V54.62ZM31.504 27.8616H1.99995V53.5064H31.504V27.8616ZM62.2891 27.8616H32.7852V53.5064H62.2891V27.8616ZM62.2891 1.11365H32.7852V26.7584H62.2891V1.11365ZM93.0743 1.11365H63.5703V26.7584H93.0743V1.11365ZM123.86 1.11365H94.3556V26.7584H123.86V1.11365ZM154.633 1.11365H125.129V26.7584H154.633V1.11365ZM185.418 1.11365H155.914V26.7584H185.418V1.11365ZM216.203 1.11365H186.699V26.7584H216.203V1.11365ZM246.988 1.11365H217.472V26.7584H246.988V1.11365ZM277.761 1.11365H248.257V26.7584H277.761V1.11365ZM308.546 1.11365H279.042V26.7584H308.546V1.11365ZM339.332 1.11365H309.828V26.7584H339.332V1.11365ZM370.117 1.11365H340.613V26.7584H370.117V1.11365ZM400.902 1.11365H371.386V26.7584H400.902V1.11365ZM431.675 1.11365H402.171V26.7584H431.675V1.11365ZM432.956 26.7584H462.46V1.11365H432.956V26.7584ZM432.956 53.5064H462.46V27.8616H432.956V53.5064ZM432.956 80.2648H462.46V54.62H432.956V80.2648ZM432.956 107.023H462.46V81.3784H432.956V107.023ZM432.956 133.782H462.46V108.137H432.956V133.782ZM432.956 160.53H462.46V134.885H432.956V160.53ZM432.956 187.288H462.46V161.643H432.956V187.288ZM432.956 214.047H462.46V188.402H432.956V214.047ZM432.956 240.805H462.46V215.16H432.956V240.805ZM432.956 267.563H462.46V241.919H432.956V267.563ZM432.956 294.311H462.46V268.666H432.956V294.311ZM432.956 321.07H462.46V295.425H432.956V321.07ZM432.956 347.828H462.46V322.183H432.956V347.828ZM432.956 374.587H462.46V348.942H432.956V374.587ZM402.171 374.587H431.675V348.942H402.171V374.587ZM402.171 401.335H431.675V375.69H402.171V401.335ZM371.386 401.335H400.902V375.69H371.386V401.335ZM340.613 401.335H370.117V375.69H340.613V401.335ZM309.828 401.335H339.332V375.69H309.828V401.335ZM279.042 401.335H308.546V375.69H279.042V401.335ZM248.257 401.335H277.761V375.69H248.257V401.335ZM217.484 401.335H246.988V375.69H217.484V401.335ZM186.699 401.335H216.203V375.69H186.699V401.335ZM155.914 401.335H185.418V375.69H155.914V401.335ZM125.129 401.335H154.633V375.69H125.129V401.335ZM94.3556 401.335H123.86V375.69H94.3556V401.335ZM93.0743 375.69H63.5703V401.335H93.0743V375.69ZM63.5703 374.587H93.0743V348.942H63.5703V374.587ZM62.2891 348.942H32.7852V374.587H62.2891V348.942ZM62.2891 322.183H32.7852V347.828H62.2891V322.183ZM62.2891 295.425H32.7852V321.07H62.2891V295.425ZM62.2891 268.666H32.7852V294.311H62.2891V268.666ZM62.2891 241.919H32.7852V267.563H62.2891V241.919ZM62.2891 215.16H32.7852V240.805H62.2891V215.16ZM62.2891 188.402H32.7852V214.047H62.2891V188.402ZM62.2891 161.643H32.7852V187.288H62.2891V161.643ZM62.2891 134.895H32.7852V160.54H62.2891V134.895ZM62.2891 108.137H32.7852V133.782H62.2891V108.137ZM62.2891 81.3784H32.7852V107.023H62.2891V81.3784ZM62.2891 54.62H32.7852V80.2648H62.2891V54.62ZM93.0743 54.62H63.5703V80.2648H93.0743V54.62ZM93.0743 27.8616H63.5703V53.5064H93.0743V27.8616ZM123.86 27.8616H94.3556V53.5064H123.86V27.8616ZM154.633 27.8616H125.129V53.5064H154.633V27.8616ZM185.418 27.8616H155.914V53.5064H185.418V27.8616ZM216.203 27.8616H186.699V53.5064H216.203V27.8616ZM246.988 27.8616H217.472V53.5064H246.988V27.8616ZM277.761 27.8616H248.257V53.5064H277.761V27.8616ZM308.546 27.8616H279.042V53.5064H308.546V27.8616ZM339.332 27.8616H309.828V53.5064H339.332V27.8616ZM370.117 27.8616H340.613V53.5064H370.117V27.8616ZM400.902 27.8616H371.386V53.5064H400.902V27.8616ZM402.171 53.5064H431.675V27.8616H402.171V53.5064ZM402.171 80.2648H431.675V54.62H402.171V80.2648ZM402.171 107.023H431.675V81.3784H402.171V107.023ZM402.171 133.782H431.675V108.137H402.171V133.782ZM402.171 160.53H431.675V134.885H402.171V160.53ZM402.171 187.288H431.675V161.643H402.171V187.288ZM402.171 214.047H431.675V188.402H402.171V214.047ZM402.171 240.805H431.675V215.16H402.171V240.805ZM402.171 267.563H431.675V241.919H402.171V267.563ZM402.171 294.311H431.675V268.666H402.171V294.311ZM402.171 321.07H431.675V295.425H402.171V321.07ZM402.171 347.828H431.675V322.183H402.171V347.828ZM371.386 347.828H400.902V322.183H371.386V347.828ZM371.386 374.587H400.902V348.942H371.386V374.587ZM340.613 374.587H370.117V348.942H340.613V374.587ZM309.828 374.587H339.332V348.942H309.828V374.587ZM279.042 374.587H308.546V348.942H279.042V374.587ZM248.257 374.587H277.761V348.942H248.257V374.587ZM217.484 374.587H246.988V348.942H217.484V374.587ZM186.699 374.587H216.203V348.942H186.699V374.587ZM155.914 374.587H185.418V348.942H155.914V374.587ZM125.129 374.587H154.633V348.942H125.129V374.587ZM123.86 348.942H94.3556V374.587H123.86V348.942ZM94.3556 347.828H123.86V322.183H94.3556V347.828ZM93.0743 322.183H63.5703V347.828H93.0743V322.183ZM93.0743 295.425H63.5703V321.07H93.0743V295.425ZM93.0743 268.666H63.5703V294.311H93.0743V268.666ZM93.0743 241.919H63.5703V267.563H93.0743V241.919ZM93.0743 215.16H63.5703V240.805H93.0743V215.16ZM93.0743 188.402H63.5703V214.047H93.0743V188.402ZM93.0743 161.643H63.5703V187.288H93.0743V161.643ZM93.0743 134.895H63.5703V160.54H93.0743V134.895ZM93.0743 108.137H63.5703V133.782H93.0743V108.137ZM93.0743 81.3784H63.5703V107.023H93.0743V81.3784ZM123.86 81.3784H94.3556V107.023H123.86V81.3784ZM123.86 54.62H94.3556V80.2648H123.86V54.62ZM154.633 54.62H125.129V80.2648H154.633V54.62ZM185.418 54.62H155.914V80.2648H185.418V54.62ZM216.203 54.62H186.699V80.2648H216.203V54.62ZM246.988 54.62H217.472V80.2648H246.988V54.62ZM277.761 54.62H248.257V80.2648H277.761V54.62ZM308.546 54.62H279.042V80.2648H308.546V54.62ZM339.332 54.62H309.828V80.2648H339.332V54.62ZM370.117 54.62H340.613V80.2648H370.117V54.62ZM371.386 80.2648H400.902V54.62H371.386V80.2648ZM371.386 107.023H400.902V81.3784H371.386V107.023ZM371.386 133.782H400.902V108.137H371.386V133.782ZM371.386 160.53H400.902V134.885H371.386V160.53ZM371.386 187.288H400.902V161.643H371.386V187.288ZM371.386 214.047H400.902V188.402H371.386V214.047ZM371.386 240.805H400.902V215.16H371.386V240.805ZM371.386 267.563H400.902V241.919H371.386V267.563ZM371.386 294.311H400.902V268.666H371.386V294.311ZM371.386 321.07H400.902V295.425H371.386V321.07ZM340.613 321.07H370.117V295.425H340.613V321.07ZM340.613 347.828H370.117V322.183H340.613V347.828ZM309.828 347.828H339.332V322.183H309.828V347.828ZM279.042 347.828H308.546V322.183H279.042V347.828ZM248.257 347.828H277.761V322.183H248.257V347.828ZM217.484 347.828H246.988V322.183H217.484V347.828ZM186.699 347.828H216.203V322.183H186.699V347.828ZM155.914 347.828H185.418V322.183H155.914V347.828ZM154.633 322.183H125.129V347.828H154.633V322.183ZM125.129 321.07H154.633V295.425H125.129V321.07ZM123.86 295.425H94.3556V321.07H123.86V295.425ZM123.86 268.666H94.3556V294.311H123.86V268.666ZM123.86 241.919H94.3556V267.563H123.86V241.919ZM123.86 215.16H94.3556V240.805H123.86V215.16ZM123.86 188.402H94.3556V214.047H123.86V188.402ZM123.86 161.643H94.3556V187.288H123.86V161.643ZM123.86 134.895H94.3556V160.54H123.86V134.895ZM123.86 108.137H94.3556V133.782H123.86V108.137ZM154.633 108.137H125.129V133.782H154.633V108.137ZM154.633 81.3784H125.129V107.023H154.633V81.3784ZM185.418 81.3784H155.914V107.023H185.418V81.3784ZM216.203 81.3784H186.699V107.023H216.203V81.3784ZM246.988 81.3784H217.472V107.023H246.988V81.3784ZM277.761 81.3784H248.257V107.023H277.761V81.3784ZM308.546 81.3784H279.042V107.023H308.546V81.3784ZM339.332 81.3784H309.828V107.023H339.332V81.3784ZM340.613 107.023H370.117V81.3784H340.613V107.023ZM340.613 133.782H370.117V108.137H340.613V133.782ZM340.613 160.53H370.117V134.885H340.613V160.53ZM340.613 187.288H370.117V161.643H340.613V187.288ZM340.613 214.047H370.117V188.402H340.613V214.047ZM340.613 240.805H370.117V215.16H340.613V240.805ZM340.613 267.563H370.117V241.919H340.613V267.563ZM340.613 294.311H370.117V268.666H340.613V294.311ZM309.828 294.311H339.332V268.666H309.828V294.311ZM309.828 321.07H339.332V295.425H309.828V321.07ZM279.042 321.07H308.546V295.425H279.042V321.07ZM248.257 321.07H277.761V295.425H248.257V321.07ZM217.484 321.07H246.988V295.425H217.484V321.07ZM186.699 321.07H216.203V295.425H186.699V321.07ZM185.418 295.425H155.914V321.07H185.418V295.425ZM155.914 294.311H185.418V268.666H155.914V294.311ZM154.633 268.666H125.129V294.311H154.633V268.666ZM154.633 241.919H125.129V267.563H154.633V241.919ZM154.633 215.16H125.129V240.805H154.633V215.16ZM154.633 188.402H125.129V214.047H154.633V188.402ZM154.633 161.643H125.129V187.288H154.633V161.643ZM154.633 134.895H125.129V160.54H154.633V134.895ZM185.418 134.895H155.914V160.54H185.418V134.895ZM185.418 108.137H155.914V133.782H185.418V108.137ZM216.203 108.137H186.699V133.782H216.203V108.137ZM246.988 108.137H217.472V133.782H246.988V108.137ZM277.761 108.137H248.257V133.782H277.761V108.137ZM308.546 108.137H279.042V133.782H308.546V108.137ZM309.828 133.782H339.332V108.137H309.828V133.782ZM309.828 160.53H339.332V134.885H309.828V160.53ZM309.828 187.288H339.332V161.643H309.828V187.288ZM309.828 214.047H339.332V188.402H309.828V214.047ZM309.828 240.805H339.332V215.16H309.828V240.805ZM309.828 267.563H339.332V241.919H309.828V267.563ZM279.042 267.563H308.546V241.919H279.042V267.563ZM279.042 294.311H308.546V268.666H279.042V294.311ZM248.257 294.311H277.761V268.666H248.257V294.311ZM217.484 294.311H246.988V268.666H217.484V294.311ZM216.203 268.666H186.699V294.311H216.203V268.666ZM186.699 267.563H216.203V241.919H186.699V267.563ZM185.418 241.919H155.914V267.563H185.418V241.919ZM185.418 215.16H155.914V240.805H185.418V215.16ZM185.418 188.402H155.914V214.047H185.418V188.402ZM185.418 161.643H155.914V187.288H185.418V161.643ZM216.203 161.643H186.699V187.288H216.203V161.643ZM216.203 134.895H186.699V160.54H216.203V134.895ZM246.988 134.895H217.472V160.54H246.988V134.895ZM277.761 134.895H248.257V160.54H277.761V134.895ZM279.042 160.53H308.546V134.885H279.042V160.53ZM279.042 187.288H308.546V161.643H279.042V187.288ZM279.042 214.047H308.546V188.402H279.042V214.047ZM279.042 240.805H308.546V215.16H279.042V240.805ZM248.257 240.805H277.761V215.16H248.257V240.805ZM248.257 267.563H277.761V241.919H248.257V267.563ZM246.988 241.919H217.472V267.563H246.988V241.919ZM217.484 240.805H246.988V215.16H217.484V240.805ZM216.203 215.16H186.699V240.805H216.203V215.16ZM216.203 188.402H186.699V214.047H216.203V188.402ZM246.988 188.402H217.472V214.047H246.988V188.402ZM246.988 161.643H217.472V187.288H246.988V161.643ZM277.761 188.402H248.257V214.047H277.761V188.402ZM248.257 187.288H277.761V161.643H248.257V187.288ZM493.245 1.11365H463.742V26.7584H493.245V1.11365ZM463.742 428.093H493.245V402.448H463.742V428.093Z" fill="#F9E6BE" stroke="#A9DEBF" stroke-width="4.16705" mask="url(#path-1-inside-1)"/>
<path d="M383.793 96.4106L387.425 98.4522L407.705 256.147L402.506 249.899L383.793 96.4106Z" fill="#50A873"/>
<path d="M168.92 115.782L384.839 96.4106L404.378 248.936L187.486 268.065L168.92 115.782Z" fill="url(#paint0_linear)"/>
<path d="M174.459 122.425L381.493 103.848L397.88 238.254L190.852 256.83L174.459 122.425Z" fill="url(#paint1_linear)"/>
<rect x="212.068" y="168.793" width="37.7061" height="5.10604" rx="2.55302" transform="rotate(-5.06696 212.068 168.793)" fill="#ABDBCC"/>
<rect x="257.059" y="164.802" width="15.7109" height="5.10604" rx="2.55302" transform="rotate(-5.06696 257.059 164.802)" fill="#ABDBCC"/>
<rect x="277.795" y="162.964" width="19.6386" height="5.10604" rx="2.55302" transform="rotate(-5.06696 277.795 162.964)" fill="#ABDBCC"/>
<rect x="304.012" y="160.64" width="36.9206" height="5.10604" rx="2.55302" transform="rotate(-5.06696 304.012 160.64)" fill="#ABDBCC"/>
<rect x="203.285" y="136.448" width="24.3519" height="5.10604" rx="2.55302" transform="rotate(-5.06696 203.285 136.448)" fill="#ABDBCC"/>
<rect x="232.629" y="133.846" width="15.7109" height="5.10604" rx="2.55302" transform="rotate(-5.06696 232.629 133.846)" fill="#ABDBCC"/>
<rect x="253.367" y="132.008" width="34.5639" height="5.10604" rx="2.55302" transform="rotate(-5.06696 253.367 132.008)" fill="#ABDBCC"/>
<rect x="291.314" y="128.643" width="10.9976" height="5.10604" rx="2.55302" transform="rotate(-5.06696 291.314 128.643)" fill="#ABDBCC"/>
<rect x="197.375" y="203.217" width="24.3519" height="5.10604" rx="2.55302" transform="rotate(-5.06696 197.375 203.217)" fill="#ABDBCC"/>
<rect x="226.719" y="200.615" width="15.7109" height="5.10604" rx="2.55302" transform="rotate(-5.06696 226.719 200.615)" fill="#ABDBCC"/>
<rect x="247.451" y="198.776" width="34.5639" height="5.10604" rx="2.55302" transform="rotate(-5.06696 247.451 198.776)" fill="#ABDBCC"/>
<rect x="285.404" y="195.411" width="57.7375" height="5.10604" rx="2.55302" transform="rotate(-5.06696 285.404 195.411)" fill="#ABDBCC"/>
<rect x="205.229" y="158.357" width="24.3519" height="5.10604" rx="2.55302" transform="rotate(-5.06696 205.229 158.357)" fill="#ABDBCC"/>
<rect x="234.572" y="155.756" width="15.7109" height="5.10604" rx="2.55302" transform="rotate(-5.06696 234.572 155.756)" fill="#ABDBCC"/>
<rect x="255.307" y="153.917" width="20.8169" height="5.10604" rx="2.55302" transform="rotate(-5.06696 255.307 153.917)" fill="#ABDBCC"/>
<rect x="282.697" y="151.489" width="27.494" height="5.10604" rx="2.55302" transform="rotate(-5.06696 282.697 151.489)" fill="#ABDBCC"/>
<rect x="220.17" y="188.972" width="24.3519" height="5.10604" rx="2.55302" transform="rotate(-5.06696 220.17 188.972)" fill="#ABDBCC"/>
<rect x="196.303" y="191.088" width="19.2458" height="5.10604" rx="2.55302" transform="rotate(-5.06696 196.303 191.088)" fill="#ABDBCC"/>
<rect x="249.512" y="186.37" width="15.7109" height="5.10604" rx="2.55302" transform="rotate(-5.06696 249.512 186.37)" fill="#ABDBCC"/>
<rect x="270.25" y="184.532" width="20.8169" height="5.10604" rx="2.55302" transform="rotate(-5.06696 270.25 184.532)" fill="#ABDBCC"/>
<rect x="297.631" y="182.103" width="16.1037" height="5.10604" rx="2.55302" transform="rotate(-5.06696 297.631 182.103)" fill="#ABDBCC"/>
<rect x="319.15" y="180.196" width="29.8507" height="5.10604" rx="2.55302" transform="rotate(-5.06696 319.15 180.196)" fill="#ABDBCC"/>
<rect x="195.205" y="236.532" width="24.3519" height="5.10604" rx="2.55302" transform="rotate(-5.06696 195.205 236.532)" fill="#ABDBCC"/>
<rect x="224.549" y="233.93" width="15.7109" height="5.10604" rx="2.55302" transform="rotate(-5.06696 224.549 233.93)" fill="#ABDBCC"/>
<rect x="245.285" y="232.091" width="20.8169" height="5.10604" rx="2.55302" transform="rotate(-5.06696 245.285 232.091)" fill="#ABDBCC"/>
<rect x="272.67" y="229.663" width="16.1037" height="5.10604" rx="2.55302" transform="rotate(-5.06696 272.67 229.663)" fill="#ABDBCC"/>
<rect x="294.189" y="227.755" width="29.8507" height="5.10604" rx="2.55302" transform="rotate(-5.06696 294.189 227.755)" fill="#ABDBCC"/>
<rect x="331.414" y="223.602" width="33.2131" height="5.10604" rx="2.55302" transform="rotate(-5.06696 331.414 223.602)" fill="#ABDBCC"/>
<rect x="197.605" y="147.993" width="37.7061" height="5.10604" rx="2.55302" transform="rotate(-5.06696 197.605 147.993)" fill="#ABDBCC"/>
<rect x="242.6" y="144.003" width="15.7109" height="5.10604" rx="2.55302" transform="rotate(-5.06696 242.6 144.003)" fill="#ABDBCC"/>
<rect x="263.334" y="142.164" width="19.6386" height="5.10604" rx="2.55302" transform="rotate(-5.06696 263.334 142.164)" fill="#ABDBCC"/>
<rect x="286.023" y="140.153" width="26.3157" height="5.10604" rx="2.55302" transform="rotate(-5.06696 286.023 140.153)" fill="#ABDBCC"/>
<rect x="316.154" y="137.481" width="26.3157" height="5.10604" rx="2.55302" transform="rotate(-5.06696 316.154 137.481)" fill="#ABDBCC"/>
<rect x="204.998" y="213.583" width="37.7061" height="5.10604" rx="2.55302" transform="rotate(-5.06696 204.998 213.583)" fill="#ABDBCC"/>
<rect x="249.992" y="209.592" width="15.7109" height="5.10604" rx="2.55302" transform="rotate(-5.06696 249.992 209.592)" fill="#ABDBCC"/>
<rect x="270.725" y="207.754" width="19.6386" height="5.10604" rx="2.55302" transform="rotate(-5.06696 270.725 207.754)" fill="#ABDBCC"/>
<rect x="293.418" y="205.742" width="40.4555" height="5.10604" rx="2.55302" transform="rotate(-5.06696 293.418 205.742)" fill="#ABDBCC"/>
<rect x="217.027" y="180.182" width="37.7061" height="5.10604" rx="2.55302" transform="rotate(-5.06696 217.027 180.182)" fill="#ABDBCC"/>
<rect x="200.98" y="181.604" width="13.747" height="5.10604" rx="2.55302" transform="rotate(-5.06696 200.98 181.604)" fill="#ABDBCC"/>
<rect x="262.018" y="176.192" width="15.7109" height="5.10604" rx="2.55302" transform="rotate(-5.06696 262.018 176.192)" fill="#ABDBCC"/>
<rect x="282.752" y="174.354" width="19.6386" height="5.10604" rx="2.55302" transform="rotate(-5.06696 282.752 174.354)" fill="#ABDBCC"/>
<rect x="305.445" y="172.342" width="26.3157" height="5.10604" rx="2.55302" transform="rotate(-5.06696 305.445 172.342)" fill="#ABDBCC"/>
<rect x="211.162" y="225.259" width="37.7061" height="5.10604" rx="2.55302" transform="rotate(-5.06696 211.162 225.259)" fill="#ABDBCC"/>
<rect x="256.156" y="221.269" width="15.7109" height="5.10604" rx="2.55302" transform="rotate(-5.06696 256.156 221.269)" fill="#ABDBCC"/>
<rect x="276.889" y="219.431" width="19.6386" height="5.10604" rx="2.55302" transform="rotate(-5.06696 276.889 219.431)" fill="#ABDBCC"/>
<rect x="299.584" y="217.419" width="26.3157" height="5.10604" rx="2.55302" transform="rotate(-5.06696 299.584 217.419)" fill="#ABDBCC"/>
<rect x="331.416" y="213.482" width="16.2722" height="5.10604" rx="2.55302" transform="rotate(-5.06696 331.416 213.482)" fill="#ABDBCC"/>
<path d="M404.272 248.786L407.681 255.878L304.091 345.927C302.13 347.634 299.446 346.733 298.088 343.916L404.272 248.786Z" fill="#5AB17D"/>
<path d="M302.176 346.778L85.051 366.256C83.5059 366.393 81.9051 365.364 80.9629 363.394L298.088 343.916C299.035 345.881 300.631 346.915 302.176 346.778Z" fill="#5AB17D"/>
<path d="M298.088 343.916L80.9629 363.394L187.142 268.264L404.272 248.786L298.088 343.916Z" fill="url(#paint2_linear)"/>
<path d="M187.4 268.851L402.503 249.556L297.834 343.328L82.7305 362.624L187.4 268.851Z" fill="url(#paint3_linear)"/>
<g style="mix-blend-mode:multiply" opacity="0.6" filter="url(#filter0_i)">
<path d="M384.681 256.055L378.896 256.577C378.592 256.602 378.146 256.805 377.888 257.033L374.813 259.793C374.564 260.011 374.6 260.178 374.904 260.153L380.689 259.631C380.993 259.606 381.449 259.393 381.697 259.175L384.772 256.414C385.025 256.187 384.99 256.029 384.681 256.055ZM375.993 256.835L370.208 257.357C369.899 257.382 369.458 257.585 369.2 257.813L366.125 260.568C365.877 260.791 365.907 260.959 366.216 260.933L372.001 260.411C372.305 260.386 372.756 260.173 373.009 259.95L376.084 257.195C376.337 256.967 376.297 256.81 375.993 256.835ZM367.305 257.615L361.52 258.132C361.221 258.162 360.765 258.365 360.512 258.593L357.437 261.349C357.189 261.571 357.229 261.739 357.523 261.713L363.313 261.192C363.617 261.166 364.068 260.953 364.316 260.731L367.396 257.975C367.65 257.747 367.609 257.59 367.305 257.615ZM358.617 258.395L352.827 258.912C352.533 258.942 352.077 259.145 351.824 259.373L348.744 262.129C348.496 262.352 348.541 262.519 348.835 262.488L354.625 261.972C354.929 261.941 355.38 261.734 355.628 261.511L358.703 258.755C358.962 258.527 358.921 258.365 358.617 258.395ZM349.924 259.175L342.108 259.874C341.804 259.905 341.358 260.107 341.105 260.335L338.025 263.091C337.777 263.314 337.812 263.481 338.116 263.451L345.933 262.752C346.242 262.721 346.692 262.514 346.941 262.291L350.016 259.535C350.274 259.307 350.233 259.145 349.924 259.175ZM339.205 260.138L331.384 260.837C331.085 260.862 330.629 261.07 330.376 261.298L327.296 264.054C327.052 264.277 327.093 264.439 327.387 264.413L335.213 263.714C335.512 263.684 335.973 263.476 336.221 263.253L339.296 260.498C339.555 260.27 339.504 260.107 339.205 260.138ZM328.481 261.1L320.664 261.799C320.355 261.825 319.91 262.027 319.656 262.26L316.576 265.016C316.328 265.239 316.364 265.401 316.668 265.376L324.484 264.677C324.793 264.646 325.244 264.439 325.492 264.216L328.567 261.46C328.825 261.232 328.785 261.07 328.481 261.1ZM317.757 262.058L309.935 262.762C309.636 262.787 309.19 262.99 308.937 263.223L305.857 265.979C305.609 266.197 305.644 266.364 305.938 266.338L313.765 265.634C314.064 265.609 314.525 265.401 314.773 265.178L317.848 262.423C318.106 262.195 318.056 262.032 317.757 262.058ZM307.032 263.02L299.216 263.724C298.907 263.75 298.461 263.952 298.208 264.18L295.128 266.941C294.885 267.159 294.915 267.326 295.219 267.301L303.036 266.602C303.345 266.571 303.795 266.364 304.044 266.141L307.119 263.385C307.377 263.152 307.336 262.995 307.032 263.02ZM296.313 263.983L288.487 264.687C288.188 264.712 287.742 264.915 287.489 265.143L284.409 267.904C284.165 268.122 284.196 268.289 284.495 268.263L292.316 267.559C292.615 267.534 293.076 267.326 293.324 267.103L296.399 264.348C296.658 264.114 296.607 263.957 296.313 263.983ZM285.584 264.945L277.767 265.649C277.458 265.675 277.013 265.877 276.759 266.105L273.684 268.861C273.436 269.084 273.467 269.251 273.77 269.226L281.592 268.522C281.896 268.496 282.347 268.284 282.595 268.066L285.675 265.305C285.928 265.077 285.888 264.92 285.584 264.945ZM274.865 265.908L267.048 266.612C266.739 266.637 266.293 266.84 266.04 267.068L262.965 269.824C262.717 270.047 262.747 270.214 263.051 270.188L270.873 269.484C271.177 269.459 271.628 269.246 271.876 269.023L274.951 266.267C275.209 266.039 275.169 265.882 274.865 265.908ZM264.145 266.87L256.319 267.574C256.02 267.6 255.569 267.802 255.311 268.03L252.236 270.786C251.988 271.009 252.028 271.176 252.327 271.151L260.154 270.447C260.447 270.421 260.898 270.209 261.147 269.986L264.227 267.23C264.48 267.002 264.439 266.845 264.145 266.87ZM250.189 268.122L242.363 268.826C242.069 268.851 241.613 269.054 241.354 269.282L238.28 272.042C238.031 272.26 238.072 272.427 238.371 272.402L246.197 271.698C246.491 271.673 246.957 271.46 247.205 271.242L250.28 268.481C250.534 268.253 250.488 268.096 250.189 268.122ZM239.46 269.084L231.643 269.783C231.339 269.813 230.894 270.016 230.635 270.244L227.56 273C227.312 273.223 227.348 273.39 227.652 273.365L235.468 272.66C235.772 272.635 236.228 272.422 236.476 272.199L239.551 269.444C239.804 269.216 239.769 269.059 239.46 269.084ZM228.741 270.047L220.914 270.746C220.62 270.776 220.164 270.979 219.911 271.207L216.831 273.962C216.583 274.185 216.628 274.352 216.922 274.327L224.749 273.623C225.048 273.598 225.509 273.385 225.757 273.162L228.832 270.406C229.085 270.178 229.04 270.021 228.741 270.047ZM218.011 271.009L210.195 271.708C209.891 271.738 209.445 271.941 209.192 272.169L206.112 274.925C205.864 275.148 205.899 275.315 206.203 275.285L214.019 274.585C214.323 274.56 214.779 274.347 215.028 274.124L218.103 271.369C218.356 271.141 218.32 270.984 218.011 271.009ZM202.378 272.412L194.562 273.111C194.253 273.142 193.812 273.344 193.554 273.572L190.479 276.328C190.231 276.551 190.261 276.718 190.57 276.688L198.386 275.989C198.69 275.958 199.146 275.751 199.389 275.528L202.469 272.772C202.723 272.544 202.682 272.382 202.378 272.412ZM379.078 261.08L373.288 261.597C372.984 261.627 372.538 261.83 372.285 262.058L366.5 267.24C366.241 267.468 366.282 267.63 366.591 267.6L372.376 267.083C372.68 267.053 373.126 266.85 373.379 266.622L379.169 261.44C379.422 261.212 379.382 261.05 379.078 261.08ZM370.385 261.855L364.6 262.377C364.296 262.402 363.85 262.61 363.597 262.838L357.807 268.02C357.554 268.248 357.594 268.41 357.898 268.38L363.683 267.863C363.992 267.833 364.438 267.63 364.691 267.402L370.476 262.22C370.73 261.992 370.694 261.83 370.385 261.855ZM361.697 262.635L355.912 263.157C355.618 263.182 355.162 263.385 354.904 263.613L349.119 268.8C348.866 269.028 348.911 269.185 349.21 269.16L354.995 268.638C355.304 268.613 355.745 268.41 356.003 268.182L361.789 263C362.042 262.767 362.001 262.61 361.697 262.635ZM353.009 263.415L347.224 263.937C346.925 263.963 346.47 264.165 346.216 264.393L340.431 269.58C340.178 269.808 340.223 269.965 340.522 269.94L346.307 269.418C346.611 269.393 347.057 269.19 347.316 268.962L353.101 263.775C353.354 263.547 353.313 263.39 353.009 263.415ZM344.301 264.196L326.343 265.806C326.034 265.837 325.588 266.039 325.335 266.267L319.454 271.541C319.195 271.769 319.236 271.926 319.54 271.901L337.503 270.29C337.807 270.259 338.253 270.057 338.511 269.829L344.393 264.56C344.646 264.332 344.61 264.17 344.301 264.196ZM323.592 266.055L315.776 266.759C315.467 266.784 315.021 266.987 314.768 267.215L308.887 272.488C308.628 272.716 308.669 272.873 308.973 272.848L316.794 272.149C317.098 272.118 317.544 271.916 317.797 271.688L323.684 266.414C323.937 266.186 323.896 266.029 323.592 266.055ZM313.025 267.002L305.209 267.706C304.905 267.731 304.454 267.934 304.201 268.167L298.319 273.436C298.061 273.664 298.101 273.826 298.41 273.795L306.227 273.096C306.531 273.066 306.977 272.863 307.23 272.635L313.116 267.367C313.37 267.139 313.329 266.977 313.025 267.002ZM302.458 267.954L294.631 268.653C294.338 268.679 293.892 268.886 293.633 269.114L287.752 274.383C287.494 274.611 287.534 274.773 287.833 274.748L295.66 274.043C295.954 274.018 296.409 273.81 296.663 273.582L302.549 268.314C302.802 268.086 302.757 267.924 302.458 267.954ZM291.891 268.902L284.064 269.601C283.77 269.626 283.314 269.834 283.061 270.062L277.175 275.33C276.921 275.558 276.972 275.72 277.266 275.695L285.092 274.991C285.386 274.965 285.842 274.758 286.096 274.53L291.982 269.261C292.235 269.033 292.19 268.871 291.891 268.902ZM281.324 269.849L273.497 270.548C273.203 270.578 272.747 270.781 272.494 271.009L266.607 276.277C266.354 276.51 266.405 276.667 266.699 276.642L274.525 275.938C274.819 275.913 275.265 275.71 275.523 275.482L281.405 270.209C281.663 269.981 281.622 269.819 281.324 269.849ZM270.751 270.796L262.93 271.5C262.626 271.526 262.18 271.728 261.927 271.956L256.04 277.23C255.787 277.458 255.827 277.615 256.131 277.589L263.948 276.885C264.257 276.86 264.703 276.657 264.956 276.429L270.837 271.156C271.096 270.928 271.055 270.771 270.751 270.796ZM260.184 271.744L252.362 272.448C252.058 272.473 251.613 272.676 251.359 272.904L245.478 278.177C245.22 278.405 245.26 278.562 245.564 278.537L253.381 277.838C253.69 277.807 254.135 277.605 254.389 277.377L260.27 272.103C260.528 271.875 260.488 271.718 260.184 271.744ZM249.617 272.691L241.8 273.395C241.491 273.42 241.045 273.623 240.792 273.851L234.911 279.124C234.652 279.352 234.693 279.514 235.002 279.484L242.818 278.785C243.122 278.755 243.568 278.552 243.822 278.324L249.703 273.056C249.961 272.823 249.921 272.666 249.617 272.691ZM239.05 273.643L231.233 274.342C230.924 274.368 230.478 274.575 230.225 274.798L224.344 280.072C224.085 280.3 224.126 280.462 224.435 280.431L232.251 279.732C232.555 279.702 233.001 279.499 233.254 279.271L239.141 274.003C239.394 273.775 239.353 273.613 239.05 273.643ZM228.482 274.591L220.656 275.29C220.362 275.315 219.911 275.523 219.658 275.751L213.776 281.019C213.518 281.247 213.558 281.409 213.857 281.384L221.684 280.68C221.988 280.654 222.434 280.452 222.687 280.219L228.573 274.95C228.827 274.722 228.786 274.56 228.482 274.591ZM217.915 275.538L210.088 276.237C209.79 276.267 209.339 276.47 209.085 276.698L203.199 281.971C202.946 282.199 202.991 282.356 203.29 282.331L211.117 281.627C211.411 281.602 211.867 281.399 212.12 281.171L218.006 275.898C218.26 275.67 218.209 275.513 217.915 275.538ZM207.348 276.485L199.521 277.189C199.227 277.215 198.771 277.417 198.518 277.645L192.632 282.919C192.378 283.147 192.429 283.304 192.723 283.278L200.55 282.574C200.848 282.549 201.289 282.346 201.548 282.118L207.429 276.845C207.682 276.617 207.647 276.46 207.348 276.485ZM196.77 277.432L188.954 278.137C188.65 278.162 188.204 278.365 187.951 278.593L182.064 283.866C181.811 284.094 181.852 284.256 182.156 284.226L189.972 283.527C190.281 283.496 190.722 283.294 190.98 283.066L196.862 277.797C197.12 277.564 197.079 277.407 196.77 277.432ZM335.907 271.733L322.762 272.914C322.468 272.939 322.007 273.152 321.759 273.37L315.872 278.643C315.619 278.871 315.67 279.028 315.963 279.003L329.109 277.823C329.413 277.797 329.859 277.595 330.117 277.367L335.999 272.093C336.247 271.87 336.216 271.703 335.907 271.733ZM320.021 273.157L312.194 273.861C311.901 273.886 311.44 274.099 311.191 274.322L305.305 279.59C305.052 279.818 305.102 279.981 305.396 279.95L313.223 279.251C313.522 279.221 313.962 279.018 314.221 278.79L320.102 273.522C320.35 273.299 320.32 273.132 320.021 273.157ZM309.449 274.109L301.627 274.808C301.323 274.834 300.872 275.046 300.624 275.269L294.738 280.538C294.484 280.766 294.525 280.928 294.829 280.897L302.645 280.198C302.954 280.173 303.4 279.965 303.654 279.737L309.535 274.469C309.783 274.246 309.753 274.079 309.449 274.109ZM298.882 275.057L291.065 275.756C290.756 275.781 290.305 275.994 290.057 276.217L284.176 281.485C283.917 281.713 283.958 281.875 284.262 281.85L292.083 281.146C292.387 281.12 292.833 280.918 293.086 280.685L298.968 275.416C299.216 275.193 299.186 275.026 298.882 275.057ZM288.314 276.004L280.498 276.703C280.189 276.733 279.738 276.941 279.49 277.164L273.608 282.432C273.35 282.66 273.391 282.822 273.694 282.797L281.516 282.093C281.82 282.068 282.266 281.865 282.519 281.637L288.406 276.364C288.654 276.141 288.618 275.973 288.314 276.004ZM277.747 276.951L269.931 277.65C269.622 277.681 269.171 277.888 268.922 278.111L263.041 283.38C262.783 283.613 262.823 283.77 263.127 283.744L270.949 283.04C271.253 283.015 271.699 282.812 271.952 282.584L277.838 277.311C278.086 277.088 278.051 276.921 277.747 276.951ZM267.18 277.899L259.363 278.598C259.059 278.628 258.603 278.836 258.355 279.059L252.474 284.332C252.216 284.56 252.256 284.717 252.565 284.692L260.382 283.993C260.686 283.962 261.131 283.76 261.385 283.532L267.271 278.258C267.519 278.04 267.484 277.873 267.18 277.899ZM256.613 278.846L248.786 279.55C248.492 279.575 248.026 279.788 247.783 280.006L241.897 285.279C241.643 285.507 241.689 285.669 241.988 285.639L249.814 284.94C250.108 284.91 250.564 284.707 250.817 284.479L256.704 279.205C256.952 278.988 256.912 278.82 256.613 278.846ZM246.045 279.793L238.219 280.497C237.925 280.523 237.459 280.735 237.216 280.958L231.329 286.227C231.076 286.455 231.127 286.617 231.42 286.586L239.247 285.887C239.541 285.862 239.987 285.654 240.245 285.426L246.126 280.158C246.375 279.935 246.344 279.768 246.045 279.793ZM235.473 280.745L227.652 281.445C227.348 281.47 226.897 281.683 226.648 281.906L220.762 287.174C220.509 287.402 220.549 287.564 220.853 287.539L228.67 286.835C228.974 286.809 229.419 286.607 229.678 286.374L235.559 281.105C235.807 280.882 235.777 280.715 235.473 280.745ZM224.906 281.693L217.084 282.392C216.78 282.422 216.329 282.63 216.081 282.853L210.195 288.121C209.942 288.349 209.982 288.511 210.286 288.486L218.103 287.782C218.412 287.757 218.852 287.554 219.111 287.326L224.992 282.052C225.24 281.83 225.21 281.662 224.906 281.693ZM214.339 282.64L206.517 283.339C206.213 283.37 205.762 283.577 205.514 283.8L199.633 289.069C199.374 289.302 199.415 289.459 199.719 289.433L207.535 288.729C207.844 288.704 208.29 288.501 208.543 288.273L214.425 283C214.673 282.777 214.643 282.61 214.339 282.64ZM203.771 283.587L195.955 284.292C195.646 284.317 195.195 284.525 194.947 284.747L189.065 290.021C188.807 290.249 188.848 290.406 189.152 290.381L196.973 289.682C197.277 289.651 197.723 289.448 197.976 289.221L203.858 283.947C204.106 283.724 204.075 283.562 203.771 283.587ZM193.204 284.535L180.545 285.669C180.236 285.7 179.785 285.908 179.537 286.13L173.655 291.404C173.397 291.632 173.437 291.789 173.741 291.764L186.406 290.629C186.71 290.598 187.156 290.396 187.409 290.168L193.295 284.894C193.544 284.677 193.508 284.509 193.204 284.535ZM370.613 268.664L364.823 269.18C364.519 269.211 364.073 269.413 363.82 269.641L349.57 282.407C349.322 282.63 349.352 282.797 349.661 282.767L355.446 282.25C355.75 282.225 356.201 282.012 356.449 281.789L370.699 269.023C370.958 268.795 370.917 268.633 370.613 268.664ZM361.92 269.439L356.135 269.96C355.831 269.986 355.385 270.193 355.127 270.421L349.342 275.604C349.094 275.827 349.129 275.994 349.433 275.963L355.223 275.447C355.527 275.416 355.978 275.209 356.226 274.986L362.011 269.803C362.27 269.575 362.229 269.413 361.92 269.439ZM353.232 270.219L347.447 270.741C347.148 270.766 346.698 270.968 346.439 271.202L340.654 276.384C340.406 276.607 340.451 276.769 340.745 276.743L346.53 276.227C346.839 276.196 347.29 275.989 347.538 275.766L353.324 270.583C353.577 270.356 353.541 270.193 353.232 270.219ZM344.545 270.999L338.759 271.521C338.461 271.546 338.01 271.749 337.751 271.977L331.966 277.164C331.718 277.382 331.759 277.549 332.057 277.524L337.843 277.002C338.146 276.977 338.602 276.769 338.851 276.546L344.636 271.364C344.889 271.131 344.848 270.974 344.545 270.999ZM327.351 279.287L306.293 281.176C305.994 281.206 305.543 281.409 305.285 281.637L299.403 286.911C299.155 287.128 299.196 287.296 299.495 287.27L320.553 285.381C320.862 285.35 321.313 285.143 321.561 284.92L327.442 279.651C327.701 279.423 327.66 279.261 327.351 279.287ZM303.542 281.424L295.726 282.128C295.422 282.154 294.976 282.356 294.717 282.584L288.836 287.858C288.588 288.076 288.623 288.243 288.927 288.218L296.744 287.513C297.048 287.488 297.504 287.28 297.747 287.057L303.633 281.784C303.887 281.556 303.846 281.399 303.542 281.424ZM292.975 282.372L285.158 283.076C284.854 283.101 284.409 283.304 284.15 283.532L278.269 288.805C278.021 289.028 278.056 289.195 278.36 289.165L286.177 288.466C286.481 288.435 286.936 288.228 287.185 288.005L293.066 282.736C293.319 282.503 293.279 282.346 292.975 282.372ZM282.408 283.319L274.591 284.023C274.287 284.048 273.841 284.251 273.588 284.479L267.702 289.752C267.453 289.975 267.489 290.143 267.793 290.112L275.609 289.413C275.913 289.383 276.369 289.175 276.617 288.952L282.499 283.684C282.752 283.456 282.712 283.294 282.408 283.319ZM271.84 284.266L264.024 284.97C263.72 284.996 263.274 285.198 263.021 285.431L257.134 290.7C256.886 290.923 256.922 291.09 257.226 291.059L265.042 290.36C265.351 290.335 265.802 290.122 266.05 289.899L271.932 284.631C272.19 284.403 272.149 284.241 271.84 284.266ZM261.273 285.219L253.457 285.918C253.153 285.943 252.707 286.151 252.454 286.379L246.567 291.647C246.324 291.87 246.354 292.037 246.658 292.007L254.475 291.308C254.784 291.282 255.235 291.07 255.483 290.847L261.364 285.578C261.623 285.35 261.582 285.188 261.273 285.219ZM250.711 286.166L242.884 286.865C242.585 286.895 242.14 287.098 241.886 287.326L236 292.594C235.757 292.817 235.787 292.984 236.081 292.959L243.908 292.255C244.207 292.23 244.667 292.017 244.916 291.799L250.797 286.526C251.055 286.298 251.005 286.141 250.711 286.166ZM240.144 287.113L232.317 287.812C232.018 287.843 231.562 288.045 231.309 288.273L225.428 293.547C225.179 293.765 225.22 293.932 225.514 293.906L233.34 293.202C233.639 293.177 234.09 292.969 234.338 292.746L240.225 287.473C240.478 287.245 240.438 287.088 240.144 287.113ZM229.566 288.06L221.75 288.765C221.441 288.79 220.995 288.993 220.742 289.221L214.86 294.494C214.612 294.717 214.643 294.879 214.952 294.854L222.768 294.155C223.072 294.124 223.528 293.917 223.771 293.694L229.658 288.42C229.911 288.192 229.87 288.035 229.566 288.06ZM218.999 289.008L211.183 289.712C210.879 289.737 210.433 289.94 210.175 290.168L204.293 295.441C204.045 295.664 204.075 295.831 204.384 295.801L212.201 295.102C212.505 295.072 212.961 294.864 213.204 294.641L219.09 289.367C219.344 289.145 219.303 288.982 218.999 289.008ZM208.432 289.955L200.615 290.659C200.311 290.685 199.866 290.887 199.607 291.12L193.726 296.389C193.478 296.612 193.513 296.779 193.817 296.748L201.634 296.049C201.938 296.019 202.393 295.811 202.642 295.588L208.523 290.32C208.776 290.092 208.736 289.93 208.432 289.955ZM197.865 290.907L190.048 291.607C189.744 291.637 189.298 291.84 189.045 292.067L183.159 297.336C182.91 297.559 182.946 297.726 183.25 297.696L191.066 296.996C191.37 296.971 191.826 296.758 192.074 296.536L197.956 291.267C198.209 291.039 198.169 290.877 197.865 290.907ZM187.297 291.855L172.12 293.212C171.816 293.243 171.371 293.445 171.117 293.673L165.231 298.947C164.988 299.165 165.018 299.332 165.322 299.306L180.499 297.944C180.803 297.919 181.259 297.706 181.507 297.483L187.389 292.214C187.642 291.986 187.606 291.824 187.297 291.855ZM353.455 277.027L347.67 277.544C347.366 277.574 346.92 277.777 346.667 278.005L340.877 283.187C340.629 283.41 340.664 283.577 340.968 283.547L346.753 283.03C347.062 283 347.513 282.792 347.761 282.569L353.546 277.387C353.8 277.159 353.764 276.997 353.455 277.027ZM344.767 277.802L338.982 278.324C338.683 278.349 338.233 278.557 337.974 278.785L332.189 283.967C331.941 284.19 331.981 284.352 332.28 284.327L338.065 283.81C338.374 283.78 338.825 283.572 339.074 283.349L344.859 278.167C345.112 277.939 345.071 277.777 344.767 277.802ZM336.08 278.582L330.295 279.104C329.996 279.129 329.545 279.332 329.286 279.565L323.501 284.747C323.253 284.97 323.294 285.132 323.592 285.107L329.378 284.59C329.682 284.56 330.137 284.352 330.386 284.129L336.171 278.947C336.424 278.719 336.384 278.557 336.08 278.582ZM307.448 287.858L290.412 289.383C290.108 289.413 289.662 289.616 289.409 289.844L283.522 295.112C283.269 295.345 283.309 295.502 283.613 295.477L300.65 293.947C300.948 293.922 301.399 293.714 301.658 293.486L307.539 288.218C307.792 287.99 307.747 287.827 307.448 287.858ZM287.661 289.631L279.844 290.335C279.54 290.36 279.095 290.563 278.841 290.791L272.955 296.064C272.702 296.292 272.742 296.449 273.046 296.424L280.863 295.725C281.172 295.695 281.612 295.492 281.871 295.264L287.752 289.991C288.01 289.763 287.97 289.606 287.661 289.631ZM277.099 290.578L269.272 291.282C268.973 291.308 268.517 291.51 268.264 291.738L262.383 297.012C262.124 297.24 262.175 297.397 262.469 297.371L270.295 296.672C270.594 296.642 271.05 296.439 271.303 296.211L277.185 290.938C277.443 290.71 277.393 290.553 277.099 290.578ZM266.531 291.525L258.705 292.23C258.406 292.255 257.955 292.458 257.697 292.691L251.815 297.959C251.557 298.187 251.608 298.349 251.901 298.319L259.728 297.62C260.027 297.594 260.483 297.387 260.736 297.159L266.618 291.89C266.876 291.657 266.825 291.5 266.531 291.525ZM255.954 292.478L248.138 293.177C247.839 293.202 247.388 293.41 247.129 293.638L241.248 298.906C240.995 299.134 241.04 299.296 241.339 299.271L249.156 298.567C249.46 298.542 249.906 298.339 250.159 298.106L256.045 292.838C256.299 292.61 256.258 292.447 255.954 292.478ZM245.387 293.425L237.57 294.124C237.266 294.155 236.821 294.357 236.562 294.585L230.681 299.854C230.428 300.087 230.463 300.244 230.772 300.218L238.589 299.514C238.893 299.489 239.338 299.286 239.592 299.058L245.478 293.785C245.731 293.557 245.691 293.395 245.387 293.425ZM234.82 294.372L227.003 295.072C226.699 295.102 226.253 295.305 225.995 295.533L220.114 300.806C219.86 301.034 219.896 301.191 220.205 301.166L228.021 300.462C228.325 300.436 228.771 300.234 229.024 300.006L234.911 294.732C235.164 294.504 235.129 294.347 234.82 294.372ZM224.252 295.32L216.436 296.024C216.132 296.049 215.686 296.252 215.428 296.48L209.546 301.753C209.293 301.981 209.334 302.138 209.638 302.113L217.454 301.409C217.758 301.383 218.204 301.181 218.462 300.953L224.344 295.679C224.597 295.451 224.561 295.294 224.252 295.32ZM213.685 296.267L205.869 296.971C205.565 296.997 205.119 297.199 204.866 297.427L198.979 302.701C198.726 302.929 198.766 303.086 199.07 303.06L206.887 302.361C207.191 302.331 207.637 302.128 207.895 301.9L213.776 296.627C214.03 296.399 213.994 296.242 213.685 296.267ZM203.118 297.214L195.296 297.918C194.997 297.944 194.552 298.146 194.298 298.374L188.412 303.648C188.159 303.876 188.199 304.038 188.493 304.008L196.32 303.308C196.619 303.283 197.069 303.075 197.328 302.848L203.209 297.579C203.467 297.346 203.417 297.189 203.118 297.214ZM192.556 298.162L184.729 298.866C184.43 298.891 183.974 299.099 183.721 299.327L177.84 304.595C177.581 304.823 177.632 304.985 177.926 304.96L185.752 304.256C186.051 304.23 186.502 304.023 186.76 303.795L192.642 298.526C192.9 298.298 192.85 298.136 192.556 298.162ZM181.989 299.114L163.711 300.75C163.402 300.781 162.961 300.983 162.703 301.211L156.822 306.48C156.563 306.713 156.604 306.87 156.913 306.844L175.185 305.203C175.484 305.178 175.93 304.975 176.183 304.742L182.07 299.474C182.323 299.246 182.282 299.084 181.989 299.114ZM353.683 283.831L347.893 284.347C347.589 284.378 347.143 284.58 346.89 284.808L332.858 297.382C332.599 297.609 332.64 297.767 332.949 297.741L338.734 297.219C339.038 297.194 339.484 296.991 339.737 296.763L353.769 284.19C354.028 283.962 353.987 283.8 353.683 283.831ZM344.99 284.611L339.205 285.127C338.901 285.153 338.455 285.36 338.197 285.588L332.412 290.771C332.164 290.994 332.199 291.161 332.503 291.13L338.288 290.614C338.597 290.588 339.048 290.376 339.296 290.153L345.082 284.97C345.335 284.742 345.299 284.58 344.99 284.611ZM336.303 285.391L330.517 285.908C330.219 285.933 329.768 286.141 329.509 286.368L323.724 291.551C323.476 291.774 323.516 291.941 323.815 291.91L329.6 291.394C329.91 291.363 330.36 291.156 330.609 290.933L336.394 285.75C336.647 285.523 336.612 285.36 336.303 285.391ZM327.615 286.166L321.83 286.688C321.531 286.713 321.08 286.916 320.821 287.149L315.036 292.331C314.788 292.554 314.829 292.716 315.128 292.691L320.913 292.174C321.217 292.143 321.673 291.936 321.921 291.713L327.706 286.531C327.959 286.303 327.919 286.141 327.615 286.166ZM315.918 287.812L310.133 288.329C309.824 288.354 309.378 288.562 309.125 288.79L303.339 293.972C303.086 294.2 303.122 294.362 303.431 294.332L309.216 293.815C309.515 293.79 309.965 293.582 310.224 293.354L316.009 288.172C316.262 287.944 316.212 287.782 315.918 287.812ZM289.819 296.221L273.087 297.721C272.783 297.746 272.327 297.959 272.078 298.182L266.192 303.46C265.944 303.678 265.984 303.84 266.288 303.81L283.021 302.311C283.325 302.285 283.77 302.083 284.019 301.86L289.91 296.581C290.153 296.358 290.123 296.191 289.819 296.221ZM270.336 297.969L262.509 298.668C262.215 298.699 261.759 298.906 261.516 299.129L255.625 304.408C255.377 304.626 255.417 304.788 255.711 304.762L263.538 304.058C263.836 304.033 264.287 303.83 264.536 303.607L270.427 298.329C270.675 298.106 270.635 297.939 270.336 297.969ZM259.769 298.916L251.942 299.621C251.648 299.646 251.187 299.854 250.939 300.077L245.047 305.355C244.799 305.578 244.85 305.735 245.144 305.71L252.97 305.006C253.269 304.98 253.715 304.778 253.963 304.555L259.85 299.276C260.098 299.053 260.067 298.891 259.769 298.916ZM249.201 299.864L241.38 300.568C241.071 300.593 240.62 300.806 240.372 301.024L234.48 306.302C234.232 306.525 234.273 306.682 234.576 306.657L242.403 305.953C242.702 305.928 243.148 305.725 243.396 305.502L249.282 300.223C249.531 300.006 249.5 299.838 249.201 299.864ZM238.629 300.811L199.111 304.357C198.807 304.387 198.351 304.595 198.103 304.818L192.211 310.097C191.968 310.314 192.004 310.477 192.313 310.451L231.831 306.905C232.135 306.875 232.581 306.672 232.829 306.449L238.72 301.176C238.968 300.953 238.933 300.786 238.629 300.811ZM196.36 304.605L188.534 305.309C188.24 305.335 187.784 305.542 187.536 305.765L181.649 311.044C181.401 311.267 181.436 311.424 181.735 311.399L189.562 310.694C189.861 310.669 190.312 310.466 190.56 310.244L196.451 304.965C196.7 304.742 196.659 304.58 196.36 304.605ZM185.793 305.553L177.966 306.257C177.672 306.282 177.211 306.495 176.963 306.713L171.072 311.991C170.824 312.214 170.874 312.371 171.168 312.346L178.995 311.642C179.294 311.616 179.744 311.414 179.993 311.191L185.884 305.912C186.132 305.694 186.092 305.527 185.793 305.553ZM175.226 306.5L167.399 307.204C167.105 307.229 166.644 307.442 166.396 307.66L160.504 312.939C160.256 313.161 160.307 313.318 160.601 313.293L168.427 312.589C168.726 312.564 169.172 312.361 169.415 312.138L175.307 306.865C175.555 306.642 175.525 306.475 175.226 306.5ZM164.785 307.437L155.297 308.288C154.993 308.319 154.537 308.526 154.294 308.749L148.402 314.023C148.154 314.246 148.195 314.408 148.499 314.382L157.987 313.526C158.286 313.501 158.737 313.298 158.985 313.075L164.876 307.797C165.125 307.574 165.084 307.412 164.785 307.437ZM336.525 292.194L330.74 292.711C330.436 292.741 329.991 292.944 329.732 293.172L324.135 298.187C323.881 298.415 323.922 298.577 324.226 298.547L330.011 298.03C330.32 298 330.766 297.797 331.019 297.569L336.617 292.554C336.875 292.326 336.834 292.164 336.525 292.194ZM327.838 292.974L322.052 293.491C321.754 293.516 321.303 293.724 321.044 293.952L315.447 298.967C315.193 299.195 315.244 299.352 315.538 299.327L321.323 298.81C321.632 298.78 322.073 298.577 322.331 298.349L327.929 293.334C328.182 293.106 328.142 292.944 327.838 292.974ZM316.146 294.479L310.366 295.001C310.062 295.026 309.616 295.229 309.363 295.457L304.241 300.046C303.993 300.264 304.033 300.426 304.342 300.396L310.117 299.879C310.421 299.854 310.867 299.651 311.115 299.428L316.232 294.844C316.49 294.616 316.45 294.453 316.146 294.479ZM307.62 295.244L301.83 295.766C301.526 295.791 301.08 295.993 300.827 296.227L295.705 300.811C295.457 301.034 295.498 301.191 295.802 301.166L301.592 300.644C301.886 300.619 302.342 300.416 302.59 300.193L307.706 295.608C307.965 295.381 307.914 295.218 307.62 295.244ZM299.089 296.009L293.304 296.53C293.005 296.556 292.559 296.758 292.306 296.986L287.19 301.576C286.941 301.794 286.982 301.956 287.276 301.931L293.066 301.409C293.37 301.383 293.816 301.181 294.064 300.958L299.18 296.373C299.434 296.145 299.393 295.983 299.089 296.009ZM242.727 313.009L188.27 317.898C187.171 317.994 185.524 318.749 184.608 319.57L152.592 348.247C151.67 349.078 151.827 349.66 152.921 349.564L207.383 344.676C208.488 344.579 210.119 343.83 211.041 343.004L243.057 314.321C243.973 313.501 243.832 312.908 242.727 313.009Z" fill="url(#paint4_linear)"/>
</g>
<g filter="url(#filter1_f)">
<path d="M228.373 308.027C201.782 313.578 179.236 313.347 178.018 307.51C177.983 307.342 177.966 307.171 177.966 306.998C177.987 301.145 198.133 292.28 223.96 286.889C249.883 281.477 271.961 281.561 274.184 286.977C274.241 287.116 274.285 287.259 274.316 287.406C275.534 293.243 254.965 302.476 228.373 308.027Z" fill="black" fill-opacity="0.11"/>
</g>
<path d="M177.377 183.688C147.876 191.187 123.936 193.106 122.709 188.279C121.482 183.451 143.432 173.705 172.933 166.206C202.434 158.707 226.374 156.788 227.601 161.615C228.828 166.443 206.878 176.189 177.377 183.688Z" fill="#880013"/>
<path d="M177.377 183.688C147.876 191.187 123.936 193.106 122.709 188.279C121.482 183.451 143.432 173.705 172.933 166.206C202.434 158.707 226.374 156.788 227.601 161.615C228.828 166.443 206.878 176.189 177.377 183.688Z" fill="url(#paint5_linear)"/>
<path d="M196.642 261.509C163.655 269.895 135.42 270.823 133.579 263.581C133.526 263.373 133.495 263.161 133.487 262.944C133.196 255.615 157.937 243.431 189.976 235.286C222.134 227.112 249.776 226.025 252.851 232.684C252.93 232.855 252.993 233.032 253.04 233.214C254.88 240.456 229.63 253.124 196.642 261.509Z" fill="#880013"/>
<path d="M196.642 261.509C163.655 269.895 135.42 270.823 133.579 263.581C133.526 263.373 133.495 263.161 133.487 262.944C133.196 255.615 157.937 243.431 189.976 235.286C222.134 227.112 249.776 226.025 252.851 232.684C252.93 232.855 252.993 233.032 253.04 233.214C254.88 240.456 229.63 253.124 196.642 261.509Z" fill="url(#paint6_linear)"/>
<path d="M122.709 188.279C123.936 193.106 147.876 191.187 177.377 183.688C206.878 176.189 228.828 166.443 227.601 161.615L252.851 232.684C249.776 226.025 222.134 227.112 189.976 235.286C157.937 243.431 133.196 255.615 133.487 262.944L122.709 188.279Z" fill="#880013"/>
<path d="M122.709 188.279C123.936 193.106 147.876 191.187 177.377 183.688C206.878 176.189 228.828 166.443 227.601 161.615L252.851 232.684C249.776 226.025 222.134 227.112 189.976 235.286C157.937 243.431 133.196 255.615 133.487 262.944L122.709 188.279Z" fill="url(#paint7_linear)"/>
<path d="M177.376 183.688C206.877 176.189 228.828 166.443 227.601 161.615C226.373 156.788 202.433 158.707 172.932 166.206C143.432 173.705 121.481 183.451 122.708 188.279C123.935 193.106 147.875 191.187 177.376 183.688Z" fill="url(#paint8_linear)"/>
<path fill-rule="evenodd" clip-rule="evenodd" d="M187.167 171.057L187.394 171.951L185.755 173.603C185.511 173.849 185.45 174.224 185.605 174.535C185.759 174.845 186.095 175.023 186.439 174.977C188.599 174.685 191.997 174.26 195.169 173.93C198.377 173.597 201.252 173.374 202.428 173.46C202.799 173.487 203.152 173.498 203.474 173.508C203.513 173.509 203.551 173.511 203.589 173.512C203.95 173.523 204.267 173.536 204.57 173.568C205.16 173.631 205.668 173.765 206.188 174.094C207.273 174.782 208.567 176.421 210.404 180.599C212.209 184.706 213.46 189.618 214.371 193.959C214.822 196.111 215.187 198.111 215.494 199.795L215.502 199.834C215.807 201.508 216.061 202.9 216.285 203.782C216.442 204.397 216.755 206.686 217.163 210.101C217.568 213.478 218.057 217.88 218.57 222.652C219.596 232.193 220.715 243.203 221.432 250.43C221.476 250.875 221.873 251.2 222.318 251.156C222.763 251.112 223.088 250.715 223.044 250.269C223.011 249.933 222.977 249.589 222.942 249.237C222.996 249.266 223.055 249.289 223.118 249.306C223.55 249.42 223.994 249.162 224.108 248.729C225.01 245.314 226.497 235.845 225.374 224.859C224.671 217.978 222.399 209.054 220.104 201.042C218.993 197.165 217.882 193.515 216.931 190.394C216.069 187.563 215.339 185.166 214.861 183.426C215.839 185.674 216.788 188.108 217.584 190.58C218.805 194.374 221.05 202.697 223.072 210.905C225.099 219.134 226.875 227.145 227.185 230.353C227.685 235.524 227.274 242.773 227.003 245.758C226.963 246.204 227.291 246.598 227.737 246.638C228.183 246.678 228.577 246.35 228.617 245.904C228.865 243.173 229.235 236.859 228.919 231.735C229.8 236.87 230.46 241.418 230.891 244.942C230.945 245.386 231.349 245.702 231.794 245.648C232.238 245.593 232.554 245.189 232.499 244.745C231.698 238.195 230.115 228.151 227.794 217.363C228.55 219.795 229.173 221.941 229.61 223.66C232.171 233.733 233.723 242.546 234.177 245.676C234.241 246.119 234.653 246.426 235.095 246.362C235.538 246.297 235.845 245.886 235.781 245.443C235.319 242.258 233.755 233.389 231.181 223.261C231.162 223.186 231.142 223.11 231.122 223.033C233.392 230.492 235.547 237.672 236.985 242.499C237.112 242.928 237.564 243.172 237.992 243.044C238.421 242.916 238.665 242.465 238.538 242.036C236.929 236.635 234.417 228.273 231.852 219.867C233.66 224.715 235.154 229.198 236.087 232.87C236.198 233.304 236.639 233.566 237.072 233.456C237.136 233.44 237.197 233.416 237.253 233.386L239.404 241.85C239.514 242.284 239.955 242.546 240.389 242.436C240.823 242.325 241.085 241.884 240.975 241.451L237.024 225.911C236.757 224.861 234.492 217.932 231.368 209.252C231.909 210.457 232.451 211.665 232.99 212.868C235.919 221.325 239.948 233.648 242.208 240.672C242.345 241.098 242.802 241.332 243.228 241.195C243.654 241.058 243.888 240.602 243.751 240.176C242.739 237.031 241.363 232.796 239.887 228.312C240.959 230.72 241.95 232.948 242.823 234.917C243.005 235.326 243.484 235.511 243.893 235.329C244.302 235.148 244.486 234.669 244.305 234.26C241.748 228.497 238.184 220.495 234.495 212.264C233.157 208.404 232.044 205.339 231.426 203.932C231.138 203.276 230.733 202.244 230.22 200.939C228.005 195.296 223.783 184.541 218.312 176.933C218.031 176.542 217.746 176.158 217.457 175.783C216.839 174.638 216.236 173.598 215.655 172.688C216.87 173.698 217.764 174.985 218.809 176.489C219.02 176.792 219.237 177.104 219.464 177.425C220.229 178.505 221.846 181.487 223.995 185.697C226.131 189.878 228.761 195.207 231.539 200.927C237.095 212.365 243.239 225.352 247.201 233.821C247.39 234.226 247.873 234.401 248.278 234.212C248.683 234.022 248.858 233.54 248.668 233.134C244.705 224.661 238.557 211.666 232.997 200.219C230.216 194.495 227.581 189.155 225.439 184.96C223.31 180.791 221.635 177.686 220.787 176.489C220.568 176.181 220.356 175.873 220.144 175.567C219.481 174.608 218.832 173.669 218.078 172.808C219.696 174.069 221.202 175.689 222.058 177.637C224.031 182.126 241.278 216.586 249.639 233.224C249.84 233.624 250.327 233.785 250.726 233.584C251.126 233.383 251.288 232.896 251.087 232.497C242.708 215.822 225.493 181.424 223.542 176.985C222.485 174.58 220.621 172.683 218.768 171.296C216.913 169.908 215.014 168.99 213.802 168.563C213.38 168.414 212.917 168.635 212.769 169.057C212.758 169.086 212.75 169.115 212.743 169.144C212.417 168.892 212.081 168.692 211.736 168.571C209.969 167.948 207.579 167.874 205.084 168.066C202.982 168.228 200.732 168.584 198.59 169.014C198.051 169.032 197.525 169.056 197.02 169.085C195.895 169.148 194.865 169.235 194.005 169.327C193.967 169.331 193.929 169.338 193.892 169.347L187.167 171.057ZM216.95 198.747C216.997 199.004 217.043 199.255 217.088 199.498L217.095 199.538C217.406 201.243 217.649 202.567 217.856 203.383C218.045 204.128 218.372 206.558 218.773 209.908C219.178 213.296 219.668 217.705 220.181 222.478C220.735 227.629 221.316 233.207 221.846 238.387C221.957 229.224 220.91 214.12 216.95 198.747ZM222.236 242.216C222.421 244.046 222.597 245.791 222.759 247.411C223.617 243.566 224.775 234.932 223.762 225.024C223.374 221.224 222.491 216.761 221.383 212.152C223.345 224.346 223.679 235.182 223.377 241.516C223.355 241.962 222.976 242.308 222.529 242.286C222.425 242.281 222.326 242.257 222.236 242.216ZM208.224 172.483C208.31 172.548 208.396 172.614 208.482 172.68C209.053 173.12 209.618 173.591 210.166 174.126C209.951 173.765 209.755 173.448 209.583 173.18C209.535 173.105 209.388 172.96 209.032 172.788C208.812 172.682 208.542 172.58 208.224 172.483ZM216.365 180.156C217.055 181.586 217.809 183.168 218.61 184.87C216.413 179.318 214.612 175.575 213.475 173.683C213.231 173.442 212.987 173.21 212.741 172.988C212.721 172.98 212.701 172.971 212.681 172.963C212.997 173.541 213.352 174.25 213.738 175.067C214.248 175.95 214.748 176.875 215.237 177.837C215.619 178.588 215.995 179.361 216.365 180.156ZM222.561 190.776C222.992 191.979 223.432 193.236 223.879 194.548C224.507 196.389 225.308 198.849 226.217 201.705C228.008 205.842 229.78 210.083 231.404 214.189C229.707 209.358 227.612 203.589 225.375 197.825C224.454 195.449 223.509 193.077 222.561 190.776ZM224.698 202.276C224.193 201.11 223.687 199.953 223.182 198.809C224.656 202.871 226.085 206.953 227.344 210.719C226.407 207.695 225.51 204.828 224.698 202.276Z" fill="#160202"/>
<path d="M194.46 169.739C190.279 169.561 176.372 174.138 172.043 175.411C174.109 175.403 190.139 174.918 197.432 173.251C204.724 171.583 199.687 169.962 194.46 169.739Z" fill="#160202"/>
<path fill-rule="evenodd" clip-rule="evenodd" d="M190.02 172.396C190.02 172.396 190.02 172.396 190.02 172.396L190.02 172.396ZM190.02 172.396C190.015 172.398 189.997 172.402 189.977 172.41L190.02 172.396ZM189.977 172.41C189.97 172.412 189.953 172.42 189.943 172.425L189.977 172.41ZM189.943 172.425C189.926 172.435 189.876 172.472 189.847 172.503L189.943 172.425ZM189.847 172.503C189.794 172.593 189.799 172.826 189.875 172.934L189.847 172.503ZM189.875 172.934C189.925 172.972 190.005 173.007 190.031 173.013L189.875 172.934ZM190.031 173.013C190.065 173.019 190.093 173.018 190.097 173.018L190.031 173.013ZM190.097 173.018C190.097 173.018 190.097 173.018 190.097 173.018L190.097 173.018ZM190.097 173.018C190.106 173.018 190.114 173.017 190.118 173.017L190.097 173.018ZM190.118 173.017C190.127 173.016 190.137 173.015 190.143 173.014L190.118 173.017ZM190.143 173.014C190.171 173.011 190.215 173.005 190.271 172.997L190.143 173.014ZM190.271 172.997C190.305 172.992 190.346 172.985 190.393 172.978L190.271 172.997ZM190.031 172.394C196.742 170.817 201.665 169.921 205.341 169.531C209.014 169.141 211.461 169.253 213.21 169.708C214.976 170.168 216.013 170.973 216.869 171.924C217.212 172.306 217.529 172.715 217.847 173.125C217.918 173.216 217.989 173.308 218.06 173.4C218.455 173.905 218.869 174.415 219.373 174.915C219.656 175.196 220.009 175.667 220.416 176.282C220.827 176.902 221.304 177.686 221.836 178.609C222.901 180.453 224.193 182.861 225.625 185.633C228.49 191.178 231.922 198.194 235.231 205.108C238.54 212.024 241.727 218.841 244.102 223.99C245.29 226.564 246.275 228.722 246.971 230.267C247.319 231.039 247.595 231.659 247.788 232.102C247.884 232.323 247.96 232.501 248.015 232.632C248.064 232.751 248.107 232.857 248.121 232.915L247.513 233.069C247.513 233.071 247.513 233.071 247.512 233.068C247.51 233.063 247.505 233.049 247.495 233.022C247.481 232.985 247.461 232.936 247.435 232.873C247.383 232.747 247.308 232.573 247.212 232.353C247.021 231.914 246.746 231.296 246.398 230.525C245.703 228.982 244.719 226.826 243.532 224.253C241.158 219.106 237.972 212.292 234.664 205.38C231.356 198.467 227.927 191.458 225.067 185.921C223.637 183.153 222.35 180.755 221.292 178.922C220.763 178.006 220.294 177.234 219.893 176.628C219.489 176.018 219.166 175.594 218.931 175.361C218.398 174.832 217.964 174.297 217.565 173.786C217.491 173.69 217.417 173.596 217.345 173.503C217.028 173.094 216.729 172.708 216.402 172.344C215.613 171.468 214.678 170.739 213.052 170.316C211.41 169.888 209.049 169.769 205.407 170.155C204.117 170.292 202.67 170.493 201.041 170.764C203.009 170.507 204.969 170.278 206.656 170.135C207.735 170.043 208.707 169.985 209.499 169.977C210.28 169.969 210.924 170.009 211.324 170.129C211.549 170.196 211.789 170.335 212.038 170.519C212.291 170.705 212.568 170.95 212.867 171.247C213.464 171.84 214.162 172.656 214.939 173.665C216.493 175.685 218.375 178.499 220.406 181.9C224.466 188.703 229.129 197.876 232.942 207.783C239.036 223.616 242.784 236.325 243.899 240.709L243.29 240.864C242.183 236.507 238.442 223.822 232.356 208.009C228.556 198.138 223.91 188.997 219.866 182.222C217.844 178.834 215.975 176.042 214.441 174.048C213.674 173.051 212.994 172.258 212.424 171.692C212.139 171.409 211.885 171.186 211.665 171.024C211.442 170.859 211.269 170.768 211.144 170.73C210.845 170.641 210.288 170.597 209.506 170.605C208.735 170.613 207.781 170.669 206.709 170.76C204.567 170.943 201.973 171.264 199.477 171.608C198.663 171.72 197.86 171.834 197.088 171.947C197.404 171.935 197.724 171.925 198.046 171.915C200.07 171.854 202.189 171.834 204.019 171.905C205.834 171.975 207.407 172.136 208.309 172.454C208.347 172.468 208.385 172.481 208.422 172.494C209.207 172.77 209.83 172.99 210.405 173.439C211.01 173.911 211.543 174.619 212.215 175.851C213.194 177.645 214.51 180.633 216.794 185.819C217.637 187.733 218.612 189.946 219.751 192.509C223.154 200.17 225.214 210.498 226.411 220.277C227.608 230.06 227.942 239.321 227.883 244.863L227.255 244.857C227.314 239.34 226.981 230.107 225.787 220.353C224.593 210.593 222.542 200.339 219.177 192.764C218.029 190.181 217.049 187.956 216.204 186.037C213.928 180.871 212.629 177.921 211.664 176.152C211.005 174.944 210.522 174.327 210.019 173.934C209.526 173.549 208.994 173.362 208.166 173.07L208.101 173.047C207.3 172.764 205.818 172.603 203.994 172.532C202.185 172.462 200.082 172.481 198.065 172.542C196.049 172.603 194.124 172.706 192.673 172.801C191.947 172.848 191.341 172.893 190.902 172.931C190.691 172.949 190.52 172.965 190.393 172.978" fill="#6A1717"/>
<path d="M300.568 181.246L295.192 201.146L313.394 199.327L318.77 179.427L300.568 181.246Z" fill="#B01515"/>
<path d="M295.192 201.146L313.394 199.327L302.474 238.524L284.272 240.344L295.192 201.146Z" fill="#B01515"/>
<g filter="url(#filter2_f)">
<path d="M308.584 275.898L292.647 286.156L355.017 277.105L370.956 266.846L308.584 275.898Z" fill="black" fill-opacity="0.1"/>
</g>
<g filter="url(#filter3_f)">
<path d="M140.879 311.987L129.658 320.515L154.89 315.507L166.112 306.979L140.879 311.987Z" fill="black" fill-opacity="0.08"/>
</g>
<path d="M300.932 181.478L288.405 170.024L282.83 189.701L295.356 201.155L300.932 181.478Z" fill="#F74646"/>
<path d="M288.405 170.024L282.83 189.701L270.304 178.246L257.778 166.792L263.353 147.115L275.879 158.569L288.405 170.024Z" fill="#F74646"/>
<path d="M282.83 189.701L295.356 201.155L289.781 220.832L284.206 240.509L271.68 229.055L277.255 209.378L282.83 189.701Z" fill="#F74646"/>
<path d="M318.902 179.965L306.596 168.214L288.599 169.986L300.905 181.736L318.902 179.965Z" fill="#CA3D3D"/>
<path d="M306.596 168.214L288.599 169.986L263.415 147.1L281.413 145.328L306.596 168.214Z" fill="#CA3D3D"/>
<path d="M106.781 257.419L93.8046 257.342L69.9644 230.683L82.9409 230.759L106.781 257.419Z" fill="#B01515"/>
<path d="M82.9409 230.759L69.9644 230.683L80.7326 203.357L93.5815 203.425L82.9409 230.759Z" fill="#B01515"/>
<path d="M106.784 257.418L93.8076 257.342L69.9673 230.683L82.9438 230.759L106.784 257.418Z" fill="#CA3D3D"/>
<path d="M93.804 257.342L106.781 257.418L101.495 270.765L88.5188 270.689L93.804 257.342Z" fill="#B01515"/>
<path d="M69.9609 230.679L61.98 221.663L56.5771 235.128L64.558 244.144L64.6544 243.903L69.9609 230.679Z" fill="#F74646"/>
<path d="M93.8664 257.337L88.4635 270.801L80.4827 261.785L72.5018 252.769L64.6544 243.903L69.9609 230.679L77.9047 239.304L85.8856 248.32L93.8664 257.337Z" fill="#F74646"/>
<path d="M61.98 221.663L67.3829 208.198L72.7323 194.867L80.7297 203.359L80.6332 203.599L69.9609 230.679L61.98 221.663Z" fill="#F74646"/>
<path d="M93.5862 203.449L80.7577 203.354L72.7601 194.84L85.5886 194.935L93.5862 203.449Z" fill="#EE4343"/>
<path d="M443.75 13.8855C472.516 10.7832 492.011 23.8902 487.291 43.152C482.571 62.4194 455.43 80.5521 426.664 83.6543C397.897 86.7509 378.403 73.6496 383.122 54.3822C383.857 51.3816 385.133 48.411 386.877 45.5178C396.335 29.8367 419.466 16.5033 443.75 13.8855Z" fill="url(#paint9_linear)"/>
<path d="M426.468 83.6392C455.303 80.5759 482.492 62.4664 487.192 43.1839C488.177 39.1506 488.098 35.3819 487.091 31.9751C488.311 35.8063 488.42 36.4442 489.353 41.9254L489.53 43.4824C489.698 46.8987 489.67 47.0487 488.944 50.9855C484.323 69.9386 457.594 87.7385 429.25 90.7496C409.804 92.8136 394.648 87.3793 388.541 77.6438C385.788 72.8839 385.105 71.3558 383.633 67.5868C388.589 79.1758 404.941 85.9226 426.468 83.6392ZM487.091 31.9751C487.015 31.7286 486.932 31.4688 486.843 31.1956C486.931 31.454 487.014 31.7139 487.091 31.9751Z" fill="url(#paint10_linear)"/>
<ellipse rx="197.55" ry="15.804" transform="matrix(-1 0 0 1 296.55 432.763)" fill="#A1BDAC" fill-opacity="0.5"/>
<ellipse rx="196.372" ry="16.6682" transform="matrix(-1 0 0 1 248.137 401.079)" fill="url(#paint11_linear)"/>
<path d="M248.136 449C356.588 449 444.509 441.359 444.509 431.931C444.509 422.503 356.588 414.861 248.136 414.861C139.684 414.861 51.7637 422.503 51.7637 431.931C51.7637 441.359 139.684 449 248.136 449Z" fill="url(#paint12_linear)"/>
<path d="M444.509 398.995C444.509 408.423 356.588 416.065 248.136 416.065C139.684 416.065 51.7637 408.423 51.7637 398.995V431.931C51.7637 422.503 139.684 414.861 248.136 414.861C356.588 414.861 444.509 422.503 444.509 431.931V398.995Z" fill="url(#paint13_linear)"/>
<path d="M52.3513 104.971L31.4767 146.71L72.6818 150.855L93.5547 109.115L52.3513 104.971Z" fill="url(#paint14_linear)"/>
<path d="M53.3047 106.639L30.6598 75.5933L9.44521 116.747L32.0901 147.793L53.3047 106.639Z" fill="#B6EBCC"/>
<path d="M93.793 111.356L71.7692 79.7515L31.0402 75.5937L53.0639 107.196L93.793 111.356Z" fill="url(#paint15_linear)"/>
<defs>
<filter id="filter0_i" x="148.24" y="256.052" width="236.7" height="93.5224" filterUnits="userSpaceOnUse" color-interpolation-filters="sRGB">
<feFlood flood-opacity="0" result="BackgroundImageFix"/>
<feBlend mode="normal" in="SourceGraphic" in2="BackgroundImageFix" result="shape"/>
<feColorMatrix in="SourceAlpha" type="matrix" values="0 0 0 0 0 0 0 0 0 0 0 0 0 0 0 0 0 0 127 0" result="hardAlpha"/>
<feOffset dy="-0.821662"/>
<feComposite in2="hardAlpha" operator="arithmetic" k2="-1" k3="1"/>
<feColorMatrix type="matrix" values="0 0 0 0 0 0 0 0 0 0 0 0 0 0 0 0 0 0 0.17 0"/>
<feBlend mode="normal" in2="shape" result="effect1_innerShadow"/>
</filter>
<filter id="filter1_f" x="173.39" y="278.296" width="105.554" height="38.3246" filterUnits="userSpaceOnUse" color-interpolation-filters="sRGB">
<feFlood flood-opacity="0" result="BackgroundImageFix"/>
<feBlend mode="normal" in="SourceGraphic" in2="BackgroundImageFix" result="shape"/>
<feGaussianBlur stdDeviation="2.28823" result="effect1_foregroundBlur"/>
</filter>
<filter id="filter2_f" x="285.782" y="259.981" width="92.0384" height="33.0396" filterUnits="userSpaceOnUse" color-interpolation-filters="sRGB">
<feFlood flood-opacity="0" result="BackgroundImageFix"/>
<feBlend mode="normal" in="SourceGraphic" in2="BackgroundImageFix" result="shape"/>
<feGaussianBlur stdDeviation="3.43234" result="effect1_foregroundBlur"/>
</filter>
<filter id="filter3_f" x="127.37" y="304.69" width="41.0305" height="18.1129" filterUnits="userSpaceOnUse" color-interpolation-filters="sRGB">
<feFlood flood-opacity="0" result="BackgroundImageFix"/>
<feBlend mode="normal" in="SourceGraphic" in2="BackgroundImageFix" result="shape"/>
<feGaussianBlur stdDeviation="1.14411" result="effect1_foregroundBlur"/>
</filter>
<linearGradient id="paint0_linear" x1="409.21" y1="240.486" x2="170.955" y2="117.462" gradientUnits="userSpaceOnUse">
<stop stop-color="#53BB7C"/>
<stop offset="1" stop-color="#DEF6E7"/>
</linearGradient>
<linearGradient id="paint1_linear" x1="382.842" y1="232.994" x2="153.857" y2="188.24" gradientUnits="userSpaceOnUse">
<stop stop-color="#F4FFF8"/>
<stop offset="1" stop-color="#F1FBF5"/>
</linearGradient>
<linearGradient id="paint2_linear" x1="398.827" y1="248.936" x2="74.8607" y2="359.883" gradientUnits="userSpaceOnUse">
<stop stop-color="#53BB7C"/>
<stop offset="1" stop-color="#AAE2C1"/>
</linearGradient>
<linearGradient id="paint3_linear" x1="125.896" y1="301.081" x2="277.812" y2="178.001" gradientUnits="userSpaceOnUse">
<stop stop-color="#AAE2C0"/>
<stop offset="1" stop-color="#53BB7C"/>
</linearGradient>
<linearGradient id="paint4_linear" x1="280.788" y1="334.175" x2="177.607" y2="261.504" gradientUnits="userSpaceOnUse">
<stop stop-color="#80BF99"/>
<stop offset="1" stop-color="#A8DEBE"/>
</linearGradient>
<linearGradient id="paint5_linear" x1="124.625" y1="242.593" x2="245.613" y2="218.262" gradientUnits="userSpaceOnUse">
<stop stop-color="#FF4F4F"/>
<stop offset="0.191235" stop-color="#E63333"/>
<stop offset="0.429791" stop-color="#C51F1D"/>
<stop offset="0.685693" stop-color="#B61A1A"/>
<stop offset="0.944584" stop-color="#AA1515"/>
</linearGradient>
<linearGradient id="paint6_linear" x1="124.625" y1="242.593" x2="245.613" y2="218.262" gradientUnits="userSpaceOnUse">
<stop stop-color="#FF4F4F"/>
<stop offset="0.191235" stop-color="#E63333"/>
<stop offset="0.429791" stop-color="#C51F1D"/>
<stop offset="0.685693" stop-color="#B61A1A"/>
<stop offset="0.944584" stop-color="#AA1515"/>
</linearGradient>
<linearGradient id="paint7_linear" x1="124.625" y1="242.593" x2="245.613" y2="218.262" gradientUnits="userSpaceOnUse">
<stop stop-color="#FF4F4F"/>
<stop offset="0.191235" stop-color="#E63333"/>
<stop offset="0.429791" stop-color="#C51F1D"/>
<stop offset="0.685693" stop-color="#B61A1A"/>
<stop offset="0.944584" stop-color="#AA1515"/>
</linearGradient>
<linearGradient id="paint8_linear" x1="165.747" y1="162.346" x2="202.727" y2="171.557" gradientUnits="userSpaceOnUse">
<stop stop-color="#EE4343"/>
<stop offset="1" stop-color="#CA3D3D"/>
</linearGradient>
<linearGradient id="paint9_linear" x1="385.724" y1="86.1005" x2="472.746" y2="38.611" gradientUnits="userSpaceOnUse">
<stop stop-color="#D1FBE1"/>
<stop offset="1" stop-color="#65CE90"/>
</linearGradient>
<linearGradient id="paint10_linear" x1="386.727" y1="72.5103" x2="506.272" y2="48.1313" gradientUnits="userSpaceOnUse">
<stop stop-color="#E7FFF0"/>
<stop offset="0.299503" stop-color="#9EE2B9"/>
<stop offset="1" stop-color="#20A857"/>
</linearGradient>
<linearGradient id="paint11_linear" x1="438.262" y1="7.72711" x2="426.572" y2="81.9451" gradientUnits="userSpaceOnUse">
<stop stop-color="#F4FFF8"/>
<stop offset="1" stop-color="#82D7A5"/>
</linearGradient>
<linearGradient id="paint12_linear" x1="444.509" y1="380.723" x2="51.7637" y2="380.723" gradientUnits="userSpaceOnUse">
<stop stop-color="#6EB98C"/>
<stop offset="0.438323" stop-color="#85D0A3"/>
<stop offset="0.738142" stop-color="#C5EAD4"/>
<stop offset="1" stop-color="#E2FFEF"/>
</linearGradient>
<linearGradient id="paint13_linear" x1="444.509" y1="380.723" x2="51.7637" y2="380.723" gradientUnits="userSpaceOnUse">
<stop stop-color="#6EB98C"/>
<stop offset="0.438323" stop-color="#85D0A3"/>
<stop offset="0.738142" stop-color="#C5EAD4"/>
<stop offset="1" stop-color="#E2FFEF"/>
</linearGradient>
<linearGradient id="paint14_linear" x1="76.1719" y1="154.312" x2="51.1139" y2="105.428" gradientUnits="userSpaceOnUse">
<stop stop-color="#65C68C"/>
<stop offset="0.961" stop-color="#8FE2B1"/>
</linearGradient>
<linearGradient id="paint15_linear" x1="28.0914" y1="76.5277" x2="79.2275" y2="99.945" gradientUnits="userSpaceOnUse">
<stop stop-color="#A0ECBF"/>
<stop offset="1" stop-color="#69D494"/>
</linearGradient>
</defs>
</svg>
