<svg width="624" height="461" viewBox="0 0 624 461" fill="none" xmlns="http://www.w3.org/2000/svg">
<mask id="path-1-inside-1" fill="white">
<path fill-rule="evenodd" clip-rule="evenodd" d="M114 30H588V442H114V30ZM115.23 440.931H143.551V416.314H115.23V440.931ZM143.551 31.069H115.23V55.6857H143.551V31.069ZM558.461 81.3614H586.782V56.7446H558.461V81.3614ZM558.461 107.047H586.782V82.4303H558.461V107.047ZM558.461 132.733H586.782V108.116H558.461V132.733ZM558.461 158.418H586.782V133.802H558.461V158.418ZM558.461 184.094H586.782V159.477H558.461V184.094ZM558.461 209.78H586.782V185.163H558.461V209.78ZM558.461 235.466H586.782V210.849H558.461V235.466ZM558.461 261.151H586.782V236.534H558.461V261.151ZM558.461 286.837H586.782V262.22H558.461V286.837ZM558.461 312.513H586.782V287.896H558.461V312.513ZM558.461 338.198H586.782V313.582H558.461V338.198ZM558.461 363.884H586.782V339.267H558.461V363.884ZM558.461 389.57H586.782V364.953H558.461V389.57ZM558.461 415.245H586.782V390.629H558.461V415.245ZM528.909 415.245H557.231V390.629H528.909V415.245ZM528.909 440.931H557.231V416.314H528.909V440.931ZM499.358 440.931H527.68V416.314H499.358V440.931ZM469.807 440.931H498.14V416.314H469.807V440.931ZM440.268 440.931H468.589V416.314H440.268V440.931ZM410.717 440.931H439.038V416.314H410.717V440.931ZM381.166 440.931H409.487V416.314H381.166V440.931ZM351.615 440.931H379.936V416.314H351.615V440.931ZM322.075 440.931H350.397V416.314H322.075V440.931ZM292.524 440.931H320.846V416.314H292.524V440.931ZM262.973 440.931H291.295V416.314H262.973V440.931ZM233.422 440.931H261.744V416.314H233.422V440.931ZM203.883 440.931H232.204V416.314H203.883V440.931ZM174.332 440.931H202.653V416.314H174.332V440.931ZM173.102 416.314H144.781V440.931H173.102V416.314ZM144.781 415.245H173.102V390.629H144.781V415.245ZM143.551 390.629H115.23V415.245H143.551V390.629ZM143.551 364.953H115.23V389.57H143.551V364.953ZM143.551 339.267H115.23V363.884H143.551V339.267ZM143.551 313.582H115.23V338.198H143.551V313.582ZM143.551 287.896H115.23V312.513H143.551V287.896ZM143.551 262.22H115.23V286.837H143.551V262.22ZM143.551 236.534H115.23V261.151H143.551V236.534ZM143.551 210.849H115.23V235.466H143.551V210.849ZM143.551 185.163H115.23V209.78H143.551V185.163ZM143.551 159.487H115.23V184.104H143.551V159.487ZM143.551 133.802H115.23V158.418H143.551V133.802ZM143.551 108.116H115.23V132.733H143.551V108.116ZM143.551 82.4303H115.23V107.047H143.551V82.4303ZM143.551 56.7446H115.23V81.3614H143.551V56.7446ZM173.102 56.7446H144.781V81.3614H173.102V56.7446ZM173.102 31.069H144.781V55.6857H173.102V31.069ZM202.653 31.069H174.332V55.6857H202.653V31.069ZM232.204 31.069H203.883V55.6857H232.204V31.069ZM261.744 31.069H233.422V55.6857H261.744V31.069ZM291.295 31.069H262.973V55.6857H291.295V31.069ZM320.846 31.069H292.524V55.6857H320.846V31.069ZM350.397 31.069H322.064V55.6857H350.397V31.069ZM379.936 31.069H351.615V55.6857H379.936V31.069ZM409.487 31.069H381.166V55.6857H409.487V31.069ZM439.038 31.069H410.717V55.6857H439.038V31.069ZM468.589 31.069H440.268V55.6857H468.589V31.069ZM498.14 31.069H469.807V55.6857H498.14V31.069ZM527.68 31.069H499.358V55.6857H527.68V31.069ZM528.909 55.6857H557.231V31.069H528.909V55.6857ZM528.909 81.3614H557.231V56.7446H528.909V81.3614ZM528.909 107.047H557.231V82.4303H528.909V107.047ZM528.909 132.733H557.231V108.116H528.909V132.733ZM528.909 158.418H557.231V133.802H528.909V158.418ZM528.909 184.094H557.231V159.477H528.909V184.094ZM528.909 209.78H557.231V185.163H528.909V209.78ZM528.909 235.466H557.231V210.849H528.909V235.466ZM528.909 261.151H557.231V236.534H528.909V261.151ZM528.909 286.837H557.231V262.22H528.909V286.837ZM528.909 312.513H557.231V287.896H528.909V312.513ZM528.909 338.198H557.231V313.582H528.909V338.198ZM528.909 363.884H557.231V339.267H528.909V363.884ZM528.909 389.57H557.231V364.953H528.909V389.57ZM499.358 389.57H527.68V364.953H499.358V389.57ZM499.358 415.245H527.68V390.629H499.358V415.245ZM469.807 415.245H498.14V390.629H469.807V415.245ZM440.268 415.245H468.589V390.629H440.268V415.245ZM410.717 415.245H439.038V390.629H410.717V415.245ZM381.166 415.245H409.487V390.629H381.166V415.245ZM351.615 415.245H379.936V390.629H351.615V415.245ZM322.075 415.245H350.397V390.629H322.075V415.245ZM292.524 415.245H320.846V390.629H292.524V415.245ZM262.973 415.245H291.295V390.629H262.973V415.245ZM233.422 415.245H261.744V390.629H233.422V415.245ZM203.883 415.245H232.204V390.629H203.883V415.245ZM202.653 390.629H174.332V415.245H202.653V390.629ZM174.332 389.57H202.653V364.953H174.332V389.57ZM173.102 364.953H144.781V389.57H173.102V364.953ZM173.102 339.267H144.781V363.884H173.102V339.267ZM173.102 313.582H144.781V338.198H173.102V313.582ZM173.102 287.896H144.781V312.513H173.102V287.896ZM173.102 262.22H144.781V286.837H173.102V262.22ZM173.102 236.534H144.781V261.151H173.102V236.534ZM173.102 210.849H144.781V235.466H173.102V210.849ZM173.102 185.163H144.781V209.78H173.102V185.163ZM173.102 159.487H144.781V184.104H173.102V159.487ZM173.102 133.802H144.781V158.418H173.102V133.802ZM173.102 108.116H144.781V132.733H173.102V108.116ZM173.102 82.4303H144.781V107.047H173.102V82.4303ZM202.653 82.4303H174.332V107.047H202.653V82.4303ZM202.653 56.7446H174.332V81.3614H202.653V56.7446ZM232.204 56.7446H203.883V81.3614H232.204V56.7446ZM261.744 56.7446H233.422V81.3614H261.744V56.7446ZM291.295 56.7446H262.973V81.3614H291.295V56.7446ZM320.846 56.7446H292.524V81.3614H320.846V56.7446ZM350.397 56.7446H322.064V81.3614H350.397V56.7446ZM379.936 56.7446H351.615V81.3614H379.936V56.7446ZM409.487 56.7446H381.166V81.3614H409.487V56.7446ZM439.038 56.7446H410.717V81.3614H439.038V56.7446ZM468.589 56.7446H440.268V81.3614H468.589V56.7446ZM498.14 56.7446H469.807V81.3614H498.14V56.7446ZM499.358 81.3614H527.68V56.7446H499.358V81.3614ZM499.358 107.047H527.68V82.4303H499.358V107.047ZM499.358 132.733H527.68V108.116H499.358V132.733ZM499.358 158.418H527.68V133.802H499.358V158.418ZM499.358 184.094H527.68V159.477H499.358V184.094ZM499.358 209.78H527.68V185.163H499.358V209.78ZM499.358 235.466H527.68V210.849H499.358V235.466ZM499.358 261.151H527.68V236.534H499.358V261.151ZM499.358 286.837H527.68V262.22H499.358V286.837ZM499.358 312.513H527.68V287.896H499.358V312.513ZM499.358 338.198H527.68V313.582H499.358V338.198ZM499.358 363.884H527.68V339.267H499.358V363.884ZM469.807 363.884H498.14V339.267H469.807V363.884ZM469.807 389.57H498.14V364.953H469.807V389.57ZM440.268 389.57H468.589V364.953H440.268V389.57ZM410.717 389.57H439.038V364.953H410.717V389.57ZM381.166 389.57H409.487V364.953H381.166V389.57ZM351.615 389.57H379.936V364.953H351.615V389.57ZM322.075 389.57H350.397V364.953H322.075V389.57ZM292.524 389.57H320.846V364.953H292.524V389.57ZM262.973 389.57H291.295V364.953H262.973V389.57ZM233.422 389.57H261.744V364.953H233.422V389.57ZM232.204 364.953H203.883V389.57H232.204V364.953ZM203.883 363.884H232.204V339.267H203.883V363.884ZM202.653 339.267H174.332V363.884H202.653V339.267ZM202.653 313.582H174.332V338.198H202.653V313.582ZM202.653 287.896H174.332V312.513H202.653V287.896ZM202.653 262.22H174.332V286.837H202.653V262.22ZM202.653 236.534H174.332V261.151H202.653V236.534ZM202.653 210.849H174.332V235.466H202.653V210.849ZM202.653 185.163H174.332V209.78H202.653V185.163ZM202.653 159.487H174.332V184.104H202.653V159.487ZM202.653 133.802H174.332V158.418H202.653V133.802ZM202.653 108.116H174.332V132.733H202.653V108.116ZM232.204 108.116H203.883V132.733H232.204V108.116ZM232.204 82.4303H203.883V107.047H232.204V82.4303ZM261.744 82.4303H233.422V107.047H261.744V82.4303ZM291.295 82.4303H262.973V107.047H291.295V82.4303ZM320.846 82.4303H292.524V107.047H320.846V82.4303ZM350.397 82.4303H322.064V107.047H350.397V82.4303ZM379.936 82.4303H351.615V107.047H379.936V82.4303ZM409.487 82.4303H381.166V107.047H409.487V82.4303ZM439.038 82.4303H410.717V107.047H439.038V82.4303ZM468.589 82.4303H440.268V107.047H468.589V82.4303ZM469.807 107.047H498.14V82.4303H469.807V107.047ZM469.807 132.733H498.14V108.116H469.807V132.733ZM469.807 158.418H498.14V133.802H469.807V158.418ZM469.807 184.094H498.14V159.477H469.807V184.094ZM469.807 209.78H498.14V185.163H469.807V209.78ZM469.807 235.466H498.14V210.849H469.807V235.466ZM469.807 261.151H498.14V236.534H469.807V261.151ZM469.807 286.837H498.14V262.22H469.807V286.837ZM469.807 312.513H498.14V287.896H469.807V312.513ZM469.807 338.198H498.14V313.582H469.807V338.198ZM440.268 338.198H468.589V313.582H440.268V338.198ZM440.268 363.884H468.589V339.267H440.268V363.884ZM410.717 363.884H439.038V339.267H410.717V363.884ZM381.166 363.884H409.487V339.267H381.166V363.884ZM351.615 363.884H379.936V339.267H351.615V363.884ZM322.075 363.884H350.397V339.267H322.075V363.884ZM292.524 363.884H320.846V339.267H292.524V363.884ZM262.973 363.884H291.295V339.267H262.973V363.884ZM261.744 339.267H233.422V363.884H261.744V339.267ZM233.422 338.198H261.744V313.582H233.422V338.198ZM232.204 313.582H203.883V338.198H232.204V313.582ZM232.204 287.896H203.883V312.513H232.204V287.896ZM232.204 262.22H203.883V286.837H232.204V262.22ZM232.204 236.534H203.883V261.151H232.204V236.534ZM232.204 210.849H203.883V235.466H232.204V210.849ZM232.204 185.163H203.883V209.78H232.204V185.163ZM232.204 159.487H203.883V184.104H232.204V159.487ZM232.204 133.802H203.883V158.418H232.204V133.802ZM261.744 133.802H233.422V158.418H261.744V133.802ZM261.744 108.116H233.422V132.733H261.744V108.116ZM291.295 108.116H262.973V132.733H291.295V108.116ZM320.846 108.116H292.524V132.733H320.846V108.116ZM350.397 108.116H322.064V132.733H350.397V108.116ZM379.936 108.116H351.615V132.733H379.936V108.116ZM409.487 108.116H381.166V132.733H409.487V108.116ZM439.038 108.116H410.717V132.733H439.038V108.116ZM440.268 132.733H468.589V108.116H440.268V132.733ZM440.268 158.418H468.589V133.802H440.268V158.418ZM440.268 184.094H468.589V159.477H440.268V184.094ZM440.268 209.78H468.589V185.163H440.268V209.78ZM440.268 235.466H468.589V210.849H440.268V235.466ZM440.268 261.151H468.589V236.534H440.268V261.151ZM440.268 286.837H468.589V262.22H440.268V286.837ZM440.268 312.513H468.589V287.896H440.268V312.513ZM410.717 312.513H439.038V287.896H410.717V312.513ZM410.717 338.198H439.038V313.582H410.717V338.198ZM381.166 338.198H409.487V313.582H381.166V338.198ZM351.615 338.198H379.936V313.582H351.615V338.198ZM322.075 338.198H350.397V313.582H322.075V338.198ZM292.524 338.198H320.846V313.582H292.524V338.198ZM291.295 313.582H262.973V338.198H291.295V313.582ZM262.973 312.513H291.295V287.896H262.973V312.513ZM261.744 287.896H233.422V312.513H261.744V287.896ZM261.744 262.22H233.422V286.837H261.744V262.22ZM261.744 236.534H233.422V261.151H261.744V236.534ZM261.744 210.849H233.422V235.466H261.744V210.849ZM261.744 185.163H233.422V209.78H261.744V185.163ZM261.744 159.487H233.422V184.104H261.744V159.487ZM291.295 159.487H262.973V184.104H291.295V159.487ZM291.295 133.802H262.973V158.418H291.295V133.802ZM320.846 133.802H292.524V158.418H320.846V133.802ZM350.397 133.802H322.064V158.418H350.397V133.802ZM379.936 133.802H351.615V158.418H379.936V133.802ZM409.487 133.802H381.166V158.418H409.487V133.802ZM410.717 158.418H439.038V133.802H410.717V158.418ZM410.717 184.094H439.038V159.477H410.717V184.094ZM410.717 209.78H439.038V185.163H410.717V209.78ZM410.717 235.466H439.038V210.849H410.717V235.466ZM410.717 261.151H439.038V236.534H410.717V261.151ZM410.717 286.837H439.038V262.22H410.717V286.837ZM381.166 286.837H409.487V262.22H381.166V286.837ZM381.166 312.513H409.487V287.896H381.166V312.513ZM351.615 312.513H379.936V287.896H351.615V312.513ZM322.075 312.513H350.397V287.896H322.075V312.513ZM320.846 287.896H292.524V312.513H320.846V287.896ZM292.524 286.837H320.846V262.22H292.524V286.837ZM291.295 262.22H262.973V286.837H291.295V262.22ZM291.295 236.534H262.973V261.151H291.295V236.534ZM291.295 210.849H262.973V235.466H291.295V210.849ZM291.295 185.163H262.973V209.78H291.295V185.163ZM320.846 185.163H292.524V209.78H320.846V185.163ZM320.846 159.487H292.524V184.104H320.846V159.487ZM350.397 159.487H322.064V184.104H350.397V159.487ZM379.936 159.487H351.615V184.104H379.936V159.487ZM381.166 184.094H409.487V159.477H381.166V184.094ZM381.166 209.78H409.487V185.163H381.166V209.78ZM381.166 235.466H409.487V210.849H381.166V235.466ZM381.166 261.151H409.487V236.534H381.166V261.151ZM351.615 261.151H379.936V236.534H351.615V261.151ZM351.615 286.837H379.936V262.22H351.615V286.837ZM350.397 262.22H322.064V286.837H350.397V262.22ZM322.075 261.151H350.397V236.534H322.075V261.151ZM320.846 236.534H292.524V261.151H320.846V236.534ZM320.846 210.849H292.524V235.466H320.846V210.849ZM350.397 210.849H322.064V235.466H350.397V210.849ZM350.397 185.163H322.064V209.78H350.397V185.163ZM379.936 210.849H351.615V235.466H379.936V210.849ZM351.615 209.78H379.936V185.163H351.615V209.78ZM586.782 31.069H558.461V55.6857H586.782V31.069ZM558.461 440.931H586.782V416.314H558.461V440.931Z"/>
</mask>
<path fill-rule="evenodd" clip-rule="evenodd" d="M114 30H588V442H114V30ZM115.23 440.931H143.551V416.314H115.23V440.931ZM143.551 31.069H115.23V55.6857H143.551V31.069ZM558.461 81.3614H586.782V56.7446H558.461V81.3614ZM558.461 107.047H586.782V82.4303H558.461V107.047ZM558.461 132.733H586.782V108.116H558.461V132.733ZM558.461 158.418H586.782V133.802H558.461V158.418ZM558.461 184.094H586.782V159.477H558.461V184.094ZM558.461 209.78H586.782V185.163H558.461V209.78ZM558.461 235.466H586.782V210.849H558.461V235.466ZM558.461 261.151H586.782V236.534H558.461V261.151ZM558.461 286.837H586.782V262.22H558.461V286.837ZM558.461 312.513H586.782V287.896H558.461V312.513ZM558.461 338.198H586.782V313.582H558.461V338.198ZM558.461 363.884H586.782V339.267H558.461V363.884ZM558.461 389.57H586.782V364.953H558.461V389.57ZM558.461 415.245H586.782V390.629H558.461V415.245ZM528.909 415.245H557.231V390.629H528.909V415.245ZM528.909 440.931H557.231V416.314H528.909V440.931ZM499.358 440.931H527.68V416.314H499.358V440.931ZM469.807 440.931H498.14V416.314H469.807V440.931ZM440.268 440.931H468.589V416.314H440.268V440.931ZM410.717 440.931H439.038V416.314H410.717V440.931ZM381.166 440.931H409.487V416.314H381.166V440.931ZM351.615 440.931H379.936V416.314H351.615V440.931ZM322.075 440.931H350.397V416.314H322.075V440.931ZM292.524 440.931H320.846V416.314H292.524V440.931ZM262.973 440.931H291.295V416.314H262.973V440.931ZM233.422 440.931H261.744V416.314H233.422V440.931ZM203.883 440.931H232.204V416.314H203.883V440.931ZM174.332 440.931H202.653V416.314H174.332V440.931ZM173.102 416.314H144.781V440.931H173.102V416.314ZM144.781 415.245H173.102V390.629H144.781V415.245ZM143.551 390.629H115.23V415.245H143.551V390.629ZM143.551 364.953H115.23V389.57H143.551V364.953ZM143.551 339.267H115.23V363.884H143.551V339.267ZM143.551 313.582H115.23V338.198H143.551V313.582ZM143.551 287.896H115.23V312.513H143.551V287.896ZM143.551 262.22H115.23V286.837H143.551V262.22ZM143.551 236.534H115.23V261.151H143.551V236.534ZM143.551 210.849H115.23V235.466H143.551V210.849ZM143.551 185.163H115.23V209.78H143.551V185.163ZM143.551 159.487H115.23V184.104H143.551V159.487ZM143.551 133.802H115.23V158.418H143.551V133.802ZM143.551 108.116H115.23V132.733H143.551V108.116ZM143.551 82.4303H115.23V107.047H143.551V82.4303ZM143.551 56.7446H115.23V81.3614H143.551V56.7446ZM173.102 56.7446H144.781V81.3614H173.102V56.7446ZM173.102 31.069H144.781V55.6857H173.102V31.069ZM202.653 31.069H174.332V55.6857H202.653V31.069ZM232.204 31.069H203.883V55.6857H232.204V31.069ZM261.744 31.069H233.422V55.6857H261.744V31.069ZM291.295 31.069H262.973V55.6857H291.295V31.069ZM320.846 31.069H292.524V55.6857H320.846V31.069ZM350.397 31.069H322.064V55.6857H350.397V31.069ZM379.936 31.069H351.615V55.6857H379.936V31.069ZM409.487 31.069H381.166V55.6857H409.487V31.069ZM439.038 31.069H410.717V55.6857H439.038V31.069ZM468.589 31.069H440.268V55.6857H468.589V31.069ZM498.14 31.069H469.807V55.6857H498.14V31.069ZM527.68 31.069H499.358V55.6857H527.68V31.069ZM528.909 55.6857H557.231V31.069H528.909V55.6857ZM528.909 81.3614H557.231V56.7446H528.909V81.3614ZM528.909 107.047H557.231V82.4303H528.909V107.047ZM528.909 132.733H557.231V108.116H528.909V132.733ZM528.909 158.418H557.231V133.802H528.909V158.418ZM528.909 184.094H557.231V159.477H528.909V184.094ZM528.909 209.78H557.231V185.163H528.909V209.78ZM528.909 235.466H557.231V210.849H528.909V235.466ZM528.909 261.151H557.231V236.534H528.909V261.151ZM528.909 286.837H557.231V262.22H528.909V286.837ZM528.909 312.513H557.231V287.896H528.909V312.513ZM528.909 338.198H557.231V313.582H528.909V338.198ZM528.909 363.884H557.231V339.267H528.909V363.884ZM528.909 389.57H557.231V364.953H528.909V389.57ZM499.358 389.57H527.68V364.953H499.358V389.57ZM499.358 415.245H527.68V390.629H499.358V415.245ZM469.807 415.245H498.14V390.629H469.807V415.245ZM440.268 415.245H468.589V390.629H440.268V415.245ZM410.717 415.245H439.038V390.629H410.717V415.245ZM381.166 415.245H409.487V390.629H381.166V415.245ZM351.615 415.245H379.936V390.629H351.615V415.245ZM322.075 415.245H350.397V390.629H322.075V415.245ZM292.524 415.245H320.846V390.629H292.524V415.245ZM262.973 415.245H291.295V390.629H262.973V415.245ZM233.422 415.245H261.744V390.629H233.422V415.245ZM203.883 415.245H232.204V390.629H203.883V415.245ZM202.653 390.629H174.332V415.245H202.653V390.629ZM174.332 389.57H202.653V364.953H174.332V389.57ZM173.102 364.953H144.781V389.57H173.102V364.953ZM173.102 339.267H144.781V363.884H173.102V339.267ZM173.102 313.582H144.781V338.198H173.102V313.582ZM173.102 287.896H144.781V312.513H173.102V287.896ZM173.102 262.22H144.781V286.837H173.102V262.22ZM173.102 236.534H144.781V261.151H173.102V236.534ZM173.102 210.849H144.781V235.466H173.102V210.849ZM173.102 185.163H144.781V209.78H173.102V185.163ZM173.102 159.487H144.781V184.104H173.102V159.487ZM173.102 133.802H144.781V158.418H173.102V133.802ZM173.102 108.116H144.781V132.733H173.102V108.116ZM173.102 82.4303H144.781V107.047H173.102V82.4303ZM202.653 82.4303H174.332V107.047H202.653V82.4303ZM202.653 56.7446H174.332V81.3614H202.653V56.7446ZM232.204 56.7446H203.883V81.3614H232.204V56.7446ZM261.744 56.7446H233.422V81.3614H261.744V56.7446ZM291.295 56.7446H262.973V81.3614H291.295V56.7446ZM320.846 56.7446H292.524V81.3614H320.846V56.7446ZM350.397 56.7446H322.064V81.3614H350.397V56.7446ZM379.936 56.7446H351.615V81.3614H379.936V56.7446ZM409.487 56.7446H381.166V81.3614H409.487V56.7446ZM439.038 56.7446H410.717V81.3614H439.038V56.7446ZM468.589 56.7446H440.268V81.3614H468.589V56.7446ZM498.14 56.7446H469.807V81.3614H498.14V56.7446ZM499.358 81.3614H527.68V56.7446H499.358V81.3614ZM499.358 107.047H527.68V82.4303H499.358V107.047ZM499.358 132.733H527.68V108.116H499.358V132.733ZM499.358 158.418H527.68V133.802H499.358V158.418ZM499.358 184.094H527.68V159.477H499.358V184.094ZM499.358 209.78H527.68V185.163H499.358V209.78ZM499.358 235.466H527.68V210.849H499.358V235.466ZM499.358 261.151H527.68V236.534H499.358V261.151ZM499.358 286.837H527.68V262.22H499.358V286.837ZM499.358 312.513H527.68V287.896H499.358V312.513ZM499.358 338.198H527.68V313.582H499.358V338.198ZM499.358 363.884H527.68V339.267H499.358V363.884ZM469.807 363.884H498.14V339.267H469.807V363.884ZM469.807 389.57H498.14V364.953H469.807V389.57ZM440.268 389.57H468.589V364.953H440.268V389.57ZM410.717 389.57H439.038V364.953H410.717V389.57ZM381.166 389.57H409.487V364.953H381.166V389.57ZM351.615 389.57H379.936V364.953H351.615V389.57ZM322.075 389.57H350.397V364.953H322.075V389.57ZM292.524 389.57H320.846V364.953H292.524V389.57ZM262.973 389.57H291.295V364.953H262.973V389.57ZM233.422 389.57H261.744V364.953H233.422V389.57ZM232.204 364.953H203.883V389.57H232.204V364.953ZM203.883 363.884H232.204V339.267H203.883V363.884ZM202.653 339.267H174.332V363.884H202.653V339.267ZM202.653 313.582H174.332V338.198H202.653V313.582ZM202.653 287.896H174.332V312.513H202.653V287.896ZM202.653 262.22H174.332V286.837H202.653V262.22ZM202.653 236.534H174.332V261.151H202.653V236.534ZM202.653 210.849H174.332V235.466H202.653V210.849ZM202.653 185.163H174.332V209.78H202.653V185.163ZM202.653 159.487H174.332V184.104H202.653V159.487ZM202.653 133.802H174.332V158.418H202.653V133.802ZM202.653 108.116H174.332V132.733H202.653V108.116ZM232.204 108.116H203.883V132.733H232.204V108.116ZM232.204 82.4303H203.883V107.047H232.204V82.4303ZM261.744 82.4303H233.422V107.047H261.744V82.4303ZM291.295 82.4303H262.973V107.047H291.295V82.4303ZM320.846 82.4303H292.524V107.047H320.846V82.4303ZM350.397 82.4303H322.064V107.047H350.397V82.4303ZM379.936 82.4303H351.615V107.047H379.936V82.4303ZM409.487 82.4303H381.166V107.047H409.487V82.4303ZM439.038 82.4303H410.717V107.047H439.038V82.4303ZM468.589 82.4303H440.268V107.047H468.589V82.4303ZM469.807 107.047H498.14V82.4303H469.807V107.047ZM469.807 132.733H498.14V108.116H469.807V132.733ZM469.807 158.418H498.14V133.802H469.807V158.418ZM469.807 184.094H498.14V159.477H469.807V184.094ZM469.807 209.78H498.14V185.163H469.807V209.78ZM469.807 235.466H498.14V210.849H469.807V235.466ZM469.807 261.151H498.14V236.534H469.807V261.151ZM469.807 286.837H498.14V262.22H469.807V286.837ZM469.807 312.513H498.14V287.896H469.807V312.513ZM469.807 338.198H498.14V313.582H469.807V338.198ZM440.268 338.198H468.589V313.582H440.268V338.198ZM440.268 363.884H468.589V339.267H440.268V363.884ZM410.717 363.884H439.038V339.267H410.717V363.884ZM381.166 363.884H409.487V339.267H381.166V363.884ZM351.615 363.884H379.936V339.267H351.615V363.884ZM322.075 363.884H350.397V339.267H322.075V363.884ZM292.524 363.884H320.846V339.267H292.524V363.884ZM262.973 363.884H291.295V339.267H262.973V363.884ZM261.744 339.267H233.422V363.884H261.744V339.267ZM233.422 338.198H261.744V313.582H233.422V338.198ZM232.204 313.582H203.883V338.198H232.204V313.582ZM232.204 287.896H203.883V312.513H232.204V287.896ZM232.204 262.22H203.883V286.837H232.204V262.22ZM232.204 236.534H203.883V261.151H232.204V236.534ZM232.204 210.849H203.883V235.466H232.204V210.849ZM232.204 185.163H203.883V209.78H232.204V185.163ZM232.204 159.487H203.883V184.104H232.204V159.487ZM232.204 133.802H203.883V158.418H232.204V133.802ZM261.744 133.802H233.422V158.418H261.744V133.802ZM261.744 108.116H233.422V132.733H261.744V108.116ZM291.295 108.116H262.973V132.733H291.295V108.116ZM320.846 108.116H292.524V132.733H320.846V108.116ZM350.397 108.116H322.064V132.733H350.397V108.116ZM379.936 108.116H351.615V132.733H379.936V108.116ZM409.487 108.116H381.166V132.733H409.487V108.116ZM439.038 108.116H410.717V132.733H439.038V108.116ZM440.268 132.733H468.589V108.116H440.268V132.733ZM440.268 158.418H468.589V133.802H440.268V158.418ZM440.268 184.094H468.589V159.477H440.268V184.094ZM440.268 209.78H468.589V185.163H440.268V209.78ZM440.268 235.466H468.589V210.849H440.268V235.466ZM440.268 261.151H468.589V236.534H440.268V261.151ZM440.268 286.837H468.589V262.22H440.268V286.837ZM440.268 312.513H468.589V287.896H440.268V312.513ZM410.717 312.513H439.038V287.896H410.717V312.513ZM410.717 338.198H439.038V313.582H410.717V338.198ZM381.166 338.198H409.487V313.582H381.166V338.198ZM351.615 338.198H379.936V313.582H351.615V338.198ZM322.075 338.198H350.397V313.582H322.075V338.198ZM292.524 338.198H320.846V313.582H292.524V338.198ZM291.295 313.582H262.973V338.198H291.295V313.582ZM262.973 312.513H291.295V287.896H262.973V312.513ZM261.744 287.896H233.422V312.513H261.744V287.896ZM261.744 262.22H233.422V286.837H261.744V262.22ZM261.744 236.534H233.422V261.151H261.744V236.534ZM261.744 210.849H233.422V235.466H261.744V210.849ZM261.744 185.163H233.422V209.78H261.744V185.163ZM261.744 159.487H233.422V184.104H261.744V159.487ZM291.295 159.487H262.973V184.104H291.295V159.487ZM291.295 133.802H262.973V158.418H291.295V133.802ZM320.846 133.802H292.524V158.418H320.846V133.802ZM350.397 133.802H322.064V158.418H350.397V133.802ZM379.936 133.802H351.615V158.418H379.936V133.802ZM409.487 133.802H381.166V158.418H409.487V133.802ZM410.717 158.418H439.038V133.802H410.717V158.418ZM410.717 184.094H439.038V159.477H410.717V184.094ZM410.717 209.78H439.038V185.163H410.717V209.78ZM410.717 235.466H439.038V210.849H410.717V235.466ZM410.717 261.151H439.038V236.534H410.717V261.151ZM410.717 286.837H439.038V262.22H410.717V286.837ZM381.166 286.837H409.487V262.22H381.166V286.837ZM381.166 312.513H409.487V287.896H381.166V312.513ZM351.615 312.513H379.936V287.896H351.615V312.513ZM322.075 312.513H350.397V287.896H322.075V312.513ZM320.846 287.896H292.524V312.513H320.846V287.896ZM292.524 286.837H320.846V262.22H292.524V286.837ZM291.295 262.22H262.973V286.837H291.295V262.22ZM291.295 236.534H262.973V261.151H291.295V236.534ZM291.295 210.849H262.973V235.466H291.295V210.849ZM291.295 185.163H262.973V209.78H291.295V185.163ZM320.846 185.163H292.524V209.78H320.846V185.163ZM320.846 159.487H292.524V184.104H320.846V159.487ZM350.397 159.487H322.064V184.104H350.397V159.487ZM379.936 159.487H351.615V184.104H379.936V159.487ZM381.166 184.094H409.487V159.477H381.166V184.094ZM381.166 209.78H409.487V185.163H381.166V209.78ZM381.166 235.466H409.487V210.849H381.166V235.466ZM381.166 261.151H409.487V236.534H381.166V261.151ZM351.615 261.151H379.936V236.534H351.615V261.151ZM351.615 286.837H379.936V262.22H351.615V286.837ZM350.397 262.22H322.064V286.837H350.397V262.22ZM322.075 261.151H350.397V236.534H322.075V261.151ZM320.846 236.534H292.524V261.151H320.846V236.534ZM320.846 210.849H292.524V235.466H320.846V210.849ZM350.397 210.849H322.064V235.466H350.397V210.849ZM350.397 185.163H322.064V209.78H350.397V185.163ZM379.936 210.849H351.615V235.466H379.936V210.849ZM351.615 209.78H379.936V185.163H351.615V209.78ZM586.782 31.069H558.461V55.6857H586.782V31.069ZM558.461 440.931H586.782V416.314H558.461V440.931Z" fill="#F9E6BE" stroke="#A9DEBF" stroke-width="4" mask="url(#path-1-inside-1)"/>
<path d="M567.773 30.498C602.505 26.7524 626.043 42.5776 620.344 65.8343C614.646 89.0977 581.875 110.991 547.143 114.737C512.41 118.476 488.873 102.657 494.571 79.3936C495.459 75.7707 496.999 72.184 499.104 68.6908C510.524 49.7575 538.453 33.6588 567.773 30.498Z" fill="url(#paint0_linear)"/>
<path d="M546.905 114.719C581.72 111.02 614.548 89.1546 620.222 65.8729C621.412 61.0031 621.316 56.4527 620.101 52.3394C621.574 56.9652 621.705 57.7354 622.832 64.3534L623.046 66.2333C623.248 70.3581 623.214 70.5392 622.338 75.2925C616.758 98.1765 584.486 119.668 550.263 123.304C526.784 125.796 508.486 119.234 501.112 107.48C497.788 101.733 496.964 99.8876 495.186 95.3369C501.17 109.329 520.913 117.476 546.905 114.719ZM620.101 52.3394C620.009 52.0418 619.909 51.7281 619.801 51.3983C619.908 51.7103 620.008 52.024 620.101 52.3394Z" fill="url(#paint1_linear)"/>
<ellipse rx="200" ry="15.5" transform="matrix(-1 0 0 1 408 445.5)" fill="#A1BDAC" fill-opacity="0.5"/>
<ellipse rx="188.5" ry="16" transform="matrix(-1 0 0 1 351.5 415)" fill="url(#paint2_linear)"/>
<path d="M351.5 461C455.604 461 540 453.665 540 444.615C540 435.565 455.604 428.23 351.5 428.23C247.396 428.23 163 435.565 163 444.615C163 453.665 247.396 461 351.5 461Z" fill="url(#paint3_linear)"/>
<path d="M540 413C540 422.05 455.604 429.385 351.5 429.385C247.396 429.385 163 422.05 163 413V444.615C163 435.565 247.396 428.23 351.5 428.23C455.604 428.23 540 435.565 540 444.615V413Z" fill="url(#paint4_linear)"/>
<path d="M108.914 229.884L84.6308 278.439L132.564 283.26L156.846 234.705L108.914 229.884Z" fill="url(#paint5_linear)"/>
<path d="M110.02 231.825L83.6769 195.71L58.9981 243.584L85.3407 279.699L110.02 231.825Z" fill="#B6EBCC"/>
<path d="M157.119 237.312L131.499 200.546L84.1192 195.71L109.739 232.473L157.119 237.312Z" fill="url(#paint6_linear)"/>
<path d="M468.725 121.994L471.804 123.725L489.001 257.443L484.592 252.145L468.725 121.994Z" fill="#50A873"/>
<path d="M286.521 138.42L469.611 121.994L486.179 251.328L302.265 267.549L286.521 138.42Z" fill="url(#paint7_linear)"/>
<path d="M291.223 144.052L466.778 128.301L480.674 242.271L305.123 258.022L291.223 144.052Z" fill="url(#paint8_linear)"/>
<path d="M486.092 251.201L488.983 257.215L401.143 333.573C399.481 335.021 397.204 334.256 396.053 331.868L486.092 251.201Z" fill="#5AB17D"/>
<path d="M399.518 334.295L215.406 350.811C214.096 350.927 212.738 350.055 211.939 348.384L396.052 331.868C396.855 333.534 398.208 334.411 399.518 334.295Z" fill="#5AB17D"/>
<path d="M396.052 331.868L211.939 348.384L301.975 267.718L486.091 251.201L396.052 331.868Z" fill="url(#paint9_linear)"/>
<path d="M302.194 268.216L484.593 251.854L395.838 331.369L213.439 347.731L302.194 268.216Z" fill="url(#paint10_linear)"/>
<g style="mix-blend-mode:multiply" opacity="0.6" filter="url(#filter0_i)">
<path d="M469.478 257.365L464.572 257.808C464.314 257.829 463.936 258.001 463.717 258.194L461.11 260.535C460.899 260.72 460.929 260.862 461.187 260.84L466.093 260.398C466.35 260.376 466.737 260.196 466.947 260.011L469.555 257.67C469.77 257.477 469.74 257.344 469.478 257.365ZM462.111 258.027L457.205 258.469C456.943 258.491 456.569 258.662 456.35 258.856L453.743 261.193C453.532 261.382 453.558 261.523 453.82 261.502L458.726 261.059C458.983 261.038 459.366 260.857 459.581 260.668L462.188 258.332C462.403 258.138 462.368 258.005 462.111 258.027ZM454.744 258.688L449.838 259.126C449.585 259.152 449.198 259.324 448.983 259.517L446.376 261.854C446.166 262.043 446.2 262.185 446.449 262.163L451.359 261.721C451.617 261.699 451.999 261.519 452.209 261.33L454.821 258.993C455.036 258.8 455.001 258.667 454.744 258.688ZM447.377 259.35L442.467 259.788C442.218 259.814 441.831 259.985 441.617 260.179L439.005 262.516C438.794 262.705 438.833 262.846 439.082 262.821L443.992 262.382C444.25 262.357 444.632 262.181 444.842 261.992L447.45 259.655C447.669 259.461 447.635 259.324 447.377 259.35ZM440.006 260.011L433.378 260.604C433.12 260.63 432.742 260.802 432.527 260.995L429.915 263.332C429.705 263.521 429.735 263.662 429.993 263.637L436.621 263.044C436.883 263.018 437.265 262.842 437.476 262.653L440.083 260.316C440.302 260.123 440.268 259.985 440.006 260.011ZM430.916 260.827L424.284 261.42C424.03 261.442 423.644 261.618 423.429 261.811L420.817 264.148C420.611 264.337 420.646 264.474 420.895 264.453L427.531 263.86C427.785 263.834 428.176 263.658 428.386 263.469L430.994 261.132C431.213 260.939 431.17 260.802 430.916 260.827ZM421.823 261.644L415.194 262.236C414.932 262.258 414.554 262.43 414.34 262.627L411.728 264.964C411.517 265.153 411.548 265.29 411.805 265.269L418.433 264.676C418.695 264.65 419.078 264.474 419.288 264.285L421.896 261.949C422.115 261.755 422.08 261.618 421.823 261.644ZM412.729 262.455L406.096 263.053C405.843 263.074 405.465 263.246 405.25 263.443L402.639 265.78C402.428 265.965 402.458 266.107 402.707 266.085L409.344 265.488C409.597 265.467 409.988 265.291 410.199 265.102L412.806 262.765C413.025 262.571 412.982 262.434 412.729 262.455ZM403.635 263.272L397.007 263.869C396.745 263.89 396.367 264.062 396.152 264.255L393.541 266.596C393.334 266.781 393.36 266.923 393.618 266.901L400.246 266.309C400.508 266.283 400.89 266.107 401.101 265.918L403.708 263.581C403.927 263.383 403.893 263.25 403.635 263.272ZM394.546 264.088L387.909 264.685C387.656 264.706 387.278 264.878 387.063 265.071L384.451 267.413C384.245 267.597 384.271 267.739 384.524 267.717L391.156 267.12C391.41 267.099 391.801 266.923 392.011 266.734L394.619 264.397C394.838 264.199 394.795 264.066 394.546 264.088ZM385.448 264.904L378.82 265.501C378.558 265.522 378.18 265.694 377.965 265.888L375.357 268.224C375.147 268.413 375.173 268.555 375.43 268.534L382.063 267.937C382.321 267.915 382.703 267.735 382.913 267.55L385.525 265.209C385.74 265.016 385.705 264.882 385.448 264.904ZM376.358 265.72L369.73 266.317C369.468 266.339 369.09 266.51 368.875 266.704L366.268 269.041C366.058 269.23 366.083 269.371 366.341 269.35L372.973 268.753C373.231 268.731 373.613 268.551 373.824 268.362L376.431 266.025C376.65 265.832 376.616 265.699 376.358 265.72ZM367.269 266.536L360.632 267.133C360.379 267.155 359.996 267.327 359.777 267.52L357.17 269.857C356.96 270.046 356.994 270.187 357.247 270.166L363.884 269.569C364.133 269.547 364.515 269.367 364.726 269.178L367.338 266.841C367.552 266.648 367.518 266.515 367.269 266.536ZM355.435 267.597L348.798 268.194C348.549 268.216 348.162 268.388 347.943 268.581L345.336 270.922C345.125 271.107 345.16 271.248 345.413 271.227L352.05 270.63C352.299 270.608 352.694 270.428 352.904 270.243L355.512 267.902C355.727 267.709 355.688 267.576 355.435 267.597ZM346.337 268.413L339.709 269.006C339.451 269.032 339.073 269.204 338.854 269.397L336.246 271.734C336.036 271.923 336.066 272.065 336.324 272.043L342.952 271.446C343.209 271.425 343.596 271.244 343.806 271.055L346.414 268.718C346.629 268.525 346.599 268.392 346.337 268.413ZM337.247 269.23L330.61 269.822C330.361 269.848 329.975 270.02 329.76 270.213L327.148 272.55C326.938 272.739 326.976 272.881 327.226 272.859L333.862 272.262C334.116 272.241 334.507 272.06 334.717 271.871L337.324 269.535C337.539 269.341 337.501 269.208 337.247 269.23ZM328.149 270.046L321.521 270.638C321.263 270.664 320.885 270.836 320.671 271.029L318.059 273.366C317.848 273.555 317.878 273.697 318.136 273.671L324.764 273.078C325.022 273.057 325.409 272.876 325.619 272.687L328.226 270.351C328.441 270.157 328.411 270.024 328.149 270.046ZM314.893 271.236L308.265 271.828C308.003 271.854 307.629 272.026 307.41 272.219L304.803 274.556C304.592 274.745 304.618 274.887 304.88 274.861L311.508 274.268C311.766 274.242 312.152 274.066 312.359 273.877L314.97 271.541C315.185 271.347 315.151 271.21 314.893 271.236ZM464.727 261.626L459.817 262.065C459.559 262.09 459.181 262.262 458.966 262.455L454.061 266.85C453.842 267.043 453.876 267.181 454.138 267.155L459.044 266.717C459.301 266.691 459.679 266.519 459.894 266.326L464.804 261.931C465.019 261.738 464.984 261.601 464.727 261.626ZM457.355 262.284L452.45 262.726C452.192 262.748 451.814 262.924 451.599 263.117L446.69 267.511C446.475 267.705 446.509 267.842 446.767 267.816L451.672 267.378C451.934 267.352 452.312 267.181 452.527 266.987L457.433 262.593C457.648 262.4 457.617 262.262 457.355 262.284ZM449.989 262.945L445.083 263.388C444.834 263.409 444.447 263.581 444.228 263.774L439.323 268.173C439.108 268.366 439.147 268.499 439.4 268.478L444.306 268.035C444.568 268.014 444.941 267.842 445.16 267.649L450.066 263.254C450.281 263.057 450.246 262.924 449.989 262.945ZM442.622 263.607L437.716 264.049C437.463 264.071 437.076 264.242 436.861 264.436L431.956 268.834C431.741 269.028 431.78 269.161 432.033 269.139L436.939 268.697C437.196 268.675 437.574 268.504 437.793 268.31L442.699 263.912C442.914 263.718 442.879 263.585 442.622 263.607ZM435.238 264.268L420.01 265.634C419.748 265.66 419.37 265.832 419.155 266.025L414.168 270.497C413.949 270.69 413.983 270.823 414.241 270.802L429.473 269.436C429.731 269.41 430.109 269.238 430.328 269.045L435.315 264.577C435.53 264.384 435.5 264.247 435.238 264.268ZM417.677 265.845L411.049 266.442C410.787 266.463 410.409 266.635 410.194 266.828L405.207 271.3C404.988 271.493 405.023 271.626 405.28 271.605L411.913 271.012C412.17 270.986 412.548 270.815 412.763 270.621L417.755 266.15C417.969 265.956 417.935 265.823 417.677 265.845ZM408.717 266.648L402.089 267.245C401.831 267.266 401.449 267.438 401.234 267.636L396.247 272.103C396.028 272.297 396.062 272.434 396.324 272.408L402.952 271.815C403.21 271.79 403.588 271.618 403.803 271.425L408.794 266.957C409.009 266.764 408.974 266.626 408.717 266.648ZM399.756 267.455L393.12 268.048C392.87 268.07 392.492 268.246 392.273 268.439L387.286 272.907C387.067 273.1 387.101 273.237 387.355 273.216L393.992 272.619C394.241 272.597 394.627 272.421 394.842 272.228L399.834 267.76C400.048 267.567 400.01 267.43 399.756 267.455ZM390.796 268.259L384.159 268.852C383.91 268.873 383.523 269.049 383.308 269.242L378.317 273.71C378.102 273.903 378.145 274.041 378.394 274.019L385.031 273.422C385.28 273.401 385.667 273.224 385.882 273.031L390.873 268.564C391.088 268.37 391.049 268.233 390.796 268.259ZM381.835 269.062L375.198 269.655C374.949 269.681 374.563 269.852 374.348 270.046L369.356 274.513C369.142 274.711 369.185 274.844 369.434 274.822L376.07 274.225C376.32 274.204 376.698 274.032 376.917 273.839L381.904 269.367C382.123 269.174 382.089 269.036 381.835 269.062ZM372.87 269.865L366.238 270.462C365.98 270.484 365.602 270.656 365.387 270.849L360.396 275.321C360.181 275.514 360.216 275.647 360.473 275.626L367.101 275.029C367.363 275.007 367.741 274.835 367.956 274.642L372.943 270.17C373.162 269.977 373.128 269.844 372.87 269.865ZM363.91 270.669L357.277 271.266C357.02 271.287 356.642 271.459 356.427 271.652L351.44 276.124C351.221 276.317 351.255 276.45 351.513 276.429L358.141 275.836C358.403 275.81 358.781 275.639 358.996 275.445L363.983 270.974C364.202 270.78 364.167 270.647 363.91 270.669ZM354.949 271.472L348.321 272.069C348.059 272.09 347.681 272.262 347.466 272.455L342.479 276.927C342.26 277.12 342.294 277.258 342.556 277.232L349.185 276.639C349.442 276.614 349.82 276.442 350.035 276.248L355.022 271.781C355.241 271.584 355.207 271.45 354.949 271.472ZM345.989 272.279L339.361 272.872C339.099 272.894 338.721 273.07 338.506 273.259L333.519 277.73C333.3 277.924 333.334 278.061 333.596 278.035L340.224 277.443C340.482 277.417 340.86 277.245 341.075 277.052L346.066 272.584C346.281 272.391 346.246 272.254 345.989 272.279ZM337.028 273.083L330.391 273.675C330.142 273.697 329.76 273.873 329.545 274.066L324.558 278.534C324.339 278.727 324.373 278.864 324.627 278.843L331.263 278.246C331.521 278.224 331.899 278.053 332.114 277.855L337.105 273.388C337.32 273.194 337.286 273.057 337.028 273.083ZM328.068 273.886L321.431 274.479C321.177 274.504 320.795 274.676 320.58 274.87L315.589 279.341C315.374 279.535 315.413 279.668 315.666 279.646L322.303 279.049C322.552 279.028 322.939 278.856 323.153 278.663L328.145 274.191C328.36 273.998 328.317 273.864 328.068 273.886ZM319.107 274.689L312.47 275.286C312.221 275.308 311.835 275.48 311.62 275.673L306.628 280.145C306.414 280.338 306.457 280.471 306.706 280.45L313.342 279.852C313.596 279.831 313.969 279.659 314.189 279.466L319.176 274.994C319.39 274.801 319.36 274.668 319.107 274.689ZM310.138 275.492L303.51 276.09C303.252 276.111 302.874 276.283 302.659 276.476L297.668 280.948C297.453 281.141 297.487 281.279 297.745 281.253L304.373 280.66C304.635 280.634 305.009 280.462 305.228 280.269L310.215 275.802C310.434 275.604 310.4 275.471 310.138 275.492ZM428.12 270.66L416.973 271.661C416.724 271.682 416.333 271.863 416.122 272.047L411.131 276.519C410.916 276.712 410.959 276.846 411.208 276.824L422.355 275.823C422.613 275.802 422.991 275.63 423.21 275.437L428.197 270.965C428.408 270.776 428.382 270.634 428.12 270.66ZM414.649 271.867L408.012 272.464C407.763 272.486 407.372 272.666 407.162 272.855L402.17 277.322C401.956 277.516 401.998 277.653 402.248 277.627L408.884 277.035C409.138 277.009 409.511 276.837 409.731 276.644L414.718 272.176C414.928 271.987 414.902 271.846 414.649 271.867ZM405.684 272.675L399.052 273.267C398.794 273.289 398.412 273.469 398.201 273.658L393.21 278.126C392.995 278.319 393.029 278.456 393.287 278.431L399.915 277.838C400.177 277.816 400.555 277.64 400.77 277.447L405.757 272.98C405.968 272.791 405.942 272.649 405.684 272.675ZM396.724 273.478L390.095 274.071C389.833 274.092 389.451 274.273 389.241 274.462L384.254 278.929C384.034 279.122 384.069 279.26 384.327 279.238L390.959 278.641C391.217 278.62 391.595 278.448 391.809 278.25L396.797 273.783C397.007 273.594 396.981 273.452 396.724 273.478ZM387.763 274.281L381.135 274.874C380.873 274.9 380.491 275.076 380.28 275.265L375.293 279.732C375.074 279.925 375.108 280.063 375.366 280.041L381.998 279.444C382.256 279.423 382.634 279.251 382.849 279.058L387.84 274.586C388.051 274.397 388.021 274.255 387.763 274.281ZM378.802 275.084L372.174 275.677C371.912 275.703 371.53 275.879 371.32 276.068L366.332 280.535C366.113 280.733 366.148 280.866 366.405 280.845L373.038 280.248C373.296 280.226 373.674 280.054 373.888 279.861L378.88 275.389C379.09 275.2 379.06 275.059 378.802 275.084ZM369.842 275.888L363.214 276.48C362.956 276.506 362.57 276.682 362.359 276.871L357.372 281.343C357.153 281.536 357.187 281.669 357.449 281.648L364.077 281.055C364.335 281.029 364.713 280.858 364.928 280.664L369.919 276.193C370.13 276.008 370.1 275.866 369.842 275.888ZM360.881 276.691L354.245 277.288C353.996 277.309 353.6 277.49 353.394 277.675L348.403 282.146C348.188 282.34 348.227 282.477 348.48 282.451L355.117 281.858C355.366 281.833 355.752 281.661 355.967 281.468L360.959 276.996C361.169 276.811 361.135 276.669 360.881 276.691ZM351.921 277.494L345.284 278.091C345.035 278.113 344.64 278.293 344.434 278.482L339.442 282.95C339.227 283.143 339.27 283.28 339.519 283.255L346.156 282.662C346.405 282.64 346.783 282.464 347.002 282.271L351.99 277.803C352.2 277.614 352.174 277.473 351.921 277.494ZM342.956 278.302L336.324 278.895C336.066 278.916 335.684 279.096 335.473 279.285L330.482 283.753C330.267 283.946 330.301 284.084 330.559 284.062L337.187 283.465C337.445 283.444 337.823 283.272 338.042 283.074L343.029 278.607C343.239 278.418 343.214 278.276 342.956 278.302ZM333.995 279.105L327.363 279.698C327.105 279.724 326.723 279.9 326.513 280.089L321.521 284.556C321.306 284.749 321.341 284.887 321.598 284.865L328.226 284.268C328.488 284.247 328.862 284.075 329.081 283.882L334.068 279.41C334.279 279.221 334.253 279.079 333.995 279.105ZM325.035 279.908L318.403 280.501C318.145 280.527 317.762 280.703 317.552 280.892L312.565 285.359C312.346 285.557 312.38 285.69 312.638 285.669L319.266 285.072C319.528 285.05 319.906 284.878 320.121 284.685L325.108 280.213C325.318 280.024 325.293 279.883 325.035 279.908ZM316.074 280.712L309.446 281.309C309.184 281.33 308.802 281.506 308.591 281.695L303.604 286.167C303.385 286.36 303.42 286.493 303.677 286.472L310.31 285.879C310.567 285.853 310.945 285.682 311.16 285.488L316.147 281.017C316.358 280.828 316.332 280.69 316.074 280.712ZM307.114 281.515L296.379 282.477C296.117 282.503 295.735 282.679 295.524 282.868L290.537 287.34C290.318 287.533 290.352 287.666 290.61 287.645L301.349 286.682C301.607 286.657 301.985 286.485 302.2 286.292L307.191 281.82C307.402 281.635 307.371 281.493 307.114 281.515ZM457.549 268.057L452.639 268.495C452.381 268.521 452.003 268.693 451.788 268.886L439.705 279.711C439.494 279.9 439.52 280.041 439.782 280.016L444.688 279.578C444.946 279.556 445.328 279.376 445.538 279.187L457.622 268.362C457.841 268.169 457.807 268.031 457.549 268.057ZM450.178 268.714L445.272 269.157C445.014 269.178 444.636 269.354 444.417 269.547L439.512 273.942C439.301 274.131 439.331 274.273 439.589 274.247L444.499 273.809C444.757 273.783 445.139 273.607 445.349 273.418L450.255 269.023C450.474 268.83 450.44 268.693 450.178 268.714ZM442.811 269.376L437.905 269.818C437.652 269.84 437.269 270.011 437.05 270.209L432.145 274.603C431.934 274.792 431.973 274.93 432.222 274.908L437.128 274.47C437.39 274.444 437.772 274.268 437.982 274.079L442.888 269.685C443.103 269.492 443.073 269.354 442.811 269.376ZM435.444 270.037L430.538 270.48C430.285 270.501 429.902 270.673 429.683 270.866L424.778 275.265C424.567 275.45 424.602 275.591 424.855 275.57L429.761 275.127C430.018 275.106 430.405 274.93 430.616 274.741L435.521 270.346C435.736 270.149 435.701 270.016 435.444 270.037ZM420.865 277.065L403.008 278.667C402.755 278.693 402.372 278.864 402.153 279.058L397.166 283.529C396.955 283.714 396.99 283.856 397.243 283.834L415.1 282.232C415.362 282.206 415.744 282.03 415.955 281.841L420.942 277.374C421.161 277.181 421.127 277.043 420.865 277.065ZM400.675 278.877L394.047 279.474C393.79 279.496 393.412 279.668 393.193 279.861L388.205 284.333C387.995 284.517 388.025 284.659 388.283 284.638L394.911 284.041C395.169 284.019 395.555 283.843 395.761 283.654L400.753 279.182C400.968 278.989 400.933 278.856 400.675 278.877ZM391.715 279.681L385.087 280.278C384.829 280.299 384.451 280.471 384.232 280.664L379.245 285.136C379.034 285.325 379.064 285.467 379.322 285.441L385.95 284.848C386.208 284.822 386.595 284.646 386.805 284.457L391.792 279.99C392.007 279.792 391.973 279.659 391.715 279.681ZM382.754 280.484L376.126 281.081C375.869 281.102 375.491 281.274 375.276 281.468L370.284 285.939C370.074 286.128 370.104 286.27 370.362 286.244L376.99 285.651C377.247 285.626 377.634 285.45 377.845 285.261L382.832 280.793C383.046 280.6 383.012 280.462 382.754 280.484ZM373.794 281.287L367.166 281.884C366.908 281.906 366.53 282.078 366.315 282.275L361.324 286.743C361.113 286.932 361.143 287.073 361.401 287.048L368.029 286.455C368.291 286.433 368.674 286.253 368.884 286.064L373.871 281.596C374.09 281.403 374.056 281.266 373.794 281.287ZM364.833 282.095L358.205 282.688C357.947 282.709 357.569 282.885 357.355 283.078L352.363 287.546C352.157 287.735 352.183 287.877 352.441 287.851L359.069 287.258C359.331 287.237 359.713 287.056 359.923 286.867L364.911 282.4C365.13 282.206 365.095 282.069 364.833 282.095ZM355.877 282.898L349.24 283.491C348.987 283.517 348.609 283.688 348.394 283.882L343.403 288.349C343.197 288.538 343.222 288.68 343.471 288.658L350.108 288.061C350.362 288.04 350.752 287.859 350.963 287.675L355.95 283.203C356.169 283.01 356.126 282.877 355.877 282.898ZM346.916 283.701L340.28 284.294C340.026 284.32 339.64 284.492 339.425 284.685L334.438 289.157C334.227 289.341 334.262 289.483 334.511 289.462L341.148 288.865C341.401 288.843 341.783 288.667 341.994 288.478L346.985 284.006C347.2 283.813 347.166 283.68 346.916 283.701ZM337.947 284.505L331.319 285.102C331.057 285.123 330.679 285.295 330.464 285.488L325.477 289.96C325.267 290.149 325.293 290.286 325.555 290.265L332.183 289.672C332.44 289.646 332.827 289.47 333.033 289.281L338.025 284.81C338.239 284.616 338.205 284.483 337.947 284.505ZM328.987 285.308L322.359 285.905C322.101 285.926 321.723 286.098 321.504 286.292L316.517 290.763C316.306 290.952 316.332 291.094 316.594 291.068L323.222 290.475C323.48 290.45 323.866 290.274 324.073 290.085L329.064 285.613C329.279 285.424 329.245 285.286 328.987 285.308ZM320.026 286.111L313.398 286.708C313.14 286.73 312.762 286.901 312.543 287.099L307.556 291.566C307.346 291.755 307.376 291.897 307.634 291.871L314.262 291.279C314.519 291.253 314.906 291.077 315.116 290.888L320.104 286.42C320.318 286.227 320.284 286.09 320.026 286.111ZM311.066 286.919L304.438 287.511C304.18 287.537 303.802 287.709 303.587 287.902L298.596 292.37C298.385 292.559 298.415 292.7 298.673 292.675L305.301 292.082C305.559 292.06 305.945 291.88 306.156 291.691L311.143 287.224C311.358 287.03 311.323 286.893 311.066 286.919ZM302.105 287.722L289.236 288.873C288.978 288.899 288.6 289.071 288.385 289.264L283.394 293.736C283.187 293.92 283.213 294.062 283.471 294.041L296.34 292.885C296.598 292.864 296.985 292.683 297.195 292.494L302.182 288.027C302.397 287.834 302.367 287.696 302.105 287.722ZM443 275.149L438.094 275.587C437.836 275.613 437.458 275.785 437.244 275.978L432.334 280.372C432.123 280.561 432.153 280.703 432.411 280.677L437.317 280.239C437.579 280.213 437.961 280.037 438.171 279.848L443.077 275.454C443.292 275.261 443.262 275.123 443 275.149ZM435.633 275.806L430.727 276.248C430.474 276.27 430.091 276.446 429.872 276.639L424.967 281.034C424.756 281.223 424.791 281.36 425.044 281.339L429.95 280.901C430.212 280.875 430.594 280.699 430.805 280.51L435.71 276.115C435.925 275.922 435.89 275.785 435.633 275.806ZM428.266 276.468L423.36 276.91C423.107 276.931 422.725 277.103 422.506 277.301L417.6 281.695C417.39 281.884 417.424 282.022 417.677 282L422.583 281.562C422.841 281.536 423.227 281.36 423.438 281.171L428.343 276.777C428.558 276.584 428.524 276.446 428.266 276.468ZM403.987 284.333L389.541 285.626C389.284 285.651 388.906 285.823 388.691 286.017L383.699 290.484C383.485 290.682 383.519 290.815 383.777 290.793L398.223 289.496C398.476 289.475 398.858 289.298 399.078 289.105L404.065 284.638C404.279 284.444 404.241 284.307 403.987 284.333ZM387.209 285.836L380.581 286.433C380.323 286.455 379.945 286.627 379.73 286.82L374.739 291.292C374.524 291.485 374.558 291.618 374.816 291.597L381.444 291.004C381.706 290.978 382.08 290.806 382.299 290.613L387.286 286.141C387.505 285.948 387.471 285.815 387.209 285.836ZM378.253 286.639L371.616 287.237C371.363 287.258 370.976 287.43 370.761 287.623L365.774 292.095C365.555 292.288 365.598 292.421 365.847 292.4L372.484 291.807C372.737 291.781 373.124 291.609 373.338 291.416L378.326 286.944C378.545 286.751 378.502 286.618 378.253 286.639ZM369.292 287.443L362.655 288.04C362.402 288.061 362.02 288.233 361.801 288.431L356.813 292.898C356.594 293.091 356.637 293.229 356.886 293.203L363.523 292.61C363.777 292.589 364.163 292.413 364.378 292.219L369.365 287.752C369.584 287.554 369.541 287.421 369.292 287.443ZM360.323 288.25L353.695 288.843C353.441 288.865 353.059 289.041 352.84 289.234L347.853 293.701C347.638 293.895 347.677 294.032 347.93 294.011L354.558 293.414C354.816 293.392 355.194 293.22 355.409 293.023L360.4 288.555C360.615 288.362 360.581 288.225 360.323 288.25ZM351.362 289.054L344.734 289.646C344.477 289.672 344.099 289.844 343.88 290.037L338.892 294.505C338.678 294.702 338.708 294.835 338.97 294.814L345.598 294.217C345.855 294.195 346.233 294.024 346.448 293.83L351.44 289.359C351.654 289.165 351.62 289.028 351.362 289.054ZM342.402 289.857L335.774 290.45C335.516 290.475 335.138 290.647 334.919 290.841L329.932 295.312C329.717 295.506 329.747 295.639 330.009 295.617L336.637 295.02C336.895 294.999 337.273 294.827 337.488 294.633L342.479 290.162C342.694 289.969 342.664 289.835 342.402 289.857ZM333.441 290.66L326.813 291.257C326.555 291.279 326.177 291.45 325.958 291.644L320.971 296.115C320.756 296.309 320.791 296.442 321.049 296.42L327.677 295.823C327.934 295.802 328.312 295.63 328.531 295.437L333.519 290.965C333.733 290.772 333.703 290.639 333.441 290.66ZM324.481 291.463L317.853 292.06C317.595 292.082 317.217 292.254 317.002 292.447L312.011 296.919C311.796 297.112 311.83 297.245 312.088 297.224L318.716 296.631C318.974 296.605 319.352 296.433 319.571 296.24L324.558 291.768C324.773 291.575 324.743 291.442 324.481 291.463ZM315.52 292.267L308.888 292.864C308.634 292.885 308.256 293.057 308.042 293.25L303.05 297.722C302.835 297.915 302.87 298.053 303.119 298.027L309.756 297.434C310.009 297.413 310.391 297.237 310.61 297.043L315.597 292.576C315.817 292.378 315.774 292.245 315.52 292.267ZM306.564 293.07L299.927 293.667C299.674 293.688 299.287 293.865 299.072 294.058L294.085 298.525C293.866 298.719 293.909 298.856 294.158 298.835L300.795 298.237C301.048 298.216 301.431 298.04 301.65 297.847L306.637 293.379C306.856 293.186 306.813 293.048 306.564 293.07ZM297.603 293.877L282.105 295.265C281.843 295.291 281.469 295.463 281.25 295.656L276.263 300.123C276.044 300.321 276.078 300.454 276.34 300.433L291.834 299.041C292.088 299.019 292.466 298.847 292.681 298.65L297.672 294.182C297.887 293.989 297.853 293.852 297.603 293.877ZM443.193 280.918L438.283 281.356C438.025 281.382 437.647 281.553 437.433 281.747L425.534 292.408C425.315 292.602 425.349 292.735 425.611 292.713L430.517 292.271C430.774 292.249 431.152 292.078 431.367 291.884L443.266 281.223C443.485 281.029 443.451 280.892 443.193 280.918ZM435.822 281.579L430.916 282.017C430.659 282.039 430.28 282.215 430.061 282.408L425.156 286.803C424.945 286.992 424.975 287.133 425.233 287.108L430.139 286.67C430.401 286.648 430.783 286.468 430.994 286.279L435.899 281.884C436.114 281.691 436.084 281.554 435.822 281.579ZM428.455 282.241L423.549 282.679C423.296 282.7 422.914 282.877 422.695 283.07L417.789 287.464C417.579 287.653 417.613 287.795 417.866 287.769L422.772 287.331C423.034 287.305 423.416 287.129 423.627 286.94L428.532 282.546C428.747 282.352 428.717 282.215 428.455 282.241ZM421.088 282.898L416.182 283.34C415.929 283.362 415.547 283.534 415.328 283.731L410.422 288.126C410.212 288.315 410.246 288.452 410.499 288.431L415.405 287.993C415.663 287.967 416.049 287.791 416.26 287.602L421.165 283.207C421.38 283.014 421.346 282.877 421.088 282.898ZM411.17 284.294L406.264 284.732C406.002 284.754 405.624 284.93 405.409 285.123L400.504 289.517C400.289 289.711 400.319 289.848 400.581 289.822L405.486 289.384C405.74 289.363 406.122 289.187 406.341 288.993L411.247 284.599C411.462 284.406 411.419 284.268 411.17 284.294ZM389.039 291.425L374.851 292.696C374.593 292.718 374.206 292.898 373.996 293.087L369.004 297.563C368.794 297.748 368.828 297.885 369.086 297.859L383.274 296.588C383.532 296.567 383.91 296.395 384.12 296.206L389.116 291.73C389.322 291.541 389.297 291.399 389.039 291.425ZM372.518 292.907L365.881 293.499C365.632 293.525 365.246 293.701 365.039 293.89L360.044 298.366C359.833 298.551 359.868 298.689 360.117 298.667L366.753 298.07C367.007 298.048 367.389 297.877 367.6 297.688L372.595 293.212C372.806 293.023 372.771 292.881 372.518 292.907ZM363.557 293.71L356.921 294.307C356.672 294.329 356.281 294.505 356.07 294.694L351.075 299.17C350.864 299.359 350.907 299.492 351.156 299.47L357.793 298.873C358.046 298.852 358.424 298.68 358.635 298.491L363.626 294.015C363.837 293.826 363.811 293.688 363.557 293.71ZM354.597 294.513L347.965 295.11C347.703 295.132 347.32 295.312 347.11 295.497L342.114 299.973C341.904 300.162 341.938 300.295 342.196 300.274L348.832 299.677C349.086 299.655 349.464 299.483 349.674 299.294L354.666 294.818C354.876 294.634 354.85 294.492 354.597 294.513ZM345.632 295.317L312.122 298.323C311.865 298.349 311.478 298.525 311.268 298.714L306.272 303.19C306.066 303.375 306.096 303.512 306.358 303.491L339.867 300.484C340.125 300.458 340.503 300.286 340.714 300.097L345.709 295.626C345.92 295.437 345.89 295.295 345.632 295.317ZM309.79 298.534L303.153 299.131C302.904 299.152 302.518 299.329 302.307 299.518L297.316 303.994C297.105 304.183 297.135 304.316 297.389 304.294L304.025 303.697C304.279 303.676 304.661 303.504 304.871 303.315L309.867 298.839C310.078 298.65 310.043 298.512 309.79 298.534ZM300.829 299.337L294.193 299.934C293.944 299.956 293.553 300.136 293.342 300.321L288.346 304.797C288.136 304.986 288.179 305.119 288.428 305.098L295.065 304.5C295.318 304.479 295.7 304.307 295.911 304.118L300.907 299.642C301.117 299.457 301.083 299.316 300.829 299.337ZM291.869 300.14L285.232 300.738C284.983 300.759 284.592 300.939 284.382 301.124L279.386 305.6C279.175 305.789 279.218 305.922 279.468 305.901L286.104 305.304C286.358 305.282 286.736 305.11 286.942 304.921L291.938 300.45C292.148 300.261 292.122 300.119 291.869 300.14ZM283.016 300.935L274.97 301.657C274.712 301.683 274.326 301.859 274.12 302.048L269.124 306.519C268.913 306.708 268.948 306.846 269.205 306.824L277.251 306.098C277.504 306.077 277.887 305.905 278.097 305.716L283.093 301.24C283.303 301.051 283.269 300.914 283.016 300.935ZM428.644 288.01L423.738 288.448C423.481 288.474 423.103 288.645 422.884 288.839L418.137 293.091C417.922 293.285 417.957 293.422 418.214 293.396L423.12 292.958C423.382 292.932 423.76 292.761 423.975 292.567L428.721 288.315C428.94 288.121 428.906 287.984 428.644 288.01ZM421.277 288.671L416.371 289.109C416.118 289.131 415.736 289.307 415.517 289.5L410.77 293.753C410.555 293.946 410.598 294.079 410.847 294.058L415.753 293.62C416.015 293.594 416.389 293.422 416.608 293.229L421.354 288.976C421.569 288.783 421.535 288.645 421.277 288.671ZM411.363 289.947L406.462 290.389C406.204 290.411 405.826 290.583 405.611 290.776L401.268 294.668C401.058 294.853 401.092 294.99 401.354 294.964L406.251 294.526C406.509 294.505 406.887 294.333 407.097 294.144L411.436 290.256C411.655 290.063 411.621 289.926 411.363 289.947ZM404.133 290.596L399.224 291.038C398.966 291.06 398.588 291.231 398.373 291.429L394.03 295.317C393.82 295.506 393.854 295.639 394.112 295.617L399.022 295.175C399.271 295.153 399.657 294.981 399.868 294.792L404.206 290.905C404.425 290.712 404.383 290.574 404.133 290.596ZM396.9 291.244L391.994 291.687C391.741 291.708 391.363 291.88 391.148 292.073L386.809 295.965C386.599 296.15 386.633 296.287 386.882 296.266L391.792 295.823C392.05 295.802 392.428 295.63 392.638 295.441L396.977 291.554C397.192 291.36 397.157 291.223 396.9 291.244ZM349.107 305.66L302.93 309.805C301.998 309.887 300.602 310.527 299.824 311.223L272.676 335.54C271.894 336.245 272.028 336.739 272.955 336.657L319.137 332.512C320.073 332.43 321.457 331.794 322.238 331.094L349.386 306.773C350.164 306.077 350.044 305.574 349.107 305.66Z" fill="url(#paint11_linear)"/>
</g>
<path d="M387.849 188.112L380.386 203.036L395.119 204.518L402.582 189.594L387.849 188.112Z" fill="#E12F2F"/>
<path d="M380.386 203.036L395.119 204.518L380.156 233.86L365.423 232.378L380.386 203.036Z" fill="#E12F2F"/>
<path d="M388.105 188.355L380.009 177.255L372.423 191.97L380.52 203.07L388.105 188.355Z" fill="#FE7373"/>
<path d="M380.009 177.255L372.423 191.97L364.326 180.869L356.229 169.769L363.815 155.054L371.912 166.154L380.009 177.255Z" fill="#FE7373"/>
<path d="M372.423 191.97L380.52 203.07L372.935 217.785L365.349 232.5L357.252 221.399L364.838 206.684L372.423 191.97Z" fill="#FE7373"/>
<path d="M402.602 190.042L394.727 178.741L380.164 177.255L388.039 188.555L402.602 190.042Z" fill="#F24141"/>
<path d="M394.727 178.741L380.164 177.255L363.862 155.051L378.425 156.538L394.727 178.741Z" fill="#F24141"/>
<path d="M313.971 227.147L302.921 226.035L284.76 201.4L295.809 202.511L313.971 227.147Z" fill="#E12F2F"/>
<path d="M295.809 202.511L284.76 201.4L296.138 178.987L307.079 180.081L295.809 202.511Z" fill="#E12F2F"/>
<path d="M313.971 227.147L302.921 226.035L284.76 201.4L295.809 202.511L313.971 227.147Z" fill="#F24141"/>
<path d="M302.921 226.035L313.971 227.147L308.392 238.091L297.342 236.98L302.921 226.035Z" fill="#E13636"/>
<path d="M284.761 201.396L278.689 193.071L273 204.107L279.073 212.432L279.174 212.235L284.761 201.396Z" fill="#FE7373"/>
<path d="M302.979 226.035L297.29 237.071L291.217 228.746L285.145 220.421L279.174 212.235L284.761 201.396L290.834 209.385L296.906 217.71L302.979 226.035Z" fill="#FE7373"/>
<path d="M278.689 193.071L284.378 182.036L290.01 171.109L296.139 178.989L296.037 179.186L284.761 201.396L278.689 193.071Z" fill="#FE7373"/>
<path d="M307.08 180.102L296.158 178.987L290.031 171.089L300.953 172.204L307.08 180.102Z" fill="#F05959"/>
<path d="M348.845 248.953C347.588 248.286 347.991 246.67 349.74 245.349C351.493 244.024 353.929 243.491 355.186 244.159C356.44 244.824 356.044 246.438 354.291 247.763C352.542 249.085 350.099 249.619 348.845 248.953Z" fill="#D41C1C"/>
<path d="M310.143 146.556C310.094 146.559 310.046 146.562 309.998 146.567C309.982 146.568 309.967 146.571 309.951 146.572C309.946 146.572 309.942 146.573 309.937 146.573C309.908 146.575 309.879 146.577 309.851 146.581C309.8 146.586 309.752 146.592 309.702 146.599C309.651 146.605 309.601 146.613 309.551 146.622C309.5 146.63 309.45 146.638 309.399 146.648L309.248 146.678C309.239 146.68 309.231 146.683 309.222 146.684C309.219 146.684 309.215 146.686 309.213 146.687C309.177 146.695 309.141 146.704 309.105 146.713C309.058 146.725 309.009 146.736 308.962 146.749C308.919 146.761 308.875 146.771 308.83 146.783C308.788 146.795 308.745 146.808 308.703 146.82C308.663 146.832 308.622 146.845 308.582 146.857C308.546 146.87 308.507 146.88 308.471 146.893L308.362 146.93C308.326 146.943 308.291 146.956 308.255 146.97C308.22 146.983 308.184 146.997 308.149 147.01C308.115 147.024 308.078 147.037 308.044 147.051C308.005 147.067 307.965 147.083 307.927 147.099C307.887 147.117 307.847 147.133 307.807 147.151C307.781 147.162 307.755 147.175 307.728 147.186C307.724 147.188 307.719 147.189 307.715 147.193C307.697 147.201 307.68 147.209 307.662 147.217L307.459 147.315C307.344 147.374 307.228 147.434 307.114 147.499L307.004 147.563C306.997 147.568 306.988 147.571 306.98 147.576C306.96 147.588 306.94 147.6 306.921 147.611C306.871 147.641 306.822 147.673 306.772 147.703C306.731 147.729 306.691 147.754 306.65 147.781C306.611 147.808 306.573 147.833 306.534 147.86C306.497 147.885 306.46 147.912 306.425 147.937C306.388 147.964 306.352 147.989 306.317 148.016C306.312 148.019 306.308 148.023 306.302 148.026C306.267 148.051 306.234 148.078 306.2 148.105C306.161 148.136 306.124 148.166 306.087 148.197C306.046 148.231 306.005 148.265 305.965 148.299C305.924 148.334 305.883 148.37 305.844 148.406L305.838 148.411L305.835 148.414C305.797 148.45 305.758 148.484 305.722 148.52C305.683 148.559 305.643 148.599 305.606 148.638C305.568 148.678 305.53 148.717 305.494 148.757C305.481 148.771 305.47 148.786 305.456 148.8C305.451 148.805 305.447 148.812 305.441 148.817C305.424 148.836 305.407 148.855 305.392 148.874C305.36 148.912 305.327 148.95 305.299 148.988C305.268 149.026 305.24 149.062 305.213 149.1L305.138 149.205L305.136 149.206C305.136 149.208 305.134 149.21 305.134 149.21C305.109 149.246 305.086 149.283 305.062 149.32C305.039 149.356 305.018 149.391 304.996 149.428C304.975 149.465 304.955 149.499 304.937 149.536L304.907 149.594C304.905 149.599 304.903 149.603 304.9 149.608L304.882 149.645C304.864 149.682 304.848 149.717 304.833 149.754C304.817 149.791 304.803 149.826 304.79 149.863C304.776 149.9 304.763 149.938 304.753 149.975C304.752 149.978 304.75 149.982 304.75 149.986C304.75 149.987 304.748 149.991 304.748 149.993C304.739 150.025 304.729 150.056 304.722 150.088C304.713 150.128 304.704 150.168 304.696 150.208C304.689 150.249 304.683 150.29 304.679 150.329L304.677 150.368C304.676 150.397 304.673 150.426 304.671 150.455C304.671 150.501 304.672 150.548 304.675 150.595C304.677 150.626 304.682 150.657 304.686 150.686C304.688 150.696 304.689 150.705 304.69 150.716L304.694 150.749C304.707 150.812 304.723 150.875 304.745 150.935C304.756 150.964 304.767 150.994 304.78 151.021L348.27 248.471C348.225 248.375 348.197 248.271 348.179 248.166C348.178 248.155 348.176 248.146 348.175 248.135C348.16 248.034 348.157 247.928 348.166 247.818L348.167 247.802C348.178 247.686 348.2 247.566 348.237 247.444C348.237 247.442 348.239 247.439 348.239 247.437C348.275 247.315 348.326 247.188 348.39 247.062C348.392 247.056 348.394 247.053 348.398 247.048C348.461 246.92 348.537 246.79 348.626 246.662L348.628 246.66C348.717 246.531 348.82 246.402 348.933 246.272C348.939 246.267 348.943 246.26 348.948 246.255C349.064 246.126 349.19 245.998 349.328 245.87L349.332 245.866C349.474 245.737 349.629 245.608 349.794 245.481C350.011 245.318 350.239 245.166 350.472 245.028C350.48 245.023 350.489 245.018 350.496 245.015C350.728 244.879 350.966 244.755 351.207 244.645C351.211 244.643 351.216 244.642 351.22 244.638C351.712 244.413 352.218 244.244 352.709 244.138C352.713 244.138 352.716 244.136 352.718 244.136C352.962 244.084 353.201 244.046 353.432 244.023C353.438 244.023 353.441 244.022 353.447 244.022C353.678 244.001 353.902 243.995 354.113 244.007L354.127 244.008C354.338 244.02 354.538 244.048 354.723 244.092C354.728 244.094 354.735 244.094 354.741 244.096C354.929 244.144 355.103 244.207 355.259 244.29C355.292 244.308 355.32 244.329 355.351 244.347C355.467 244.417 355.57 244.496 355.653 244.583C355.662 244.591 355.667 244.6 355.675 244.61C355.76 244.704 355.831 244.805 355.881 244.913L312.391 147.463C312.341 147.355 312.269 147.254 312.185 147.16C312.176 147.15 312.171 147.141 312.163 147.133C312.078 147.045 311.977 146.967 311.861 146.897C311.85 146.891 311.844 146.882 311.833 146.876C311.812 146.864 311.79 146.852 311.769 146.84C311.724 146.816 311.677 146.794 311.628 146.772C311.572 146.747 311.514 146.725 311.454 146.705C311.402 146.688 311.349 146.671 311.294 146.658C311.28 146.654 311.266 146.651 311.252 146.648C311.247 146.646 311.24 146.646 311.234 146.644C311.203 146.637 311.173 146.628 311.141 146.621C311.093 146.612 311.045 146.602 310.998 146.596C310.95 146.588 310.902 146.582 310.854 146.576C310.808 146.57 310.762 146.566 310.714 146.564L310.639 146.56L310.625 146.559L310.573 146.557C310.527 146.554 310.48 146.554 310.432 146.553C310.386 146.552 310.338 146.554 310.291 146.555C310.238 146.552 310.191 146.553 310.143 146.556Z" fill="url(#paint12_linear)"/>
<defs>
<filter id="filter0_i" x="268.986" y="257.363" width="200.711" height="79.3029" filterUnits="userSpaceOnUse" color-interpolation-filters="sRGB">
<feFlood flood-opacity="0" result="BackgroundImageFix"/>
<feBlend mode="normal" in="SourceGraphic" in2="BackgroundImageFix" result="shape"/>
<feColorMatrix in="SourceAlpha" type="matrix" values="0 0 0 0 0 0 0 0 0 0 0 0 0 0 0 0 0 0 127 0" result="hardAlpha"/>
<feOffset dy="-1"/>
<feComposite in2="hardAlpha" operator="arithmetic" k2="-1" k3="1"/>
<feColorMatrix type="matrix" values="0 0 0 0 0 0 0 0 0 0 0 0 0 0 0 0 0 0 0.17 0"/>
<feBlend mode="normal" in2="shape" result="effect1_innerShadow"/>
</filter>
<linearGradient id="paint0_linear" x1="497.713" y1="117.69" x2="602.783" y2="60.3516" gradientUnits="userSpaceOnUse">
<stop stop-color="#D1FBE1"/>
<stop offset="1" stop-color="#65CE90"/>
</linearGradient>
<linearGradient id="paint1_linear" x1="498.921" y1="101.281" x2="643.26" y2="71.8464" gradientUnits="userSpaceOnUse">
<stop stop-color="#E7FFF0"/>
<stop offset="0.299503" stop-color="#9EE2B9"/>
<stop offset="1" stop-color="#20A857"/>
</linearGradient>
<linearGradient id="paint2_linear" x1="420.693" y1="7.41733" x2="409.471" y2="78.66" gradientUnits="userSpaceOnUse">
<stop stop-color="#F4FFF8"/>
<stop offset="1" stop-color="#82D7A5"/>
</linearGradient>
<linearGradient id="paint3_linear" x1="540" y1="395.46" x2="163" y2="395.46" gradientUnits="userSpaceOnUse">
<stop stop-color="#6EB98C"/>
<stop offset="0.438323" stop-color="#85D0A3"/>
<stop offset="0.738142" stop-color="#C5EAD4"/>
<stop offset="1" stop-color="#E2FFEF"/>
</linearGradient>
<linearGradient id="paint4_linear" x1="540" y1="395.46" x2="163" y2="395.46" gradientUnits="userSpaceOnUse">
<stop stop-color="#6EB98C"/>
<stop offset="0.438323" stop-color="#85D0A3"/>
<stop offset="0.738142" stop-color="#C5EAD4"/>
<stop offset="1" stop-color="#E2FFEF"/>
</linearGradient>
<linearGradient id="paint5_linear" x1="136.624" y1="287.283" x2="107.475" y2="230.416" gradientUnits="userSpaceOnUse">
<stop stop-color="#65C68C"/>
<stop offset="0.961" stop-color="#8FE2B1"/>
</linearGradient>
<linearGradient id="paint6_linear" x1="80.689" y1="196.796" x2="140.175" y2="224.037" gradientUnits="userSpaceOnUse">
<stop stop-color="#A0ECBF"/>
<stop offset="1" stop-color="#69D494"/>
</linearGradient>
<linearGradient id="paint7_linear" x1="490.277" y1="244.164" x2="288.247" y2="139.845" gradientUnits="userSpaceOnUse">
<stop stop-color="#53BB7C"/>
<stop offset="1" stop-color="#DEF6E7"/>
</linearGradient>
<linearGradient id="paint8_linear" x1="450.768" y1="133.615" x2="371.349" y2="257.967" gradientUnits="userSpaceOnUse">
<stop stop-color="#F4FFF8"/>
<stop offset="0.9989" stop-color="#DCF3E5"/>
<stop offset="0.999" stop-color="#DCF3E5"/>
</linearGradient>
<linearGradient id="paint9_linear" x1="481.475" y1="251.328" x2="206.765" y2="345.407" gradientUnits="userSpaceOnUse">
<stop stop-color="#53BB7C"/>
<stop offset="1" stop-color="#AAE2C1"/>
</linearGradient>
<linearGradient id="paint10_linear" x1="250.042" y1="295.545" x2="378.86" y2="191.179" gradientUnits="userSpaceOnUse">
<stop stop-color="#AAE2C0"/>
<stop offset="1" stop-color="#53BB7C"/>
</linearGradient>
<linearGradient id="paint11_linear" x1="381.381" y1="323.607" x2="293.888" y2="261.986" gradientUnits="userSpaceOnUse">
<stop stop-color="#80BF99"/>
<stop offset="1" stop-color="#A8DEBE"/>
</linearGradient>
<linearGradient id="paint12_linear" x1="346.608" y1="218.007" x2="335.758" y2="222.751" gradientUnits="userSpaceOnUse">
<stop stop-color="#FF7676"/>
<stop offset="0.0477" stop-color="#F15959"/>
<stop offset="0.0996" stop-color="#E64141"/>
<stop offset="0.1478" stop-color="#DF3333"/>
<stop offset="0.1883" stop-color="#DD2E2E"/>
<stop offset="0.3244" stop-color="#E23838"/>
<stop offset="0.561" stop-color="#EF5454"/>
<stop offset="0.7956" stop-color="#FF7676"/>
<stop offset="0.8458" stop-color="#FF8383"/>
<stop offset="0.9382" stop-color="#FFA5A5"/>
<stop offset="1" stop-color="#FFBFBF"/>
</linearGradient>
</defs>
</svg>
