<svg  xmlns="http://www.w3.org/2000/svg" fill="none" viewBox="0 0 200 200"><g id="charts-pie-and-bars-london-200-ico_QNZAo1VGBDRXZig6"><path id="Vector" fill="#ffffff" d="M188.415 54.028L180.37 96.117C179.245 95.4598 178.076 94.8824 176.87 94.389C177.357 90.816 177.181 88.832 176.424 87.706C176.534 87.5192 176.611 87.3144 176.65 87.101C176.745 86.5993 176.638 86.0803 176.351 85.658C176.063 85.2358 175.62 84.9449 175.119 84.8495C174.617 84.754 174.098 84.8617 173.676 85.1489C173.253 85.4361 172.962 85.8793 172.867 86.381C172.857 86.439 172.847 86.5 172.84 86.557C171.35 87.226 170.373 89.508 169.389 92.246L169.369 92.446C163.304 91.7232 157.167 92.9639 151.859 95.986C151.45 88.755 153.975 79.263 151.747 76.086C151.861 75.8993 151.939 75.6931 151.977 75.478C152.03 75.2024 152.022 74.9186 151.953 74.6465C151.885 74.3744 151.758 74.1205 151.581 73.9027C151.404 73.6848 151.182 73.5082 150.93 73.3853C150.677 73.2624 150.401 73.1961 150.121 73.1911C149.84 73.186 149.562 73.2424 149.306 73.3562C149.049 73.47 148.821 73.6385 148.636 73.8499C148.452 74.0612 148.316 74.3104 148.237 74.5799C148.159 74.8494 148.141 75.1327 148.184 75.41C143.134 78.439 142.31 97.321 135.735 96.26C129.116 95.188 138.926 68.298 134.014 62.224C134.165 62.0071 134.267 61.7601 134.314 61.5C134.361 61.2516 134.36 60.9964 134.308 60.7488C134.257 60.5012 134.158 60.2661 134.016 60.0569C133.874 59.8478 133.692 59.6686 133.481 59.5298C133.269 59.3909 133.033 59.2949 132.785 59.2475C132.536 59.2 132.281 59.2019 132.033 59.2531C131.786 59.3042 131.551 59.4037 131.341 59.5457C131.132 59.6877 130.953 59.8696 130.814 60.0808C130.675 60.2921 130.579 60.5286 130.532 60.777C130.498 60.9528 130.489 61.1326 130.505 61.311C123.22 64.995 122.818 104.339 112.319 102.578C102.009 100.85 113.424 69.718 108.374 63.542C108.411 63.4446 108.439 63.3442 108.459 63.242C108.506 62.9934 108.505 62.7379 108.453 62.49C108.402 62.2422 108.302 62.0069 108.16 61.7975C108.018 61.5882 107.836 61.4089 107.624 61.2699C107.413 61.1309 107.176 61.0349 106.928 60.9875C106.679 60.94 106.423 60.942 106.176 60.9932C105.928 61.0445 105.692 61.1441 105.483 61.2863C105.274 61.4285 105.094 61.6106 104.955 61.8221C104.816 62.0336 104.72 62.2704 104.673 62.519C104.656 62.6105 104.646 62.703 104.642 62.796C97.5 65.934 93.544 91.641 89.376 91.087L99.7 37.069L188.415 54.028ZM123.226 46.315C123.303 45.9124 123.259 45.4961 123.099 45.1187C122.94 44.7412 122.672 44.4196 122.329 44.1945C121.987 43.9693 121.585 43.8508 121.175 43.8538C120.766 43.8569 120.366 43.9814 120.027 44.2116C119.688 44.4419 119.425 44.7674 119.271 45.1472C119.117 45.527 119.079 45.9439 119.162 46.3453C119.245 46.7466 119.445 47.1143 119.737 47.4019C120.029 47.6895 120.399 47.8841 120.802 47.961C121.342 48.0622 121.899 47.9459 122.353 47.6376C122.807 47.3292 123.121 46.8538 123.226 46.315V46.315ZM114.556 44.655C114.633 44.2524 114.589 43.8361 114.429 43.4587C114.27 43.0812 114.002 42.7596 113.659 42.5345C113.317 42.3093 112.915 42.1908 112.505 42.1938C112.096 42.1969 111.696 42.3214 111.357 42.5516C111.018 42.7819 110.755 43.1074 110.601 43.4872C110.447 43.867 110.409 44.2839 110.492 44.6853C110.575 45.0866 110.775 45.4543 111.067 45.7419C111.359 46.0295 111.729 46.2241 112.132 46.301C112.672 46.4041 113.23 46.2886 113.685 45.9799C114.139 45.6713 114.453 45.1947 114.556 44.655V44.655ZM105.888 43C105.965 42.5976 105.92 42.1816 105.76 41.8046C105.601 41.4275 105.332 41.1063 104.99 40.8815C104.648 40.6567 104.246 40.5385 103.837 40.5418C103.427 40.5451 103.028 40.6697 102.689 40.9C102.351 41.1302 102.088 41.4557 101.934 41.8353C101.78 42.2149 101.743 42.6315 101.826 43.0326C101.909 43.4336 102.109 43.801 102.4 44.0884C102.692 44.3758 103.063 44.5701 103.465 44.647C104.005 44.749 104.563 44.6329 105.017 44.3241C105.471 44.0154 105.784 43.5393 105.888 43V43Z"></path><path id="Vector_2" fill="#ffffff" d="M186.2 100.612C191.557 105.969 194.567 113.236 194.567 120.812C194.567 128.388 191.557 135.655 186.2 141.012C180.843 146.369 173.576 149.379 166 149.379C158.424 149.379 151.157 146.369 145.8 141.012L166 120.812L186.2 100.612Z"></path><path id="Vector_3" fill="#000000" d="M186.2 100.612L166 120.81L145.8 100.61C149.789 96.6254 154.867 93.9089 160.395 92.8016C165.924 91.6944 171.656 92.246 176.872 94.387C178.078 94.8804 179.247 95.4579 180.372 96.115V96.115C182.501 97.3557 184.46 98.8673 186.2 100.612Z"></path><path id="Vector_4" fill="#ffffff" d="M176.429 87.706C177.186 88.832 177.362 90.816 176.875 94.389C174.475 93.4022 171.952 92.7482 169.375 92.445L169.395 92.245C170.379 89.507 171.356 87.225 172.846 86.556C172.804 86.9936 172.913 87.4324 173.155 87.7995C173.397 88.1666 173.757 88.4399 174.175 88.5741C174.594 88.7083 175.046 88.6953 175.456 88.5372C175.866 88.3791 176.21 88.0854 176.43 87.705L176.429 87.706Z"></path><path id="Vector_5" fill="#000000" d="M175.124 84.85C175.626 84.9454 176.069 85.2363 176.356 85.6584C176.643 86.0805 176.75 86.5994 176.655 87.101C176.616 87.3144 176.539 87.5192 176.429 87.706C175.954 87.046 175.243 86.5936 174.444 86.442C173.914 86.2925 173.348 86.3332 172.844 86.557C172.851 86.5 172.861 86.439 172.872 86.381C172.919 86.1323 173.014 85.8954 173.153 85.6838C173.292 85.4722 173.471 85.2901 173.68 85.1478C173.889 85.0056 174.125 84.9061 174.372 84.8549C174.62 84.8038 174.876 84.8021 175.124 84.85V84.85Z"></path><path id="Vector_6" fill="#000000" d="M176.429 87.706C176.209 88.0864 175.865 88.38 175.455 88.5381C175.045 88.6962 174.593 88.7092 174.174 88.575C173.756 88.4408 173.396 88.1675 173.154 87.8004C172.912 87.4333 172.803 86.9945 172.845 86.557C173.349 86.3331 173.915 86.2925 174.445 86.442C175.244 86.5938 175.954 87.0462 176.429 87.706V87.706Z"></path><path id="Vector_7" fill="#b71c1c" d="M166 120.81L145.8 141.01C143.146 138.358 141.041 135.209 139.604 131.743C138.168 128.277 137.428 124.562 137.428 120.81C137.428 117.058 138.168 113.343 139.604 109.877C141.041 106.411 143.146 103.262 145.8 100.61L166 120.81Z"></path><path id="Vector_8" fill="#000000" d="M150.451 73.228C150.7 73.275 150.936 73.3706 151.148 73.5093C151.359 73.6481 151.542 73.8271 151.684 74.0363C151.826 74.2455 151.926 74.4807 151.977 74.7285C152.028 74.9762 152.03 75.2316 151.982 75.48C151.944 75.6952 151.866 75.9013 151.752 76.088C151.407 75.5725 150.875 75.2114 150.268 75.081C149.917 74.9946 149.552 74.9794 149.195 75.0362C148.839 75.0931 148.497 75.2209 148.19 75.412C148.142 75.1075 148.169 74.796 148.267 74.5038C148.365 74.2116 148.532 73.9473 148.754 73.7332C148.975 73.5191 149.245 73.3614 149.541 73.2735C149.836 73.1856 150.148 73.17 150.451 73.228Z"></path><path id="Vector_9" fill="#ffffff" d="M151.752 76.088C153.98 79.262 151.452 88.754 151.864 95.988C148.17 98.0949 144.992 100.999 142.562 104.489C140.132 107.978 138.51 111.966 137.815 116.161L120.025 112.761L86.458 106.345L89.041 92.827L89.376 91.09C93.544 91.644 97.499 65.937 104.651 62.8C104.631 63.259 104.776 63.7099 105.06 64.0714C105.343 64.4328 105.747 64.681 106.197 64.7712C106.648 64.8613 107.116 64.7875 107.516 64.563C107.917 64.3386 108.225 63.9782 108.383 63.547C113.433 69.723 102.018 100.855 112.328 102.583C122.828 104.344 123.228 65 130.514 61.316C130.55 61.7098 130.707 62.0828 130.963 62.3843C131.218 62.6858 131.561 62.9011 131.944 63.0009C132.326 63.1008 132.73 63.0802 133.101 62.9421C133.471 62.8039 133.79 62.555 134.014 62.229C138.926 68.303 129.114 95.193 135.735 96.265C142.31 97.326 143.135 78.444 148.185 75.415C148.245 75.8083 148.425 76.1733 148.702 76.4597C148.978 76.7461 149.336 76.9397 149.727 77.0139C150.118 77.0881 150.522 77.0391 150.884 76.8738C151.246 76.7085 151.547 76.435 151.747 76.091L151.752 76.088Z"></path><path id="Vector_10" fill="#000000" d="M150.268 75.081C150.875 75.2114 151.407 75.5725 151.752 76.088C151.552 76.432 151.251 76.7055 150.889 76.8708C150.527 77.0361 150.123 77.085 149.732 77.0108C149.341 76.9367 148.983 76.743 148.707 76.4567C148.43 76.1703 148.25 75.8053 148.19 75.412C148.497 75.2209 148.839 75.0931 149.196 75.0363C149.552 74.9794 149.917 74.9946 150.268 75.081V75.081Z"></path><path id="Vector_11" fill="#000000" d="M132.792 59.248C133.294 59.3445 133.737 59.6359 134.024 60.0584C134.311 60.4809 134.419 61 134.324 61.502C134.275 61.7624 134.171 62.0093 134.019 62.226C133.547 61.6251 132.871 61.2183 132.119 61.083C131.572 60.9751 131.005 61.0562 130.51 61.313C130.494 61.1346 130.503 60.9548 130.537 60.779C130.584 60.5302 130.68 60.2932 130.819 60.0815C130.958 59.8698 131.137 59.6876 131.347 59.5453C131.556 59.4031 131.792 59.3036 132.04 59.2526C132.288 59.2016 132.543 59.2 132.792 59.248V59.248Z"></path><path id="Vector_12" fill="#000000" d="M134.019 62.226C133.795 62.5519 133.476 62.8009 133.106 62.9391C132.735 63.0772 132.331 63.0977 131.949 62.9979C131.566 62.8981 131.223 62.6828 130.968 62.3813C130.712 62.0798 130.555 61.7068 130.519 61.313C131.014 61.0562 131.581 60.9751 132.128 61.083C132.877 61.2204 133.549 61.627 134.019 62.226V62.226Z"></path><path id="Vector_13" fill="#ffffff" d="M121.58 43.8871C121.983 43.9636 122.354 44.1581 122.647 44.4458C122.94 44.7335 123.14 45.1016 123.224 45.5034C123.307 45.9052 123.269 46.3227 123.115 46.703C122.961 47.0834 122.698 47.4095 122.358 47.6401C122.019 47.8707 121.619 47.9955 121.209 47.9986C120.798 48.0016 120.396 47.883 120.053 47.6575C119.71 47.432 119.442 47.1099 119.282 46.7319C119.123 46.3539 119.079 45.9371 119.156 45.5341C119.261 44.9951 119.574 44.5194 120.028 44.2108C120.483 43.9023 121.04 43.7859 121.58 43.8871V43.8871Z"></path><path id="Vector_14" fill="#ffffff" d="M112.909 42.231C113.312 42.3077 113.682 42.5021 113.975 42.7896C114.267 43.0772 114.467 43.4448 114.55 43.8462C114.633 44.2475 114.595 44.6645 114.441 45.0444C114.288 45.4243 114.024 45.75 113.685 45.9803C113.346 46.2106 112.947 46.3352 112.537 46.3383C112.127 46.3414 111.725 46.2229 111.383 45.9977C111.04 45.7726 110.772 45.4509 110.613 45.0734C110.453 44.6959 110.409 44.2795 110.486 43.877C110.589 43.3375 110.902 42.8611 111.357 42.5524C111.811 42.2438 112.369 42.1281 112.909 42.231Z"></path><path id="Vector_15" fill="#b71c1c" d="M106.186 131.687L112.348 164.351L107.454 165.274L101.295 132.61L106.186 131.687Z"></path><path id="Vector_16" fill="#000000" d="M106.936 60.988C107.438 61.0844 107.881 61.376 108.168 61.7987C108.455 62.2215 108.563 62.7409 108.468 63.243C108.448 63.3453 108.42 63.4456 108.383 63.543C107.947 62.9921 107.317 62.6281 106.622 62.525C105.953 62.421 105.267 62.5152 104.651 62.796C104.655 62.7031 104.665 62.6105 104.682 62.519C104.778 62.0172 105.07 61.5742 105.492 61.2871C105.915 61 106.434 60.8925 106.936 60.988Z"></path><path id="Vector_17" fill="#000000" d="M106.622 62.526C107.317 62.6291 107.947 62.9932 108.383 63.544C108.225 63.9752 107.917 64.3355 107.516 64.56C107.116 64.7845 106.648 64.8583 106.197 64.7681C105.747 64.678 105.343 64.4298 105.06 64.0683C104.776 63.7069 104.631 63.256 104.651 62.797C105.267 62.5162 105.953 62.422 106.622 62.526V62.526Z"></path><path id="Vector_18" fill="#ffffff" d="M102.846 113.98L97.9533 114.903L101.296 132.619L106.188 131.696L102.846 113.98Z"></path><path id="Vector_19" fill="#ffffff" d="M104.242 40.575C104.645 40.6517 105.015 40.8461 105.308 41.1336C105.6 41.4211 105.8 41.7888 105.883 42.1902C105.966 42.5915 105.928 43.0085 105.774 43.3884C105.621 43.7682 105.357 44.0939 105.018 44.3243C104.679 44.5546 104.28 44.6792 103.87 44.6823C103.46 44.6854 103.058 44.5668 102.716 44.3417C102.373 44.1165 102.105 43.7949 101.946 43.4174C101.786 43.0399 101.742 42.6235 101.819 42.221C101.923 41.6819 102.236 41.2059 102.69 40.8974C103.145 40.5889 103.703 40.4729 104.242 40.575V40.575Z"></path><path id="Vector_20" fill="#b71c1c" d="M95.917 153.261L98.502 166.961V166.964L93.611 167.884L91.025 154.183L95.917 153.261Z"></path><path id="Vector_21" fill="#ffffff" d="M89.0037 116.589L84.111 117.512L91.0304 154.188L95.923 153.265L89.0037 116.589Z"></path><path id="Vector_22" fill="#b71c1c" d="M80.009 144.925L84.657 169.574L79.765 170.497L75.114 145.848L80.005 144.925H80.009Z"></path><path id="Vector_23" fill="#ffffff" d="M75.155 119.194L80.009 144.925H80.005L75.114 145.848L70.26 120.117L75.155 119.194Z"></path><path id="Vector_24" fill="#ffffff" d="M73.576 39.9869C75.0596 45.6093 74.6376 51.5649 72.376 56.9219C68.4822 65.9734 67.4524 75.9999 69.425 85.6539L69.53 86.1619C69.7954 87.419 69.5704 88.7299 68.9013 89.8266C68.2321 90.9233 67.1692 91.7229 65.93 92.0619L65.101 92.2779L65.091 92.2409L55.14 54.2619C54.417 58.1419 52.226 58.1219 50.37 56.7559C51.581 54.0179 51.334 49.5899 48.815 50.2489C46.128 50.9489 47.964 54.9849 50.37 56.7559C49.427 58.8929 47.595 60.0009 45.27 56.8479L55.219 94.8319L55.229 94.8659L54.587 95.0349C54.1856 95.1347 53.7736 95.1857 53.36 95.1869C52.2885 95.1845 51.2455 94.8409 50.3825 94.2058C49.5194 93.5707 48.8811 92.6773 48.56 91.6549C45.5526 82.1026 39.6913 73.7008 31.765 67.5799C28.4444 65.002 25.786 61.6698 24.0102 57.8595C22.2344 54.0492 21.3923 49.8705 21.5537 45.6698C21.7151 41.4691 22.8754 37.3673 24.9383 33.7045C27.0013 30.0417 29.9075 26.9233 33.4161 24.6078C36.9248 22.2923 40.9347 20.8463 45.1137 20.3898C49.2926 19.9333 53.5202 20.4794 57.446 21.9828C61.3718 23.4862 64.8828 25.9036 67.6879 29.0346C70.493 32.1656 72.5115 35.9201 73.576 39.9869V39.9869Z"></path><path id="Vector_25" fill="#b71c1c" d="M71.024 98.635C71.1097 98.9568 71.1308 99.2924 71.0862 99.6225C71.0415 99.9525 70.932 100.27 70.764 100.558C70.5959 100.845 70.3726 101.097 70.1069 101.298C69.8412 101.498 69.5385 101.645 69.216 101.728L56.644 105.02C56.3219 105.104 55.9864 105.124 55.6567 105.079C55.3269 105.033 55.0093 104.923 54.7221 104.755C54.4348 104.587 54.1836 104.363 53.9826 104.098C53.7817 103.833 53.635 103.53 53.551 103.208C53.4953 102.999 53.4671 102.783 53.467 102.566C53.4678 102.006 53.6539 101.462 53.9963 101.018C54.3388 100.575 54.8182 100.257 55.36 100.115L67.931 96.823C68.4806 96.6795 69.0623 96.7235 69.584 96.948C69.9366 97.1011 70.2496 97.3326 70.4992 97.6249C70.7487 97.9173 70.9282 98.2628 71.024 98.635V98.635Z"></path><path id="Vector_26" fill="#b71c1c" d="M69.7749 166.688L64.8821 167.61L65.9199 173.114L70.8127 172.192L69.7749 166.688Z"></path><path id="Vector_27" fill="#b71c1c" d="M69.777 101.623C69.8862 102.044 69.9416 102.476 69.942 102.911C69.9405 104.031 69.5682 105.119 68.8833 106.006C68.1985 106.892 67.2395 107.527 66.156 107.811L61.914 108.92C61.2699 109.089 60.5988 109.13 59.939 109.04C59.2791 108.949 58.6436 108.73 58.0688 108.394C57.4939 108.057 56.991 107.611 56.5888 107.08C56.1866 106.549 55.8931 105.944 55.725 105.3L69.777 101.623Z"></path><path id="Vector_28" fill="#ffffff" d="M61.309 121.807L69.773 166.684L64.882 167.607L56.414 122.73L61.309 121.807Z"></path><path id="Vector_29" fill="#b71c1c" d="M69.733 93.689C69.7865 93.8991 69.8137 94.1151 69.814 94.332C69.8142 94.8928 69.6285 95.4378 69.286 95.8818C68.9435 96.3258 68.4634 96.6438 67.921 96.786L55.35 100.078C54.9671 100.179 54.5656 100.189 54.1784 100.105C53.7911 100.022 53.4291 99.8481 53.122 99.598V99.598C52.8273 99.3594 52.5895 99.0582 52.4257 98.7162C52.2619 98.3743 52.1763 98.0001 52.175 97.621C52.1758 97.0608 52.3619 96.5166 52.7043 96.0733C53.0467 95.6299 53.5262 95.3123 54.068 95.17L54.589 95.035L55.231 94.866L65.101 92.283L65.93 92.067L66.639 91.881C67.289 91.7113 67.9798 91.8063 68.5598 92.1453C69.1398 92.4842 69.5617 93.0394 69.733 93.689V93.689Z"></path><path id="Vector_30" fill="#ffffff" d="M65.088 92.246L65.098 92.283L55.228 94.866L55.218 94.832L45.269 56.848C47.595 60.001 49.427 58.893 50.369 56.756C52.225 58.122 54.416 58.142 55.139 54.262L65.088 92.246Z"></path><path id="Vector_31" fill="#ffffff" d="M48.815 50.249C51.334 49.59 51.581 54.018 50.37 56.756C47.964 54.985 46.128 50.952 48.815 50.249Z"></path><path id="Vector_32" fill="#b71c1c" d="M43.985 137.677C44.593 140.904 43.8944 144.241 42.0428 146.954C40.1912 149.666 37.3382 151.532 34.111 152.142L33.469 148.731C35.1305 148.418 36.6688 147.639 37.9042 146.484C39.1395 145.33 40.0211 143.848 40.446 142.211C40.871 140.575 40.8217 138.851 40.3039 137.242C39.7862 135.632 38.8213 134.203 37.522 133.121L39.854 130.555C42.0072 132.385 43.4657 134.899 43.985 137.677Z"></path><path id="Vector_33" fill="#ffffff" d="M39.854 130.555L37.522 133.121C36.0462 131.888 34.2111 131.166 32.2908 131.062C30.3705 130.958 28.4682 131.478 26.868 132.545C25.2678 133.611 24.0556 135.167 23.4125 136.979C22.7694 138.792 22.7299 140.763 23.3 142.6L23.245 142.617L19.879 143.253C19.787 142.928 19.713 142.6 19.649 142.266C19.1731 139.748 19.4905 137.144 20.5575 134.813C21.6244 132.483 23.3883 130.541 25.6057 129.256C27.8232 127.97 30.3848 127.405 32.9373 127.637C35.4897 127.87 37.9071 128.888 39.856 130.553L39.854 130.555Z"></path><path id="Vector_34" fill="#000000" d="M36.795 172.907L37.833 178.407L28.561 180.158L27.523 174.654L36.795 172.907Z"></path><path id="Vector_35" fill="#000000" d="M35.25 164.706L36.288 170.206L27.012 171.957L25.975 166.454L35.25 164.706Z"></path><path id="Vector_36" fill="#ffffff" d="M34.828 108.732C34.918 109.214 34.8633 109.712 34.6706 110.162C34.4779 110.613 34.1559 110.997 33.7454 111.265C33.3348 111.532 32.8541 111.673 32.3639 111.667C31.8737 111.662 31.3961 111.512 30.9913 111.235C30.5865 110.959 30.2728 110.569 30.0897 110.114C29.9066 109.659 29.8623 109.16 29.9626 108.68C30.0628 108.201 30.303 107.761 30.6528 107.418C31.0026 107.074 31.4464 106.842 31.928 106.751C32.2485 106.69 32.5778 106.694 32.897 106.761C33.2163 106.827 33.5193 106.956 33.7886 107.14C34.0579 107.324 34.2883 107.56 34.4667 107.833C34.645 108.106 34.7678 108.411 34.828 108.732V108.732Z"></path><path id="Vector_37" fill="#000000" d="M33.702 156.506L34.74 162.005L25.464 163.756L24.427 158.253L33.702 156.506Z"></path><path id="Vector_38" fill="#000000" d="M33.469 148.731L34.111 152.142C31.056 152.718 27.8962 152.124 25.2592 150.477C22.6221 148.831 20.7009 146.253 19.877 143.255L23.243 142.619L23.298 142.602C23.9448 144.694 25.3391 146.475 27.2149 147.606C29.0907 148.736 31.3169 149.137 33.469 148.731V148.731Z"></path><path id="Vector_39" fill="#ffffff" d="M24.443 110.689C24.5338 111.171 24.4798 111.669 24.2877 112.12C24.0956 112.571 23.7741 112.955 23.3637 113.224C22.9534 113.492 22.4727 113.633 21.9824 113.628C21.4921 113.624 21.0141 113.474 20.609 113.198C20.2038 112.921 19.8896 112.531 19.7061 112.077C19.5226 111.622 19.478 111.123 19.578 110.643C19.678 110.163 19.918 109.723 20.2677 109.379C20.6175 109.036 21.0613 108.804 21.543 108.712C21.8632 108.651 22.1923 108.654 22.5114 108.721C22.8305 108.787 23.1333 108.916 23.4026 109.1C23.6719 109.283 23.9024 109.518 24.081 109.791C24.2595 110.064 24.3825 110.369 24.443 110.689V110.689Z"></path><path id="Vector_40" fill="#ffffff" d="M14.059 112.65C14.1491 113.132 14.0943 113.63 13.9016 114.08C13.7089 114.531 13.3869 114.915 12.9764 115.183C12.5659 115.45 12.0851 115.591 11.5949 115.585C11.1048 115.58 10.6271 115.43 10.2223 115.153C9.81755 114.877 9.50379 114.487 9.3207 114.032C9.1376 113.577 9.09337 113.078 9.1936 112.598C9.29383 112.119 9.53402 111.679 9.88383 111.336C10.2336 110.992 10.6774 110.76 11.159 110.669C11.4795 110.608 11.8089 110.611 12.1283 110.678C12.4476 110.745 12.7507 110.874 13.0201 111.058C13.2895 111.242 13.5199 111.477 13.6982 111.75C13.8765 112.024 13.9991 112.329 14.059 112.65V112.65Z"></path><path id="Vector_41" stroke="#000000" stroke-linecap="round" stroke-linejoin="round" stroke-width=".676" d="M65.927 92.067C67.1662 91.728 68.2291 90.9284 68.8982 89.8317C69.5674 88.735 69.7923 87.4241 69.527 86.167L69.422 85.659C67.4494 76.005 68.4792 65.9785 72.373 56.927C74.2841 52.3759 74.8837 47.3808 74.1038 42.5066C73.3239 37.6325 71.1956 33.0738 67.9598 29.3463C64.724 25.6187 60.5097 22.8709 55.7936 21.4137C51.0774 19.9565 46.0476 19.8481 41.273 21.1006C36.4985 22.3532 32.1696 24.9167 28.7761 28.5014C25.3827 32.086 23.0599 36.5487 22.0707 41.3847C21.0814 46.2207 21.465 51.237 23.1783 55.8663C24.8915 60.4956 27.8658 64.5532 31.765 67.58C39.6895 73.7016 45.5489 82.1034 48.555 91.655C48.876 92.6774 49.5144 93.5708 50.3775 94.2059C51.2405 94.841 52.2834 95.1846 53.355 95.187C53.7686 95.1858 54.1806 95.1348 54.582 95.035"></path><path id="Vector_42" stroke="#000000" stroke-linecap="round" stroke-linejoin="round" stroke-width=".676" d="M53.119 99.6C52.8243 99.3614 52.5865 99.0602 52.4227 98.7182C52.2589 98.3763 52.1733 98.0021 52.172 97.623C52.1728 97.0628 52.3589 96.5186 52.7013 96.0753C53.0437 95.632 53.5232 95.3144 54.065 95.172L54.586 95.037L55.228 94.868L65.098 92.285L65.927 92.069L66.636 91.883C66.9583 91.7981 67.2941 91.7775 67.6243 91.8224C67.9545 91.8673 68.2727 91.9768 68.5606 92.1447C68.8485 92.3126 69.1004 92.5356 69.3021 92.8009C69.5038 93.0662 69.6512 93.3687 69.736 93.691C69.7895 93.9012 69.8167 94.1171 69.817 94.334C69.8172 94.8948 69.6315 95.4398 69.289 95.8838C68.9465 96.3278 68.4665 96.6458 67.924 96.788L55.35 100.078C54.9671 100.179 54.5656 100.189 54.1784 100.105C53.7911 100.022 53.4291 99.8481 53.122 99.598"></path><path id="Vector_43" stroke="#000000" stroke-linecap="round" stroke-linejoin="round" stroke-width=".676" d="M55.14 54.262L65.088 92.246"></path><path id="Vector_44" stroke="#000000" stroke-linecap="round" stroke-linejoin="round" stroke-width=".676" d="M50.37 56.756C52.226 58.122 54.417 58.142 55.14 54.262"></path><path id="Vector_45" stroke="#000000" stroke-linecap="round" stroke-linejoin="round" stroke-width=".676" d="M50.37 56.756C51.581 54.018 51.334 49.59 48.815 50.249C46.128 50.952 47.964 54.985 50.37 56.756Z"></path><path id="Vector_46" stroke="#000000" stroke-linecap="round" stroke-linejoin="round" stroke-width=".676" d="M55.218 94.832L45.269 56.848C47.595 60.001 49.427 58.893 50.369 56.756"></path><path id="Vector_47" stroke="#000000" stroke-linecap="round" stroke-linejoin="round" stroke-width=".676" d="M69.584 96.948C70.0675 97.1584 70.4734 97.5143 70.7453 97.9661C71.0172 98.4179 71.1415 98.9432 71.1011 99.469C71.0606 99.9947 70.8573 100.495 70.5195 100.9C70.1816 101.305 69.726 101.594 69.216 101.728L56.644 105.02C56.3219 105.104 55.9864 105.124 55.6567 105.079C55.3269 105.033 55.0093 104.923 54.7221 104.755C54.4348 104.587 54.1836 104.363 53.9826 104.098C53.7817 103.833 53.635 103.53 53.551 103.208C53.4953 102.999 53.4671 102.783 53.467 102.566C53.4678 102.006 53.6539 101.462 53.9963 101.018C54.3388 100.575 54.8182 100.257 55.36 100.115L67.931 96.823C68.4806 96.6795 69.0623 96.7235 69.584 96.948V96.948Z"></path><path id="Vector_48" stroke="#000000" stroke-linecap="round" stroke-linejoin="round" stroke-width=".676" d="M66.156 107.812L61.914 108.921C61.2699 109.09 60.5988 109.131 59.939 109.041C59.2791 108.95 58.6436 108.731 58.0688 108.395C57.4939 108.058 56.991 107.612 56.5888 107.081C56.1866 106.55 55.8931 105.945 55.725 105.301L69.777 101.623C69.8862 102.044 69.9416 102.476 69.942 102.911C69.9407 104.031 69.5685 105.12 68.8837 106.006C68.1988 106.893 67.2397 107.528 66.156 107.812V107.812Z"></path><path id="Vector_49" stroke="#000000" stroke-linecap="round" stroke-linejoin="round" stroke-width=".676" d="M180.37 96.12C186.703 99.8165 191.352 105.828 193.338 112.886C195.324 119.945 194.492 127.498 191.016 133.955C187.541 140.411 181.693 145.266 174.708 147.494C167.722 149.723 160.144 149.152 153.571 145.901C146.999 142.651 141.945 136.975 139.477 130.07C137.008 123.166 137.317 115.572 140.339 108.891C143.361 102.211 148.859 96.9641 155.674 94.2586C162.489 91.553 170.089 91.5998 176.87 94.389C178.076 94.8824 179.245 95.4598 180.37 96.117"></path><path id="Vector_50" stroke="#000000" stroke-linecap="round" stroke-linejoin="round" stroke-width=".676" d="M69.439 96.522L69.503 96.509L89.041 92.824"></path><path id="Vector_51" stroke="#000000" stroke-linecap="round" stroke-linejoin="round" stroke-width=".676" d="M120.025 112.758L130.98 170.845L20.215 191.742L4.564 108.759L53.119 99.598H53.122"></path><path id="Vector_52" stroke="#000000" stroke-linecap="round" stroke-linejoin="round" stroke-width=".676" d="M18.491 118.937L84.369 106.508"></path><path id="Vector_53" stroke="#000000" stroke-linecap="round" stroke-linejoin="round" stroke-width=".676" d="M14.059 112.65C14.1491 113.132 14.0943 113.63 13.9016 114.08C13.7089 114.531 13.3869 114.915 12.9764 115.183C12.5659 115.45 12.0851 115.591 11.5949 115.585C11.1048 115.58 10.6271 115.43 10.2223 115.153C9.81755 114.877 9.50379 114.487 9.3207 114.032C9.1376 113.577 9.09337 113.078 9.1936 112.598C9.29383 112.119 9.53402 111.679 9.88383 111.336C10.2336 110.992 10.6774 110.76 11.159 110.669C11.4795 110.608 11.8089 110.611 12.1283 110.678C12.4476 110.745 12.7507 110.874 13.0201 111.058C13.2895 111.242 13.5199 111.477 13.6982 111.75C13.8765 112.024 13.9991 112.329 14.059 112.65V112.65Z"></path><path id="Vector_54" stroke="#000000" stroke-linecap="round" stroke-linejoin="round" stroke-width=".676" d="M24.443 110.689C24.5338 111.171 24.4798 111.669 24.2877 112.12C24.0956 112.571 23.7741 112.955 23.3637 113.224C22.9534 113.492 22.4727 113.633 21.9824 113.628C21.4921 113.624 21.0141 113.474 20.609 113.198C20.2038 112.921 19.8896 112.531 19.7061 112.077C19.5226 111.622 19.478 111.123 19.578 110.643C19.678 110.163 19.918 109.723 20.2677 109.379C20.6175 109.036 21.0613 108.804 21.543 108.712C21.8632 108.651 22.1923 108.654 22.5114 108.721C22.8305 108.787 23.1333 108.916 23.4026 109.1C23.6719 109.283 23.9024 109.518 24.081 109.791C24.2595 110.064 24.3825 110.369 24.443 110.689V110.689Z"></path><path id="Vector_55" stroke="#000000" stroke-linecap="round" stroke-linejoin="round" stroke-width=".676" d="M34.828 108.732C34.918 109.214 34.8633 109.712 34.6706 110.162C34.4779 110.613 34.1559 110.997 33.7454 111.265C33.3348 111.532 32.8541 111.673 32.3639 111.667C31.8737 111.662 31.3961 111.512 30.9913 111.235C30.5865 110.959 30.2728 110.569 30.0897 110.114C29.9066 109.659 29.8623 109.16 29.9626 108.68C30.0628 108.201 30.303 107.761 30.6528 107.418C31.0026 107.074 31.4464 106.842 31.928 106.751C32.2485 106.69 32.5778 106.694 32.897 106.761C33.2163 106.827 33.5193 106.956 33.7886 107.14C34.0579 107.324 34.2883 107.56 34.4667 107.833C34.645 108.106 34.7678 108.411 34.828 108.732V108.732Z"></path><path id="Vector_56" stroke="#000000" stroke-linecap="round" stroke-linejoin="round" stroke-width=".676" d="M137.815 116.158L120.025 112.758L86.458 106.342L89.041 92.824L89.376 91.087L99.699 37.069L188.415 54.028L180.37 96.117V96.12"></path><path id="Vector_57" stroke="#000000" stroke-linecap="round" stroke-linejoin="round" stroke-width=".676" d="M107.714 48.454L178.298 61.945"></path><path id="Vector_58" stroke="#000000" stroke-linecap="round" stroke-linejoin="round" stroke-width=".676" d="M105.888 43C105.811 43.4023 105.617 43.7728 105.329 44.0646C105.042 44.3564 104.674 44.5564 104.273 44.6394C103.872 44.7223 103.455 44.6845 103.076 44.5306C102.696 44.3768 102.371 44.1138 102.141 43.775C101.911 43.4362 101.786 43.0368 101.783 42.6272C101.78 42.2177 101.898 41.8163 102.123 41.474C102.348 41.1317 102.669 40.8638 103.046 40.7041C103.424 40.5445 103.84 40.5002 104.242 40.577C104.509 40.628 104.764 40.7311 104.991 40.8805C105.218 41.0298 105.414 41.2225 105.567 41.4475C105.72 41.6725 105.827 41.9254 105.882 42.1918C105.937 42.4582 105.939 42.7328 105.888 43V43Z"></path><path id="Vector_59" stroke="#000000" stroke-linecap="round" stroke-linejoin="round" stroke-width=".676" d="M114.556 44.655C114.479 45.0575 114.285 45.4282 113.997 45.7202C113.71 46.0122 113.342 46.2123 112.941 46.2954C112.539 46.3784 112.122 46.3406 111.743 46.1867C111.363 46.0328 111.037 45.7698 110.807 45.4308C110.577 45.0919 110.452 44.6922 110.449 44.2825C110.446 43.8727 110.564 43.4712 110.789 43.1287C111.014 42.7862 111.336 42.5181 111.713 42.3583C112.09 42.1986 112.506 42.1543 112.909 42.231C113.177 42.2817 113.431 42.3846 113.659 42.5339C113.887 42.6832 114.083 42.876 114.236 43.1012C114.389 43.3264 114.496 43.5795 114.551 43.8462C114.606 44.1128 114.607 44.3877 114.556 44.655V44.655Z"></path><path id="Vector_60" stroke="#000000" stroke-linecap="round" stroke-linejoin="round" stroke-width=".676" d="M123.226 46.315C123.148 46.7171 122.953 47.0873 122.665 47.3787C122.377 47.67 122.01 47.8695 121.608 47.9519C121.207 48.0343 120.79 47.9959 120.411 47.8416C120.032 47.6873 119.706 47.4239 119.477 47.0849C119.247 46.7458 119.122 46.3463 119.12 45.9367C119.117 45.5271 119.235 45.1258 119.46 44.7836C119.686 44.4414 120.007 44.1735 120.384 44.0139C120.762 43.8544 121.178 43.8102 121.58 43.887C122.12 43.9911 122.597 44.3053 122.905 44.7605C123.214 45.2157 123.329 45.7748 123.226 46.315V46.315Z"></path><path id="Vector_61" stroke="#000000" stroke-linecap="round" stroke-linejoin="round" stroke-width=".676" d="M176.429 87.7061C177.186 88.8321 177.362 90.8161 176.875 94.3891"></path><path id="Vector_62" stroke="#000000" stroke-linecap="round" stroke-linejoin="round" stroke-width=".676" d="M169.394 92.246C170.378 89.508 171.355 87.226 172.845 86.557"></path><path id="Vector_63" stroke="#000000" stroke-linecap="round" stroke-linejoin="round" stroke-width=".676" d="M151.752 76.088C153.98 79.262 151.452 88.754 151.864 95.988"></path><path id="Vector_64" stroke="#000000" stroke-linecap="round" stroke-linejoin="round" stroke-width=".676" d="M134.019 62.226C138.931 68.3 129.119 95.19 135.74 96.262C142.315 97.323 143.14 78.441 148.19 75.412"></path><path id="Vector_65" stroke="#000000" stroke-linecap="round" stroke-linejoin="round" stroke-width=".676" d="M108.383 63.544C113.433 69.72 102.018 100.852 112.328 102.58C122.828 104.341 123.228 64.997 130.514 61.313"></path><path id="Vector_66" stroke="#000000" stroke-linecap="round" stroke-linejoin="round" stroke-width=".676" d="M89.376 91.087C93.544 91.641 97.499 65.934 104.651 62.797"></path><path id="Vector_67" stroke="#000000" stroke-linecap="round" stroke-linejoin="round" stroke-width=".676" d="M39.854 130.555C41.3275 131.813 42.4854 133.398 43.2347 135.185C43.9839 136.971 44.3035 138.908 44.1679 140.841C44.0322 142.773 43.445 144.647 42.4535 146.311C41.462 147.975 40.0939 149.383 38.4591 150.423C36.8244 151.462 34.9685 152.103 33.0409 152.295C31.1132 152.486 29.1675 152.223 27.3601 151.526C25.5528 150.829 23.9342 149.717 22.6345 148.281C21.3349 146.844 20.3904 145.123 19.877 143.255C19.785 142.93 19.711 142.602 19.647 142.268C19.1711 139.75 19.4885 137.146 20.5555 134.815C21.6224 132.485 23.3863 130.543 25.6037 129.258C27.8212 127.972 30.3828 127.407 32.9353 127.639C35.4877 127.872 37.9052 128.89 39.854 130.555V130.555Z"></path><path id="Vector_68" stroke="#000000" stroke-linecap="round" stroke-linejoin="round" stroke-width=".676" d="M37.522 133.121C39.0793 134.418 40.1484 136.206 40.5533 138.192C40.9582 140.177 40.6747 142.242 39.7494 144.045C38.8242 145.848 37.3124 147.282 35.4631 148.111C33.6139 148.939 31.5375 149.114 29.576 148.604C27.6145 148.095 25.8849 146.933 24.6721 145.31C23.4594 143.686 22.8358 141.698 22.9042 139.673C22.9725 137.647 23.7287 135.706 25.0482 134.168C26.3676 132.629 28.1716 131.587 30.163 131.211C31.4545 130.964 32.7849 131.007 34.0577 131.337C35.3305 131.667 36.5138 132.277 37.522 133.121V133.121Z"></path><path id="Vector_69" stroke="#000000" stroke-linecap="round" stroke-linejoin="round" stroke-width=".676" d="M33.469 148.731L34.111 152.142"></path><path id="Vector_70" stroke="#000000" stroke-linecap="round" stroke-linejoin="round" stroke-width=".676" d="M37.522 133.121L39.854 130.555"></path><path id="Vector_71" stroke="#000000" stroke-linecap="round" stroke-linejoin="round" stroke-width=".676" d="M23.243 142.619L19.877 143.255L19.836 143.262"></path><path id="Vector_72" stroke="#000000" stroke-linecap="round" stroke-linejoin="round" stroke-width=".676" d="M112.348 164.351L122.553 162.425L113.254 113.126"></path><path id="Vector_73" stroke="#000000" stroke-linecap="round" stroke-linejoin="round" stroke-width=".676" d="M98.502 166.961L107.454 165.274"></path><path id="Vector_74" stroke="#000000" stroke-linecap="round" stroke-linejoin="round" stroke-width=".676" d="M93.611 167.884L98.502 166.964"></path><path id="Vector_75" stroke="#000000" stroke-linecap="round" stroke-linejoin="round" stroke-width=".676" d="M84.657 169.574L93.611 167.887"></path><path id="Vector_76" stroke="#000000" stroke-linecap="round" stroke-linejoin="round" stroke-width=".676" d="M70.811 172.187L79.765 170.497"></path><path id="Vector_77" stroke="#000000" stroke-linecap="round" stroke-linejoin="round" stroke-width=".676" d="M56.658 174.857L65.92 173.11"></path><path id="Vector_78" stroke="#000000" stroke-linecap="round" stroke-linejoin="round" stroke-width=".676" d="M34.74 162.005L25.464 163.756L24.427 158.253L33.702 156.506L34.74 162.005Z"></path><path id="Vector_79" stroke="#000000" stroke-linecap="round" stroke-linejoin="round" stroke-width=".676" d="M36.288 170.206L27.012 171.957L25.975 166.454L35.25 164.706L36.288 170.206Z"></path><path id="Vector_80" stroke="#000000" stroke-linecap="round" stroke-linejoin="round" stroke-width=".676" d="M37.833 178.407L28.561 180.158L27.523 174.654L36.795 172.907L37.833 178.407Z"></path><path id="Vector_81" stroke="#000000" stroke-linecap="round" stroke-linejoin="round" stroke-width=".676" d="M70.811 172.187L65.92 173.11L64.882 167.607L56.414 122.73L61.309 121.807L69.773 166.684L70.811 172.187Z"></path><path id="Vector_82" stroke="#000000" stroke-linecap="round" stroke-linejoin="round" stroke-width=".676" d="M84.657 169.574L79.765 170.497L75.114 145.848L70.26 120.117L75.155 119.194L80.009 144.925L84.657 169.574Z"></path><path id="Vector_83" stroke="#000000" stroke-linecap="round" stroke-linejoin="round" stroke-width=".676" d="M98.502 166.964L93.611 167.887V167.884L91.025 154.183L84.106 117.507L88.997 116.584L95.917 153.261L98.502 166.961V166.964Z"></path><path id="Vector_84" stroke="#000000" stroke-linecap="round" stroke-linejoin="round" stroke-width=".676" d="M112.348 164.351L107.454 165.274L101.295 132.61L97.951 114.894L102.843 113.971L106.186 131.687L112.348 164.351Z"></path><path id="Vector_85" stroke="#000000" stroke-linecap="round" stroke-linejoin="round" stroke-width=".676" d="M64.882 167.607L69.773 166.684"></path><path id="Vector_86" stroke="#000000" stroke-linecap="round" stroke-linejoin="round" stroke-width=".676" d="M75.114 145.848L80.005 144.925"></path><path id="Vector_87" stroke="#000000" stroke-linecap="round" stroke-linejoin="round" stroke-width=".676" d="M91.025 154.183L95.917 153.261"></path><path id="Vector_88" stroke="#000000" stroke-linecap="round" stroke-linejoin="round" stroke-width=".676" d="M101.295 132.61L106.186 131.687"></path><path id="Vector_89" stroke="#000000" stroke-linecap="round" stroke-linejoin="round" stroke-width=".676" d="M186.198 100.612L166 120.81L145.803 141.007"></path><path id="Vector_90" stroke="#000000" stroke-linecap="round" stroke-linejoin="round" stroke-width=".676" d="M145.803 100.612L166 120.81"></path><path id="Vector_91" stroke="#000000" stroke-linecap="round" stroke-linejoin="round" stroke-width=".676" d="M39.624 16.69L37.18 7.63"></path><path id="Vector_92" stroke="#000000" stroke-linecap="round" stroke-linejoin="round" stroke-width=".676" d="M50.215 16.69L51.202 8.56702"></path><path id="Vector_93" stroke="#000000" stroke-linecap="round" stroke-linejoin="round" stroke-width=".676" d="M30.274 22.9229L24.893 16.6899"></path></g></svg>