<svg width="163" height="162" viewBox="0 0 163 162" fill="none" xmlns="http://www.w3.org/2000/svg">
<g opacity="0.3">
<path opacity="0.3" fill-rule="evenodd" clip-rule="evenodd" d="M60.4901 104.064L96.4612 83.2962C99.0842 81.7818 102.316 81.7818 104.939 83.2962L146.211 107.124C148.924 108.69 148.901 112.612 146.172 114.149L104.859 137.409C104.338 137.702 103.793 137.937 103.234 138.112L65.6912 159.248C63.1094 160.702 59.9554 160.702 57.3729 159.248L16.0597 135.989C13.3303 134.452 13.3093 130.53 16.0219 128.964L57.2932 105.136C58.2929 104.559 59.381 104.201 60.4901 104.064Z" fill="#26538E"/>
</g>
<path fill-rule="evenodd" clip-rule="evenodd" d="M53.168 92.8677L96.4614 73.3387C99.0845 71.8243 102.316 71.8243 104.939 73.3387L148.129 93.712V100.321C148.129 102.018 147.215 103.582 145.737 104.416L104.86 127.451C104.461 127.675 104.049 127.865 103.627 128.02C103.608 128.032 103.589 128.043 103.569 128.054L62.6915 151.089C60.1097 152.543 56.9557 152.543 54.3732 151.089L13.3755 127.766C11.9065 126.931 11 125.371 11 123.682V116.506L53.168 97.4846V92.8677Z" fill="#C1D3EB"/>
<path fill-rule="evenodd" clip-rule="evenodd" d="M55.6797 89.0429L96.4612 65.4976C99.0842 63.9832 102.316 63.9832 104.939 65.4976L146.211 89.3257C148.924 90.8919 148.901 94.8139 146.172 96.3507L104.859 119.61C104.19 119.987 103.483 120.266 102.757 120.447C102.535 120.649 102.284 120.832 102.004 120.989L60.6912 144.248C58.1094 145.702 54.9554 145.702 52.3729 144.248L11.0597 120.989C8.3303 119.452 8.30931 115.53 11.0219 113.964L52.2932 90.1358C53.3498 89.5258 54.5052 89.1615 55.6797 89.0429Z" fill="#F0F3FC"/>
<path d="M91.151 81.5145C82.9497 86.2005 82.9497 93.7995 91.151 98.4855C99.3524 103.172 112.648 103.172 120.849 98.4855C129.05 93.7995 129.05 86.2005 120.849 81.5145C112.648 76.8285 99.3524 76.8285 91.151 81.5145Z" fill="white"/>
<path d="M91.151 74.5145C82.9497 79.2005 82.9497 86.7995 91.151 91.4855C99.3524 96.1715 112.648 96.1715 120.849 91.4855C129.05 86.7995 129.05 79.2005 120.849 74.5145C112.648 69.8285 99.3524 69.8285 91.151 74.5145Z" fill="white"/>
<path d="M91.151 67.5145C82.9497 72.2005 82.9497 79.7995 91.151 84.4855C99.3524 89.1715 112.648 89.1715 120.849 84.4855C129.05 79.7995 129.05 72.2005 120.849 67.5145C112.648 62.8285 99.3524 62.8285 91.151 67.5145Z" fill="white"/>
<path d="M91.151 60.5145C82.9497 65.2005 82.9497 72.7995 91.151 77.4855C99.3524 82.1715 112.648 82.1715 120.849 77.4855C129.05 72.7995 129.05 65.2005 120.849 60.5145C112.648 55.8285 99.3524 55.8285 91.151 60.5145Z" fill="#F3F6FE"/>
<path d="M85.0944 89C84.738 92.2642 86.753 95.5967 91.1819 98.0913C99.3818 102.709 112.675 102.709 120.875 98.0913C124.745 95.9117 126.763 93.0918 126.98 90.2376V92.6653C127.224 95.8597 125.205 99.0986 120.875 101.537C112.675 106.154 99.3818 106.154 91.1819 101.537C87.0819 99.2279 85.032 96.2014 85.032 93.175C85 93.175 85 89 85 89H85.0944Z" fill="#C1D3EB"/>
<path d="M85.0944 82C84.738 85.2642 86.753 88.5967 91.1819 91.0913C99.3818 95.709 112.675 95.709 120.875 91.0913C124.745 88.9117 126.763 86.0918 126.98 83.2376V85.6653C127.224 88.8597 125.205 92.0986 120.875 94.5367C112.675 99.1544 99.3818 99.1544 91.1819 94.5367C87.0819 92.2279 85.032 89.2014 85.032 86.175C85 86.175 85 82 85 82H85.0944Z" fill="#C1D3EB"/>
<path d="M85.0944 75C84.738 78.2642 86.753 81.5967 91.1819 84.0913C99.3818 88.709 112.675 88.709 120.875 84.0913C124.745 81.9117 126.763 79.0918 126.98 76.2376V78.6653C127.224 81.8597 125.205 85.0986 120.875 87.5367C112.675 92.1544 99.3818 92.1544 91.1819 87.5367C87.0819 85.2279 85.032 82.2014 85.032 79.175C85 79.175 85 75 85 75H85.0944Z" fill="#C1D3EB"/>
<path d="M85.0944 68C84.738 71.2642 86.753 74.5967 91.1819 77.0913C99.3818 81.709 112.675 81.709 120.875 77.0913C124.745 74.9117 126.763 72.0918 126.98 69.2376V71.6653C127.224 74.8597 125.205 78.0986 120.875 80.5367C112.675 85.1544 99.3818 85.1544 91.1819 80.5367C87.0819 78.2279 85.032 75.2014 85.032 72.175C85 72.175 85 68 85 68H85.0944Z" fill="#C1D3EB"/>
<path d="M84.5827 86.1133L82.0483 81.9659L73.3762 67.7726L70.5381 63.1274C70.2526 62.6611 69.8849 62.2918 69.5136 62.0772L49.4665 50.5027C48.4346 49.9072 47.5012 49.8588 46.8336 50.2623C46.1915 50.6504 42.7868 52.5997 41.0996 53.5983L78.2578 130.39C79.8703 129.455 83.3756 127.458 84.0442 127.046C84.6781 126.655 85.0682 125.852 85.0682 124.721L85.0688 87.6681C85.0682 87.193 84.8988 86.6302 84.5827 86.1133Z" fill="#3356DF"/>
<path d="M77.5462 91.6851L85.0458 87.3572C84.9904 86.9575 84.834 86.5214 84.5841 86.1131L82.0499 81.9655L73.3775 67.7724L70.5396 63.1275C70.3002 62.7364 70.0027 62.4145 69.694 62.1938L62.0273 66.6431L77.5462 91.6851Z" fill="#4064EC"/>
<path d="M83.1442 127.647C83.7783 127.256 84.1682 126.453 84.1682 125.323L84.1686 88.2693C84.1682 87.7943 83.9986 87.2316 83.6827 86.7149L81.1483 82.5671L72.4763 68.3742L69.638 63.7288C69.353 63.2627 68.9853 62.8932 68.6134 62.6784L48.5664 51.1041C47.5346 50.5084 46.6012 50.4602 45.9336 50.8637" stroke="#628DFF" stroke-width="1.64" stroke-linecap="round" stroke-linejoin="round"/>
<path d="M79.5992 129.741C80.2336 129.35 80.6233 128.547 80.6233 127.417L80.6237 90.3633C80.6233 89.8882 80.4536 89.3256 80.1378 88.8087L77.6033 84.6611L68.9314 70.4682L66.0931 65.8228C65.808 65.3565 65.4403 64.987 65.0687 64.7724L45.0215 53.1979C43.9897 52.6024 43.0562 52.5542 42.3887 52.9577" stroke="#628DFF" stroke-width="1.64" stroke-linecap="round" stroke-linejoin="round"/>
<path d="M78.8264 89.4371L76.2918 85.2893L67.6199 71.0964L64.7818 66.451C64.4965 65.9849 64.1286 65.6152 63.7569 65.4006L43.7098 53.8263C41.6855 52.6574 40.0391 53.5963 40.0391 55.9192V105.37C40.0391 107.693 41.6857 110.533 43.7098 111.702L75.641 130.137C77.6645 131.305 79.3117 130.367 79.3117 128.044L79.3119 90.9915C79.3117 90.5165 79.1423 89.9538 78.8264 89.4371Z" fill="#628DFF"/>
<path d="M76.2927 126.3C76.2927 126.712 76.0003 126.878 75.642 126.671L43.7107 108.236C43.3524 108.029 43.0605 107.525 43.0605 107.113V57.6626C43.0603 57.2503 43.3522 57.0845 43.7107 57.2915L62.2475 67.9938V81.1374C62.2475 82.0944 62.9236 83.2605 63.7576 83.7422L76.2927 90.979V126.3Z" fill="#4778FF"/>
<path d="M57.8402 104.697L65.5072 108.97C66.1621 109.383 66.6668 110.354 66.6737 111.214C66.7652 112.451 66.209 113.19 65.4689 112.81L50.105 104.247C49.5202 103.905 49.0364 103.087 48.9449 102.286C48.7169 100.905 49.3065 99.9521 50.1284 100.404C51.3037 101.049 52.4791 101.709 53.6547 102.364L57.8408 104.697" fill="white"/>
<path d="M56.6325 89.7926L56.9371 76.9692C56.9165 75.8691 57.5779 75.3066 58.4142 75.7127C59.2505 76.1186 59.9452 77.3395 59.9659 78.4395C59.967 78.505 59.9659 78.5692 59.9622 78.6321C59.8732 82.5756 59.7797 86.5168 59.6814 90.4556L59.6555 91.5472C59.7132 91.5163 59.7507 91.5032 59.7832 91.4791C60.579 90.8896 61.374 90.2992 62.1677 89.7083C62.6197 89.3624 63.3049 89.5765 63.8718 90.2408C64.6504 91.1797 64.948 92.5901 64.5365 93.3915C64.456 93.548 64.3515 93.6742 64.2267 93.7643C62.4058 95.1235 60.5851 96.4823 58.7646 97.8405C58.408 98.1935 57.7839 97.9302 57.371 97.2522C57.3159 97.1615 57.2663 97.0661 57.2229 96.9676C55.5129 93.6432 53.8045 90.3179 52.0974 86.992C51.6545 86.1327 51.5494 85.1611 51.8315 84.536C52.1051 83.9143 52.7223 83.7838 53.3647 84.2108C53.7243 84.4437 54.0565 84.8388 54.2945 85.3162C55.0472 86.8156 55.8024 88.3134 56.5599 89.8098L56.6333 89.791" fill="white"/>
<path d="M100.905 41.8951L95.891 39L91 41.8951L95.891 44.7899L100.905 41.8951Z" fill="#FEC34F"/>
<path d="M100.903 41.8953V65.3594L95.8887 68.0975V44.79L100.903 41.8953Z" fill="#FEB423"/>
<path d="M91 41.895V65.2025L95.891 68.0972V44.7898L91 41.895Z" fill="#FEBB39"/>
<path d="M108.729 53.6277L103.715 50.7329L98.8242 53.6277L103.715 56.5224L108.729 53.6277Z" fill="#5B8BCA"/>
<path d="M108.727 53.6277V68.886L103.713 71.6241V56.5224L108.727 53.6277Z" fill="#26538E"/>
<path d="M98.8242 53.6277V68.7293L103.715 71.6241V56.5224L98.8242 53.6277Z" fill="#326EBD"/>
<path d="M116.999 64.2435L111.985 61.3484L107.094 64.2435L111.985 67.1383L116.999 64.2435Z" fill="#FC8F46"/>
<path d="M116.995 64.2434L116.938 72.802L111.924 75.54L111.982 67.1382L116.995 64.2434Z" fill="#FC7318"/>
<path d="M107.093 64.2434L107.035 72.6449L111.926 75.54L111.984 67.1382L107.093 64.2434Z" fill="#FC812F"/>
</svg>
