<svg width="48" height="48" viewBox="0 0 48 48" fill="none" xmlns="http://www.w3.org/2000/svg">
<path d="M36.666 43.0221V35.4431" stroke="#15DA8E" stroke-width="1.8" stroke-linecap="round" stroke-linejoin="round"/>
<path d="M39.193 43.0221H12.667C10.575 43.0221 8.87695 41.3261 8.87695 39.2321" stroke="#27A870" stroke-width="1.8" stroke-linecap="round" stroke-linejoin="round"/>
<path d="M24.0359 7.65405H13.9319C11.1409 7.65405 8.87891 9.91505 8.87891 12.7071V39.2331C8.87891 37.1391 10.5759 35.4431 12.6689 35.4431H37.9309C38.6289 35.4431 39.1939 34.8781 39.1939 34.1801V8.91705C39.1939 8.22005 38.6289 7.65405 37.9309 7.65405H34.1409" stroke="#27A870" stroke-width="1.8" stroke-linecap="round" stroke-linejoin="round"/>
<path fill-rule="evenodd" clip-rule="evenodd" d="M34.1402 25.338L29.0872 20.286L24.0352 25.338V7.65503C24.0352 6.25903 25.1662 5.12903 26.5612 5.12903H31.6132C33.0082 5.12903 34.1402 6.25903 34.1402 7.65503V25.339V25.338Z" stroke="#FF7408" stroke-width="1.8" stroke-linecap="round" stroke-linejoin="round"/>
</svg>
