<svg width="183" height="25" viewBox="0 0 183 25" fill="none" xmlns="http://www.w3.org/2000/svg">
<path d="M8.7685 7.36253L10.0795 9.43353L3.914 13.034L10.0795 16.568L8.721 18.7055L1.3205 14.1075V11.9795L8.7685 7.36253ZM22.1846 15.1525C22.1846 15.9695 21.9692 16.6915 21.5386 17.3185C21.1142 17.9455 20.5031 18.4364 19.7051 18.791C18.9071 19.1457 17.9476 19.323 16.8266 19.323C15.5852 19.323 14.5434 19.1425 13.7011 18.7815C12.8651 18.4142 12.1716 17.9614 11.6206 17.423L13.1976 15.675C13.6852 16.0994 14.2236 16.4287 14.8126 16.663C15.4016 16.891 16.0476 17.005 16.7506 17.005C17.4029 17.005 17.9317 16.8657 18.3371 16.587C18.7424 16.302 18.9451 15.903 18.9451 15.39C18.9451 14.9087 18.7741 14.5319 18.4321 14.2595C18.0964 13.9872 17.4694 13.7117 16.5511 13.433C15.0121 12.9644 13.9164 12.4134 13.2641 11.78C12.6181 11.1404 12.2951 10.3202 12.2951 9.31953C12.2951 8.5152 12.5167 7.82803 12.9601 7.25803C13.4097 6.68803 14.0114 6.2542 14.7651 5.95653C15.5187 5.65253 16.3484 5.50053 17.2541 5.50053C18.2737 5.50053 19.1731 5.64936 19.9521 5.94703C20.7311 6.23836 21.4056 6.65636 21.9756 7.20103L20.5031 8.89203C20.0597 8.51836 19.5816 8.24286 19.0686 8.06553C18.5556 7.88186 18.0331 7.79003 17.5011 7.79003C16.9057 7.79003 16.4276 7.90086 16.0666 8.12253C15.7056 8.33786 15.5251 8.6577 15.5251 9.08203C15.5251 9.3607 15.6042 9.59503 15.7626 9.78503C15.9209 9.97503 16.1964 10.1555 16.5891 10.3265C16.9817 10.4912 17.5264 10.6844 18.2231 10.906C19.0527 11.1594 19.7621 11.4634 20.3511 11.818C20.9464 12.1664 21.3992 12.6065 21.7096 13.1385C22.0262 13.6705 22.1846 14.3419 22.1846 15.1525ZM33.1972 18.411C32.8045 18.6644 32.3295 18.8797 31.7722 19.057C31.2148 19.2344 30.5878 19.323 29.8912 19.323C28.5738 19.323 27.5953 18.9874 26.9557 18.316C26.316 17.6384 25.9962 16.72 25.9962 15.561V10.982H23.8777V8.91103H25.9962V6.72603L28.9982 6.36503V8.91103H32.2472L31.9527 10.982H28.9982V15.561C28.9982 16.0614 29.1122 16.4192 29.3402 16.6345C29.5682 16.8499 29.9323 16.9575 30.4327 16.9575C30.7873 16.9575 31.1103 16.9164 31.4017 16.834C31.6993 16.7454 31.9653 16.6345 32.1997 16.5015L33.1972 18.411ZM44.0007 16.093C44.0007 16.473 44.0514 16.7485 44.1527 16.9195C44.2604 17.0905 44.4314 17.2204 44.6657 17.309L44.0482 19.285C43.4529 19.228 42.9494 19.0982 42.5377 18.8955C42.1324 18.6865 41.8126 18.373 41.5782 17.955C41.1919 18.4174 40.6979 18.7625 40.0962 18.9905C39.4946 19.2122 38.8802 19.323 38.2532 19.323C37.2146 19.323 36.3849 19.0285 35.7642 18.4395C35.1499 17.8442 34.8427 17.081 34.8427 16.15C34.8427 15.0544 35.2702 14.2089 36.1252 13.6135C36.9866 13.0182 38.1962 12.7205 39.7542 12.7205H41.1127V12.3405C41.1127 11.3082 40.4477 10.792 39.1177 10.792C38.7947 10.792 38.3799 10.8395 37.8732 10.9345C37.3666 11.0232 36.8599 11.153 36.3532 11.324L35.6597 9.32903C36.3121 9.08203 36.9897 8.8952 37.6927 8.76853C38.4021 8.64186 39.0354 8.57853 39.5927 8.57853C41.0937 8.57853 42.2021 8.8857 42.9177 9.50003C43.6397 10.108 44.0007 10.9884 44.0007 12.141V16.093ZM39.2887 17.176C39.6117 17.176 39.9506 17.081 40.3052 16.891C40.6599 16.6947 40.9291 16.4192 41.1127 16.0645V14.4305H40.3717C39.5357 14.4305 38.9214 14.5604 38.5287 14.82C38.1361 15.0734 37.9397 15.447 37.9397 15.941C37.9397 16.3274 38.0569 16.6314 38.2912 16.853C38.5319 17.0684 38.8644 17.176 39.2887 17.176ZM55.9823 18.411C55.5896 18.6644 55.1146 18.8797 54.5573 19.057C54 19.2344 53.373 19.323 52.6763 19.323C51.359 19.323 50.3805 18.9874 49.7408 18.316C49.1011 17.6384 48.7813 16.72 48.7813 15.561V10.982H46.6628V8.91103H48.7813V6.72603L51.7833 6.36503V8.91103H55.0323L54.7378 10.982H51.7833V15.561C51.7833 16.0614 51.8973 16.4192 52.1253 16.6345C52.3533 16.8499 52.7175 16.9575 53.2178 16.9575C53.5725 16.9575 53.8955 16.9164 54.1868 16.834C54.4845 16.7454 54.7505 16.6345 54.9848 16.5015L55.9823 18.411ZM60.8959 14.8295C60.9972 15.6529 61.2664 16.245 61.7034 16.606C62.1404 16.9607 62.6787 17.138 63.3184 17.138C63.7807 17.138 64.2272 17.062 64.6579 16.91C65.0886 16.758 65.5034 16.5554 65.9024 16.302L67.1089 17.936C66.6339 18.3414 66.0576 18.6739 65.3799 18.9335C64.7086 19.1932 63.9422 19.323 63.0809 19.323C61.9282 19.323 60.9624 19.095 60.1834 18.639C59.4044 18.1767 58.8186 17.5434 58.4259 16.739C58.0332 15.9347 57.8369 15.01 57.8369 13.965C57.8369 12.9707 58.0269 12.0682 58.4069 11.2575C58.7869 10.4405 59.3411 9.79136 60.0694 9.31003C60.8041 8.82236 61.7002 8.57853 62.7579 8.57853C63.7206 8.57853 64.5534 8.78436 65.2564 9.19603C65.9657 9.6077 66.5136 10.1999 66.8999 10.9725C67.2926 11.7452 67.4889 12.673 67.4889 13.756C67.4889 13.927 67.4826 14.1107 67.4699 14.307C67.4636 14.5034 67.4509 14.6775 67.4319 14.8295H60.8959ZM62.7579 10.5925C62.2196 10.5925 61.7857 10.7857 61.4564 11.172C61.1271 11.5584 60.9276 12.1759 60.8579 13.0245H64.5629C64.5566 12.2899 64.4141 11.7009 64.1354 11.2575C63.8567 10.8142 63.3976 10.5925 62.7579 10.5925ZM79.328 12.407C79.328 13.8004 79.1285 15.0164 78.7295 16.055C78.3305 17.0874 77.7383 17.8917 76.953 18.468C76.174 19.038 75.2081 19.323 74.0555 19.323C72.9091 19.323 71.9433 19.0444 71.158 18.487C70.3726 17.9234 69.7805 17.1254 69.3815 16.093C68.9825 15.0607 68.783 13.832 68.783 12.407C68.783 11.0137 68.9825 9.80086 69.3815 8.76853C69.7805 7.7362 70.3726 6.93503 71.158 6.36503C71.9433 5.7887 72.9091 5.50053 74.0555 5.50053C75.2081 5.50053 76.174 5.7792 76.953 6.33653C77.7383 6.89386 78.3305 7.6887 78.7295 8.72103C79.1285 9.75336 79.328 10.982 79.328 12.407ZM76.136 12.407C76.136 10.7857 75.9745 9.6077 75.6515 8.87303C75.3285 8.13836 74.7965 7.77103 74.0555 7.77103C73.3145 7.77103 72.7825 8.14153 72.4595 8.88253C72.1365 9.6172 71.975 10.792 71.975 12.407C71.975 14.0284 72.1396 15.2064 72.469 15.941C72.7983 16.6757 73.3271 17.043 74.0555 17.043C74.8155 17.043 75.3506 16.6725 75.661 15.9315C75.9776 15.1842 76.136 14.0094 76.136 12.407ZM87.5 4.58853C88.2347 4.58853 88.8839 4.6487 89.4475 4.76903C90.0112 4.88303 90.5147 5.03503 90.958 5.22503L90.1315 7.18203C89.7832 7.04903 89.4254 6.95403 89.058 6.89703C88.6907 6.8337 88.3265 6.80203 87.9655 6.80203C87.3702 6.80203 86.9427 6.9097 86.683 7.12503C86.4297 7.34036 86.303 7.6982 86.303 8.19853V9.54753H89.59L89.2575 11.628H86.303V19H83.32V11.628H81.2015V9.54753H83.32V8.08453C83.32 7.41953 83.4784 6.8242 83.795 6.29853C84.1117 5.77286 84.5804 5.35803 85.201 5.05403C85.8217 4.7437 86.588 4.58853 87.5 4.58853ZM102.056 12.35C102.056 13.6864 101.879 14.7884 101.524 15.656C101.176 16.5237 100.701 17.2014 100.099 17.689C99.4975 18.1704 98.8135 18.5092 98.0471 18.7055C97.2871 18.9019 96.4986 19 95.6816 19H92.1286V5.83303H95.4536C96.296 5.83303 97.1098 5.9217 97.8951 6.09903C98.6868 6.27003 99.393 6.58986 100.014 7.05853C100.641 7.52086 101.138 8.17953 101.505 9.03453C101.872 9.8832 102.056 10.9884 102.056 12.35ZM98.8261 12.35C98.8261 11.1657 98.6963 10.2695 98.4366 9.66153C98.1833 9.05353 97.835 8.64186 97.3916 8.42653C96.9546 8.20486 96.4606 8.09403 95.9096 8.09403H95.2446V16.7485H95.9096C96.486 16.7485 96.9926 16.625 97.4296 16.378C97.8666 16.1247 98.2086 15.6782 98.4556 15.0385C98.7026 14.3989 98.8261 13.5027 98.8261 12.35ZM106.466 14.8295C106.568 15.6529 106.837 16.245 107.274 16.606C107.711 16.9607 108.249 17.138 108.889 17.138C109.351 17.138 109.798 17.062 110.228 16.91C110.659 16.758 111.074 16.5554 111.473 16.302L112.679 17.936C112.204 18.3414 111.628 18.6739 110.95 18.9335C110.279 19.1932 109.513 19.323 108.651 19.323C107.499 19.323 106.533 19.095 105.754 18.639C104.975 18.1767 104.389 17.5434 103.996 16.739C103.604 15.9347 103.407 15.01 103.407 13.965C103.407 12.9707 103.597 12.0682 103.977 11.2575C104.357 10.4405 104.911 9.79136 105.64 9.31003C106.374 8.82236 107.271 8.57853 108.328 8.57853C109.291 8.57853 110.124 8.78436 110.827 9.19603C111.536 9.6077 112.084 10.1999 112.47 10.9725C112.863 11.7452 113.059 12.673 113.059 13.756C113.059 13.927 113.053 14.1107 113.04 14.307C113.034 14.5034 113.021 14.6775 113.002 14.8295H106.466ZM108.328 10.5925C107.79 10.5925 107.356 10.7857 107.027 11.172C106.697 11.5584 106.498 12.1759 106.428 13.0245H110.133C110.127 12.2899 109.984 11.7009 109.706 11.2575C109.427 10.8142 108.968 10.5925 108.328 10.5925ZM124.775 8.91103L121.412 19H117.878L114.477 8.91103H117.716L119.683 16.701L121.735 8.91103H124.775ZM128.9 17.2045C128.9 16.8182 128.995 16.4667 129.185 16.15C129.375 15.827 129.631 15.5705 129.954 15.3805C130.277 15.1842 130.632 15.086 131.018 15.086C131.411 15.086 131.766 15.1842 132.082 15.3805C132.405 15.5705 132.662 15.827 132.852 16.15C133.042 16.4667 133.137 16.8182 133.137 17.2045C133.137 17.5845 133.042 17.936 132.852 18.259C132.662 18.582 132.405 18.8385 132.082 19.0285C131.766 19.2249 131.411 19.323 131.018 19.323C130.632 19.323 130.277 19.2249 129.954 19.0285C129.631 18.8385 129.375 18.582 129.185 18.259C128.995 17.936 128.9 17.5845 128.9 17.2045ZM145.498 8.57853C146.214 8.57853 146.743 8.81286 147.085 9.28153C147.433 9.74386 147.607 10.4944 147.607 11.533V19H145.033V11.875C145.033 11.5204 144.998 11.2702 144.928 11.1245C144.865 10.9789 144.732 10.906 144.529 10.906C144.371 10.906 144.206 10.9535 144.035 11.0485C143.871 11.1372 143.687 11.3082 143.484 11.5615V19H141.375V11.875C141.375 11.5204 141.341 11.2702 141.271 11.1245C141.208 10.9789 141.075 10.906 140.872 10.906C140.714 10.906 140.549 10.9535 140.378 11.0485C140.213 11.1372 140.03 11.3082 139.827 11.5615V19H137.214V8.91103H139.418L139.618 9.88953C139.935 9.45886 140.254 9.1327 140.577 8.91103C140.9 8.68936 141.284 8.57853 141.727 8.57853C142.107 8.57853 142.43 8.6767 142.696 8.87303C142.968 9.06303 143.161 9.36386 143.275 9.77553C143.579 9.42086 143.915 9.1327 144.282 8.91103C144.65 8.68936 145.055 8.57853 145.498 8.57853ZM157.927 16.093C157.927 16.473 157.977 16.7485 158.079 16.9195C158.186 17.0905 158.357 17.2204 158.592 17.309L157.974 19.285C157.379 19.228 156.875 19.0982 156.464 18.8955C156.058 18.6865 155.738 18.373 155.504 17.955C155.118 18.4174 154.624 18.7625 154.022 18.9905C153.42 19.2122 152.806 19.323 152.179 19.323C151.14 19.323 150.311 19.0285 149.69 18.4395C149.076 17.8442 148.769 17.081 148.769 16.15C148.769 15.0544 149.196 14.2089 150.051 13.6135C150.912 13.0182 152.122 12.7205 153.68 12.7205H155.039V12.3405C155.039 11.3082 154.374 10.792 153.044 10.792C152.721 10.792 152.306 10.8395 151.799 10.9345C151.292 11.0232 150.786 11.153 150.279 11.324L149.586 9.32903C150.238 9.08203 150.916 8.8952 151.619 8.76853C152.328 8.64186 152.961 8.57853 153.519 8.57853C155.02 8.57853 156.128 8.8857 156.844 9.50003C157.566 10.108 157.927 10.9884 157.927 12.141V16.093ZM153.215 17.176C153.538 17.176 153.876 17.081 154.231 16.891C154.586 16.6947 154.855 16.4192 155.039 16.0645V14.4305H154.298C153.462 14.4305 152.847 14.5604 152.455 14.82C152.062 15.0734 151.866 15.447 151.866 15.941C151.866 16.3274 151.983 16.6314 152.217 16.853C152.458 17.0684 152.79 17.176 153.215 17.176ZM162.384 21.128L160.038 20.0545L168.027 3.47703L170.355 4.55053L162.384 21.128ZM173.634 7.36253L181.063 11.9605V14.1075L173.663 18.7055L172.304 16.663L178.479 13.034L172.304 9.51903L173.634 7.36253Z" fill="currentColor"/>
</svg>
