<svg width="163" height="163" viewBox="0 0 163 163" fill="none" xmlns="http://www.w3.org/2000/svg">
<g clip-path="url(#clip-p-0)">
<path d="M130.84 94.1924L130.877 107.427L133.186 108.772L133.149 95.5378L130.84 94.1924Z" fill="#C7D8F2"/>
<path d="M133.149 95.5378L133.186 108.772L135.51 107.427L135.472 94.1924L133.149 95.5378Z" fill="#7BAEFF"/>
<path d="M130.84 94.1926L133.149 95.538L135.473 94.1926L133.164 92.8472L130.84 94.1926Z" fill="#4DA5DC"/>
<path d="M92.6992 110.154L98.3108 113.425L103.959 110.154L98.3473 106.884L92.6992 110.154Z" fill="#4DA5DC"/>
<path d="M0.426109 92.1179C0.434212 92.2113 0.440796 92.3048 0.458015 92.3983C0.472198 92.475 0.495003 92.5513 0.515266 92.6275C0.538574 92.7164 0.559845 92.8053 0.591255 92.8937C0.617096 92.9669 0.651543 93.039 0.682953 93.1117C0.72348 93.2046 0.763504 93.2976 0.813148 93.3896C0.849121 93.4561 0.89167 93.5217 0.932205 93.5877C0.996544 93.6924 1.06493 93.7966 1.14143 93.8992C1.21539 93.9983 1.29139 94.0973 1.3765 94.1939C1.39676 94.2167 1.41399 94.2401 1.43476 94.2625C1.54925 94.388 1.67641 94.5109 1.81015 94.6318C1.89577 94.7091 1.9905 94.7832 2.08372 94.8584C2.16579 94.9245 2.24432 94.991 2.33247 95.0551C2.43328 95.1287 2.54423 95.1988 2.65314 95.27C2.76511 95.3426 2.87099 95.4173 2.99105 95.4874L75.1425 137.539C75.7362 137.885 76.3938 138.172 77.0934 138.4C77.6334 138.576 78.1988 138.716 78.7789 138.82C79.1522 138.888 79.5312 138.941 79.9142 138.979C80.2415 139.011 80.5713 139.034 80.9016 139.045C81.205 139.055 81.5095 139.057 81.8135 139.05C82.1068 139.042 82.3996 139.026 82.6904 139.002L82.7051 144.16C82.4143 144.184 82.1215 144.2 81.8281 144.207C81.5242 144.215 81.2197 144.213 80.9163 144.203C80.5854 144.191 80.2561 144.169 79.9289 144.136C79.5459 144.098 79.1669 144.046 78.7936 143.978C78.2135 143.873 77.6481 143.733 77.1081 143.557C76.4085 143.33 75.7509 143.043 75.1572 142.697L3.00574 100.645C2.96926 100.624 2.93279 100.602 2.89682 100.581C2.81576 100.532 2.74636 100.479 2.66936 100.428C2.55993 100.357 2.44797 100.287 2.34664 100.213C2.259 100.149 2.18048 100.082 2.09892 100.016C2.0052 99.9413 1.90995 99.8666 1.82433 99.7893C1.80711 99.7736 1.78634 99.7594 1.76962 99.7436C1.65513 99.6379 1.54976 99.5292 1.44996 99.42C1.42918 99.3971 1.41094 99.3737 1.39068 99.3509C1.33141 99.2838 1.27112 99.2167 1.21741 99.1481C1.19411 99.1182 1.17841 99.0872 1.15612 99.0572C1.07963 98.9546 1.01123 98.8504 0.946892 98.7457C0.920036 98.7015 0.884071 98.6589 0.859245 98.6147C0.846581 98.5923 0.839493 98.5694 0.827332 98.5471C0.778191 98.4551 0.738167 98.3621 0.697639 98.2692C0.674332 98.2148 0.641914 98.162 0.621651 98.1071C0.614555 98.0888 0.612526 98.0695 0.605942 98.0512C0.574532 97.9628 0.55275 97.8739 0.529442 97.7845C0.513741 97.7245 0.490448 97.6651 0.478287 97.6046C0.47525 97.5888 0.475746 97.5721 0.472702 97.5563C0.455482 97.4628 0.448898 97.3689 0.440285 97.2749C0.434708 97.2139 0.421036 97.1529 0.419518 97.0919C0.419014 97.066 0.418503 97.0396 0.418503 97.0137L0.403816 91.8562C0.403816 91.9436 0.417999 92.0305 0.426109 92.1179Z" fill="#C1D3EB"/>
<path d="M-0.573891 96.1179C-0.565788 96.2113 -0.559204 96.3048 -0.541985 96.3983C-0.527802 96.475 -0.504997 96.5513 -0.484734 96.6275C-0.461426 96.7164 -0.440155 96.8053 -0.408745 96.8937C-0.382904 96.9669 -0.348457 97.039 -0.317047 97.1117C-0.27652 97.2046 -0.236496 97.2976 -0.186852 97.3896C-0.150879 97.4561 -0.10833 97.5217 -0.0677948 97.5877C-0.00345612 97.6924 0.0649338 97.7966 0.141426 97.8992C0.215393 97.9983 0.291389 98.0973 0.376495 98.1939C0.396759 98.2167 0.413986 98.2401 0.434761 98.2625C0.549248 98.388 0.676407 98.5109 0.81015 98.6318C0.895775 98.7091 0.990501 98.7832 1.08372 98.8584C1.16579 98.9245 1.24432 98.991 1.33247 99.0551C1.43328 99.1287 1.54423 99.1988 1.65314 99.27C1.76511 99.3426 1.87099 99.4173 1.99105 99.4874L74.1425 141.539C74.7362 141.885 75.3938 142.172 76.0934 142.4C76.6334 142.576 77.1988 142.716 77.7789 142.82C78.1522 142.888 78.5312 142.941 78.9142 142.979C79.2415 143.011 79.5713 143.034 79.9016 143.045C80.205 143.055 80.5095 143.057 80.8135 143.05C81.1068 143.042 81.3996 143.026 81.6904 143.002L81.7051 148.16C81.4143 148.184 81.1215 148.2 80.8281 148.207C80.5242 148.215 80.2197 148.213 79.9163 148.203C79.5854 148.191 79.2561 148.169 78.9289 148.136C78.5459 148.098 78.1669 148.046 77.7936 147.978C77.2135 147.873 76.6481 147.733 76.1081 147.557C75.4085 147.33 74.7509 147.043 74.1572 146.697L2.00574 104.645C1.96926 104.624 1.93279 104.602 1.89682 104.581C1.81576 104.532 1.74636 104.479 1.66936 104.428C1.55993 104.357 1.44797 104.287 1.34664 104.213C1.259 104.149 1.18048 104.082 1.09892 104.016C1.0052 103.941 0.90995 103.867 0.824333 103.789C0.807106 103.774 0.786339 103.759 0.769623 103.744C0.655128 103.638 0.549759 103.529 0.449959 103.42C0.429184 103.397 0.410942 103.374 0.390678 103.351C0.331406 103.284 0.271118 103.217 0.217415 103.148C0.194115 103.118 0.178413 103.087 0.15612 103.057C0.079628 102.955 0.0112305 102.85 -0.0531082 102.746C-0.0799637 102.702 -0.115929 102.659 -0.140755 102.615C-0.153419 102.592 -0.160507 102.569 -0.172668 102.547C-0.221809 102.455 -0.261833 102.362 -0.302361 102.269C-0.325668 102.215 -0.358086 102.162 -0.378349 102.107C-0.385445 102.089 -0.387474 102.069 -0.394058 102.051C-0.425468 101.963 -0.44725 101.874 -0.470558 101.784C-0.486259 101.725 -0.509552 101.665 -0.521713 101.605C-0.52475 101.589 -0.524254 101.572 -0.527298 101.556C-0.544518 101.463 -0.551102 101.369 -0.559715 101.275C-0.565292 101.214 -0.578964 101.153 -0.580482 101.092C-0.580986 101.066 -0.581497 101.04 -0.581497 101.014L-0.596184 95.8562C-0.596184 95.9436 -0.582001 96.0305 -0.573891 96.1179Z" fill="#EBF0F5"/>
<path d="M0.426109 88.1179C0.434212 88.2113 0.440796 88.3048 0.458015 88.3983C0.472198 88.475 0.495003 88.5513 0.515266 88.6275C0.538574 88.7164 0.559845 88.8053 0.591255 88.8937C0.617096 88.9669 0.651543 89.039 0.682953 89.1117C0.72348 89.2046 0.763504 89.2976 0.813148 89.3896C0.849121 89.4561 0.89167 89.5217 0.932205 89.5877C0.996544 89.6924 1.06493 89.7966 1.14143 89.8992C1.21539 89.9983 1.29139 90.0973 1.3765 90.1939C1.39676 90.2167 1.41399 90.2401 1.43476 90.2625C1.54925 90.388 1.67641 90.5109 1.81015 90.6318C1.89577 90.7091 1.9905 90.7832 2.08372 90.8584C2.16579 90.9245 2.24432 90.991 2.33247 91.0551C2.43328 91.1287 2.54423 91.1988 2.65314 91.27C2.76511 91.3426 2.87099 91.4173 2.99105 91.4874L75.1425 133.539C75.7362 133.885 76.3938 134.172 77.0934 134.4C77.6334 134.576 78.1988 134.716 78.7789 134.82C79.1522 134.888 79.5312 134.941 79.9142 134.979C80.2415 135.011 80.5713 135.034 80.9016 135.045C81.205 135.055 81.5095 135.057 81.8135 135.05C82.1068 135.042 82.3996 135.026 82.6904 135.002L82.7051 140.16C82.4143 140.184 82.1215 140.2 81.8281 140.207C81.5242 140.215 81.2197 140.213 80.9163 140.203C80.5854 140.191 80.2561 140.169 79.9289 140.136C79.5459 140.098 79.1669 140.046 78.7936 139.978C78.2135 139.873 77.6481 139.733 77.1081 139.557C76.4085 139.33 75.7509 139.043 75.1572 138.697L3.00574 96.6454C2.96926 96.6241 2.93279 96.6023 2.89682 96.5809C2.81576 96.5321 2.74636 96.4788 2.66936 96.4285C2.55993 96.3569 2.44797 96.2867 2.34664 96.2126C2.259 96.1485 2.18048 96.0825 2.09892 96.0164C2.0052 95.9413 1.90995 95.8666 1.82433 95.7893C1.80711 95.7736 1.78634 95.7594 1.76962 95.7436C1.65513 95.6379 1.54976 95.5292 1.44996 95.42C1.42918 95.3971 1.41094 95.3737 1.39068 95.3509C1.33141 95.2838 1.27112 95.2167 1.21741 95.1481C1.19411 95.1182 1.17841 95.0872 1.15612 95.0572C1.07963 94.9546 1.01123 94.8504 0.946892 94.7457C0.920036 94.7015 0.884071 94.6589 0.859245 94.6147C0.846581 94.5923 0.839493 94.5694 0.827332 94.5471C0.778191 94.4551 0.738167 94.3621 0.697639 94.2692C0.674332 94.2148 0.641914 94.162 0.621651 94.1071C0.614555 94.0888 0.612526 94.0695 0.605942 94.0512C0.574532 93.9628 0.55275 93.8739 0.529442 93.7845C0.513741 93.7245 0.490448 93.6651 0.478287 93.6046C0.47525 93.5888 0.475746 93.5721 0.472702 93.5563C0.455482 93.4628 0.448898 93.3689 0.440285 93.2749C0.434708 93.2139 0.421036 93.1529 0.419518 93.0919C0.419014 93.066 0.418503 93.0396 0.418503 93.0137L0.403816 87.8562C0.403816 87.9436 0.417999 88.0305 0.426109 88.1179Z" fill="#C1D3EB"/>
<path d="M83.557 138.906C83.8544 138.864 84.1497 138.812 84.44 138.752C84.7551 138.686 85.0652 138.61 85.3686 138.523C85.74 138.417 86.1012 138.295 86.4497 138.158C86.9021 137.979 87.3322 137.773 87.734 137.54L160.358 95.4887C162.113 94.4725 162.989 93.1383 162.985 91.8062L163 96.9642C163.004 98.2963 162.127 99.6306 160.372 100.647L87.7487 142.697C87.3469 142.93 86.9168 143.136 86.4644 143.315C86.1159 143.453 85.7542 143.575 85.3828 143.681C85.0794 143.768 84.7693 143.844 84.4542 143.91C84.1639 143.97 83.8691 144.021 83.5717 144.064C83.2855 144.104 82.9967 144.137 82.7064 144.161L82.6917 139.003C82.9825 138.979 83.2708 138.947 83.557 138.906Z" fill="#C1D3EB"/>
<path d="M82.557 142.906C82.8544 142.864 83.1497 142.812 83.44 142.752C83.7551 142.686 84.0652 142.61 84.3686 142.523C84.74 142.417 85.1012 142.295 85.4497 142.158C85.9021 141.979 86.3322 141.773 86.734 141.54L159.358 99.4887C161.113 98.4725 161.989 97.1383 161.985 95.8062L162 100.964C162.004 102.296 161.127 103.631 159.372 104.647L86.7487 146.697C86.3469 146.93 85.9168 147.136 85.4644 147.315C85.1159 147.453 84.7542 147.575 84.3828 147.681C84.0794 147.768 83.7693 147.844 83.4542 147.91C83.1639 147.97 82.8691 148.021 82.5717 148.064C82.2855 148.104 81.9967 148.137 81.7064 148.161L81.6917 143.003C81.9825 142.979 82.2708 142.947 82.557 142.906Z" fill="#EBF0F5"/>
<path d="M83.557 134.906C83.8544 134.864 84.1497 134.812 84.44 134.752C84.7551 134.686 85.0652 134.61 85.3686 134.523C85.74 134.417 86.1012 134.295 86.4497 134.158C86.9021 133.979 87.3322 133.773 87.734 133.54L160.358 91.4887C162.113 90.4725 162.989 89.1383 162.985 87.8062L163 92.9642C163.004 94.2963 162.127 95.6306 160.372 96.6467L87.7487 138.697C87.3469 138.93 86.9168 139.136 86.4644 139.315C86.1159 139.453 85.7542 139.575 85.3828 139.681C85.0794 139.768 84.7693 139.844 84.4542 139.91C84.1639 139.97 83.8691 140.021 83.5717 140.064C83.2855 140.104 82.9967 140.137 82.7064 140.161L82.6917 135.003C82.9825 134.979 83.2708 134.947 83.557 134.906Z" fill="#C1D3EB"/>
<path d="M3.03354 84.3778C-0.454453 86.3974 -0.47319 89.6725 2.99251 91.6921L75.1439 133.744C78.6096 135.763 84.2466 135.763 87.7346 133.744L160.358 91.6926C163.846 89.673 163.865 86.3984 160.399 84.3788L88.2478 42.3272C84.7821 40.3076 79.1451 40.3076 75.6571 42.3272L3.03354 84.3778Z" fill="#F0F3FC"/>
<path d="M25.3818 67.3267L19.6202 64L14 67.3267L19.6202 70.653L25.3818 67.3267Z" fill="#FEC34F"/>
<path d="M25.3788 67.3271V94.2894L19.6172 97.4356V70.6534L25.3788 67.3271Z" fill="#FEB423"/>
<path d="M14 67.3271V94.1093L19.6202 97.4356V70.6534L14 67.3271Z" fill="#FEBB39"/>
<path d="M34.3701 80.8087L28.608 77.4824L22.9883 80.8087L28.608 84.135L34.3701 80.8087Z" fill="#5B8BCA"/>
<path d="M34.3695 80.8083V98.3414L28.6074 101.488V84.1346L34.3695 80.8083Z" fill="#26538E"/>
<path d="M22.9883 80.8086V98.1616L28.608 101.488V84.1349L22.9883 80.8086Z" fill="#326EBD"/>
<path d="M43.8701 93.0074L38.1089 89.6807L32.4883 93.0074L38.1089 96.3337L43.8701 93.0074Z" fill="#FC8F46"/>
<path d="M43.8687 93.0071L43.8026 102.842L38.041 105.988L38.1075 96.3334L43.8687 93.0071Z" fill="#FC7318"/>
<path d="M32.4898 93.0071L32.4238 102.661L38.044 105.988L38.1105 96.3334L32.4898 93.0071Z" fill="#FC812F"/>
<path d="M71.2129 77.649L51.3322 89.2362L37.3473 81.1385L57.228 69.5513L71.2129 77.649Z" fill="white"/>
<path d="M54.3158 74.7658L57.4436 76.5888L61.4043 75.4182C60.2989 74.1495 57.629 73.645 55.4415 74.2918C55.0038 74.4208 54.6634 74.5646 54.3158 74.7658Z" fill="#FF5668"/>
<path d="M53.5981 75.0022C51.4957 76.2195 51.4851 78.1934 53.5738 79.4108C55.6625 80.6281 59.0593 80.6281 61.1617 79.4108C62.8437 78.4368 63.2383 77.0182 62.1689 75.7912L57.3799 77.2067L53.5981 75.0022Z" fill="#2CC068"/>
<path d="M56.4761 83.6662C56.6504 83.7673 56.6514 83.9278 56.4781 84.029C56.3048 84.1301 56.0282 84.1301 55.854 84.029L46.9792 78.8903C46.8049 78.7892 46.8039 78.6286 46.9772 78.5275C47.1505 78.4264 47.4271 78.4264 47.6013 78.5275L56.4761 83.6662Z" fill="#2CC068"/>
<path d="M50.3438 81.3043C50.515 81.4034 50.5155 81.568 50.3458 81.6671C50.1726 81.7682 49.8899 81.7682 49.7186 81.6691L45.9525 79.4879C45.7782 79.3868 45.7803 79.2248 45.9535 79.1237C46.1232 79.0246 46.4034 79.0225 46.5777 79.1237L50.3438 81.3043Z" fill="#2CC068"/>
<path d="M51.5117 83.095C51.6859 83.1961 51.69 83.3582 51.5167 83.4593C51.3435 83.5604 51.0638 83.5589 50.8895 83.4578L44.9962 80.0455C44.8219 79.9444 44.8209 79.7839 44.9942 79.6828C45.1674 79.5817 45.444 79.5817 45.6183 79.6828L51.5117 83.095Z" fill="#2CC068"/>
<path d="M125.248 69.2394L105.367 80.8266L91.3824 72.7288L111.263 61.1416L125.248 69.2394Z" fill="white"/>
<path d="M108.353 66.3559L111.481 68.1789L115.441 67.0083C114.336 65.7396 111.666 65.2351 109.479 65.8819C109.041 66.0109 108.701 66.1547 108.353 66.3559Z" fill="#B391FF"/>
<path d="M107.635 66.5923C105.533 67.8096 105.522 69.7835 107.611 71.0009C109.7 72.2182 113.096 72.2182 115.199 71.0009C116.881 70.0269 117.275 68.6083 116.206 67.3813L111.417 68.7968L107.635 66.5923Z" fill="#2CC068"/>
<path d="M110.511 75.2565C110.686 75.3576 110.687 75.5182 110.513 75.6193C110.34 75.7204 110.063 75.7204 109.889 75.6193L101.014 70.4806C100.84 70.3795 100.839 70.2189 101.012 70.1178C101.186 70.0167 101.462 70.0167 101.637 70.1178L110.511 75.2565Z" fill="#8FD9AD"/>
<path d="M104.379 72.8944C104.55 72.9935 104.551 73.1581 104.381 73.2572C104.208 73.3583 103.925 73.3583 103.754 73.2592L99.9877 71.078C99.8134 70.9769 99.8154 70.8148 99.9887 70.7137C100.158 70.6147 100.439 70.6126 100.613 70.7137L104.379 72.8944Z" fill="#D4D9DF"/>
<path d="M105.547 74.6851C105.721 74.7862 105.725 74.9488 105.552 75.0499C105.379 75.151 105.099 75.149 104.925 75.0479L99.0316 71.6356C98.8573 71.5345 98.8563 71.374 99.0296 71.2729C99.2028 71.1717 99.4794 71.1717 99.6537 71.2729L105.547 74.6851Z" fill="#2CC068"/>
<path d="M93.2733 104.955L93.2768 106.153L96.0312 107.759L96.0277 106.561L93.2733 104.955Z" fill="#1C9C50"/>
<path d="M96.0276 106.56L96.0312 107.758L119.453 94.1958L119.45 92.9983L96.0276 106.56Z" fill="#1C9C50"/>
<path d="M93.2748 104.955L96.0292 106.561L119.451 92.9988L116.697 91.3933L93.2748 104.955Z" fill="#2CC068"/>
<path d="M103.684 105.186L103.687 106.384L106.439 107.988L106.436 106.79L103.684 105.186Z" fill="#2689FD"/>
<path d="M106.436 106.79L106.439 107.988L124.838 97.3348L124.834 96.1367L106.436 106.79Z" fill="#3548DB"/>
<path d="M103.684 105.186L106.437 106.79L124.836 96.1367L122.083 94.5322L103.684 105.186Z" fill="#58AFFB"/>
<path d="M119.051 102.547L119.054 103.745L121.807 105.349L121.804 104.151L119.051 102.547Z" fill="#EE2C6A"/>
<path d="M121.804 104.152L121.807 105.349L130.227 100.474L130.223 99.2766L121.804 104.152Z" fill="#EE428C"/>
<path d="M119.053 102.547L121.806 104.151L130.225 99.2766L127.472 97.6721L119.053 102.547Z" fill="#FF3D9D"/>
<path d="M137.633 95.9303C137.908 96.0893 137.909 96.3428 137.636 96.5018C137.363 96.6609 136.927 96.6609 136.653 96.5018L122.664 88.4016C122.389 88.2425 122.387 87.989 122.66 87.83C122.933 87.6709 123.369 87.6709 123.644 87.83L137.633 95.9303Z" fill="#2CC068"/>
<path d="M127.969 92.2079C128.238 92.3639 128.24 92.6235 127.972 92.7795C127.699 92.9385 127.253 92.938 126.983 92.782L121.047 89.3449C120.772 89.1858 120.775 88.9293 121.049 88.7702C121.317 88.6143 121.758 88.6112 122.032 88.7702L127.969 92.2079Z" fill="#2CC068"/>
<path d="M129.81 95.029C130.085 95.1881 130.091 95.4446 129.818 95.6037C129.545 95.7627 129.104 95.7597 128.829 95.6006L119.541 90.2221C119.266 90.0631 119.265 89.8095 119.538 89.6505C119.811 89.4915 120.246 89.4915 120.521 89.6505L129.81 95.029Z" fill="#2CC068"/>
<path d="M130.65 82.0527L132.873 83.3483C134.891 82.2437 138.062 82.2625 140.025 83.4067C140.066 83.4301 140.104 83.455 140.143 83.4793L142.381 82.1832C142.341 82.1588 142.302 82.135 142.262 82.1116C139.071 80.252 133.903 80.2327 130.65 82.0527Z" fill="#8FD9AD"/>
<path d="M130.305 82.2554C127.664 83.9137 127.391 86.3845 129.493 88.2029L131.8 86.8672C130.875 85.8043 131.119 84.4848 132.531 83.5525L130.305 82.2554Z" fill="#8FD9AD"/>
<path d="M129.783 88.4367C130.002 88.6039 130.243 88.7654 130.506 88.9184C133.651 90.751 138.715 90.7967 141.975 89.0561L139.749 87.7589C137.727 88.7852 134.659 88.7405 132.742 87.6233C132.476 87.4683 132.247 87.3001 132.053 87.1228L129.783 88.4367Z" fill="#2CC068"/>
<path d="M140.456 83.6958C141.975 84.843 141.855 86.4871 140.1 87.5617L142.323 88.8573C145.312 87.0653 145.443 84.2633 142.705 82.3936L140.456 83.6958Z" fill="#2CC068"/>
<path d="M93.058 89.4653L75.8094 104.692L60.5129 99.4749L77.7615 84.2483L93.058 89.4653Z" fill="white"/>
<path d="M75.7503 89.1879L77.2447 89.8834C78.4669 89.062 80.4914 88.8895 81.8113 89.504C81.8383 89.5167 81.8638 89.5298 81.8903 89.5429L83.2422 88.5872C83.2158 88.5741 83.1893 88.5609 83.1623 88.5482C81.0173 87.5502 77.7188 87.8389 75.7503 89.1879Z" fill="#B9F3D0"/>
<path d="M75.5422 89.3407C73.9537 90.5525 73.9243 92.1437 75.3736 93.181L76.7677 92.1946C76.1146 91.5707 76.1931 90.715 77.0396 90.0378L75.5422 89.3407Z" fill="#B9F3D0"/>
<path d="M75.5668 93.3117C75.717 93.4052 75.8802 93.4941 76.0566 93.5763C78.1706 94.5603 81.404 94.2938 83.3814 92.995L81.8856 92.2984C80.6558 93.0703 78.6954 93.221 77.407 92.6211C77.2281 92.5377 77.0719 92.4438 76.9375 92.3423L75.5668 93.3117Z" fill="#2CC068"/>
<path d="M82.102 89.6616C83.1389 90.3046 83.1585 91.3602 82.1017 92.1483L83.5968 92.8445C85.3993 91.527 85.3182 89.7315 83.4608 88.6993L82.102 89.6616Z" fill="#2CC068"/>
<path d="M65.7054 57.9922C59.7912 61.4166 59.7532 66.9699 65.6289 70.3944C71.5045 73.8188 81.0707 73.8188 86.9849 70.3944C92.899 66.9699 92.9233 61.4166 87.0477 57.9922C81.1721 54.5677 71.6195 54.5677 65.7054 57.9922Z" fill="#D9DBDC"/>
<path d="M65.563 54.3235L65.5691 56.5042L69.3281 58.695L69.322 56.5143L65.563 54.3235Z" fill="#CC096A"/>
<path d="M80.6821 58.0518C80.6563 58.0416 80.631 58.0304 80.6051 58.0203C80.3949 57.94 80.1791 57.8679 79.9607 57.7988C79.8093 57.751 79.6542 57.7088 79.4992 57.6667C79.3812 57.6346 79.2647 57.5996 79.1451 57.5706C78.9825 57.531 78.8163 57.4985 78.6507 57.4649C78.5291 57.4406 78.4095 57.4121 78.2869 57.3908C78.2368 57.3821 78.1856 57.3745 78.1354 57.3664C77.9292 57.3323 77.722 57.3029 77.5128 57.278C77.452 57.2709 77.3922 57.2632 77.3315 57.2566C77.0898 57.2307 76.8466 57.2099 76.6024 57.1952C76.5574 57.1926 76.5123 57.1906 76.4672 57.1886C76.303 57.1804 76.1384 57.1779 75.9743 57.1748C75.8101 57.1718 75.646 57.1703 75.4818 57.1723C75.3445 57.1743 75.2078 57.1784 75.071 57.184C74.919 57.1901 74.767 57.1977 74.6155 57.2084C74.4767 57.218 74.3384 57.2297 74.2006 57.2429C74.0507 57.2577 73.9012 57.2744 73.7523 57.2932C73.6175 57.3105 73.4838 57.3293 73.3505 57.3501C73.191 57.375 73.0324 57.4035 72.8748 57.4334C72.7092 57.4649 72.544 57.4964 72.3814 57.5335C72.3424 57.5427 72.3034 57.5508 72.2644 57.56C72.0354 57.6148 71.8105 57.6758 71.5881 57.7418C71.5242 57.7606 71.4614 57.7815 71.3986 57.8013C71.2137 57.8597 71.0318 57.9217 70.853 57.9878C70.8008 58.0071 70.7481 58.0254 70.6964 58.0452C70.5338 58.1082 70.3768 58.1783 70.2202 58.2479C70.1432 58.2824 70.0632 58.3134 69.9877 58.3495C69.7612 58.4572 69.5409 58.5721 69.3291 58.6945L69.323 56.1516C69.5348 56.0291 69.7552 55.9143 69.9816 55.8066C70.0566 55.771 70.1361 55.74 70.2126 55.706C70.3469 55.646 70.4796 55.5835 70.6184 55.5287C70.6422 55.5195 70.6665 55.5114 70.6903 55.5022C70.7415 55.4824 70.7942 55.4646 70.8464 55.4453C71.0252 55.3788 71.2076 55.3163 71.3925 55.2579C71.4553 55.238 71.5176 55.2177 71.5815 55.1989C71.624 55.1862 71.6656 55.172 71.7086 55.1598C71.8895 55.108 72.0734 55.0612 72.2583 55.017C72.2973 55.0079 72.3363 54.9998 72.3753 54.9906C72.465 54.9703 72.5547 54.9479 72.6453 54.9291C72.7188 54.9139 72.7948 54.9047 72.8688 54.8905C73.0263 54.8605 73.1844 54.8321 73.3445 54.8072C73.4083 54.797 73.4711 54.7833 73.5354 54.7742C73.6049 54.764 73.6763 54.7594 73.7462 54.7503C73.8951 54.7315 74.0446 54.7147 74.1945 54.7C74.266 54.6929 74.3364 54.6822 74.4083 54.6761C74.4752 54.6705 74.5426 54.67 74.6095 54.6654C74.7609 54.6548 74.9124 54.6471 75.0644 54.641C75.1404 54.638 75.2164 54.6309 75.2929 54.6289C75.3537 54.6273 75.415 54.6304 75.4758 54.6294C75.6399 54.6273 75.804 54.6289 75.9682 54.6319C76.0497 54.6334 76.1313 54.6304 76.2129 54.6329C76.2954 54.636 76.378 54.6416 76.4606 54.6456C76.5057 54.6482 76.5513 54.6497 76.5964 54.6522C76.801 54.6644 77.0057 54.6792 77.2089 54.6995C77.2479 54.7035 77.2864 54.7096 77.3254 54.7137C77.3862 54.7203 77.4459 54.7279 77.5067 54.735C77.7155 54.7599 77.9232 54.7894 78.1289 54.8234C78.1795 54.8316 78.2302 54.8392 78.2808 54.8478C78.3052 54.8519 78.3295 54.8549 78.3538 54.8595C78.4516 54.8773 78.5463 54.9017 78.6431 54.9215C78.8097 54.955 78.9764 54.9886 79.1395 55.0282C79.2591 55.0572 79.3746 55.0912 79.4921 55.1232C79.6477 55.1654 79.8027 55.2081 79.9547 55.2558C79.9871 55.266 80.0215 55.2731 80.054 55.2838C80.2389 55.3437 80.4202 55.4088 80.5991 55.4773C80.6249 55.4875 80.6502 55.4987 80.6761 55.5088C80.8721 55.5856 81.0631 55.6679 81.2506 55.7548C81.3058 55.7802 81.361 55.8061 81.4157 55.8325C81.6234 55.9331 81.8271 56.0383 82.0216 56.1516C82.0586 56.1729 82.0951 56.1948 82.131 56.2166C82.165 56.2369 82.1959 56.2583 82.2293 56.2791C82.2845 56.3136 82.3393 56.3477 82.3925 56.3827C82.4411 56.4147 82.4882 56.4473 82.5353 56.4798C82.587 56.5153 82.6376 56.5509 82.6873 56.587C82.7329 56.62 82.7765 56.6535 82.8205 56.6871C82.8682 56.7237 82.9153 56.7608 82.9614 56.7978C83.0034 56.8319 83.0445 56.8664 83.085 56.901C83.1291 56.9386 83.1726 56.9762 83.2147 57.0143C83.2319 57.03 83.2506 57.0453 83.2679 57.061C83.2836 57.0758 83.2973 57.091 83.313 57.1057C83.3839 57.1728 83.4513 57.2404 83.5161 57.3085C83.5379 57.3313 83.5607 57.3542 83.582 57.3776C83.6645 57.4675 83.7426 57.5579 83.815 57.6499C83.818 57.654 83.8216 57.6575 83.8246 57.6616C83.8413 57.6829 83.8555 57.7043 83.8717 57.7256C83.9153 57.7835 83.9584 57.8414 83.9984 57.8999C84.0207 57.9319 84.0404 57.9644 84.0612 57.9969C84.0952 58.0497 84.1286 58.1026 84.1595 58.1559C84.1681 58.1707 84.1782 58.1849 84.1863 58.1996C84.1985 58.2215 84.2081 58.2433 84.2198 58.2652C84.2441 58.3104 84.2674 58.3551 84.2897 58.4003C84.3079 58.4379 84.3257 58.476 84.3424 58.5136C84.3626 58.5593 84.3814 58.6051 84.3996 58.6508C84.4077 58.6711 84.4179 58.6909 84.4255 58.7113C84.4326 58.7296 84.4371 58.7484 84.4437 58.7666C84.4589 58.8098 84.4731 58.8535 84.4868 58.8972C84.4989 58.9369 84.5106 58.9765 84.5212 59.0161C84.5329 59.0598 84.5435 59.104 84.5531 59.1477C84.5582 59.1716 84.5658 59.1944 84.5704 59.2183C84.5734 59.2341 84.5749 59.2508 84.578 59.2666C84.5861 59.3113 84.5932 59.356 84.5992 59.4012C84.6048 59.4409 84.6099 59.48 84.6139 59.5196C84.6185 59.5648 84.621 59.6106 84.6235 59.6558C84.6251 59.6822 84.6291 59.7086 84.6296 59.735C84.6301 59.7615 84.6306 60.1506 84.6306 60.1771L84.6367 62.3572C84.6367 62.3044 84.6327 62.2516 84.6296 62.1987C84.6271 62.1535 84.6246 62.1078 84.62 62.0625C84.6159 62.0229 84.6109 61.9838 84.6053 61.9442C84.5992 61.8995 84.5921 61.8542 84.584 61.8095C84.5769 61.7694 84.5683 61.7298 84.5592 61.6901C84.5496 61.6464 84.5389 61.6027 84.5273 61.559C84.5167 61.5194 84.505 61.4798 84.4928 61.4402C84.4792 61.397 84.465 61.3533 84.4498 61.3101C84.4361 61.271 84.4209 61.2318 84.4057 61.1932C84.3875 61.1475 84.3687 61.1023 84.3485 61.0571C84.3317 61.019 84.314 60.9809 84.2958 60.9433C84.2735 60.898 84.2502 60.8533 84.2259 60.8081C84.2061 60.7715 84.1869 60.7349 84.1656 60.6989C84.1347 60.6455 84.1012 60.5922 84.0673 60.5393C84.0465 60.5073 84.0263 60.4748 84.0045 60.4428C83.9645 60.3844 83.9214 60.3264 83.8778 60.2685C83.8586 60.2431 83.8408 60.2177 83.8211 60.1928C83.7486 60.1009 83.6701 60.0104 83.588 59.9205C83.5668 59.8976 83.5445 59.8748 83.5227 59.8519C83.4578 59.7833 83.39 59.7157 83.319 59.6487C83.2866 59.6182 83.2542 59.5872 83.2208 59.5572C83.1787 59.5191 83.1356 59.482 83.0916 59.4444C83.051 59.4099 83.01 59.3748 82.9675 59.3403C82.9219 59.3032 82.8747 59.2666 82.8271 59.23C82.783 59.1965 82.7395 59.1629 82.6939 59.1299C82.6442 59.0938 82.5931 59.0583 82.5419 59.0227C82.4948 58.9902 82.4472 58.9577 82.3985 58.9257C82.3453 58.8906 82.2906 58.8566 82.2354 58.822C82.167 58.7793 82.0991 58.7362 82.0277 58.6945C81.8332 58.5812 81.6295 58.476 81.4218 58.3754C81.3676 58.349 81.3124 58.3231 81.2571 58.2977C81.0697 58.2108 80.8782 58.1285 80.6821 58.0518Z" fill="#CC096A"/>
<path d="M81.979 63.8909L81.9851 66.0715L85.7441 68.2624L85.7381 66.0817L81.979 63.8909Z" fill="#CC096A"/>
<path d="M85.7376 66.0815L85.7436 68.2617C88.5659 66.6277 89.9748 64.4831 89.9687 62.342L89.9627 60.1619C89.9687 62.3029 88.5599 64.4475 85.7376 66.0815Z" fill="#CC096A"/>
<path d="M65.5667 54.3233L69.3257 56.5141C72.8436 54.4772 78.5287 54.4772 82.0238 56.5141C85.5189 58.551 85.5007 61.854 81.9828 63.8909L85.7413 66.0817C91.3499 62.8341 91.3783 57.5699 85.8077 54.3233C80.237 51.0767 71.1754 51.0756 65.5667 54.3233Z" fill="#FF5668"/>
<path d="M69.3215 57.1821L69.3281 58.6947C67.559 59.719 66.675 61.0638 66.6791 62.4072L66.6725 60.227C66.6689 58.8837 67.5525 58.2064 69.3215 57.1821Z" fill="#3278CC"/>
<path d="M65.611 66.8114L65.6171 68.3245L69.4004 66.1337L69.3943 64.6206L65.611 66.8114Z" fill="#3278CC"/>
<path d="M61.3506 60.495C61.3546 60.5676 61.3592 60.6398 61.3663 60.7119C61.3723 60.7749 61.381 60.8374 61.3896 60.8999C61.3997 60.9715 61.4103 61.0437 61.4235 61.1153C61.4352 61.1783 61.4488 61.2418 61.463 61.3048C61.4787 61.375 61.4949 61.4451 61.5137 61.5147C61.5304 61.5777 61.5497 61.6412 61.5689 61.7042C61.5902 61.7738 61.6135 61.8429 61.6378 61.912C61.6596 61.974 61.6834 62.036 61.7077 62.0974C61.7366 62.1701 61.7665 62.2428 61.7989 62.3149C61.8258 62.3754 61.8541 62.4358 61.8835 62.4963C61.9185 62.5684 61.956 62.6401 61.9945 62.7117C62.0259 62.7696 62.0573 62.8276 62.0907 62.8855C62.1404 62.9708 62.1935 63.0557 62.2478 63.1405C62.2807 63.1919 62.3126 63.2432 62.3476 63.294C62.4114 63.3875 62.4798 63.4794 62.5497 63.5719C62.5801 63.612 62.6085 63.6527 62.6399 63.6923C62.7559 63.8386 62.88 63.9834 63.0112 64.1267C63.0452 64.1633 63.0811 64.1999 63.1161 64.2365C63.2194 64.3452 63.3273 64.4534 63.4403 64.5601C63.4915 64.6089 63.5431 64.6572 63.5963 64.7054C63.6637 64.7664 63.7331 64.8263 63.8035 64.8863C63.8679 64.9417 63.9327 64.9966 64.0001 65.0509C64.0731 65.1104 64.1485 65.1688 64.2245 65.2272C64.2944 65.2806 64.3649 65.3339 64.4373 65.3868C64.5163 65.4442 64.5974 65.5011 64.6795 65.5575C64.7544 65.6093 64.8304 65.6611 64.9079 65.7124C64.9925 65.7683 65.0802 65.8227 65.1678 65.8776C65.2773 65.9456 65.3852 66.0142 65.4991 66.0808C65.5361 66.1026 65.5736 66.1219 65.6106 66.1438L65.6172 68.3245C65.5797 68.3026 65.5422 68.2828 65.5052 68.261C65.4465 68.2264 65.3882 68.1924 65.3304 68.1578C65.2767 68.1253 65.2271 68.0913 65.1744 68.0582C65.0863 68.0034 64.9986 67.9485 64.9135 67.8926C64.836 67.8418 64.761 67.79 64.686 67.7381C64.604 67.6812 64.5224 67.6248 64.4434 67.5669C64.3709 67.5141 64.301 67.4607 64.2311 67.4074C64.1551 67.349 64.0796 67.2905 64.0067 67.2311C63.9393 67.1767 63.8745 67.1218 63.8096 67.0665C63.7392 67.0065 63.6703 66.9466 63.6029 66.8856C63.5756 66.8607 63.5452 66.8363 63.5178 66.8114C63.4925 66.788 63.4712 66.7636 63.4464 66.7403C63.3339 66.6336 63.2255 66.5254 63.1222 66.4166C63.0872 66.38 63.0512 66.344 63.0173 66.3069C62.8861 66.1636 62.762 66.0188 62.6459 65.8725C62.6409 65.8664 62.6353 65.8603 62.6302 65.8542C62.6039 65.8207 62.5816 65.7861 62.5558 65.7521C62.4859 65.6601 62.4175 65.5676 62.3536 65.4741C62.3187 65.4233 62.2868 65.3715 62.2538 65.3202C62.1996 65.2359 62.1464 65.151 62.0968 65.0656C62.0831 65.0423 62.0674 65.0199 62.0542 64.9965C62.035 64.962 62.0188 64.9264 62 64.8919C61.9615 64.8202 61.9245 64.7486 61.8896 64.677C61.8602 64.6165 61.8318 64.5555 61.805 64.4946C61.7726 64.4224 61.7427 64.3503 61.7138 64.2776C61.7011 64.2451 61.6849 64.2126 61.6728 64.1801C61.6616 64.1511 61.654 64.1216 61.6439 64.0922C61.6196 64.0231 61.5968 63.954 61.5755 63.8849C61.5562 63.8219 61.5365 63.7584 61.5198 63.6949C61.501 63.6252 61.4848 63.5551 61.4691 63.4855C61.4605 63.4479 61.4493 63.4098 61.4417 63.3722C61.4367 63.3468 61.4341 63.3209 61.4296 63.2955C61.4164 63.2239 61.4058 63.1522 61.3956 63.0806C61.387 63.0176 61.3784 62.9551 61.3723 62.8921C61.3652 62.8199 61.3607 62.7478 61.3566 62.6756C61.3541 62.6335 61.3485 62.5908 61.3475 62.5486C61.3465 62.5065 61.3455 62.4648 61.3455 62.4226L61.3394 60.2419C61.3394 60.3263 61.346 60.4106 61.3506 60.495Z" fill="#3278CC"/>
<path d="M65.5636 54.9907C59.9565 58.2373 59.9286 63.5015 65.4992 66.7482C65.5362 66.77 65.5732 66.7898 65.6107 66.8117L69.3945 64.6208C69.3575 64.599 69.3196 64.5797 69.2826 64.5578C65.7875 62.5209 65.8062 59.2179 69.3226 57.1821L65.5636 54.9907Z" fill="#58AFFB"/>
<path d="M67.7342 69.3187C67.5777 69.2588 67.4232 69.1957 67.2702 69.1317C67.1785 69.0931 67.0868 69.0545 66.9966 69.0149C66.8345 68.9432 66.6749 68.8685 66.5169 68.7923C66.4414 68.7563 66.3649 68.7217 66.2904 68.6841C66.0609 68.5688 65.835 68.4494 65.6151 68.3239L65.609 67.8376C65.8284 67.9631 66.0543 68.082 66.2838 68.1974C66.3583 68.235 66.4353 68.27 66.5113 68.3066C66.6688 68.3828 66.8279 68.457 66.99 68.5286C67.0802 68.5688 67.1724 68.6064 67.2641 68.645C67.4171 68.709 67.5716 68.7725 67.7281 68.8325C67.8239 68.8696 67.9207 68.9051 68.0174 68.9407C68.1775 68.9991 68.3396 69.055 68.5027 69.1094C68.6056 69.1434 68.7074 69.179 68.8113 69.2115C68.8893 69.2359 68.9683 69.2593 69.0474 69.2831C69.1912 69.3263 69.3361 69.3685 69.482 69.4086C69.5631 69.431 69.6441 69.4528 69.7257 69.4742C69.8797 69.5143 70.0347 69.5529 70.1908 69.59C70.2627 69.6073 70.3341 69.6251 70.4066 69.6413C70.634 69.6927 70.8686 69.7419 71.0996 69.7861V70.2724C70.8686 70.2282 70.6396 70.1789 70.4121 70.1276C70.3402 70.1113 70.2693 70.093 70.1979 70.0763C70.0418 70.0392 69.8863 70.0011 69.7318 69.9609C69.6502 69.9396 69.5692 69.9172 69.4881 69.8949C69.3422 69.8547 69.1978 69.8131 69.0539 69.7699C68.9749 69.746 68.8959 69.7221 68.8174 69.6977C68.7768 69.685 68.7353 69.6733 68.6953 69.6606C68.6324 69.6403 68.5716 69.6169 68.5088 69.5961C68.3457 69.5418 68.1836 69.4859 68.0235 69.4274C67.9262 69.3919 67.83 69.3558 67.7342 69.3187Z" fill="#E2A029"/>
<path d="M65.6114 67.8381C67.2133 68.7521 69.0943 69.4004 71.0964 69.786L72.8457 66.8549C71.5878 66.6182 70.4034 66.2153 69.3952 65.6472L65.6114 67.8381Z" fill="#FFBE3D"/>
<path d="M71.7121 69.4699C71.8555 69.4933 71.9984 69.5176 72.1428 69.5385C72.3105 69.5629 72.4802 69.5827 72.6494 69.6035C72.7932 69.6213 72.9366 69.6401 73.0815 69.6553C73.349 69.6833 73.6175 69.7066 73.887 69.7254C73.9113 69.727 73.9346 69.73 73.9589 69.7315C74.2573 69.7514 74.5567 69.7651 74.8561 69.7742C74.9321 69.7768 75.0086 69.7773 75.0846 69.7788C75.3055 69.7834 75.5269 69.7854 75.7478 69.7844C75.8395 69.7839 75.9307 69.7829 76.0224 69.7813C76.2665 69.7773 76.5107 69.7696 76.7544 69.7585C76.801 69.7564 76.8476 69.7554 76.8942 69.7529C77.182 69.7381 77.4687 69.7173 77.755 69.6924C77.8304 69.6858 77.9054 69.6777 77.9809 69.6706C78.2023 69.6492 78.4237 69.6243 78.6435 69.5969C78.7231 69.5867 78.8026 69.5771 78.8822 69.5664C79.1674 69.5278 79.4511 69.4851 79.7327 69.4363C79.7348 69.4358 79.7368 69.4363 79.7388 69.4358C80.0185 69.3871 80.2951 69.3317 80.5702 69.2727C80.6684 69.2519 80.7652 69.2285 80.8625 69.2062C81.0509 69.163 81.2384 69.1183 81.4243 69.0705C81.5261 69.0441 81.6275 69.0172 81.7283 68.9897C81.8894 68.9455 82.0484 68.8983 82.207 68.8505C82.3524 68.8068 82.4978 68.7616 82.6412 68.7149C82.7876 68.6671 82.9325 68.6168 83.0763 68.5655C83.2177 68.5152 83.3585 68.4649 83.4973 68.4116C83.7086 68.3303 83.9183 68.2474 84.1235 68.1595C84.1438 68.1509 84.165 68.1428 84.1853 68.1341C84.4254 68.03 84.66 67.9192 84.891 67.8049C84.9467 67.7775 85.0025 67.749 85.0577 67.7206C85.2887 67.6027 85.5172 67.4823 85.7381 67.3542L85.7441 68.2622C85.5233 68.3902 85.2948 68.5111 85.0638 68.629C85.0085 68.657 84.9533 68.6854 84.8971 68.7128C84.6661 68.8272 84.4315 68.9379 84.1914 69.0421C84.1711 69.0507 84.1504 69.0588 84.1301 69.0675C83.9781 69.1325 83.8256 69.1965 83.6706 69.258C83.6159 69.2793 83.5591 69.2976 83.5039 69.319C83.3646 69.3723 83.2233 69.4236 83.0814 69.4739C82.938 69.5248 82.7937 69.5751 82.6478 69.6228C82.5039 69.6701 82.358 69.7143 82.2121 69.7585C82.1234 69.7854 82.0368 69.8154 81.9471 69.8413C81.8772 69.8611 81.8058 69.8784 81.7354 69.8977C81.634 69.9256 81.5322 69.952 81.4299 69.9785C81.2445 70.0262 81.0575 70.0709 80.8691 70.1141C80.7713 70.1365 80.6745 70.1598 80.5762 70.1807C80.5332 70.1898 80.4916 70.2005 80.4486 70.2096C80.216 70.2579 79.9815 70.3021 79.7454 70.3433C79.7424 70.3438 79.7398 70.3443 79.7368 70.3448C79.5043 70.3849 79.2702 70.422 79.0351 70.4555C78.9865 70.4627 78.9374 70.4677 78.8887 70.4743C78.8092 70.485 78.7292 70.4947 78.6496 70.5048C78.4298 70.5323 78.2084 70.5572 77.987 70.5785C77.9115 70.5856 77.8365 70.5937 77.761 70.6003C77.722 70.6039 77.684 70.6085 77.645 70.6115C77.3978 70.6318 77.1496 70.6486 76.9008 70.6613C76.8537 70.6639 76.8061 70.6644 76.759 70.6664C76.5852 70.6745 76.4109 70.6827 76.2367 70.6872C76.1672 70.6888 76.0978 70.6882 76.0284 70.6893C75.9367 70.6908 75.8456 70.6918 75.7539 70.6923C75.533 70.6933 75.3116 70.6913 75.0907 70.6867C75.0147 70.6852 74.9382 70.6847 74.8622 70.6821C74.8313 70.6811 74.8014 70.6816 74.7705 70.6806C74.5015 70.6715 74.233 70.6573 73.9655 70.6395C73.9412 70.6379 73.9169 70.6349 73.8926 70.6334C73.6555 70.6166 73.4194 70.5978 73.1838 70.5744C73.1519 70.5714 73.1195 70.5668 73.0876 70.5633C72.9427 70.548 72.7993 70.5292 72.6549 70.5114C72.4857 70.4906 72.3165 70.4708 72.1488 70.4464C72.0045 70.4256 71.8616 70.4012 71.7182 70.3778C71.5946 70.3575 71.4695 70.3407 71.3469 70.3184C71.2648 70.3036 71.1827 70.2879 71.1012 70.2721L71.0951 69.3642C71.2988 69.4033 71.506 69.4363 71.7121 69.4699Z" fill="#1C9C50"/>
<path d="M72.8446 66.4308L71.0953 69.3619C76.0646 70.3191 81.7675 69.651 85.7383 67.352L81.9793 65.1611C79.502 66.5954 75.9491 67.0176 72.8446 66.4308Z" fill="#2CC068"/>
<path d="M68.6833 114.029C62.4724 117.625 62.4325 123.457 68.603 127.053C74.7735 130.65 84.8199 130.65 91.0309 127.053C97.2419 123.457 97.2674 117.625 91.0969 114.029C84.9264 110.432 74.8943 110.432 68.6833 114.029Z" fill="#E3E7EC"/>
<path d="M117.479 23.8517C118.874 24.6592 120.005 26.6238 120 28.2304L119.972 52.7119C119.968 54.3185 118.83 54.9692 117.435 54.1617L110.628 50.2201L110.297 50.6835L108.969 52.5585L107.651 49.1511L107.324 48.3068L100.516 44.3652C99.1219 43.5578 97.9952 41.596 98 39.9893L98.0277 15.5079C98.0325 13.9013 99.1662 13.2478 100.561 14.0553L117.479 23.8517Z" fill="#2CC068"/>
<path d="M105.675 24.1143L105.673 24.8038C105.671 25.2096 105.233 25.4621 104.883 25.2582L101.643 23.3734C101.48 23.2784 101.38 23.1042 101.381 22.9155L101.383 22.226C101.384 21.8202 101.823 21.5677 102.173 21.7716L105.413 23.6564C105.575 23.7508 105.676 23.9256 105.675 24.1143Z" fill="white"/>
<path d="M115.926 33.4734L115.924 34.1644C115.923 34.5702 115.485 34.822 115.135 34.6194L101.636 26.8028C101.473 26.7084 101.372 26.5336 101.373 26.3442L101.375 25.654C101.377 25.2482 101.814 24.9964 102.164 25.1989L115.663 33.0149C115.827 33.1092 115.927 33.284 115.926 33.4734Z" fill="white"/>
<path d="M104.86 33.204L104.857 33.9934L103.03 40.2534L102.247 39.8004L104.067 33.5529L101.68 32.171L101.682 31.3643L104.86 33.204Z" fill="white"/>
<path d="M108.574 35.3538L108.572 36.1606L106.509 34.966L106.389 37.3912C106.616 37.0797 106.964 37.0541 107.438 37.3288C108.341 37.8518 108.738 38.8466 108.735 40.0009L108.731 41.5798C108.727 42.8208 108.213 43.3314 107.143 42.7119C106.066 42.0883 105.565 40.9901 105.568 39.7491L105.57 39.2108L106.308 39.6381L106.306 40.2368C106.304 40.9658 106.559 41.5569 107.123 41.8836C107.681 42.2062 107.945 41.9162 107.947 41.1871L107.952 39.6166C107.954 38.8875 107.692 38.2923 107.134 37.9697C106.706 37.7214 106.411 37.8289 106.342 38.3797L106.341 38.5622L105.603 38.1348L105.811 33.7534L108.574 35.3538Z" fill="white"/>
<path d="M113.91 41.4341C114.603 41.835 114.91 42.5343 114.908 43.3064L114.901 45.8495C114.899 46.6389 114.589 46.9802 113.896 46.5793C113.21 46.1825 112.889 45.4742 112.891 44.6848L112.898 42.1423C112.9 41.3702 113.225 41.0373 113.91 41.4341ZM114.396 45.6088L114.403 42.9796C114.405 42.537 114.255 42.1638 113.909 41.9634C113.555 41.7587 113.403 41.9571 113.402 42.3997L113.395 45.0295C113.393 45.4631 113.543 45.8544 113.897 46.059C114.244 46.2595 114.395 46.0423 114.396 45.6088Z" fill="white"/>
<path d="M111.461 40.8493C111.459 41.6304 111.134 41.9634 110.449 41.5666C109.771 41.174 109.449 40.4664 109.451 39.6853L109.458 37.1255C109.46 36.3534 109.785 36.0107 110.463 36.4034C111.149 36.8002 111.47 37.5174 111.468 38.2895L111.461 40.8493ZM110.957 40.601L110.964 37.9628C110.965 37.5292 110.816 37.138 110.462 36.9333C110.1 36.7238 109.964 36.9493 109.962 37.3829L109.955 40.021C109.954 40.4636 110.088 40.8278 110.45 41.0373C110.804 41.2419 110.956 41.0435 110.957 40.601Z" fill="white"/>
<path d="M113.317 38.0991L113.784 38.3697L110.998 44.8655L110.523 44.5908L113.317 38.0991Z" fill="white"/>
<path d="M25.8753 38.1686C25.1034 38.6153 24.4806 39.6974 24.4831 40.587L24.5335 58.3103C24.536 59.1999 25.1626 59.5576 25.9345 59.111L51.7992 44.1347C52.5711 43.688 53.1939 42.6059 53.1914 41.7163L53.1411 23.993C53.1386 23.1034 52.512 22.7456 51.7401 23.1923L25.8753 38.1686Z" fill="#4DAFEA"/>
<path d="M44.9793 31.5745C47.3617 30.1947 49.6176 30.5467 50.5493 32.7209C51.7157 35.4389 50.3895 40.0182 47.5825 43.1848L46.9308 41.6643C48.8325 39.4396 49.7177 36.2945 48.9112 34.4149C48.2538 32.8818 46.6647 32.6345 44.985 33.6067C44.5754 33.8439 44.1608 34.1537 43.7532 34.5348L43.1014 33.0143C43.7217 32.4162 44.3552 31.936 44.9793 31.5745Z" fill="#F1F1F1"/>
<path d="M43.1036 33.0142L43.754 34.5334C43.6515 34.6293 43.549 34.7297 43.4477 34.835C41.2861 37.0685 40.2305 40.4995 41.0879 42.5014C41.1194 42.5727 41.1527 42.6421 41.1886 42.7096C41.2012 42.7342 41.2144 42.7569 41.2282 42.7809C41.8535 43.8844 43.0513 44.1538 44.3794 43.62C44.5863 43.5374 44.7977 43.4339 45.0103 43.3109C45.067 43.2781 45.1242 43.2434 45.1808 43.208C45.2846 43.1431 45.3633 43.0894 45.4413 43.0364L45.4771 43.0112C45.6476 42.8907 45.8168 42.7595 45.9873 42.6131C46.0081 42.5948 46.0295 42.5759 46.0515 42.5569C46.1144 42.5014 46.1767 42.4446 46.2396 42.3866C46.2629 42.3651 46.2862 42.3437 46.3094 42.321C46.3912 42.2434 46.473 42.1632 46.5535 42.0806C46.6844 41.9449 46.8096 41.8061 46.9322 41.6642L47.584 43.1847C47.4601 43.3241 47.3342 43.4636 47.2046 43.5967C47.0889 43.7159 46.9725 43.8301 46.8555 43.9406C46.8228 43.9721 46.7901 44.0036 46.7561 44.0346C46.6674 44.1172 46.5774 44.198 46.4875 44.2768C46.4573 44.304 46.4277 44.3305 46.3975 44.3557C46.1559 44.562 45.9125 44.7513 45.6709 44.921C45.652 44.9355 45.6325 44.9481 45.6137 44.9608C45.5029 45.039 45.3928 45.1109 45.2834 45.1803L45.245 45.2037C45.1695 45.2504 45.0946 45.2958 45.0198 45.3393C44.8411 45.4428 44.6631 45.5368 44.4857 45.6213C44.3517 45.6844 44.2265 45.7387 44.1007 45.7892C42.0743 46.5949 40.2613 46.0863 39.4504 44.1936C38.2331 41.355 39.7322 36.4855 42.7966 33.3176C42.8991 33.2129 43.001 33.112 43.1036 33.0142Z" fill="#298CC8"/>
<path d="M33.7905 41.8048L33.7918 42.2704C33.7924 42.5442 34.0887 42.7146 34.3253 42.5771L36.5127 41.3045C36.6228 41.2408 36.6901 41.1228 36.6894 40.9953L36.6882 40.5303C36.6876 40.2565 36.3913 40.0862 36.1547 40.2237L33.9673 41.4963C33.8572 41.56 33.7899 41.6774 33.7905 41.8048Z" fill="white"/>
<path d="M26.8733 48.123L26.8745 48.5886C26.8752 48.8624 27.1708 49.0328 27.4074 48.8958L36.5199 43.62C36.6299 43.5563 36.6979 43.4377 36.6973 43.3103L36.696 42.8446C36.6954 42.5708 36.3997 42.3998 36.1632 42.5367L27.0507 47.8132C26.9406 47.8769 26.8726 47.9955 26.8733 48.123Z" fill="white"/>
<path d="M30.642 50.5781L30.6432 51.0437C30.6438 51.3176 30.9395 51.4886 31.1761 51.3516L36.5316 48.2506C36.6417 48.1869 36.7096 48.0683 36.709 47.9409L36.7077 47.4752C36.7071 47.2014 36.4114 47.0304 36.1749 47.1673L30.8194 50.2683C30.7093 50.3321 30.6413 50.4507 30.642 50.5781Z" fill="white"/>
<path d="M28.2901 49.619L28.2914 50.0853C28.292 50.3591 28.5877 50.5295 28.8242 50.3926L36.5238 45.9344C36.6339 45.8707 36.7018 45.7527 36.7012 45.6253L36.6999 45.159C36.6993 44.8852 36.4036 44.7149 36.1671 44.8518L28.4675 49.3099C28.3575 49.3736 28.2895 49.4916 28.2901 49.619Z" fill="#298CC8"/>
<path d="M71.8682 123.166L69.4329 123.78L67.5093 122.194L69.3387 121.084C68.9317 120.535 68.6684 119.959 68.5482 119.375L66 118.941L66.2921 117.013L68.9281 116.841C69.2203 116.281 69.6518 115.74 70.2237 115.237L68.757 113.961L71.1281 112.592L73.3379 113.439C74.21 113.108 75.147 112.859 76.1172 112.691L76.414 111.169L79.7546 111L80.5057 112.471C81.5173 112.541 82.5142 112.693 83.4652 112.928L85.3881 111.871L88.1349 112.982L87.0722 114.388C87.7921 114.831 88.3788 115.319 88.8318 115.836L91.4802 115.74L92.348 117.611L89.9702 118.293C90.0267 118.883 89.9377 119.477 89.7039 120.055L91.8397 120.965L90.4224 122.72L87.8421 122.36C87.5387 122.594 87.2046 122.818 86.8368 123.031C86.4688 123.243 86.08 123.436 85.6755 123.611L86.2985 125.101L83.2593 125.919L81.6833 124.686C80.6817 124.821 79.6532 124.872 78.6311 124.839L77.4492 126.213L74.2103 125.711L74.3756 124.182C73.4796 123.921 72.6345 123.582 71.8682 123.166ZM83.1956 120.928C85.3863 119.663 85.3863 117.613 83.1956 116.348C81.0049 115.083 77.4528 115.083 75.2621 116.348C73.0714 117.613 73.0714 119.663 75.2621 120.928C77.4528 122.193 81.0049 122.193 83.1956 120.928Z" fill="#2CC068"/>
<path d="M70.1093 115.136L70.2246 115.237C69.8275 115.586 69.4998 115.954 69.2376 116.334L69.1414 116.25L68.7578 115.916V113.961L70.1093 115.136Z" fill="#1C9C50"/>
<path d="M75.2611 116.348C77.4518 115.083 81.0038 115.083 83.1945 116.348C84.7262 117.232 85.1854 118.5 84.5753 119.616C84.3128 119.136 83.8536 118.684 83.1945 118.303C81.0038 117.039 77.4518 117.039 75.2611 118.303C74.602 118.684 74.1428 119.136 73.8801 119.616C73.27 118.5 73.7294 117.232 75.2611 116.348Z" fill="#1C9C50"/>
<path d="M89.7031 120.055C89.9369 119.477 90.0259 118.883 89.9694 118.293L92.3472 117.611V119.567C92.3432 119.567 90.0818 120.216 90.0818 120.216L89.7031 120.055Z" fill="#1C9C50"/>
<path d="M69.4333 123.78L71.8686 123.166C72.6349 123.582 73.48 123.921 74.376 124.182L74.2107 125.711L77.4497 126.213L78.6315 124.84C79.6536 124.872 80.6821 124.821 81.6837 124.686L83.2597 125.919L86.2989 125.101L85.6759 123.611C86.0804 123.436 86.4692 123.243 86.8372 123.031C87.2051 122.818 87.5391 122.594 87.8425 122.36L90.4229 122.72L90.665 122.42L91.8401 122.921L90.4229 124.676L87.8425 124.316C87.5391 124.549 87.2051 124.774 86.8372 124.986C86.4692 125.199 86.0804 125.392 85.6759 125.567L86.2989 127.057L83.2597 127.875L81.6837 126.642C80.6821 126.777 79.6536 126.828 78.6315 126.795L77.4497 128.168L74.2107 127.667L74.376 126.138C73.48 125.877 72.6349 125.538 71.8686 125.122L69.4333 125.736L67.5098 124.15L68.8761 123.321L69.4333 123.78Z" fill="#1C9C50"/>
<path d="M66.2888 118.991L68.5482 119.375C68.6684 119.959 68.9317 120.535 69.3387 121.084L68.5964 121.535C68.5786 121.467 68.5621 121.399 68.5482 121.331L66 120.897V118.941L66.2888 118.991Z" fill="#1C9C50"/>
<path d="M91.8391 120.965V122.921L90.4219 124.675V122.72L91.8391 120.965Z" fill="#1C9C50"/>
<path d="M86.2989 125.101V127.057L83.2598 127.875V125.919L86.2989 125.101Z" fill="#1C9C50"/>
<path d="M77.4499 126.213V128.168L74.2109 127.667V125.711L77.4499 126.213Z" fill="#1C9C50"/>
<path d="M69.4333 123.78V125.736L67.5098 124.15V122.194L69.4333 123.78Z" fill="#1C9C50"/>
</g>
<defs>
<clipPath id="clip-p-0">
<rect width="162" height="163" fill="white" transform="matrix(-1 0 0 1 162.5 0)"/>
</clipPath>
</defs>
</svg>
