<svg width="48" height="49" viewBox="0 0 48 49" fill="none" xmlns="http://www.w3.org/2000/svg">
<path fill-rule="evenodd" clip-rule="evenodd" d="M29.7862 34.0558C30.1949 33.0137 30.9139 32.1334 31.6853 31.3223C33.4868 29.4284 34.5924 26.8665 34.5924 24.0463C34.5924 18.2148 29.865 13.4874 24.0335 13.4874C18.202 13.4874 13.4746 18.2148 13.4746 24.0463C13.4746 27.0332 14.7148 29.7303 16.7083 31.651C17.4662 32.3813 18.1555 33.2004 18.5397 34.1802C18.7853 34.8065 18.8763 35.4812 19.0202 36.1383C19.4825 38.2509 21.3645 39.8324 23.6158 39.8324H24.6613C26.8662 39.8324 28.7168 38.3156 29.2265 36.2685C29.4104 35.53 29.5084 34.7643 29.7862 34.0558Z" fill="#FFA500"/>
<path d="M42.0395 9.60665L38.0464 13.5971M23.9418 2V6.3881V2ZM2 23.9418H6.70154H2ZM45.8836 23.9418H41.1834H45.8836ZM5.84412 9.60665L9.83849 13.5971L5.84412 9.60665Z" stroke="#FFA500" stroke-width="2.92722" stroke-linecap="round" stroke-linejoin="round"/>
<path fill-rule="evenodd" clip-rule="evenodd" d="M20.3737 41.5843C19.6808 41.5843 19.1191 42.146 19.1191 42.8388V44.7206C19.1191 45.4134 19.6808 45.9751 20.3737 45.9751H20.6536C21.1178 45.9751 21.4622 46.6413 21.5666 47.0936L21.6149 47.3027C21.7462 47.8719 22.2531 48.2751 22.8373 48.2751H25.4412C26.0254 48.2751 26.5322 47.8719 26.6636 47.3027L26.7119 47.0936C26.8162 46.6413 27.1607 45.9751 27.6248 45.9751H27.9008C28.5937 45.9751 29.1553 45.4134 29.1553 44.7206V42.8388C29.1553 42.146 28.5937 41.5843 27.9008 41.5843H20.3737Z" fill="#FFA500"/>
<path d="M17.6288 23.8152C17.5046 20.5688 20.0298 17.8341 23.2754 17.6988" stroke="white" stroke-width="2.37252" stroke-linecap="round" stroke-linejoin="round"/>
</svg>
