<svg width="48" height="48" viewBox="0 0 48 48" fill="none" xmlns="http://www.w3.org/2000/svg">
<path d="M32.0482 27.819C32.2052 31.924 29.0122 35.382 24.9082 35.553" stroke="#FF7408" stroke-width="1.8" stroke-linecap="round" stroke-linejoin="round"/>
<path fill-rule="evenodd" clip-rule="evenodd" d="M23.7189 43.288C15.7869 43.288 8.24987 37.515 8.24987 30.398C8.15787 24.85 11.5539 19.841 16.7399 17.873C16.9499 17.788 17.1869 17.818 17.3679 17.952C17.5479 18.086 17.6469 18.305 17.6259 18.529C17.2629 21.303 18.3259 24.073 20.4529 25.891C20.9489 26.311 21.6799 26.295 22.1579 25.855C24.4269 23.763 29.9899 16.853 20.0559 5.78599C19.8759 5.58599 19.8399 5.29599 19.9639 5.05799C20.0879 4.81999 20.3459 4.68299 20.6129 4.71599C29.9429 5.86199 39.1879 16.388 39.1879 26.53C39.1879 35.124 34.0309 43.288 23.7179 43.288H23.7189Z" stroke="#27A870" stroke-width="1.8" stroke-linecap="round" stroke-linejoin="round"/>
</svg>
