<svg width="48" height="48" viewBox="0 0 48 48" fill="none" xmlns="http://www.w3.org/2000/svg">
<path fill-rule="evenodd" clip-rule="evenodd" d="M23.7184 40.5601C16.9082 40.5601 10.4371 35.6035 10.4371 29.4931C10.3581 24.7297 13.2738 20.4291 17.7264 18.7394C17.9067 18.6665 18.1102 18.6922 18.2656 18.8073C18.4201 18.9223 18.5051 19.1104 18.4871 19.3027C18.1754 21.6844 19.0881 24.0626 20.9143 25.6235C21.3401 25.9841 21.9677 25.9703 22.3781 25.5926C24.3262 23.7964 29.1025 17.8637 20.5734 8.36188C20.4189 8.19016 20.388 7.94118 20.4944 7.73684C20.6009 7.5325 20.8224 7.41487 21.0516 7.44321C29.0621 8.42713 36.9996 17.4645 36.9996 26.1721C36.9996 33.5507 32.572 40.5601 23.7175 40.5601H23.7184Z" fill="url(#t-paint0_linear)"/>
<path d="M30.8704 27.2788C31.0052 30.8032 28.2638 33.7722 24.7402 33.919" stroke="white" stroke-width="2.57572" stroke-linecap="round" stroke-linejoin="round"/>
<defs>
<linearGradient id="t-paint0_linear" x1="23.9597" y1="7.68705" x2="23.8303" y2="41.1676" gradientUnits="userSpaceOnUse">
<stop stop-color="#FF7A7A"/>
<stop offset="1" stop-color="#AA1515"/>
</linearGradient>
</defs>
</svg>
